<svg width="42" height="40" viewBox="0 0 42 40" fill="none" xmlns="http://www.w3.org/2000/svg">
<path d="M0 4.64652C0 3.29969 0.471393 2.18858 1.41414 1.31319C2.35688 0.437757 3.5825 6.10352e-05 5.0909 6.10352e-05C6.57239 6.10352e-05 7.77102 0.43101 8.68685 1.29299C9.6296 2.18188 10.101 3.3401 10.101 4.76773C10.101 6.06066 9.6431 7.13807 8.72726 8.00005C7.78451 8.88894 6.54544 9.33338 5.01009 9.33338H4.96969C3.4882 9.33338 2.28957 8.88894 1.37374 8.00005C0.457898 7.11116 0 5.9933 0 4.64652ZM0.525252 40V13.0101H9.49493V40H0.525252ZM14.4646 40H23.4343V24.9293C23.4343 23.9865 23.5421 23.2593 23.7575 22.7475C24.1346 21.8317 24.707 21.0572 25.4747 20.4243C26.2424 19.7913 27.2053 19.4748 28.3636 19.4748C31.3804 19.4748 32.8888 21.5084 32.8888 25.5758V40H41.8585V24.5253C41.8585 20.5387 40.9158 17.5152 39.0302 15.4546C37.1447 13.394 34.6532 12.3637 31.5555 12.3637C28.0808 12.3637 25.3737 13.8586 23.4343 16.8485V16.9293H23.3939L23.4343 16.8485V13.0101H14.4646C14.5185 13.8721 14.5454 16.5522 14.5454 21.0505C14.5454 25.5488 14.5185 31.8653 14.4646 40Z" fill="#091F5B"/>
</svg>
