<svg width="300" height="365" viewBox="0 0 300 365" fill="none" xmlns="http://www.w3.org/2000/svg">
<rect width="300" height="364.5" rx="22.5" fill="#0F33E9"/>
<circle cx="264.375" cy="316.875" r="15.75" fill="#0F33E9" stroke="white" stroke-width="0.75"/>
<path d="M269.786 318.651L268.805 318.662L268.805 314.135L261.313 321.627L260.617 320.931L268.114 313.434L263.593 313.427L263.593 312.458L269.786 312.458L269.786 318.651Z" fill="white"/>
<path d="M25.1591 44H19.614V27.6364H25.271C26.8956 27.6364 28.2912 27.964 29.4577 28.6191C30.6296 29.269 31.5298 30.2038 32.1584 31.4237C32.7869 32.6435 33.1012 34.103 33.1012 35.8022C33.1012 37.5067 32.7843 38.9716 32.1504 40.1967C31.5218 41.4219 30.6136 42.362 29.4258 43.0172C28.2433 43.6724 26.821 44 25.1591 44ZM22.5783 41.4352H25.0153C26.1552 41.4352 27.106 41.2275 27.8677 40.812C28.6294 40.3912 29.2021 39.7653 29.5856 38.9343C29.9691 38.098 30.1609 37.054 30.1609 35.8022C30.1609 34.5504 29.9691 33.5117 29.5856 32.6861C29.2021 31.8551 28.6348 31.2346 27.8837 30.8244C27.138 30.4089 26.2111 30.2012 25.1032 30.2012H22.5783V41.4352ZM39.3215 44.2477C38.5438 44.2477 37.8433 44.1092 37.2201 43.8322C36.6022 43.5499 36.1121 43.1344 35.7499 42.5858C35.393 42.0371 35.2146 41.3606 35.2146 40.5563C35.2146 39.8638 35.3424 39.2912 35.5981 38.8384C35.8538 38.3857 36.2027 38.0234 36.6448 37.7518C37.0869 37.4801 37.585 37.275 38.1389 37.1365C38.6982 36.9927 39.2762 36.8888 39.8728 36.8249C40.5919 36.7504 41.1752 36.6838 41.6226 36.6252C42.07 36.5613 42.395 36.4654 42.5974 36.3375C42.8051 36.2044 42.909 35.9993 42.909 35.7223V35.6744C42.909 35.0724 42.7306 34.6064 42.3737 34.2761C42.0168 33.9458 41.5028 33.7807 40.8316 33.7807C40.1231 33.7807 39.5612 33.9352 39.1457 34.2441C38.7355 34.5531 38.4585 34.918 38.3147 35.3388L35.6141 34.9553C35.8271 34.2095 36.1787 33.5863 36.6688 33.0856C37.1588 32.5795 37.7581 32.2013 38.4665 31.951C39.175 31.6953 39.958 31.5675 40.8156 31.5675C41.4069 31.5675 41.9955 31.6367 42.5814 31.7752C43.1673 31.9137 43.7027 32.1428 44.1874 32.4624C44.6721 32.7766 45.061 33.2054 45.354 33.7488C45.6523 34.2921 45.8014 34.9712 45.8014 35.7862V44H43.0209V42.3141H42.925C42.7492 42.655 42.5015 42.9746 42.1819 43.2729C41.8676 43.5659 41.4708 43.8029 40.9914 43.984C40.5173 44.1598 39.9607 44.2477 39.3215 44.2477ZM40.0725 42.1223C40.6531 42.1223 41.1565 42.0078 41.5827 41.7788C42.0088 41.5444 42.3364 41.2354 42.5654 40.8519C42.7998 40.4684 42.917 40.0502 42.917 39.5975V38.1513C42.8264 38.2259 42.672 38.2951 42.4536 38.359C42.2405 38.4229 42.0008 38.4789 41.7345 38.5268C41.4681 38.5748 41.2045 38.6174 40.9434 38.6547C40.6824 38.6919 40.4561 38.7239 40.2643 38.7505C39.8328 38.8091 39.4466 38.905 39.1057 39.0382C38.7648 39.1713 38.4958 39.3578 38.2987 39.5975C38.1017 39.8319 38.0031 40.1355 38.0031 40.5083C38.0031 41.041 38.1975 41.4432 38.5864 41.7148C38.9752 41.9865 39.4706 42.1223 40.0725 42.1223ZM54.8382 31.7273V33.9645H47.7829V31.7273H54.8382ZM49.5248 28.7869H52.4172V40.3086C52.4172 40.6974 52.4758 40.9957 52.593 41.2035C52.7155 41.4059 52.8753 41.5444 53.0724 41.619C53.2694 41.6935 53.4878 41.7308 53.7275 41.7308C53.9086 41.7308 54.0738 41.7175 54.2229 41.6909C54.3774 41.6642 54.4946 41.6403 54.5745 41.619L55.0619 43.8801C54.9074 43.9334 54.6863 43.992 54.3987 44.0559C54.1164 44.1199 53.7702 44.1571 53.36 44.1678C52.6356 44.1891 51.983 44.0799 51.4024 43.8402C50.8218 43.5952 50.3611 43.217 50.0202 42.7056C49.6846 42.1942 49.5194 41.555 49.5248 40.788V28.7869ZM60.7888 44.2477C60.0111 44.2477 59.3106 44.1092 58.6874 43.8322C58.0695 43.5499 57.5794 43.1344 57.2172 42.5858C56.8603 42.0371 56.6819 41.3606 56.6819 40.5563C56.6819 39.8638 56.8097 39.2912 57.0654 38.8384C57.3211 38.3857 57.67 38.0234 58.1121 37.7518C58.5542 37.4801 59.0522 37.275 59.6062 37.1365C60.1655 36.9927 60.7435 36.8888 61.3401 36.8249C62.0592 36.7504 62.6424 36.6838 63.0899 36.6252C63.5373 36.5613 63.8623 36.4654 64.0647 36.3375C64.2724 36.2044 64.3763 35.9993 64.3763 35.7223V35.6744C64.3763 35.0724 64.1978 34.6064 63.841 34.2761C63.4841 33.9458 62.97 33.7807 62.2989 33.7807C61.5904 33.7807 61.0285 33.9352 60.613 34.2441C60.2028 34.5531 59.9258 34.918 59.782 35.3388L57.0814 34.9553C57.2944 34.2095 57.646 33.5863 58.1361 33.0856C58.6261 32.5795 59.2254 32.2013 59.9338 31.951C60.6423 31.6953 61.4253 31.5675 62.2829 31.5675C62.8742 31.5675 63.4628 31.6367 64.0487 31.7752C64.6346 31.9137 65.17 32.1428 65.6547 32.4624C66.1394 32.7766 66.5283 33.2054 66.8212 33.7488C67.1195 34.2921 67.2687 34.9712 67.2687 35.7862V44H64.4881V42.3141H64.3923C64.2165 42.655 63.9688 42.9746 63.6492 43.2729C63.3349 43.5659 62.9381 43.8029 62.4587 43.984C61.9846 44.1598 61.428 44.2477 60.7888 44.2477ZM61.5398 42.1223C62.1204 42.1223 62.6238 42.0078 63.0499 41.7788C63.4761 41.5444 63.8037 41.2354 64.0327 40.8519C64.2671 40.4684 64.3843 40.0502 64.3843 39.5975V38.1513C64.2937 38.2259 64.1392 38.2951 63.9209 38.359C63.7078 38.4229 63.4681 38.4789 63.2017 38.5268C62.9354 38.5748 62.6717 38.6174 62.4107 38.6547C62.1497 38.6919 61.9233 38.7239 61.7316 38.7505C61.3001 38.8091 60.9139 38.905 60.573 39.0382C60.2321 39.1713 59.9631 39.3578 59.766 39.5975C59.5689 39.8319 59.4704 40.1355 59.4704 40.5083C59.4704 41.041 59.6648 41.4432 60.0537 41.7148C60.4425 41.9865 60.9379 42.1223 61.5398 42.1223ZM75.886 27.6364H79.5134L84.3714 39.4936H84.5632L89.4211 27.6364H93.0486V44H90.2041V32.758H90.0523L85.53 43.9521H83.4046L78.8822 32.734H78.7304V44H75.886V27.6364ZM99.6804 44.2477C98.9027 44.2477 98.2022 44.1092 97.579 43.8322C96.9611 43.5499 96.471 43.1344 96.1088 42.5858C95.7519 42.0371 95.5735 41.3606 95.5735 40.5563C95.5735 39.8638 95.7013 39.2912 95.957 38.8384C96.2127 38.3857 96.5616 38.0234 97.0037 37.7518C97.4458 37.4801 97.9438 37.275 98.4978 37.1365C99.0571 36.9927 99.6351 36.8888 100.232 36.8249C100.951 36.7504 101.534 36.6838 101.981 36.6252C102.429 36.5613 102.754 36.4654 102.956 36.3375C103.164 36.2044 103.268 35.9993 103.268 35.7223V35.6744C103.268 35.0724 103.089 34.6064 102.733 34.2761C102.376 33.9458 101.862 33.7807 101.19 33.7807C100.482 33.7807 99.9201 33.9352 99.5046 34.2441C99.0944 34.5531 98.8174 34.918 98.6736 35.3388L95.973 34.9553C96.186 34.2095 96.5376 33.5863 97.0277 33.0856C97.5177 32.5795 98.117 32.2013 98.8254 31.951C99.5339 31.6953 100.317 31.5675 101.174 31.5675C101.766 31.5675 102.354 31.6367 102.94 31.7752C103.526 31.9137 104.062 32.1428 104.546 32.4624C105.031 32.7766 105.42 33.2054 105.713 33.7488C106.011 34.2921 106.16 34.9712 106.16 35.7862V44H103.38V42.3141H103.284C103.108 42.655 102.86 42.9746 102.541 43.2729C102.227 43.5659 101.83 43.8029 101.35 43.984C100.876 44.1598 100.32 44.2477 99.6804 44.2477ZM100.431 42.1223C101.012 42.1223 101.515 42.0078 101.942 41.7788C102.368 41.5444 102.695 41.2354 102.924 40.8519C103.159 40.4684 103.276 40.0502 103.276 39.5975V38.1513C103.185 38.2259 103.031 38.2951 102.812 38.359C102.599 38.4229 102.36 38.4789 102.093 38.5268C101.827 38.5748 101.563 38.6174 101.302 38.6547C101.041 38.6919 100.815 38.7239 100.623 38.7505C100.192 38.8091 99.8055 38.905 99.4646 39.0382C99.1237 39.1713 98.8547 39.3578 98.6576 39.5975C98.4605 39.8319 98.362 40.1355 98.362 40.5083C98.362 41.041 98.5564 41.4432 98.9453 41.7148C99.3341 41.9865 99.8295 42.1223 100.431 42.1223ZM115.197 31.7273V33.9645H108.142V31.7273H115.197ZM109.884 28.7869H112.776V40.3086C112.776 40.6974 112.835 40.9957 112.952 41.2035C113.074 41.4059 113.234 41.5444 113.431 41.619C113.628 41.6935 113.847 41.7308 114.086 41.7308C114.268 41.7308 114.433 41.7175 114.582 41.6909C114.736 41.6642 114.853 41.6403 114.933 41.619L115.421 43.8801C115.266 43.9334 115.045 43.992 114.758 44.0559C114.475 44.1199 114.129 44.1571 113.719 44.1678C112.994 44.1891 112.342 44.0799 111.761 43.8402C111.181 43.5952 110.72 43.217 110.379 42.7056C110.043 42.1942 109.878 41.555 109.884 40.788V28.7869ZM125.438 38.8384V31.7273H128.331V44H125.526V41.8187H125.398C125.121 42.5059 124.666 43.0678 124.032 43.5046C123.403 43.9414 122.628 44.1598 121.707 44.1598C120.903 44.1598 120.191 43.9814 119.574 43.6245C118.961 43.2623 118.482 42.7376 118.135 42.0504C117.789 41.358 117.616 40.5217 117.616 39.5415V31.7273H120.508V39.0941C120.508 39.8718 120.722 40.4897 121.148 40.9478C121.574 41.4059 122.133 41.6349 122.826 41.6349C123.252 41.6349 123.665 41.5311 124.064 41.3233C124.464 41.1156 124.791 40.8066 125.047 40.3965C125.308 39.981 125.438 39.4616 125.438 38.8384ZM131.305 44V31.7273H134.11V33.7727H134.237C134.461 33.0643 134.845 32.5183 135.388 32.1348C135.937 31.7459 136.562 31.5515 137.266 31.5515C137.425 31.5515 137.604 31.5595 137.801 31.5755C138.003 31.5861 138.171 31.6048 138.304 31.6314V34.2921C138.182 34.2495 137.987 34.2122 137.721 34.1802C137.46 34.1429 137.207 34.1243 136.962 34.1243C136.435 34.1243 135.961 34.2388 135.54 34.4679C135.124 34.6916 134.797 35.0032 134.557 35.4027C134.317 35.8022 134.197 36.263 134.197 36.785V44H131.305ZM140.226 44V31.7273H143.118V44H140.226ZM141.68 29.9854C141.222 29.9854 140.828 29.8336 140.498 29.53C140.167 29.2211 140.002 28.8509 140.002 28.4194C140.002 27.9826 140.167 27.6124 140.498 27.3088C140.828 26.9998 141.222 26.8453 141.68 26.8453C142.144 26.8453 142.538 26.9998 142.863 27.3088C143.193 27.6124 143.358 27.9826 143.358 28.4194C143.358 28.8509 143.193 29.2211 142.863 29.53C142.538 29.8336 142.144 29.9854 141.68 29.9854ZM152.221 31.7273V33.9645H145.166V31.7273H152.221ZM146.908 28.7869H149.8V40.3086C149.8 40.6974 149.859 40.9957 149.976 41.2035C150.098 41.4059 150.258 41.5444 150.455 41.619C150.652 41.6935 150.871 41.7308 151.11 41.7308C151.291 41.7308 151.457 41.7175 151.606 41.6909C151.76 41.6642 151.877 41.6403 151.957 41.619L152.445 43.8801C152.29 43.9334 152.069 43.992 151.782 44.0559C151.499 44.1199 151.153 44.1571 150.743 44.1678C150.018 44.1891 149.366 44.0799 148.785 43.8402C148.205 43.5952 147.744 43.217 147.403 42.7056C147.067 42.1942 146.902 41.555 146.908 40.788V28.7869ZM156.438 48.6023C156.044 48.6023 155.679 48.5703 155.343 48.5064C155.013 48.4478 154.749 48.3786 154.552 48.2987L155.223 46.0455C155.644 46.168 156.02 46.2266 156.35 46.2212C156.68 46.2159 156.97 46.112 157.221 45.9096C157.476 45.7125 157.692 45.3823 157.868 44.9189L158.116 44.2557L153.665 31.7273H156.733L159.562 40.9957H159.69L162.526 31.7273H165.602L160.688 45.4862C160.459 46.136 160.156 46.6926 159.778 47.1561C159.399 47.6248 158.936 47.9817 158.387 48.2267C157.844 48.4771 157.194 48.6023 156.438 48.6023ZM21.7154 67H18.5513L24.3121 50.6364H27.9716L33.7404 67H30.5763L26.2058 53.9922H26.0779L21.7154 67ZM21.8192 60.584H30.4485V62.965H21.8192V60.584ZM45.2701 57.9712L42.6333 58.2589C42.5588 57.9925 42.4283 57.7422 42.2418 57.5078C42.0607 57.2734 41.8157 57.0843 41.5067 56.9405C41.1978 56.7967 40.8196 56.7248 40.3722 56.7248C39.7702 56.7248 39.2642 56.8553 38.854 57.1163C38.4492 57.3773 38.2495 57.7156 38.2548 58.131C38.2495 58.4879 38.38 58.7782 38.6463 59.002C38.918 59.2257 39.3654 59.4094 39.9886 59.5533L42.082 60.0007C43.2433 60.2511 44.1062 60.6479 44.6708 61.1912C45.2408 61.7346 45.5284 62.4457 45.5337 63.3246C45.5284 64.0969 45.302 64.7788 44.8546 65.37C44.4125 65.956 43.7972 66.4141 43.0089 66.7443C42.2205 67.0746 41.315 67.2397 40.2923 67.2397C38.7901 67.2397 37.581 66.9254 36.6648 66.2969C35.7486 65.663 35.2026 64.7814 35.0268 63.6522L37.8473 63.3805C37.9751 63.9345 38.2468 64.3526 38.6623 64.6349C39.0778 64.9173 39.6184 65.0584 40.2843 65.0584C40.9714 65.0584 41.5227 64.9173 41.9382 64.6349C42.359 64.3526 42.5694 64.0037 42.5694 63.5882C42.5694 63.2367 42.4336 62.9464 42.1619 62.7173C41.8956 62.4883 41.4801 62.3125 40.9155 62.19L38.8221 61.7505C37.6449 61.5055 36.774 61.0927 36.2093 60.5121C35.6447 59.9261 35.3651 59.1857 35.3704 58.2908C35.3651 57.5344 35.5701 56.8793 35.9856 56.3253C36.4064 55.766 36.9897 55.3345 37.7354 55.0309C38.4865 54.7219 39.3521 54.5675 40.3322 54.5675C41.7704 54.5675 42.9023 54.8738 43.728 55.4863C44.5589 56.0989 45.073 56.9272 45.2701 57.9712ZM57.6187 57.9712L54.982 58.2589C54.9074 57.9925 54.7769 57.7422 54.5905 57.5078C54.4094 57.2734 54.1643 57.0843 53.8554 56.9405C53.5464 56.7967 53.1682 56.7248 52.7208 56.7248C52.1189 56.7248 51.6128 56.8553 51.2027 57.1163C50.7979 57.3773 50.5981 57.7156 50.6034 58.131C50.5981 58.4879 50.7286 58.7782 50.9949 59.002C51.2666 59.2257 51.714 59.4094 52.3373 59.5533L54.4307 60.0007C55.5919 60.2511 56.4548 60.6479 57.0194 61.1912C57.5894 61.7346 57.877 62.4457 57.8824 63.3246C57.877 64.0969 57.6507 64.7788 57.2032 65.37C56.7611 65.956 56.1459 66.4141 55.3575 66.7443C54.5692 67.0746 53.6636 67.2397 52.6409 67.2397C51.1388 67.2397 49.9296 66.9254 49.0134 66.2969C48.0972 65.663 47.5512 64.7814 47.3754 63.6522L50.1959 63.3805C50.3238 63.9345 50.5954 64.3526 51.0109 64.6349C51.4264 64.9173 51.9671 65.0584 52.6329 65.0584C53.32 65.0584 53.8714 64.9173 54.2868 64.6349C54.7077 64.3526 54.9181 64.0037 54.9181 63.5882C54.9181 63.2367 54.7822 62.9464 54.5106 62.7173C54.2442 62.4883 53.8287 62.3125 53.2641 62.19L51.1707 61.7505C49.9935 61.5055 49.1226 61.0927 48.558 60.5121C47.9933 59.9261 47.7137 59.1857 47.719 58.2908C47.7137 57.5344 47.9188 56.8793 48.3343 56.3253C48.7551 55.766 49.3383 55.3345 50.0841 55.0309C50.8351 54.7219 51.7007 54.5675 52.6808 54.5675C54.1191 54.5675 55.251 54.8738 56.0766 55.4863C56.9076 56.0989 57.4216 56.9272 57.6187 57.9712ZM65.7006 67.2397C64.4702 67.2397 63.4075 66.984 62.5126 66.4727C61.623 65.956 60.9386 65.2262 60.4592 64.2834C59.9798 63.3352 59.7401 62.2193 59.7401 60.9355C59.7401 59.6731 59.9798 58.5652 60.4592 57.6117C60.9439 56.6529 61.6204 55.9071 62.4886 55.3745C63.3569 54.8365 64.377 54.5675 65.5488 54.5675C66.3052 54.5675 67.019 54.69 67.6902 54.935C68.3667 55.1747 68.9632 55.5476 69.4799 56.0536C70.002 56.5597 70.4121 57.2042 70.7104 57.9872C71.0087 58.7649 71.1578 59.6918 71.1578 60.7678V61.6547H61.0984V59.7051H68.3853C68.38 59.1511 68.2601 58.6584 68.0257 58.2269C67.7914 57.7901 67.4638 57.4466 67.043 57.1962C66.6275 56.9458 66.1428 56.8207 65.5888 56.8207C64.9975 56.8207 64.4782 56.9645 64.0307 57.2521C63.5833 57.5344 63.2344 57.9073 62.984 58.3707C62.739 58.8288 62.6138 59.3322 62.6085 59.8809V61.5827C62.6085 62.2965 62.739 62.9091 63 63.4205C63.261 63.9265 63.6259 64.3153 64.0946 64.587C64.5634 64.8533 65.112 64.9865 65.7406 64.9865C66.1614 64.9865 66.5423 64.9279 66.8832 64.8107C67.2241 64.6882 67.5197 64.5098 67.7701 64.2754C68.0204 64.041 68.2095 63.7507 68.3374 63.4045L71.038 63.7081C70.8675 64.4219 70.5426 65.0451 70.0632 65.5778C69.5891 66.1051 68.9819 66.5153 68.2415 66.8082C67.5011 67.0959 66.6541 67.2397 65.7006 67.2397ZM83.3047 57.9712L80.668 58.2589C80.5934 57.9925 80.4629 57.7422 80.2765 57.5078C80.0954 57.2734 79.8504 57.0843 79.5414 56.9405C79.2325 56.7967 78.8543 56.7248 78.4068 56.7248C77.8049 56.7248 77.2989 56.8553 76.8887 57.1163C76.4839 57.3773 76.2841 57.7156 76.2895 58.131C76.2841 58.4879 76.4146 58.7782 76.681 59.002C76.9526 59.2257 77.4001 59.4094 78.0233 59.5533L80.1167 60.0007C81.2779 60.2511 82.1408 60.6479 82.7055 61.1912C83.2754 61.7346 83.5631 62.4457 83.5684 63.3246C83.5631 64.0969 83.3367 64.7788 82.8892 65.37C82.4471 65.956 81.8319 66.4141 81.0435 66.7443C80.2552 67.0746 79.3497 67.2397 78.3269 67.2397C76.8248 67.2397 75.6156 66.9254 74.6994 66.2969C73.7832 65.663 73.2373 64.7814 73.0615 63.6522L75.882 63.3805C76.0098 63.9345 76.2815 64.3526 76.697 64.6349C77.1124 64.9173 77.6531 65.0584 78.3189 65.0584C79.0061 65.0584 79.5574 64.9173 79.9729 64.6349C80.3937 64.3526 80.6041 64.0037 80.6041 63.5882C80.6041 63.2367 80.4683 62.9464 80.1966 62.7173C79.9303 62.4883 79.5148 62.3125 78.9502 62.19L76.8568 61.7505C75.6796 61.5055 74.8086 61.0927 74.244 60.5121C73.6794 59.9261 73.3997 59.1857 73.4051 58.2908C73.3997 57.5344 73.6048 56.8793 74.0203 56.3253C74.4411 55.766 75.0244 55.3345 75.7701 55.0309C76.5212 54.7219 77.3868 54.5675 78.3669 54.5675C79.8051 54.5675 80.937 54.8738 81.7627 55.4863C82.5936 56.0989 83.1076 56.9272 83.3047 57.9712ZM95.6534 57.9712L93.0166 58.2589C92.9421 57.9925 92.8116 57.7422 92.6251 57.5078C92.444 57.2734 92.199 57.0843 91.89 56.9405C91.5811 56.7967 91.2029 56.7248 90.7555 56.7248C90.1535 56.7248 89.6475 56.8553 89.2373 57.1163C88.8325 57.3773 88.6328 57.7156 88.6381 58.131C88.6328 58.4879 88.7633 58.7782 89.0296 59.002C89.3013 59.2257 89.7487 59.4094 90.3719 59.5533L92.4653 60.0007C93.6266 60.2511 94.4895 60.6479 95.0541 61.1912C95.6241 61.7346 95.9117 62.4457 95.917 63.3246C95.9117 64.0969 95.6853 64.7788 95.2379 65.37C94.7958 65.956 94.1805 66.4141 93.3922 66.7443C92.6038 67.0746 91.6983 67.2397 90.6756 67.2397C89.1734 67.2397 87.9643 66.9254 87.0481 66.2969C86.1319 65.663 85.5859 64.7814 85.4101 63.6522L88.2306 63.3805C88.3584 63.9345 88.6301 64.3526 89.0456 64.6349C89.4611 64.9173 90.0017 65.0584 90.6676 65.0584C91.3547 65.0584 91.906 64.9173 92.3215 64.6349C92.7423 64.3526 92.9527 64.0037 92.9527 63.5882C92.9527 63.2367 92.8169 62.9464 92.5452 62.7173C92.2789 62.4883 91.8634 62.3125 91.2988 62.19L89.2054 61.7505C88.0282 61.5055 87.1573 61.0927 86.5926 60.5121C86.028 59.9261 85.7484 59.1857 85.7537 58.2908C85.7484 57.5344 85.9534 56.8793 86.3689 56.3253C86.7897 55.766 87.373 55.3345 88.1187 55.0309C88.8698 54.7219 89.7354 54.5675 90.7155 54.5675C92.1537 54.5675 93.2856 54.8738 94.1113 55.4863C94.9423 56.0989 95.4563 56.9272 95.6534 57.9712ZM98.3021 67V54.7273H101.067V56.8127H101.21C101.466 56.1096 101.89 55.5609 102.481 55.1667C103.072 54.7672 103.778 54.5675 104.598 54.5675C105.429 54.5675 106.13 54.7699 106.7 55.1747C107.275 55.5742 107.68 56.1202 107.914 56.8127H108.042C108.314 56.1309 108.772 55.5875 109.416 55.1827C110.066 54.7725 110.836 54.5675 111.725 54.5675C112.855 54.5675 113.776 54.9244 114.49 55.6381C115.204 56.3519 115.561 57.3933 115.561 58.7623V67H112.66V59.2097C112.66 58.448 112.458 57.8913 112.053 57.5398C111.648 57.1829 111.153 57.0044 110.567 57.0044C109.869 57.0044 109.323 57.2228 108.929 57.6596C108.54 58.0911 108.346 58.6531 108.346 59.3455V67H105.509V59.0898C105.509 58.456 105.317 57.9499 104.934 57.5717C104.556 57.1935 104.06 57.0044 103.448 57.0044C103.032 57.0044 102.654 57.111 102.313 57.324C101.972 57.5318 101.701 57.8274 101.498 58.2109C101.296 58.5891 101.194 59.0312 101.194 59.5373V67H98.3021ZM123.928 67.2397C122.698 67.2397 121.635 66.984 120.74 66.4727C119.851 65.956 119.166 65.2262 118.687 64.2834C118.207 63.3352 117.968 62.2193 117.968 60.9355C117.968 59.6731 118.207 58.5652 118.687 57.6117C119.171 56.6529 119.848 55.9071 120.716 55.3745C121.584 54.8365 122.604 54.5675 123.776 54.5675C124.533 54.5675 125.247 54.69 125.918 54.935C126.594 55.1747 127.191 55.5476 127.707 56.0536C128.229 56.5597 128.64 57.2042 128.938 57.9872C129.236 58.7649 129.385 59.6918 129.385 60.7678V61.6547H119.326V59.7051H126.613C126.608 59.1511 126.488 58.6584 126.253 58.2269C126.019 57.7901 125.691 57.4466 125.271 57.1962C124.855 56.9458 124.37 56.8207 123.816 56.8207C123.225 56.8207 122.706 56.9645 122.258 57.2521C121.811 57.5344 121.462 57.9073 121.212 58.3707C120.967 58.8288 120.841 59.3322 120.836 59.8809V61.5827C120.836 62.2965 120.967 62.9091 121.228 63.4205C121.489 63.9265 121.853 64.3153 122.322 64.587C122.791 64.8533 123.34 64.9865 123.968 64.9865C124.389 64.9865 124.77 64.9279 125.111 64.8107C125.452 64.6882 125.747 64.5098 125.998 64.2754C126.248 64.041 126.437 63.7507 126.565 63.4045L129.266 63.7081C129.095 64.4219 128.77 65.0451 128.291 65.5778C127.817 66.1051 127.209 66.5153 126.469 66.8082C125.729 67.0959 124.882 67.2397 123.928 67.2397ZM134.725 59.8089V67H131.832V54.7273H134.597V56.8127H134.741C135.023 56.1255 135.473 55.5795 136.091 55.1747C136.714 54.7699 137.484 54.5675 138.4 54.5675C139.247 54.5675 139.985 54.7486 140.613 55.1108C141.247 55.473 141.737 55.9977 142.084 56.6848C142.435 57.372 142.608 58.2056 142.603 59.1857V67H139.711V59.6332C139.711 58.8129 139.497 58.171 139.071 57.7076C138.651 57.2441 138.067 57.0124 137.322 57.0124C136.815 57.0124 136.365 57.1243 135.971 57.348C135.582 57.5664 135.276 57.8833 135.052 58.2988C134.834 58.7143 134.725 59.2177 134.725 59.8089ZM151.672 54.7273V56.9645H144.616V54.7273H151.672ZM146.358 51.7869H149.251V63.3086C149.251 63.6974 149.309 63.9957 149.426 64.2035C149.549 64.4059 149.709 64.5444 149.906 64.619C150.103 64.6935 150.321 64.7308 150.561 64.7308C150.742 64.7308 150.907 64.7175 151.056 64.6909C151.211 64.6642 151.328 64.6403 151.408 64.619L151.895 66.8801C151.741 66.9334 151.52 66.992 151.232 67.0559C150.95 67.1199 150.604 67.1571 150.193 67.1678C149.469 67.1891 148.817 67.0799 148.236 66.8402C147.655 66.5952 147.195 66.217 146.854 65.7056C146.518 65.1942 146.353 64.555 146.358 63.788V51.7869Z" fill="white"/>
<path d="M260.438 56.2685C258.993 56.2685 257.762 55.8754 256.746 55.0891C255.73 54.2965 254.953 53.1491 254.416 51.647C253.879 50.1385 253.611 48.3168 253.611 46.1818C253.611 44.0597 253.879 42.2475 254.416 40.7454C254.96 39.2369 255.739 38.0863 256.756 37.2937C257.778 36.4947 259.006 36.0952 260.438 36.0952C261.869 36.0952 263.093 36.4947 264.11 37.2937C265.132 38.0863 265.912 39.2369 266.449 40.7454C266.993 42.2475 267.264 44.0597 267.264 46.1818C267.264 48.3168 266.996 50.1385 266.459 51.647C265.922 53.1491 265.145 54.2965 264.129 55.0891C263.113 55.8754 261.882 56.2685 260.438 56.2685ZM260.438 54.1591C261.869 54.1591 262.982 53.4687 263.774 52.0881C264.567 50.7074 264.963 48.7386 264.963 46.1818C264.963 44.4815 264.781 43.0337 264.417 41.8384C264.059 40.6431 263.541 39.7322 262.863 39.1058C262.192 38.4794 261.384 38.1662 260.438 38.1662C259.018 38.1662 257.909 38.8661 257.11 40.266C256.311 41.6594 255.912 43.6314 255.912 46.1818C255.912 47.8821 256.091 49.3267 256.449 50.5156C256.807 51.7045 257.321 52.609 257.993 53.229C258.67 53.8491 259.485 54.1591 260.438 54.1591ZM277.811 36.3636V56H275.433V38.8565H275.318L270.524 42.0398V39.6236L275.433 36.3636H277.811Z" fill="white"/>
<path d="M30.1193 280H28.5341C28.4403 279.544 28.2763 279.143 28.0419 278.798C27.8118 278.453 27.5305 278.163 27.1982 277.929C26.87 277.69 26.5057 277.511 26.1051 277.392C25.7045 277.273 25.2869 277.213 24.8523 277.213C24.0597 277.213 23.3416 277.413 22.6982 277.814C22.0589 278.214 21.5497 278.805 21.1705 279.585C20.7955 280.364 20.608 281.321 20.608 282.455C20.608 283.588 20.7955 284.545 21.1705 285.325C21.5497 286.104 22.0589 286.695 22.6982 287.095C23.3416 287.496 24.0597 287.696 24.8523 287.696C25.2869 287.696 25.7045 287.636 26.1051 287.517C26.5057 287.398 26.87 287.221 27.1982 286.987C27.5305 286.748 27.8118 286.456 28.0419 286.111C28.2763 285.761 28.4403 285.361 28.5341 284.909H30.1193C30 285.578 29.7827 286.177 29.4673 286.705C29.152 287.234 28.7599 287.683 28.2912 288.054C27.8224 288.42 27.2962 288.7 26.7124 288.891C26.1328 289.083 25.5128 289.179 24.8523 289.179C23.7358 289.179 22.7429 288.906 21.8736 288.361C21.0043 287.815 20.3203 287.04 19.8217 286.034C19.3232 285.028 19.0739 283.835 19.0739 282.455C19.0739 281.074 19.3232 279.881 19.8217 278.875C20.3203 277.869 21.0043 277.094 21.8736 276.548C22.7429 276.003 23.7358 275.73 24.8523 275.73C25.5128 275.73 26.1328 275.826 26.7124 276.018C27.2962 276.21 27.8224 276.491 28.2912 276.862C28.7599 277.228 29.152 277.675 29.4673 278.204C29.7827 278.728 30 279.327 30.1193 280ZM35.925 289.205C35.0387 289.205 34.261 288.994 33.5919 288.572C32.9272 288.15 32.4073 287.56 32.0323 286.801C31.6615 286.043 31.4762 285.156 31.4762 284.142C31.4762 283.119 31.6615 282.227 32.0323 281.464C32.4073 280.701 32.9272 280.109 33.5919 279.687C34.261 279.265 35.0387 279.054 35.925 279.054C36.8114 279.054 37.587 279.265 38.2517 279.687C38.9208 280.109 39.4406 280.701 39.8114 281.464C40.1864 282.227 40.3739 283.119 40.3739 284.142C40.3739 285.156 40.1864 286.043 39.8114 286.801C39.4406 287.56 38.9208 288.15 38.2517 288.572C37.587 288.994 36.8114 289.205 35.925 289.205ZM35.925 287.849C36.5983 287.849 37.1523 287.677 37.587 287.332C38.0216 286.987 38.3433 286.533 38.5522 285.97C38.761 285.408 38.8654 284.798 38.8654 284.142C38.8654 283.486 38.761 282.874 38.5522 282.308C38.3433 281.741 38.0216 281.283 37.587 280.933C37.1523 280.584 36.5983 280.409 35.925 280.409C35.2517 280.409 34.6977 280.584 34.2631 280.933C33.8284 281.283 33.5067 281.741 33.2979 282.308C33.0891 282.874 32.9847 283.486 32.9847 284.142C32.9847 284.798 33.0891 285.408 33.2979 285.97C33.5067 286.533 33.8284 286.987 34.2631 287.332C34.6977 287.677 35.2517 287.849 35.925 287.849ZM42.1366 289V279.182H43.594V280.716H43.7218C43.9264 280.192 44.2566 279.785 44.7126 279.495C45.1686 279.201 45.7162 279.054 46.3554 279.054C47.0031 279.054 47.5422 279.201 47.9726 279.495C48.4072 279.785 48.746 280.192 48.9889 280.716H49.0912C49.3426 280.209 49.7197 279.806 50.2226 279.508C50.7254 279.205 51.3284 279.054 52.0315 279.054C52.9093 279.054 53.6274 279.329 54.1856 279.879C54.7439 280.424 55.023 281.274 55.023 282.429V289H53.5145V282.429C53.5145 281.705 53.3163 281.187 52.92 280.876C52.5237 280.565 52.0571 280.409 51.5201 280.409C50.8298 280.409 50.295 280.618 49.9157 281.036C49.5365 281.449 49.3468 281.973 49.3468 282.608V289H47.8128V282.276C47.8128 281.717 47.6316 281.268 47.2694 280.927C46.9072 280.582 46.4406 280.409 45.8696 280.409C45.4775 280.409 45.1111 280.513 44.7701 280.722C44.4335 280.931 44.1608 281.221 43.952 281.592C43.7474 281.958 43.6451 282.382 43.6451 282.864V289H42.1366ZM57.2412 292.682V279.182H58.6985V280.741H58.8775C58.9883 280.571 59.1417 280.354 59.3377 280.089C59.538 279.821 59.8235 279.582 60.1943 279.374C60.5693 279.161 61.0764 279.054 61.7156 279.054C62.5423 279.054 63.271 279.261 63.9017 279.674C64.5323 280.087 65.0245 280.673 65.3782 281.432C65.7319 282.19 65.9088 283.085 65.9088 284.116C65.9088 285.156 65.7319 286.058 65.3782 286.82C65.0245 287.579 64.5345 288.167 63.9081 288.585C63.2816 288.998 62.5593 289.205 61.7412 289.205C61.1105 289.205 60.6055 289.1 60.2262 288.891C59.847 288.678 59.5551 288.437 59.3505 288.169C59.146 287.896 58.9883 287.67 58.8775 287.491H58.7497V292.682H57.2412ZM58.7241 284.091C58.7241 284.832 58.8328 285.487 59.0501 286.053C59.2674 286.616 59.5849 287.057 60.0025 287.376C60.4201 287.692 60.9315 287.849 61.5366 287.849C62.1673 287.849 62.6936 287.683 63.1154 287.351C63.5416 287.014 63.8612 286.562 64.0742 285.996C64.2916 285.425 64.4002 284.79 64.4002 284.091C64.4002 283.401 64.2937 282.778 64.0806 282.224C63.8718 281.666 63.5544 281.225 63.1282 280.901C62.7064 280.573 62.1758 280.409 61.5366 280.409C60.923 280.409 60.4073 280.565 59.9897 280.876C59.5721 281.183 59.2568 281.613 59.0437 282.167C58.8306 282.717 58.7241 283.358 58.7241 284.091ZM67.6699 289V279.182H69.1273V280.665H69.2296C69.4085 280.179 69.7324 279.785 70.2012 279.482C70.6699 279.18 71.1983 279.028 71.7864 279.028C71.8972 279.028 72.0357 279.031 72.2019 279.035C72.3681 279.039 72.4938 279.045 72.579 279.054V280.588C72.5279 280.575 72.4107 280.556 72.2274 280.531C72.0485 280.501 71.8588 280.486 71.6585 280.486C71.1813 280.486 70.7551 280.586 70.3801 280.786C70.0094 280.982 69.7154 281.255 69.498 281.604C69.285 281.95 69.1784 282.344 69.1784 282.787V289H67.6699ZM77.6448 289.205C76.6988 289.205 75.8827 288.996 75.1967 288.578C74.5148 288.156 73.9886 287.568 73.6178 286.814C73.2513 286.055 73.0681 285.173 73.0681 284.168C73.0681 283.162 73.2513 282.276 73.6178 281.509C73.9886 280.737 74.5042 280.136 75.1647 279.706C75.8295 279.271 76.605 279.054 77.4914 279.054C78.0028 279.054 78.5077 279.139 79.0063 279.31C79.5049 279.48 79.9587 279.757 80.3678 280.141C80.7769 280.52 81.1029 281.023 81.3458 281.649C81.5887 282.276 81.7102 283.047 81.7102 283.963V284.602H74.142V283.298H80.1761C80.1761 282.744 80.0653 282.25 79.8437 281.815C79.6263 281.381 79.3153 281.038 78.9104 280.786C78.5099 280.535 78.0369 280.409 77.4914 280.409C76.8906 280.409 76.3707 280.558 75.9317 280.857C75.4971 281.151 75.1626 281.534 74.9282 282.007C74.6938 282.48 74.5766 282.987 74.5766 283.528V284.398C74.5766 285.139 74.7045 285.768 74.9602 286.283C75.2201 286.795 75.5802 287.185 76.0404 287.453C76.5006 287.717 77.0354 287.849 77.6448 287.849C78.0411 287.849 78.3991 287.794 78.7187 287.683C79.0425 287.568 79.3217 287.398 79.556 287.172C79.7904 286.942 79.9715 286.656 80.0994 286.315L81.5567 286.724C81.4033 287.219 81.1455 287.653 80.7833 288.028C80.4211 288.399 79.9736 288.689 79.441 288.898C78.9083 289.102 78.3096 289.205 77.6448 289.205ZM84.9734 283.094V289H83.4649V275.909H84.9734V280.716H85.1013C85.3314 280.209 85.6766 279.806 86.1368 279.508C86.6013 279.205 87.2192 279.054 87.9905 279.054C88.6595 279.054 89.2454 279.188 89.7483 279.457C90.2511 279.721 90.641 280.128 90.918 280.678C91.1993 281.223 91.3399 281.918 91.3399 282.761V289H89.8314V282.864C89.8314 282.084 89.629 281.481 89.2241 281.055C88.8236 280.624 88.2675 280.409 87.5558 280.409C87.0615 280.409 86.6183 280.513 86.2263 280.722C85.8385 280.931 85.5317 281.236 85.3058 281.636C85.0842 282.037 84.9734 282.523 84.9734 283.094ZM97.6761 289.205C96.7301 289.205 95.9141 288.996 95.228 288.578C94.5462 288.156 94.0199 287.568 93.6492 286.814C93.2827 286.055 93.0994 285.173 93.0994 284.168C93.0994 283.162 93.2827 282.276 93.6492 281.509C94.0199 280.737 94.5355 280.136 95.196 279.706C95.8608 279.271 96.6364 279.054 97.5227 279.054C98.0341 279.054 98.5391 279.139 99.0377 279.31C99.5362 279.48 99.9901 279.757 100.399 280.141C100.808 280.52 101.134 281.023 101.377 281.649C101.62 282.276 101.741 283.047 101.741 283.963V284.602H94.1733V283.298H100.207C100.207 282.744 100.097 282.25 99.875 281.815C99.6577 281.381 99.3466 281.038 98.9418 280.786C98.5412 280.535 98.0682 280.409 97.5227 280.409C96.9219 280.409 96.402 280.558 95.9631 280.857C95.5284 281.151 95.1939 281.534 94.9595 282.007C94.7252 282.48 94.608 282.987 94.608 283.528V284.398C94.608 285.139 94.7358 285.768 94.9915 286.283C95.2514 286.795 95.6115 287.185 96.0717 287.453C96.532 287.717 97.0668 287.849 97.6761 287.849C98.0725 287.849 98.4304 287.794 98.75 287.683C99.0739 287.568 99.353 287.398 99.5874 287.172C99.8217 286.942 100.003 286.656 100.131 286.315L101.588 286.724C101.435 287.219 101.177 287.653 100.815 288.028C100.452 288.399 100.005 288.689 99.4723 288.898C98.9396 289.102 98.3409 289.205 97.6761 289.205ZM105.005 283.094V289H103.496V279.182H104.954V280.716H105.081C105.312 280.217 105.661 279.817 106.13 279.514C106.599 279.207 107.204 279.054 107.945 279.054C108.61 279.054 109.192 279.19 109.69 279.463C110.189 279.732 110.576 280.141 110.853 280.69C111.13 281.236 111.269 281.926 111.269 282.761V289H109.76V282.864C109.76 282.092 109.56 281.491 109.16 281.061C108.759 280.626 108.209 280.409 107.51 280.409C107.029 280.409 106.599 280.513 106.219 280.722C105.844 280.931 105.548 281.236 105.331 281.636C105.113 282.037 105.005 282.523 105.005 283.094ZM120.44 281.381L119.085 281.764C119 281.538 118.874 281.319 118.708 281.106C118.546 280.888 118.324 280.71 118.043 280.569C117.762 280.428 117.402 280.358 116.963 280.358C116.362 280.358 115.861 280.496 115.461 280.773C115.064 281.046 114.866 281.393 114.866 281.815C114.866 282.19 115.003 282.487 115.275 282.704C115.548 282.921 115.974 283.102 116.554 283.247L118.011 283.605C118.889 283.818 119.543 284.144 119.973 284.583C120.404 285.018 120.619 285.578 120.619 286.264C120.619 286.827 120.457 287.33 120.133 287.773C119.814 288.216 119.366 288.565 118.791 288.821C118.216 289.077 117.547 289.205 116.784 289.205C115.782 289.205 114.954 288.987 114.297 288.553C113.641 288.118 113.226 287.483 113.051 286.648L114.483 286.29C114.619 286.818 114.877 287.214 115.256 287.479C115.64 287.743 116.14 287.875 116.758 287.875C117.461 287.875 118.02 287.726 118.433 287.428C118.851 287.125 119.059 286.763 119.059 286.341C119.059 286 118.94 285.714 118.701 285.484C118.463 285.25 118.096 285.075 117.602 284.96L115.966 284.577C115.066 284.364 114.406 284.033 113.984 283.586C113.566 283.134 113.358 282.57 113.358 281.892C113.358 281.338 113.513 280.848 113.824 280.422C114.14 279.996 114.568 279.661 115.109 279.418C115.655 279.175 116.272 279.054 116.963 279.054C117.934 279.054 118.697 279.267 119.251 279.693C119.809 280.119 120.206 280.682 120.44 281.381ZM122.35 289V279.182H123.858V289H122.35ZM123.117 277.545C122.823 277.545 122.569 277.445 122.356 277.245C122.147 277.045 122.043 276.804 122.043 276.523C122.043 276.241 122.147 276.001 122.356 275.8C122.569 275.6 122.823 275.5 123.117 275.5C123.411 275.5 123.662 275.6 123.871 275.8C124.084 276.001 124.191 276.241 124.191 276.523C124.191 276.804 124.084 277.045 123.871 277.245C123.662 277.445 123.411 277.545 123.117 277.545ZM134.11 279.182L130.479 289H128.945L125.314 279.182H126.951L129.661 287.006H129.763L132.473 279.182H134.11ZM139.326 289.205C138.38 289.205 137.564 288.996 136.878 288.578C136.196 288.156 135.669 287.568 135.299 286.814C134.932 286.055 134.749 285.173 134.749 284.168C134.749 283.162 134.932 282.276 135.299 281.509C135.669 280.737 136.185 280.136 136.846 279.706C137.51 279.271 138.286 279.054 139.172 279.054C139.684 279.054 140.189 279.139 140.687 279.31C141.186 279.48 141.64 279.757 142.049 280.141C142.458 280.52 142.784 281.023 143.027 281.649C143.27 282.276 143.391 283.047 143.391 283.963V284.602H135.823V283.298H141.857C141.857 282.744 141.746 282.25 141.525 281.815C141.307 281.381 140.996 281.038 140.591 280.786C140.191 280.535 139.718 280.409 139.172 280.409C138.571 280.409 138.052 280.558 137.613 280.857C137.178 281.151 136.844 281.534 136.609 282.007C136.375 282.48 136.258 282.987 136.258 283.528V284.398C136.258 285.139 136.385 285.768 136.641 286.283C136.901 286.795 137.261 287.185 137.721 287.453C138.182 287.717 138.716 287.849 139.326 287.849C139.722 287.849 140.08 287.794 140.4 287.683C140.723 287.568 141.003 287.398 141.237 287.172C141.471 286.942 141.652 286.656 141.78 286.315L143.238 286.724C143.084 287.219 142.826 287.653 142.464 288.028C142.102 288.399 141.655 288.689 141.122 288.898C140.589 289.102 139.991 289.205 139.326 289.205ZM152.558 289.23C151.935 289.23 151.371 289.113 150.864 288.879C150.357 288.64 149.954 288.297 149.656 287.849C149.357 287.398 149.208 286.852 149.208 286.213C149.208 285.651 149.319 285.195 149.54 284.845C149.762 284.491 150.058 284.214 150.429 284.014C150.8 283.814 151.209 283.665 151.656 283.567C152.108 283.464 152.562 283.384 153.018 283.324C153.614 283.247 154.098 283.19 154.469 283.151C154.844 283.109 155.116 283.038 155.287 282.94C155.462 282.842 155.549 282.672 155.549 282.429V282.378C155.549 281.747 155.376 281.257 155.031 280.908C154.69 280.558 154.173 280.384 153.478 280.384C152.758 280.384 152.193 280.541 151.784 280.857C151.375 281.172 151.087 281.509 150.921 281.866L149.489 281.355C149.745 280.759 150.086 280.294 150.512 279.962C150.942 279.625 151.411 279.391 151.918 279.259C152.43 279.122 152.933 279.054 153.427 279.054C153.742 279.054 154.104 279.092 154.514 279.169C154.927 279.241 155.325 279.393 155.709 279.623C156.097 279.853 156.418 280.2 156.674 280.665C156.93 281.129 157.058 281.751 157.058 282.531V289H155.549V287.67H155.472C155.37 287.884 155.2 288.112 154.961 288.354C154.722 288.597 154.405 288.804 154.009 288.974C153.612 289.145 153.129 289.23 152.558 289.23ZM152.788 287.875C153.384 287.875 153.887 287.758 154.296 287.523C154.71 287.289 155.021 286.987 155.229 286.616C155.442 286.245 155.549 285.855 155.549 285.446V284.065C155.485 284.142 155.344 284.212 155.127 284.276C154.914 284.336 154.667 284.389 154.386 284.436C154.109 284.479 153.838 284.517 153.574 284.551C153.314 284.581 153.103 284.607 152.941 284.628C152.549 284.679 152.183 284.762 151.842 284.877C151.505 284.988 151.232 285.156 151.023 285.382C150.819 285.604 150.717 285.906 150.717 286.29C150.717 286.814 150.911 287.21 151.298 287.479C151.69 287.743 152.187 287.875 152.788 287.875ZM159.271 292.682V279.182H160.728V280.741H160.907C161.018 280.571 161.171 280.354 161.368 280.089C161.568 279.821 161.853 279.582 162.224 279.374C162.599 279.161 163.106 279.054 163.745 279.054C164.572 279.054 165.301 279.261 165.931 279.674C166.562 280.087 167.054 280.673 167.408 281.432C167.762 282.19 167.939 283.085 167.939 284.116C167.939 285.156 167.762 286.058 167.408 286.82C167.054 287.579 166.564 288.167 165.938 288.585C165.311 288.998 164.589 289.205 163.771 289.205C163.14 289.205 162.635 289.1 162.256 288.891C161.877 288.678 161.585 288.437 161.38 288.169C161.176 287.896 161.018 287.67 160.907 287.491H160.779V292.682H159.271ZM160.754 284.091C160.754 284.832 160.863 285.487 161.08 286.053C161.297 286.616 161.615 287.057 162.032 287.376C162.45 287.692 162.961 287.849 163.566 287.849C164.197 287.849 164.723 287.683 165.145 287.351C165.571 287.014 165.891 286.562 166.104 285.996C166.321 285.425 166.43 284.79 166.43 284.091C166.43 283.401 166.323 282.778 166.11 282.224C165.902 281.666 165.584 281.225 165.158 280.901C164.736 280.573 164.206 280.409 163.566 280.409C162.953 280.409 162.437 280.565 162.019 280.876C161.602 281.183 161.287 281.613 161.073 282.167C160.86 282.717 160.754 283.358 160.754 284.091ZM169.7 292.682V279.182H171.157V280.741H171.336C171.447 280.571 171.6 280.354 171.796 280.089C171.997 279.821 172.282 279.582 172.653 279.374C173.028 279.161 173.535 279.054 174.174 279.054C175.001 279.054 175.729 279.261 176.36 279.674C176.991 280.087 177.483 280.673 177.837 281.432C178.19 282.19 178.367 283.085 178.367 284.116C178.367 285.156 178.19 286.058 177.837 286.82C177.483 287.579 176.993 288.167 176.367 288.585C175.74 288.998 175.018 289.205 174.2 289.205C173.569 289.205 173.064 289.1 172.685 288.891C172.305 288.678 172.014 288.437 171.809 288.169C171.604 287.896 171.447 287.67 171.336 287.491H171.208V292.682H169.7ZM171.183 284.091C171.183 284.832 171.291 285.487 171.509 286.053C171.726 286.616 172.043 287.057 172.461 287.376C172.879 287.692 173.39 287.849 173.995 287.849C174.626 287.849 175.152 287.683 175.574 287.351C176 287.014 176.32 286.562 176.533 285.996C176.75 285.425 176.859 284.79 176.859 284.091C176.859 283.401 176.752 282.778 176.539 282.224C176.33 281.666 176.013 281.225 175.587 280.901C175.165 280.573 174.634 280.409 173.995 280.409C173.381 280.409 172.866 280.565 172.448 280.876C172.031 281.183 171.715 281.613 171.502 282.167C171.289 282.717 171.183 283.358 171.183 284.091ZM180.128 289V279.182H181.586V280.665H181.688C181.867 280.179 182.191 279.785 182.66 279.482C183.128 279.18 183.657 279.028 184.245 279.028C184.356 279.028 184.494 279.031 184.66 279.035C184.827 279.039 184.952 279.045 185.037 279.054V280.588C184.986 280.575 184.869 280.556 184.686 280.531C184.507 280.501 184.317 280.486 184.117 280.486C183.64 280.486 183.214 280.586 182.839 280.786C182.468 280.982 182.174 281.255 181.957 281.604C181.743 281.95 181.637 282.344 181.637 282.787V289H180.128ZM189.975 289.205C189.089 289.205 188.311 288.994 187.642 288.572C186.978 288.15 186.458 287.56 186.083 286.801C185.712 286.043 185.527 285.156 185.527 284.142C185.527 283.119 185.712 282.227 186.083 281.464C186.458 280.701 186.978 280.109 187.642 279.687C188.311 279.265 189.089 279.054 189.975 279.054C190.862 279.054 191.637 279.265 192.302 279.687C192.971 280.109 193.491 280.701 193.862 281.464C194.237 282.227 194.424 283.119 194.424 284.142C194.424 285.156 194.237 286.043 193.862 286.801C193.491 287.56 192.971 288.15 192.302 288.572C191.637 288.994 190.862 289.205 189.975 289.205ZM189.975 287.849C190.649 287.849 191.203 287.677 191.637 287.332C192.072 286.987 192.394 286.533 192.603 285.97C192.811 285.408 192.916 284.798 192.916 284.142C192.916 283.486 192.811 282.874 192.603 282.308C192.394 281.741 192.072 281.283 191.637 280.933C191.203 280.584 190.649 280.409 189.975 280.409C189.302 280.409 188.748 280.584 188.314 280.933C187.879 281.283 187.557 281.741 187.348 282.308C187.14 282.874 187.035 283.486 187.035 284.142C187.035 284.798 187.14 285.408 187.348 285.97C187.557 286.533 187.879 286.987 188.314 287.332C188.748 287.677 189.302 287.849 189.975 287.849ZM199.076 289.23C198.454 289.23 197.89 289.113 197.382 288.879C196.875 288.64 196.473 288.297 196.174 287.849C195.876 287.398 195.727 286.852 195.727 286.213C195.727 285.651 195.838 285.195 196.059 284.845C196.281 284.491 196.577 284.214 196.948 284.014C197.318 283.814 197.728 283.665 198.175 283.567C198.627 283.464 199.081 283.384 199.537 283.324C200.133 283.247 200.617 283.19 200.988 283.151C201.363 283.109 201.635 283.038 201.806 282.94C201.98 282.842 202.068 282.672 202.068 282.429V282.378C202.068 281.747 201.895 281.257 201.55 280.908C201.209 280.558 200.691 280.384 199.997 280.384C199.277 280.384 198.712 280.541 198.303 280.857C197.894 281.172 197.606 281.509 197.44 281.866L196.008 281.355C196.264 280.759 196.605 280.294 197.031 279.962C197.461 279.625 197.93 279.391 198.437 279.259C198.948 279.122 199.451 279.054 199.946 279.054C200.261 279.054 200.623 279.092 201.032 279.169C201.446 279.241 201.844 279.393 202.228 279.623C202.615 279.853 202.937 280.2 203.193 280.665C203.448 281.129 203.576 281.751 203.576 282.531V289H202.068V287.67H201.991C201.889 287.884 201.718 288.112 201.48 288.354C201.241 288.597 200.924 288.804 200.527 288.974C200.131 289.145 199.647 289.23 199.076 289.23ZM199.306 287.875C199.903 287.875 200.406 287.758 200.815 287.523C201.228 287.289 201.539 286.987 201.748 286.616C201.961 286.245 202.068 285.855 202.068 285.446V284.065C202.004 284.142 201.863 284.212 201.646 284.276C201.433 284.336 201.186 284.389 200.904 284.436C200.627 284.479 200.357 284.517 200.093 284.551C199.833 284.581 199.622 284.607 199.46 284.628C199.068 284.679 198.701 284.762 198.36 284.877C198.024 284.988 197.751 285.156 197.542 285.382C197.338 285.604 197.235 285.906 197.235 286.29C197.235 286.814 197.429 287.21 197.817 287.479C198.209 287.743 198.706 287.875 199.306 287.875ZM209.778 289.205C208.858 289.205 208.065 288.987 207.4 288.553C206.736 288.118 206.224 287.519 205.866 286.756C205.508 285.994 205.329 285.122 205.329 284.142C205.329 283.145 205.513 282.265 205.879 281.502C206.25 280.735 206.766 280.136 207.426 279.706C208.091 279.271 208.866 279.054 209.753 279.054C210.443 279.054 211.065 279.182 211.619 279.438C212.173 279.693 212.627 280.051 212.981 280.511C213.334 280.972 213.554 281.509 213.639 282.122H212.131C212.016 281.675 211.76 281.278 211.364 280.933C210.971 280.584 210.443 280.409 209.778 280.409C209.19 280.409 208.675 280.562 208.231 280.869C207.793 281.172 207.449 281.6 207.202 282.154C206.959 282.704 206.838 283.349 206.838 284.091C206.838 284.849 206.957 285.51 207.196 286.072C207.439 286.635 207.78 287.072 208.219 287.383C208.662 287.694 209.182 287.849 209.778 287.849C210.17 287.849 210.526 287.781 210.846 287.645C211.165 287.509 211.436 287.312 211.658 287.057C211.879 286.801 212.037 286.494 212.131 286.136H213.639C213.554 286.716 213.343 287.238 213.006 287.702C212.674 288.163 212.233 288.529 211.683 288.802C211.138 289.07 210.503 289.205 209.778 289.205ZM216.813 283.094V289H215.304V275.909H216.813V280.716H216.941C217.171 280.209 217.516 279.806 217.976 279.508C218.441 279.205 219.059 279.054 219.83 279.054C220.499 279.054 221.085 279.188 221.588 279.457C222.091 279.721 222.48 280.128 222.757 280.678C223.039 281.223 223.179 281.918 223.179 282.761V289H221.671V282.864C221.671 282.084 221.468 281.481 221.064 281.055C220.663 280.624 220.107 280.409 219.395 280.409C218.901 280.409 218.458 280.513 218.066 280.722C217.678 280.931 217.371 281.236 217.145 281.636C216.924 282.037 216.813 282.523 216.813 283.094ZM234.192 279.182V280.46H229.103V279.182H234.192ZM230.586 276.83H232.095V286.188C232.095 286.614 232.157 286.933 232.28 287.146C232.408 287.355 232.57 287.496 232.766 287.568C232.966 287.636 233.177 287.67 233.399 287.67C233.565 287.67 233.701 287.662 233.808 287.645C233.915 287.624 234 287.607 234.064 287.594L234.37 288.949C234.268 288.987 234.125 289.026 233.942 289.064C233.759 289.107 233.527 289.128 233.245 289.128C232.819 289.128 232.402 289.036 231.993 288.853C231.588 288.67 231.251 288.391 230.983 288.016C230.718 287.641 230.586 287.168 230.586 286.597V276.83ZM239.804 289.205C238.917 289.205 238.14 288.994 237.471 288.572C236.806 288.15 236.286 287.56 235.911 286.801C235.54 286.043 235.355 285.156 235.355 284.142C235.355 283.119 235.54 282.227 235.911 281.464C236.286 280.701 236.806 280.109 237.471 279.687C238.14 279.265 238.917 279.054 239.804 279.054C240.69 279.054 241.466 279.265 242.131 279.687C242.8 280.109 243.319 280.701 243.69 281.464C244.065 282.227 244.253 283.119 244.253 284.142C244.253 285.156 244.065 286.043 243.69 286.801C243.319 287.56 242.8 288.15 242.131 288.572C241.466 288.994 240.69 289.205 239.804 289.205ZM239.804 287.849C240.477 287.849 241.031 287.677 241.466 287.332C241.9 286.987 242.222 286.533 242.431 285.97C242.64 285.408 242.744 284.798 242.744 284.142C242.744 283.486 242.64 282.874 242.431 282.308C242.222 281.741 241.9 281.283 241.466 280.933C241.031 280.584 240.477 280.409 239.804 280.409C239.131 280.409 238.577 280.584 238.142 280.933C237.707 281.283 237.386 281.741 237.177 282.308C236.968 282.874 236.864 283.486 236.864 284.142C236.864 284.798 236.968 285.408 237.177 285.97C237.386 286.533 237.707 286.987 238.142 287.332C238.577 287.677 239.131 287.849 239.804 287.849ZM23.4972 311.205C22.5511 311.205 21.7351 310.996 21.049 310.578C20.3672 310.156 19.8409 309.568 19.4702 308.814C19.1037 308.055 18.9205 307.173 18.9205 306.168C18.9205 305.162 19.1037 304.276 19.4702 303.509C19.8409 302.737 20.3565 302.136 21.017 301.706C21.6818 301.271 22.4574 301.054 23.3438 301.054C23.8551 301.054 24.3601 301.139 24.8587 301.31C25.3572 301.48 25.8111 301.757 26.2202 302.141C26.6293 302.52 26.9553 303.023 27.1982 303.649C27.4411 304.276 27.5625 305.047 27.5625 305.963V306.602H19.9943V305.298H26.0284C26.0284 304.744 25.9176 304.25 25.696 303.815C25.4787 303.381 25.1676 303.038 24.7628 302.786C24.3622 302.535 23.8892 302.409 23.3438 302.409C22.7429 302.409 22.223 302.558 21.7841 302.857C21.3494 303.151 21.0149 303.534 20.7805 304.007C20.5462 304.48 20.429 304.987 20.429 305.528V306.398C20.429 307.139 20.5568 307.768 20.8125 308.283C21.0724 308.795 21.4325 309.185 21.8928 309.453C22.353 309.717 22.8878 309.849 23.4972 309.849C23.8935 309.849 24.2514 309.794 24.571 309.683C24.8949 309.568 25.174 309.398 25.4084 309.172C25.6428 308.942 25.8239 308.656 25.9517 308.315L27.4091 308.724C27.2557 309.219 26.9979 309.653 26.6357 310.028C26.2734 310.399 25.826 310.689 25.2933 310.898C24.7607 311.102 24.1619 311.205 23.4972 311.205ZM37.0468 301.182L33.4161 311H31.8821L28.2514 301.182H29.8877L32.598 309.006H32.7002L35.4105 301.182H37.0468ZM41.0883 311.23C40.4662 311.23 39.9015 311.113 39.3944 310.879C38.8873 310.64 38.4846 310.297 38.1863 309.849C37.888 309.398 37.7389 308.852 37.7389 308.213C37.7389 307.651 37.8497 307.195 38.0713 306.845C38.2929 306.491 38.589 306.214 38.9598 306.014C39.3305 305.814 39.7396 305.665 40.187 305.567C40.6388 305.464 41.0926 305.384 41.5486 305.324C42.1451 305.247 42.6288 305.19 42.9995 305.151C43.3745 305.109 43.6473 305.038 43.8177 304.94C43.9924 304.842 44.0798 304.672 44.0798 304.429V304.378C44.0798 303.747 43.9072 303.257 43.562 302.908C43.2211 302.558 42.7034 302.384 42.0088 302.384C41.2886 302.384 40.724 302.541 40.3149 302.857C39.9058 303.172 39.6182 303.509 39.452 303.866L38.0201 303.355C38.2758 302.759 38.6167 302.294 39.0429 301.962C39.4733 301.625 39.942 301.391 40.4491 301.259C40.9605 301.122 41.4633 301.054 41.9576 301.054C42.273 301.054 42.6352 301.092 43.0443 301.169C43.4576 301.241 43.8561 301.393 44.2396 301.623C44.6274 301.853 44.9491 302.2 45.2048 302.665C45.4605 303.129 45.5883 303.751 45.5883 304.531V311H44.0798V309.67H44.0031C43.9008 309.884 43.7304 310.112 43.4917 310.354C43.2531 310.597 42.9356 310.804 42.5393 310.974C42.143 311.145 41.6593 311.23 41.0883 311.23ZM41.3184 309.875C41.915 309.875 42.4179 309.758 42.827 309.523C43.2403 309.289 43.5514 308.987 43.7602 308.616C43.9733 308.245 44.0798 307.855 44.0798 307.446V306.065C44.0159 306.142 43.8753 306.212 43.6579 306.276C43.4449 306.336 43.1977 306.389 42.9164 306.436C42.6395 306.479 42.3689 306.517 42.1047 306.551C41.8447 306.581 41.6338 306.607 41.4718 306.628C41.0798 306.679 40.7133 306.762 40.3724 306.877C40.0358 306.988 39.763 307.156 39.5542 307.382C39.3497 307.604 39.2474 307.906 39.2474 308.29C39.2474 308.814 39.4413 309.21 39.8291 309.479C40.2211 309.743 40.7176 309.875 41.3184 309.875ZM49.3102 297.909V311H47.8017V297.909H49.3102ZM57.7207 306.986V301.182H59.2292V311H57.7207V309.338H57.6184C57.3883 309.837 57.0303 310.261 56.5445 310.61C56.0588 310.955 55.4451 311.128 54.7036 311.128C54.09 311.128 53.5445 310.994 53.0673 310.725C52.59 310.452 52.215 310.043 51.9423 309.498C51.6695 308.948 51.5332 308.256 51.5332 307.42V301.182H53.0417V307.318C53.0417 308.034 53.242 308.605 53.6426 309.031C54.0474 309.457 54.563 309.67 55.1894 309.67C55.5644 309.67 55.9458 309.575 56.3336 309.383C56.7257 309.191 57.0538 308.897 57.318 308.501C57.5864 308.104 57.7207 307.599 57.7207 306.986ZM64.3414 311.23C63.7192 311.23 63.1546 311.113 62.6475 310.879C62.1404 310.64 61.7377 310.297 61.4394 309.849C61.1411 309.398 60.9919 308.852 60.9919 308.213C60.9919 307.651 61.1027 307.195 61.3243 306.845C61.5459 306.491 61.8421 306.214 62.2128 306.014C62.5836 305.814 62.9926 305.665 63.4401 305.567C63.8918 305.464 64.3456 305.384 64.8016 305.324C65.3982 305.247 65.8819 305.19 66.2526 305.151C66.6276 305.109 66.9003 305.038 67.0708 304.94C67.2455 304.842 67.3328 304.672 67.3328 304.429V304.378C67.3328 303.747 67.1603 303.257 66.8151 302.908C66.4742 302.558 65.9564 302.384 65.2618 302.384C64.5417 302.384 63.977 302.541 63.5679 302.857C63.1588 303.172 62.8712 303.509 62.705 303.866L61.2732 303.355C61.5289 302.759 61.8698 302.294 62.2959 301.962C62.7263 301.625 63.1951 301.391 63.7022 301.259C64.2135 301.122 64.7164 301.054 65.2107 301.054C65.526 301.054 65.8882 301.092 66.2973 301.169C66.7107 301.241 67.1091 301.393 67.4926 301.623C67.8804 301.853 68.2022 302.2 68.4578 302.665C68.7135 303.129 68.8414 303.751 68.8414 304.531V311H67.3328V309.67H67.2561C67.1539 309.884 66.9834 310.112 66.7448 310.354C66.5061 310.597 66.1887 310.804 65.7924 310.974C65.3961 311.145 64.9124 311.23 64.3414 311.23ZM64.5715 309.875C65.1681 309.875 65.6709 309.758 66.08 309.523C66.4934 309.289 66.8044 308.987 67.0132 308.616C67.2263 308.245 67.3328 307.855 67.3328 307.446V306.065C67.2689 306.142 67.1283 306.212 66.911 306.276C66.6979 306.336 66.4507 306.389 66.1695 306.436C65.8925 306.479 65.6219 306.517 65.3577 306.551C65.0978 306.581 64.8868 306.607 64.7249 306.628C64.3328 306.679 63.9664 306.762 63.6255 306.877C63.2888 306.988 63.0161 307.156 62.8073 307.382C62.6027 307.604 62.5005 307.906 62.5005 308.29C62.5005 308.814 62.6944 309.21 63.0821 309.479C63.4742 309.743 63.9706 309.875 64.5715 309.875ZM75.3246 301.182V302.46H70.2366V301.182H75.3246ZM71.7195 298.83H73.228V308.188C73.228 308.614 73.2898 308.933 73.4134 309.146C73.5412 309.355 73.7032 309.496 73.8992 309.568C74.0995 309.636 74.3104 309.67 74.532 309.67C74.6982 309.67 74.8346 309.662 74.9411 309.645C75.0476 309.624 75.1329 309.607 75.1968 309.594L75.5036 310.949C75.4013 310.987 75.2586 311.026 75.0753 311.064C74.8921 311.107 74.6599 311.128 74.3786 311.128C73.9525 311.128 73.5349 311.036 73.1258 310.853C72.7209 310.67 72.3843 310.391 72.1158 310.016C71.8516 309.641 71.7195 309.168 71.7195 308.597V298.83ZM81.0648 311.205C80.1188 311.205 79.3027 310.996 78.6167 310.578C77.9348 310.156 77.4086 309.568 77.0378 308.814C76.6714 308.055 76.4881 307.173 76.4881 306.168C76.4881 305.162 76.6714 304.276 77.0378 303.509C77.4086 302.737 77.9242 302.136 78.5847 301.706C79.2495 301.271 80.025 301.054 80.9114 301.054C81.4228 301.054 81.9277 301.139 82.4263 301.31C82.9249 301.48 83.3787 301.757 83.7878 302.141C84.1969 302.52 84.5229 303.023 84.7658 303.649C85.0087 304.276 85.1302 305.047 85.1302 305.963V306.602H77.562V305.298H83.5961C83.5961 304.744 83.4853 304.25 83.2637 303.815C83.0464 303.381 82.7353 303.038 82.3304 302.786C81.9299 302.535 81.4569 302.409 80.9114 302.409C80.3106 302.409 79.7907 302.558 79.3517 302.857C78.9171 303.151 78.5826 303.534 78.3482 304.007C78.1138 304.48 77.9966 304.987 77.9966 305.528V306.398C77.9966 307.139 78.1245 307.768 78.3802 308.283C78.6401 308.795 79.0002 309.185 79.4604 309.453C79.9206 309.717 80.4554 309.849 81.0648 309.849C81.4611 309.849 81.8191 309.794 82.1387 309.683C82.4625 309.568 82.7417 309.398 82.976 309.172C83.2104 308.942 83.3915 308.656 83.5194 308.315L84.9767 308.724C84.8233 309.219 84.5655 309.653 84.2033 310.028C83.8411 310.399 83.3937 310.689 82.861 310.898C82.3283 311.102 81.7296 311.205 81.0648 311.205ZM94.2966 311.23C93.6744 311.23 93.1098 311.113 92.6027 310.879C92.0956 310.64 91.6929 310.297 91.3946 309.849C91.0963 309.398 90.9472 308.852 90.9472 308.213C90.9472 307.651 91.058 307.195 91.2796 306.845C91.5012 306.491 91.7973 306.214 92.1681 306.014C92.5388 305.814 92.9479 305.665 93.3953 305.567C93.847 305.464 94.3009 305.384 94.7568 305.324C95.3534 305.247 95.8371 305.19 96.2078 305.151C96.5828 305.109 96.8556 305.038 97.026 304.94C97.2007 304.842 97.2881 304.672 97.2881 304.429V304.378C97.2881 303.747 97.1155 303.257 96.7703 302.908C96.4294 302.558 95.9117 302.384 95.2171 302.384C94.4969 302.384 93.9323 302.541 93.5232 302.857C93.1141 303.172 92.8264 303.509 92.6602 303.866L91.2284 303.355C91.4841 302.759 91.825 302.294 92.2511 301.962C92.6815 301.625 93.1503 301.391 93.6574 301.259C94.1688 301.122 94.6716 301.054 95.1659 301.054C95.4813 301.054 95.8435 301.092 96.2526 301.169C96.6659 301.241 97.0644 301.393 97.4479 301.623C97.8357 301.853 98.1574 302.2 98.4131 302.665C98.6688 303.129 98.7966 303.751 98.7966 304.531V311H97.2881V309.67H97.2114C97.1091 309.884 96.9387 310.112 96.7 310.354C96.4614 310.597 96.1439 310.804 95.7476 310.974C95.3513 311.145 94.8676 311.23 94.2966 311.23ZM94.5267 309.875C95.1233 309.875 95.6262 309.758 96.0352 309.523C96.4486 309.289 96.7597 308.987 96.9685 308.616C97.1815 308.245 97.2881 307.855 97.2881 307.446V306.065C97.2242 306.142 97.0835 306.212 96.8662 306.276C96.6531 306.336 96.406 306.389 96.1247 306.436C95.8477 306.479 95.5771 306.517 95.3129 306.551C95.053 306.581 94.8421 306.607 94.6801 306.628C94.2881 306.679 93.9216 306.762 93.5807 306.877C93.244 306.988 92.9713 307.156 92.7625 307.382C92.558 307.604 92.4557 307.906 92.4557 308.29C92.4557 308.814 92.6496 309.21 93.0374 309.479C93.4294 309.743 93.9259 309.875 94.5267 309.875ZM102.519 305.094V311H101.01V301.182H102.467V302.716H102.595C102.825 302.217 103.175 301.817 103.644 301.514C104.112 301.207 104.717 301.054 105.459 301.054C106.124 301.054 106.705 301.19 107.204 301.463C107.702 301.732 108.09 302.141 108.367 302.69C108.644 303.236 108.783 303.926 108.783 304.761V311H107.274V304.864C107.274 304.092 107.074 303.491 106.673 303.061C106.273 302.626 105.723 302.409 105.024 302.409C104.543 302.409 104.112 302.513 103.733 302.722C103.358 302.931 103.062 303.236 102.844 303.636C102.627 304.037 102.519 304.523 102.519 305.094ZM119.51 311.205C118.624 311.205 117.846 310.994 117.177 310.572C116.513 310.15 115.993 309.56 115.618 308.801C115.247 308.043 115.062 307.156 115.062 306.142C115.062 305.119 115.247 304.227 115.618 303.464C115.993 302.701 116.513 302.109 117.177 301.687C117.846 301.265 118.624 301.054 119.51 301.054C120.397 301.054 121.172 301.265 121.837 301.687C122.506 302.109 123.026 302.701 123.397 303.464C123.772 304.227 123.959 305.119 123.959 306.142C123.959 307.156 123.772 308.043 123.397 308.801C123.026 309.56 122.506 310.15 121.837 310.572C121.172 310.994 120.397 311.205 119.51 311.205ZM119.51 309.849C120.184 309.849 120.738 309.677 121.172 309.332C121.607 308.987 121.929 308.533 122.138 307.97C122.346 307.408 122.451 306.798 122.451 306.142C122.451 305.486 122.346 304.874 122.138 304.308C121.929 303.741 121.607 303.283 121.172 302.933C120.738 302.584 120.184 302.409 119.51 302.409C118.837 302.409 118.283 302.584 117.848 302.933C117.414 303.283 117.092 303.741 116.883 304.308C116.674 304.874 116.57 305.486 116.57 306.142C116.57 306.798 116.674 307.408 116.883 307.97C117.092 308.533 117.414 308.987 117.848 309.332C118.283 309.677 118.837 309.849 119.51 309.849ZM125.722 311V301.182H127.179V302.665H127.282C127.461 302.179 127.785 301.785 128.253 301.482C128.722 301.18 129.25 301.028 129.838 301.028C129.949 301.028 130.088 301.031 130.254 301.035C130.42 301.039 130.546 301.045 130.631 301.054V302.588C130.58 302.575 130.463 302.556 130.28 302.531C130.101 302.501 129.911 302.486 129.711 302.486C129.233 302.486 128.807 302.586 128.432 302.786C128.062 302.982 127.767 303.255 127.55 303.604C127.337 303.95 127.231 304.344 127.231 304.787V311H125.722ZM135.544 314.886C134.815 314.886 134.188 314.793 133.664 314.605C133.14 314.422 132.703 314.179 132.354 313.876C132.009 313.578 131.734 313.259 131.529 312.918L132.731 312.074C132.867 312.253 133.04 312.457 133.249 312.688C133.458 312.922 133.743 313.124 134.105 313.295C134.472 313.469 134.951 313.557 135.544 313.557C136.336 313.557 136.99 313.365 137.506 312.982C138.022 312.598 138.279 311.997 138.279 311.179V309.185H138.151C138.041 309.364 137.883 309.585 137.678 309.849C137.478 310.109 137.188 310.342 136.809 310.546C136.434 310.746 135.927 310.847 135.288 310.847C134.495 310.847 133.784 310.659 133.153 310.284C132.526 309.909 132.03 309.364 131.664 308.648C131.301 307.932 131.12 307.062 131.12 306.04C131.12 305.034 131.297 304.158 131.651 303.413C132.004 302.663 132.497 302.083 133.127 301.674C133.758 301.261 134.487 301.054 135.313 301.054C135.953 301.054 136.46 301.161 136.835 301.374C137.214 301.582 137.504 301.821 137.704 302.089C137.909 302.354 138.066 302.571 138.177 302.741H138.33V301.182H139.788V311.281C139.788 312.125 139.596 312.811 139.213 313.339C138.833 313.872 138.322 314.262 137.678 314.509C137.039 314.761 136.328 314.886 135.544 314.886ZM135.492 309.491C136.097 309.491 136.609 309.353 137.026 309.076C137.444 308.799 137.762 308.401 137.979 307.881C138.196 307.361 138.305 306.739 138.305 306.014C138.305 305.307 138.198 304.683 137.985 304.141C137.772 303.6 137.457 303.176 137.039 302.869C136.622 302.562 136.106 302.409 135.492 302.409C134.853 302.409 134.321 302.571 133.894 302.895C133.472 303.219 133.155 303.653 132.942 304.199C132.733 304.744 132.629 305.349 132.629 306.014C132.629 306.696 132.735 307.299 132.948 307.823C133.166 308.343 133.485 308.752 133.907 309.05C134.333 309.344 134.862 309.491 135.492 309.491ZM144.898 311.23C144.276 311.23 143.712 311.113 143.205 310.879C142.697 310.64 142.295 310.297 141.996 309.849C141.698 309.398 141.549 308.852 141.549 308.213C141.549 307.651 141.66 307.195 141.881 306.845C142.103 306.491 142.399 306.214 142.77 306.014C143.141 305.814 143.55 305.665 143.997 305.567C144.449 305.464 144.903 305.384 145.359 305.324C145.955 305.247 146.439 305.19 146.81 305.151C147.185 305.109 147.457 305.038 147.628 304.94C147.803 304.842 147.89 304.672 147.89 304.429V304.378C147.89 303.747 147.717 303.257 147.372 302.908C147.031 302.558 146.513 302.384 145.819 302.384C145.099 302.384 144.534 302.541 144.125 302.857C143.716 303.172 143.428 303.509 143.262 303.866L141.83 303.355C142.086 302.759 142.427 302.294 142.853 301.962C143.283 301.625 143.752 301.391 144.259 301.259C144.771 301.122 145.273 301.054 145.768 301.054C146.083 301.054 146.445 301.092 146.854 301.169C147.268 301.241 147.666 301.393 148.05 301.623C148.437 301.853 148.759 302.2 149.015 302.665C149.271 303.129 149.398 303.751 149.398 304.531V311H147.89V309.67H147.813C147.711 309.884 147.54 310.112 147.302 310.354C147.063 310.597 146.746 310.804 146.349 310.974C145.953 311.145 145.469 311.23 144.898 311.23ZM145.129 309.875C145.725 309.875 146.228 309.758 146.637 309.523C147.05 309.289 147.361 308.987 147.57 308.616C147.783 308.245 147.89 307.855 147.89 307.446V306.065C147.826 306.142 147.685 306.212 147.468 306.276C147.255 306.336 147.008 306.389 146.727 306.436C146.45 306.479 146.179 306.517 145.915 306.551C145.655 306.581 145.444 306.607 145.282 306.628C144.89 306.679 144.523 306.762 144.182 306.877C143.846 306.988 143.573 307.156 143.364 307.382C143.16 307.604 143.057 307.906 143.057 308.29C143.057 308.814 143.251 309.21 143.639 309.479C144.031 309.743 144.528 309.875 145.129 309.875ZM153.12 305.094V311H151.612V301.182H153.069V302.716H153.197C153.427 302.217 153.777 301.817 154.245 301.514C154.714 301.207 155.319 301.054 156.061 301.054C156.725 301.054 157.307 301.19 157.806 301.463C158.304 301.732 158.692 302.141 158.969 302.69C159.246 303.236 159.385 303.926 159.385 304.761V311H157.876V304.864C157.876 304.092 157.676 303.491 157.275 303.061C156.875 302.626 156.325 302.409 155.626 302.409C155.144 302.409 154.714 302.513 154.335 302.722C153.96 302.931 153.664 303.236 153.446 303.636C153.229 304.037 153.12 304.523 153.12 305.094ZM161.601 311V301.182H163.11V311H161.601ZM162.368 299.545C162.074 299.545 161.821 299.445 161.607 299.245C161.399 299.045 161.294 298.804 161.294 298.523C161.294 298.241 161.399 298.001 161.607 297.8C161.821 297.6 162.074 297.5 162.368 297.5C162.662 297.5 162.914 297.6 163.122 297.8C163.335 298.001 163.442 298.241 163.442 298.523C163.442 298.804 163.335 299.045 163.122 299.245C162.914 299.445 162.662 299.545 162.368 299.545ZM165.051 311V309.849L170.625 302.69V302.588H165.23V301.182H172.568V302.384L167.148 309.491V309.594H172.747V311H165.051ZM177.42 311.23C176.798 311.23 176.233 311.113 175.726 310.879C175.219 310.64 174.816 310.297 174.518 309.849C174.22 309.398 174.071 308.852 174.071 308.213C174.071 307.651 174.181 307.195 174.403 306.845C174.625 306.491 174.921 306.214 175.291 306.014C175.662 305.814 176.071 305.665 176.519 305.567C176.97 305.464 177.424 305.384 177.88 305.324C178.477 305.247 178.961 305.19 179.331 305.151C179.706 305.109 179.979 305.038 180.149 304.94C180.324 304.842 180.412 304.672 180.412 304.429V304.378C180.412 303.747 180.239 303.257 179.894 302.908C179.553 302.558 179.035 302.384 178.341 302.384C177.62 302.384 177.056 302.541 176.647 302.857C176.238 303.172 175.95 303.509 175.784 303.866L174.352 303.355C174.608 302.759 174.948 302.294 175.375 301.962C175.805 301.625 176.274 301.391 176.781 301.259C177.292 301.122 177.795 301.054 178.289 301.054C178.605 301.054 178.967 301.092 179.376 301.169C179.789 301.241 180.188 301.393 180.571 301.623C180.959 301.853 181.281 302.2 181.537 302.665C181.792 303.129 181.92 303.751 181.92 304.531V311H180.412V309.67H180.335C180.233 309.884 180.062 310.112 179.823 310.354C179.585 310.597 179.267 310.804 178.871 310.974C178.475 311.145 177.991 311.23 177.42 311.23ZM177.65 309.875C178.247 309.875 178.75 309.758 179.159 309.523C179.572 309.289 179.883 308.987 180.092 308.616C180.305 308.245 180.412 307.855 180.412 307.446V306.065C180.348 306.142 180.207 306.212 179.99 306.276C179.777 306.336 179.529 306.389 179.248 306.436C178.971 306.479 178.701 306.517 178.436 306.551C178.176 306.581 177.966 306.607 177.804 306.628C177.412 306.679 177.045 306.762 176.704 306.877C176.367 306.988 176.095 307.156 175.886 307.382C175.681 307.604 175.579 307.906 175.579 308.29C175.579 308.814 175.773 309.21 176.161 309.479C176.553 309.743 177.049 309.875 177.65 309.875ZM188.403 301.182V302.46H183.315V301.182H188.403ZM184.798 298.83H186.307V308.188C186.307 308.614 186.368 308.933 186.492 309.146C186.62 309.355 186.782 309.496 186.978 309.568C187.178 309.636 187.389 309.67 187.611 309.67C187.777 309.67 187.913 309.662 188.02 309.645C188.126 309.624 188.212 309.607 188.275 309.594L188.582 310.949C188.48 310.987 188.337 311.026 188.154 311.064C187.971 311.107 187.739 311.128 187.457 311.128C187.031 311.128 186.614 311.036 186.204 310.853C185.8 310.67 185.463 310.391 185.194 310.016C184.93 309.641 184.798 309.168 184.798 308.597V298.83ZM190.132 311V301.182H191.641V311H190.132ZM190.9 299.545C190.605 299.545 190.352 299.445 190.139 299.245C189.93 299.045 189.826 298.804 189.826 298.523C189.826 298.241 189.93 298.001 190.139 297.8C190.352 297.6 190.605 297.5 190.9 297.5C191.194 297.5 191.445 297.6 191.654 297.8C191.867 298.001 191.973 298.241 191.973 298.523C191.973 298.804 191.867 299.045 191.654 299.245C191.445 299.445 191.194 299.545 190.9 299.545ZM197.853 311.205C196.966 311.205 196.189 310.994 195.519 310.572C194.855 310.15 194.335 309.56 193.96 308.801C193.589 308.043 193.404 307.156 193.404 306.142C193.404 305.119 193.589 304.227 193.96 303.464C194.335 302.701 194.855 302.109 195.519 301.687C196.189 301.265 196.966 301.054 197.853 301.054C198.739 301.054 199.515 301.265 200.179 301.687C200.848 302.109 201.368 302.701 201.739 303.464C202.114 304.227 202.301 305.119 202.301 306.142C202.301 307.156 202.114 308.043 201.739 308.801C201.368 309.56 200.848 310.15 200.179 310.572C199.515 310.994 198.739 311.205 197.853 311.205ZM197.853 309.849C198.526 309.849 199.08 309.677 199.515 309.332C199.949 308.987 200.271 308.533 200.48 307.97C200.689 307.408 200.793 306.798 200.793 306.142C200.793 305.486 200.689 304.874 200.48 304.308C200.271 303.741 199.949 303.283 199.515 302.933C199.08 302.584 198.526 302.409 197.853 302.409C197.179 302.409 196.625 302.584 196.191 302.933C195.756 303.283 195.434 303.741 195.225 304.308C195.017 304.874 194.912 305.486 194.912 306.142C194.912 306.798 195.017 307.408 195.225 307.97C195.434 308.533 195.756 308.987 196.191 309.332C196.625 309.677 197.179 309.849 197.853 309.849ZM205.573 305.094V311H204.064V301.182H205.522V302.716H205.649C205.88 302.217 206.229 301.817 206.698 301.514C207.166 301.207 207.772 301.054 208.513 301.054C209.178 301.054 209.76 301.19 210.258 301.463C210.757 301.732 211.144 302.141 211.421 302.69C211.698 303.236 211.837 303.926 211.837 304.761V311H210.328V304.864C210.328 304.092 210.128 303.491 209.728 303.061C209.327 302.626 208.777 302.409 208.078 302.409C207.597 302.409 207.166 302.513 206.787 302.722C206.412 302.931 206.116 303.236 205.899 303.636C205.681 304.037 205.573 304.523 205.573 305.094ZM215.357 297.909V302.409H213.951V297.909H215.357ZM224.458 303.381L223.103 303.764C223.018 303.538 222.892 303.319 222.726 303.106C222.564 302.888 222.343 302.71 222.061 302.569C221.78 302.428 221.42 302.358 220.981 302.358C220.38 302.358 219.879 302.496 219.479 302.773C219.083 303.046 218.884 303.393 218.884 303.815C218.884 304.19 219.021 304.487 219.294 304.704C219.566 304.921 219.992 305.102 220.572 305.247L222.029 305.605C222.907 305.818 223.561 306.144 223.992 306.583C224.422 307.018 224.637 307.578 224.637 308.264C224.637 308.827 224.475 309.33 224.151 309.773C223.832 310.216 223.384 310.565 222.809 310.821C222.234 311.077 221.565 311.205 220.802 311.205C219.801 311.205 218.972 310.987 218.316 310.553C217.659 310.118 217.244 309.483 217.069 308.648L218.501 308.29C218.637 308.818 218.895 309.214 219.274 309.479C219.658 309.743 220.159 309.875 220.776 309.875C221.48 309.875 222.038 309.726 222.451 309.428C222.869 309.125 223.078 308.763 223.078 308.341C223.078 308 222.958 307.714 222.72 307.484C222.481 307.25 222.115 307.075 221.62 306.96L219.984 306.577C219.085 306.364 218.424 306.033 218.002 305.586C217.585 305.134 217.376 304.57 217.376 303.892C217.376 303.338 217.531 302.848 217.843 302.422C218.158 301.996 218.586 301.661 219.127 301.418C219.673 301.175 220.291 301.054 220.981 301.054C221.953 301.054 222.715 301.267 223.269 301.693C223.828 302.119 224.224 302.682 224.458 303.381ZM23.0881 333.205C22.2699 333.205 21.5476 332.998 20.9212 332.585C20.2947 332.167 19.8047 331.579 19.451 330.82C19.0973 330.058 18.9205 329.156 18.9205 328.116C18.9205 327.085 19.0973 326.19 19.451 325.432C19.8047 324.673 20.2969 324.087 20.9276 323.674C21.5582 323.261 22.2869 323.054 23.1136 323.054C23.7528 323.054 24.2578 323.161 24.6286 323.374C25.0036 323.582 25.2891 323.821 25.4851 324.089C25.6854 324.354 25.8409 324.571 25.9517 324.741H26.0795V319.909H27.5881V333H26.1307V331.491H25.9517C25.8409 331.67 25.6832 331.896 25.4787 332.169C25.2741 332.437 24.9822 332.678 24.603 332.891C24.2237 333.1 23.7188 333.205 23.0881 333.205ZM23.2926 331.849C23.8977 331.849 24.4091 331.692 24.8267 331.376C25.2443 331.057 25.5618 330.616 25.7791 330.053C25.9964 329.487 26.1051 328.832 26.1051 328.091C26.1051 327.358 25.9986 326.717 25.7855 326.167C25.5724 325.613 25.2571 325.183 24.8395 324.876C24.4219 324.565 23.9063 324.409 23.2926 324.409C22.6534 324.409 22.1207 324.573 21.6946 324.901C21.2727 325.225 20.9553 325.666 20.7422 326.224C20.5334 326.778 20.429 327.401 20.429 328.091C20.429 328.79 20.5355 329.425 20.7486 329.996C20.9659 330.562 21.2855 331.014 21.7074 331.351C22.1335 331.683 22.6619 331.849 23.2926 331.849ZM30.0204 333V323.182H31.5289V333H30.0204ZM30.7874 321.545C30.4934 321.545 30.2398 321.445 30.0268 321.245C29.818 321.045 29.7136 320.804 29.7136 320.523C29.7136 320.241 29.818 320.001 30.0268 319.8C30.2398 319.6 30.4934 319.5 30.7874 319.5C31.0814 319.5 31.3329 319.6 31.5417 319.8C31.7547 320.001 31.8613 320.241 31.8613 320.523C31.8613 320.804 31.7547 321.045 31.5417 321.245C31.3329 321.445 31.0814 321.545 30.7874 321.545ZM37.7149 336.886C36.9862 336.886 36.3598 336.793 35.8357 336.605C35.3115 336.422 34.8747 336.179 34.5253 335.876C34.1801 335.578 33.9053 335.259 33.7007 334.918L34.9024 334.074C35.0388 334.253 35.2114 334.457 35.4202 334.688C35.629 334.922 35.9145 335.124 36.2767 335.295C36.6432 335.469 37.1226 335.557 37.7149 335.557C38.5075 335.557 39.1617 335.365 39.6773 334.982C40.1929 334.598 40.4507 333.997 40.4507 333.179V331.185H40.3229C40.2121 331.364 40.0544 331.585 39.8499 331.849C39.6496 332.109 39.3598 332.342 38.9805 332.546C38.6055 332.746 38.0984 332.847 37.4592 332.847C36.6666 332.847 35.955 332.659 35.3243 332.284C34.6979 331.909 34.2014 331.364 33.835 330.648C33.4727 329.932 33.2916 329.062 33.2916 328.04C33.2916 327.034 33.4685 326.158 33.8222 325.413C34.1759 324.663 34.668 324.083 35.2987 323.674C35.9294 323.261 36.6581 323.054 37.4848 323.054C38.124 323.054 38.6311 323.161 39.0061 323.374C39.3854 323.582 39.6751 323.821 39.8754 324.089C40.08 324.354 40.2376 324.571 40.3484 324.741H40.5019V323.182H41.9592V333.281C41.9592 334.125 41.7675 334.811 41.384 335.339C41.0047 335.872 40.4933 336.262 39.8499 336.509C39.2107 336.761 38.499 336.886 37.7149 336.886ZM37.6638 331.491C38.2689 331.491 38.7803 331.353 39.1979 331.076C39.6155 330.799 39.933 330.401 40.1503 329.881C40.3676 329.361 40.4763 328.739 40.4763 328.014C40.4763 327.307 40.3698 326.683 40.1567 326.141C39.9436 325.6 39.6283 325.176 39.2107 324.869C38.793 324.562 38.2774 324.409 37.6638 324.409C37.0246 324.409 36.4919 324.571 36.0658 324.895C35.6439 325.219 35.3264 325.653 35.1134 326.199C34.9046 326.744 34.8001 327.349 34.8001 328.014C34.8001 328.696 34.9067 329.299 35.1198 329.823C35.3371 330.343 35.6567 330.752 36.0786 331.05C36.5047 331.344 37.0331 331.491 37.6638 331.491ZM44.1806 333V323.182H45.6891V333H44.1806ZM44.9476 321.545C44.6536 321.545 44.4001 321.445 44.187 321.245C43.9782 321.045 43.8738 320.804 43.8738 320.523C43.8738 320.241 43.9782 320.001 44.187 319.8C44.4001 319.6 44.6536 319.5 44.9476 319.5C45.2417 319.5 45.4931 319.6 45.7019 319.8C45.915 320.001 46.0215 320.241 46.0215 320.523C46.0215 320.804 45.915 321.045 45.7019 321.245C45.4931 321.445 45.2417 321.545 44.9476 321.545ZM52.182 323.182V324.46H47.0939V323.182H52.182ZM48.5769 320.83H50.0854V330.188C50.0854 330.614 50.1472 330.933 50.2708 331.146C50.3986 331.355 50.5605 331.496 50.7565 331.568C50.9568 331.636 51.1678 331.67 51.3894 331.67C51.5556 331.67 51.6919 331.662 51.7985 331.645C51.905 331.624 51.9902 331.607 52.0541 331.594L52.361 332.949C52.2587 332.987 52.1159 333.026 51.9327 333.064C51.7494 333.107 51.5172 333.128 51.236 333.128C50.8098 333.128 50.3922 333.036 49.9831 332.853C49.5783 332.67 49.2416 332.391 48.9732 332.016C48.709 331.641 48.5769 331.168 48.5769 330.597V320.83ZM56.8004 333.23C56.1782 333.23 55.6136 333.113 55.1065 332.879C54.5994 332.64 54.1967 332.297 53.8984 331.849C53.6001 331.398 53.4509 330.852 53.4509 330.213C53.4509 329.651 53.5617 329.195 53.7833 328.845C54.0049 328.491 54.3011 328.214 54.6718 328.014C55.0425 327.814 55.4516 327.665 55.8991 327.567C56.3508 327.464 56.8046 327.384 57.2606 327.324C57.8572 327.247 58.3408 327.19 58.7116 327.151C59.0866 327.109 59.3593 327.038 59.5298 326.94C59.7045 326.842 59.7918 326.672 59.7918 326.429V326.378C59.7918 325.747 59.6192 325.257 59.2741 324.908C58.9332 324.558 58.4154 324.384 57.7208 324.384C57.0006 324.384 56.436 324.541 56.0269 324.857C55.6178 325.172 55.3302 325.509 55.164 325.866L53.7322 325.355C53.9879 324.759 54.3288 324.294 54.7549 323.962C55.1853 323.625 55.654 323.391 56.1611 323.259C56.6725 323.122 57.1754 323.054 57.6697 323.054C57.985 323.054 58.3472 323.092 58.7563 323.169C59.1697 323.241 59.5681 323.393 59.9516 323.623C60.3394 323.853 60.6611 324.2 60.9168 324.665C61.1725 325.129 61.3004 325.751 61.3004 326.531V333H59.7918V331.67H59.7151C59.6129 331.884 59.4424 332.112 59.2038 332.354C58.9651 332.597 58.6477 332.804 58.2513 332.974C57.855 333.145 57.3714 333.23 56.8004 333.23ZM57.0305 331.875C57.6271 331.875 58.1299 331.758 58.539 331.523C58.9523 331.289 59.2634 330.987 59.4722 330.616C59.6853 330.245 59.7918 329.855 59.7918 329.446V328.065C59.7279 328.142 59.5873 328.212 59.37 328.276C59.1569 328.336 58.9097 328.389 58.6285 328.436C58.3515 328.479 58.0809 328.517 57.8167 328.551C57.5567 328.581 57.3458 328.607 57.1839 328.628C56.7918 328.679 56.4254 328.762 56.0844 328.877C55.7478 328.988 55.4751 329.156 55.2663 329.382C55.0617 329.604 54.9594 329.906 54.9594 330.29C54.9594 330.814 55.1533 331.21 55.5411 331.479C55.9332 331.743 56.4296 331.875 57.0305 331.875ZM65.0222 319.909V333H63.5137V319.909H65.0222ZM71.7677 333V323.182H73.2251V324.665H73.3274C73.5063 324.179 73.8302 323.785 74.299 323.482C74.7677 323.18 75.2961 323.028 75.8842 323.028C75.995 323.028 76.1335 323.031 76.2997 323.035C76.4659 323.039 76.5916 323.045 76.6768 323.054V324.588C76.6257 324.575 76.5085 324.556 76.3252 324.531C76.1463 324.501 75.9566 324.486 75.7563 324.486C75.2791 324.486 74.8529 324.586 74.4779 324.786C74.1072 324.982 73.8132 325.255 73.5958 325.604C73.3828 325.95 73.2762 326.344 73.2762 326.787V333H71.7677ZM81.7426 333.205C80.7966 333.205 79.9806 332.996 79.2945 332.578C78.6127 332.156 78.0864 331.568 77.7156 330.814C77.3492 330.055 77.1659 329.173 77.1659 328.168C77.1659 327.162 77.3492 326.276 77.7156 325.509C78.0864 324.737 78.602 324.136 79.2625 323.706C79.9273 323.271 80.7029 323.054 81.5892 323.054C82.1006 323.054 82.6056 323.139 83.1041 323.31C83.6027 323.48 84.0565 323.757 84.4656 324.141C84.8747 324.52 85.2007 325.023 85.4436 325.649C85.6865 326.276 85.808 327.047 85.808 327.963V328.602H78.2398V327.298H84.2739C84.2739 326.744 84.1631 326.25 83.9415 325.815C83.7242 325.381 83.4131 325.038 83.0083 324.786C82.6077 324.535 82.1347 324.409 81.5892 324.409C80.9884 324.409 80.4685 324.558 80.0296 324.857C79.5949 325.151 79.2604 325.534 79.026 326.007C78.7916 326.48 78.6744 326.987 78.6744 327.528V328.398C78.6744 329.139 78.8023 329.768 79.058 330.283C79.3179 330.795 79.678 331.185 80.1382 331.453C80.5985 331.717 81.1333 331.849 81.7426 331.849C82.1389 331.849 82.4969 331.794 82.8165 331.683C83.1404 331.568 83.4195 331.398 83.6538 331.172C83.8882 330.942 84.0693 330.656 84.1972 330.315L85.6546 330.724C85.5012 331.219 85.2433 331.653 84.8811 332.028C84.5189 332.399 84.0715 332.689 83.5388 332.898C83.0061 333.102 82.4074 333.205 81.7426 333.205ZM90.4519 333.23C89.8298 333.23 89.2651 333.113 88.758 332.879C88.2509 332.64 87.8482 332.297 87.5499 331.849C87.2516 331.398 87.1025 330.852 87.1025 330.213C87.1025 329.651 87.2133 329.195 87.4349 328.845C87.6565 328.491 87.9526 328.214 88.3234 328.014C88.6941 327.814 89.1032 327.665 89.5506 327.567C90.0023 327.464 90.4562 327.384 90.9121 327.324C91.5087 327.247 91.9924 327.19 92.3631 327.151C92.7381 327.109 93.0109 327.038 93.1813 326.94C93.356 326.842 93.4434 326.672 93.4434 326.429V326.378C93.4434 325.747 93.2708 325.257 92.9256 324.908C92.5847 324.558 92.067 324.384 91.3724 324.384C90.6522 324.384 90.0876 324.541 89.6785 324.857C89.2694 325.172 88.9817 325.509 88.8156 325.866L87.3837 325.355C87.6394 324.759 87.9803 324.294 88.4065 323.962C88.8369 323.625 89.3056 323.391 89.8127 323.259C90.3241 323.122 90.8269 323.054 91.3212 323.054C91.6366 323.054 91.9988 323.092 92.4079 323.169C92.8212 323.241 93.2197 323.393 93.6032 323.623C93.991 323.853 94.3127 324.2 94.5684 324.665C94.8241 325.129 94.9519 325.751 94.9519 326.531V333H93.4434V331.67H93.3667C93.2644 331.884 93.094 332.112 92.8553 332.354C92.6167 332.597 92.2992 332.804 91.9029 332.974C91.5066 333.145 91.0229 333.23 90.4519 333.23ZM90.682 331.875C91.2786 331.875 91.7815 331.758 92.1906 331.523C92.6039 331.289 92.915 330.987 93.1238 330.616C93.3369 330.245 93.4434 329.855 93.4434 329.446V328.065C93.3795 328.142 93.2388 328.212 93.0215 328.276C92.8085 328.336 92.5613 328.389 92.28 328.436C92.0031 328.479 91.7325 328.517 91.4683 328.551C91.2083 328.581 90.9974 328.607 90.8354 328.628C90.4434 328.679 90.0769 328.762 89.736 328.877C89.3994 328.988 89.1266 329.156 88.9178 329.382C88.7133 329.604 88.611 329.906 88.611 330.29C88.611 330.814 88.8049 331.21 89.1927 331.479C89.5847 331.743 90.0812 331.875 90.682 331.875ZM100.873 333.205C100.054 333.205 99.3322 332.998 98.7058 332.585C98.0794 332.167 97.5893 331.579 97.2356 330.82C96.8819 330.058 96.7051 329.156 96.7051 328.116C96.7051 327.085 96.8819 326.19 97.2356 325.432C97.5893 324.673 98.0815 324.087 98.7122 323.674C99.3428 323.261 100.072 323.054 100.898 323.054C101.537 323.054 102.042 323.161 102.413 323.374C102.788 323.582 103.074 323.821 103.27 324.089C103.47 324.354 103.626 324.571 103.736 324.741H103.864V319.909H105.373V333H103.915V331.491H103.736C103.626 331.67 103.468 331.896 103.263 332.169C103.059 332.437 102.767 332.678 102.388 332.891C102.008 333.1 101.503 333.205 100.873 333.205ZM101.077 331.849C101.682 331.849 102.194 331.692 102.611 331.376C103.029 331.057 103.346 330.616 103.564 330.053C103.781 329.487 103.89 328.832 103.89 328.091C103.89 327.358 103.783 326.717 103.57 326.167C103.357 325.613 103.042 325.183 102.624 324.876C102.206 324.565 101.691 324.409 101.077 324.409C100.438 324.409 99.9053 324.573 99.4792 324.901C99.0573 325.225 98.7399 325.666 98.5268 326.224C98.318 326.778 98.2136 327.401 98.2136 328.091C98.2136 328.79 98.3201 329.425 98.5332 329.996C98.7505 330.562 99.0701 331.014 99.492 331.351C99.9181 331.683 100.447 331.849 101.077 331.849ZM107.805 333V323.182H109.313V333H107.805ZM108.572 321.545C108.278 321.545 108.024 321.445 107.811 321.245C107.603 321.045 107.498 320.804 107.498 320.523C107.498 320.241 107.603 320.001 107.811 319.8C108.024 319.6 108.278 319.5 108.572 319.5C108.866 319.5 109.117 319.6 109.326 319.8C109.539 320.001 109.646 320.241 109.646 320.523C109.646 320.804 109.539 321.045 109.326 321.245C109.117 321.445 108.866 321.545 108.572 321.545ZM113.045 327.094V333H111.536V323.182H112.994V324.716H113.122C113.352 324.217 113.701 323.817 114.17 323.514C114.639 323.207 115.244 323.054 115.985 323.054C116.65 323.054 117.232 323.19 117.73 323.463C118.229 323.732 118.617 324.141 118.894 324.69C119.171 325.236 119.309 325.926 119.309 326.761V333H117.801V326.864C117.801 326.092 117.6 325.491 117.2 325.061C116.799 324.626 116.25 324.409 115.551 324.409C115.069 324.409 114.639 324.513 114.259 324.722C113.884 324.931 113.588 325.236 113.371 325.636C113.154 326.037 113.045 326.523 113.045 327.094ZM125.642 333.205C124.696 333.205 123.88 332.996 123.194 332.578C122.512 332.156 121.986 331.568 121.615 330.814C121.249 330.055 121.066 329.173 121.066 328.168C121.066 327.162 121.249 326.276 121.615 325.509C121.986 324.737 122.502 324.136 123.162 323.706C123.827 323.271 124.602 323.054 125.489 323.054C126 323.054 126.505 323.139 127.004 323.31C127.502 323.48 127.956 323.757 128.365 324.141C128.774 324.52 129.1 325.023 129.343 325.649C129.586 326.276 129.708 327.047 129.708 327.963V328.602H122.139V327.298H128.173C128.173 326.744 128.063 326.25 127.841 325.815C127.624 325.381 127.313 325.038 126.908 324.786C126.507 324.535 126.034 324.409 125.489 324.409C124.888 324.409 124.368 324.558 123.929 324.857C123.495 325.151 123.16 325.534 122.926 326.007C122.691 326.48 122.574 326.987 122.574 327.528V328.398C122.574 329.139 122.702 329.768 122.958 330.283C123.218 330.795 123.578 331.185 124.038 331.453C124.498 331.717 125.033 331.849 125.642 331.849C126.039 331.849 126.397 331.794 126.716 331.683C127.04 331.568 127.319 331.398 127.553 331.172C127.788 330.942 127.969 330.656 128.097 330.315L129.554 330.724C129.401 331.219 129.143 331.653 128.781 332.028C128.419 332.399 127.971 332.689 127.438 332.898C126.906 333.102 126.307 333.205 125.642 333.205ZM138.417 325.381L137.062 325.764C136.977 325.538 136.851 325.319 136.685 325.106C136.523 324.888 136.301 324.71 136.02 324.569C135.739 324.428 135.379 324.358 134.94 324.358C134.339 324.358 133.838 324.496 133.437 324.773C133.041 325.046 132.843 325.393 132.843 325.815C132.843 326.19 132.979 326.487 133.252 326.704C133.525 326.921 133.951 327.102 134.531 327.247L135.988 327.605C136.866 327.818 137.52 328.144 137.95 328.583C138.381 329.018 138.596 329.578 138.596 330.264C138.596 330.827 138.434 331.33 138.11 331.773C137.79 332.216 137.343 332.565 136.768 332.821C136.192 333.077 135.523 333.205 134.761 333.205C133.759 333.205 132.93 332.987 132.274 332.553C131.618 332.118 131.202 331.483 131.028 330.648L132.459 330.29C132.596 330.818 132.854 331.214 133.233 331.479C133.616 331.743 134.117 331.875 134.735 331.875C135.438 331.875 135.996 331.726 136.41 331.428C136.827 331.125 137.036 330.763 137.036 330.341C137.036 330 136.917 329.714 136.678 329.484C136.44 329.25 136.073 329.075 135.579 328.96L133.942 328.577C133.043 328.364 132.383 328.033 131.961 327.586C131.543 327.134 131.334 326.57 131.334 325.892C131.334 325.338 131.49 324.848 131.801 324.422C132.116 323.996 132.545 323.661 133.086 323.418C133.631 323.175 134.249 323.054 134.94 323.054C135.911 323.054 136.674 323.267 137.228 323.693C137.786 324.119 138.182 324.682 138.417 325.381ZM147.281 325.381L145.926 325.764C145.841 325.538 145.715 325.319 145.549 325.106C145.387 324.888 145.165 324.71 144.884 324.569C144.603 324.428 144.243 324.358 143.804 324.358C143.203 324.358 142.702 324.496 142.302 324.773C141.905 325.046 141.707 325.393 141.707 325.815C141.707 326.19 141.844 326.487 142.116 326.704C142.389 326.921 142.815 327.102 143.395 327.247L144.852 327.605C145.73 327.818 146.384 328.144 146.815 328.583C147.245 329.018 147.46 329.578 147.46 330.264C147.46 330.827 147.298 331.33 146.974 331.773C146.655 332.216 146.207 332.565 145.632 332.821C145.057 333.077 144.388 333.205 143.625 333.205C142.623 333.205 141.795 332.987 141.138 332.553C140.482 332.118 140.067 331.483 139.892 330.648L141.324 330.29C141.46 330.818 141.718 331.214 142.097 331.479C142.481 331.743 142.981 331.875 143.599 331.875C144.302 331.875 144.861 331.726 145.274 331.428C145.692 331.125 145.9 330.763 145.9 330.341C145.9 330 145.781 329.714 145.543 329.484C145.304 329.25 144.937 329.075 144.443 328.96L142.807 328.577C141.908 328.364 141.247 328.033 140.825 327.586C140.408 327.134 140.199 326.57 140.199 325.892C140.199 325.338 140.354 324.848 140.665 324.422C140.981 323.996 141.409 323.661 141.95 323.418C142.496 323.175 143.114 323.054 143.804 323.054C144.775 323.054 145.538 323.267 146.092 323.693C146.65 324.119 147.047 324.682 147.281 325.381Z" fill="white"/>
</svg>
