<svg width="300" height="365" viewBox="0 0 300 365" fill="none" xmlns="http://www.w3.org/2000/svg">
<rect width="300" height="364.5" rx="22.5" fill="#EDF0F5"/>
<circle cx="264.375" cy="316.875" r="15.75" stroke="#0F33E9" stroke-width="0.75"/>
<path d="M269.786 318.651L268.805 318.662L268.805 314.135L261.313 321.627L260.617 320.931L268.114 313.434L263.593 313.427L263.593 312.458L269.786 312.458L269.786 318.651Z" fill="#0F33E9"/>
<path d="M18.8949 30.1213V27.6364H31.9506V30.1213H26.8929V44H23.9526V30.1213H18.8949ZM37.9931 44.2397C36.7627 44.2397 35.7 43.984 34.8051 43.4727C33.9155 42.956 33.231 42.2262 32.7516 41.2834C32.2722 40.3352 32.0325 39.2193 32.0325 37.9355C32.0325 36.6731 32.2722 35.5652 32.7516 34.6117C33.2364 33.6529 33.9129 32.9071 34.7811 32.3745C35.6494 31.8365 36.6694 31.5675 37.8413 31.5675C38.5977 31.5675 39.3115 31.69 39.9826 31.935C40.6591 32.1747 41.2557 32.5476 41.7724 33.0536C42.2944 33.5597 42.7046 34.2042 43.0029 34.9872C43.3012 35.7649 43.4503 36.6918 43.4503 37.7678V38.6547H33.3908V36.7051H40.6778C40.6725 36.1511 40.5526 35.6584 40.3182 35.2269C40.0839 34.7901 39.7563 34.4466 39.3354 34.1962C38.92 33.9458 38.4352 33.8207 37.8813 33.8207C37.29 33.8207 36.7706 33.9645 36.3232 34.2521C35.8758 34.5344 35.5269 34.9073 35.2765 35.3707C35.0315 35.8288 34.9063 36.3322 34.901 36.8809V38.5827C34.901 39.2965 35.0315 39.9091 35.2925 40.4205C35.5535 40.9265 35.9184 41.3153 36.3871 41.587C36.8559 41.8533 37.4045 41.9865 38.0331 41.9865C38.4539 41.9865 38.8347 41.9279 39.1756 41.8107C39.5166 41.6882 39.8122 41.5098 40.0625 41.2754C40.3129 41.041 40.502 40.7507 40.6298 40.4045L43.3305 40.7081C43.16 41.4219 42.8351 42.0451 42.3557 42.5778C41.8816 43.1051 41.2744 43.5153 40.534 43.8082C39.7935 44.0959 38.9466 44.2397 37.9931 44.2397ZM51.2506 44.2397C50.0255 44.2397 48.9735 43.9707 48.0945 43.4327C47.221 42.8947 46.5471 42.1516 46.0731 41.2035C45.6043 40.25 45.3699 39.1527 45.3699 37.9116C45.3699 36.6651 45.6096 35.5652 46.089 34.6117C46.5684 33.6529 47.2449 32.9071 48.1185 32.3745C48.9974 31.8365 50.0361 31.5675 51.2346 31.5675C52.2307 31.5675 53.1123 31.7512 53.8794 32.1188C54.6517 32.481 55.267 32.995 55.7251 33.6609C56.1832 34.3214 56.4442 35.0937 56.5081 35.978H53.7435C53.6317 35.3867 53.3653 34.894 52.9445 34.4998C52.529 34.1003 51.9724 33.9006 51.2746 33.9006C50.6833 33.9006 50.164 34.0604 49.7165 34.38C49.2691 34.6942 48.9202 35.147 48.6698 35.7383C48.4248 36.3295 48.3023 37.038 48.3023 37.8636C48.3023 38.6999 48.4248 39.419 48.6698 40.021C48.9149 40.6175 49.2584 41.0783 49.7006 41.4032C50.148 41.7228 50.6727 41.8826 51.2746 41.8826C51.7007 41.8826 52.0816 41.8027 52.4172 41.6429C52.7581 41.4778 53.0431 41.2408 53.2721 40.9318C53.5012 40.6229 53.6583 40.2473 53.7435 39.8052H56.5081C56.4388 40.6735 56.1831 41.4432 55.741 42.1143C55.2989 42.7802 54.697 43.3022 53.9353 43.6804C53.1736 44.0533 52.2787 44.2397 51.2506 44.2397ZM61.7755 36.8089V44H58.8831V27.6364H61.7116V33.8127H61.8554C62.1431 33.1202 62.5878 32.5742 63.1898 32.1747C63.797 31.7699 64.5694 31.5675 65.5069 31.5675C66.3592 31.5675 67.1022 31.7459 67.7361 32.1028C68.37 32.4597 68.86 32.9817 69.2063 33.6689C69.5578 34.356 69.7336 35.195 69.7336 36.1857V44H66.8412V36.6332C66.8412 35.8075 66.6282 35.1657 66.202 34.7076C65.7812 34.2441 65.1899 34.0124 64.4282 34.0124C63.9169 34.0124 63.4588 34.1243 63.0539 34.348C62.6544 34.5664 62.3402 34.8833 62.1111 35.2988C61.8874 35.7143 61.7755 36.2177 61.7755 36.8089ZM75.5744 36.8089V44H72.682V31.7273H75.4465V33.8127H75.5903C75.8726 33.1255 76.3228 32.5795 76.9407 32.1747C77.5639 31.7699 78.3336 31.5675 79.2498 31.5675C80.0967 31.5675 80.8345 31.7486 81.463 32.1108C82.0969 32.473 82.587 32.9977 82.9332 33.6848C83.2848 34.372 83.4579 35.2056 83.4525 36.1857V44H80.5601V36.6332C80.5601 35.8129 80.3471 35.171 79.9209 34.7076C79.5001 34.2441 78.9169 34.0124 78.1711 34.0124C77.6651 34.0124 77.215 34.1243 76.8208 34.348C76.432 34.5664 76.1257 34.8833 75.9019 35.2988C75.6835 35.7143 75.5744 36.2177 75.5744 36.8089ZM91.7462 44.2397C90.5477 44.2397 89.509 43.976 88.6301 43.4487C87.7512 42.9213 87.0694 42.1836 86.5847 41.2354C86.1052 40.2873 85.8655 39.1793 85.8655 37.9116C85.8655 36.6438 86.1052 35.5332 86.5847 34.5797C87.0694 33.6262 87.7512 32.8858 88.6301 32.3585C89.509 31.8311 90.5477 31.5675 91.7462 31.5675C92.9447 31.5675 93.9834 31.8311 94.8623 32.3585C95.7413 32.8858 96.4204 33.6262 96.8998 34.5797C97.3845 35.5332 97.6269 36.6438 97.6269 37.9116C97.6269 39.1793 97.3845 40.2873 96.8998 41.2354C96.4204 42.1836 95.7413 42.9213 94.8623 43.4487C93.9834 43.976 92.9447 44.2397 91.7462 44.2397ZM91.7622 41.9226C92.4121 41.9226 92.9554 41.7441 93.3922 41.3873C93.829 41.025 94.1539 40.5403 94.367 39.9331C94.5854 39.3258 94.6946 38.6493 94.6946 37.9036C94.6946 37.1525 94.5854 36.4734 94.367 35.8661C94.1539 35.2536 93.829 34.7662 93.3922 34.4039C92.9554 34.0417 92.4121 33.8606 91.7622 33.8606C91.0964 33.8606 90.5424 34.0417 90.1003 34.4039C89.6635 34.7662 89.3359 35.2536 89.1175 35.8661C88.9044 36.4734 88.7979 37.1525 88.7979 37.9036C88.7979 38.6493 88.9044 39.3258 89.1175 39.9331C89.3359 40.5403 89.6635 41.025 90.1003 41.3873C90.5424 41.7441 91.0964 41.9226 91.7622 41.9226ZM102.974 27.6364V44H100.082V27.6364H102.974ZM111.302 44.2397C110.103 44.2397 109.065 43.976 108.186 43.4487C107.307 42.9213 106.625 42.1836 106.14 41.2354C105.661 40.2873 105.421 39.1793 105.421 37.9116C105.421 36.6438 105.661 35.5332 106.14 34.5797C106.625 33.6262 107.307 32.8858 108.186 32.3585C109.065 31.8311 110.103 31.5675 111.302 31.5675C112.5 31.5675 113.539 31.8311 114.418 32.3585C115.297 32.8858 115.976 33.6262 116.455 34.5797C116.94 35.5332 117.183 36.6438 117.183 37.9116C117.183 39.1793 116.94 40.2873 116.455 41.2354C115.976 42.1836 115.297 42.9213 114.418 43.4487C113.539 43.976 112.5 44.2397 111.302 44.2397ZM111.318 41.9226C111.968 41.9226 112.511 41.7441 112.948 41.3873C113.385 41.025 113.71 40.5403 113.923 39.9331C114.141 39.3258 114.25 38.6493 114.25 37.9036C114.25 37.1525 114.141 36.4734 113.923 35.8661C113.71 35.2536 113.385 34.7662 112.948 34.4039C112.511 34.0417 111.968 33.8606 111.318 33.8606C110.652 33.8606 110.098 34.0417 109.656 34.4039C109.219 34.7662 108.892 35.2536 108.673 35.8661C108.46 36.4734 108.354 37.1525 108.354 37.9036C108.354 38.6493 108.46 39.3258 108.673 39.9331C108.892 40.5403 109.219 41.025 109.656 41.3873C110.098 41.7441 110.652 41.9226 111.318 41.9226ZM124.975 48.858C123.936 48.858 123.044 48.7168 122.298 48.4345C121.552 48.1575 120.953 47.7846 120.5 47.3159C120.048 46.8471 119.733 46.3278 119.558 45.7578L122.162 45.1266C122.28 45.3663 122.45 45.6033 122.674 45.8377C122.897 46.0774 123.198 46.2745 123.577 46.429C123.96 46.5888 124.442 46.6687 125.023 46.6687C125.843 46.6687 126.522 46.4689 127.06 46.0694C127.598 45.6752 127.867 45.0254 127.867 44.1199V41.7947H127.723C127.574 42.093 127.356 42.3993 127.068 42.7136C126.786 43.0279 126.41 43.2915 125.942 43.5046C125.478 43.7177 124.895 43.8242 124.192 43.8242C123.249 43.8242 122.394 43.6032 121.627 43.161C120.865 42.7136 120.258 42.0478 119.805 41.1635C119.358 40.274 119.134 39.1607 119.134 37.8237C119.134 36.476 119.358 35.3388 119.805 34.4119C120.258 33.4798 120.868 32.774 121.635 32.2946C122.402 31.8098 123.257 31.5675 124.2 31.5675C124.919 31.5675 125.51 31.69 125.974 31.935C126.442 32.1747 126.815 32.465 127.092 32.8059C127.369 33.1415 127.58 33.4585 127.723 33.7567H127.883V31.7273H130.736V44.1998C130.736 45.2491 130.485 46.1174 129.985 46.8045C129.484 47.4917 128.799 48.0057 127.931 48.3466C127.063 48.6875 126.078 48.858 124.975 48.858ZM124.999 41.555C125.611 41.555 126.133 41.4059 126.565 41.1076C126.996 40.8093 127.324 40.3805 127.548 39.8212C127.771 39.2619 127.883 38.5907 127.883 37.8077C127.883 37.0353 127.771 36.3588 127.548 35.7782C127.329 35.1976 127.004 34.7475 126.573 34.4279C126.147 34.103 125.622 33.9405 124.999 33.9405C124.354 33.9405 123.816 34.1083 123.385 34.4439C122.953 34.7795 122.628 35.2402 122.41 35.8262C122.192 36.4068 122.082 37.0673 122.082 37.8077C122.082 38.5588 122.192 39.2166 122.41 39.7812C122.634 40.3406 122.961 40.7773 123.393 41.0916C123.83 41.4006 124.365 41.555 124.999 41.555ZM135.498 48.6023C135.104 48.6023 134.739 48.5703 134.403 48.5064C134.073 48.4478 133.809 48.3786 133.612 48.2987L134.283 46.0455C134.704 46.168 135.08 46.2266 135.41 46.2212C135.74 46.2159 136.03 46.112 136.281 45.9096C136.536 45.7125 136.752 45.3823 136.928 44.9189L137.176 44.2557L132.725 31.7273H135.793L138.622 40.9957H138.75L141.586 31.7273H144.662L139.748 45.4862C139.519 46.136 139.216 46.6926 138.838 47.1561C138.459 47.6248 137.996 47.9817 137.447 48.2267C136.904 48.4771 136.254 48.6023 135.498 48.6023ZM19.614 67V50.6364H25.7504C27.0075 50.6364 28.0621 50.8707 28.9144 51.3395C29.772 51.8082 30.4192 52.4528 30.856 53.2731C31.2981 54.0881 31.5192 55.0149 31.5192 56.0536C31.5192 57.103 31.2981 58.0352 30.856 58.8501C30.4139 59.6651 29.7614 60.307 28.8984 60.7757C28.0355 61.2392 26.9728 61.4709 25.7104 61.4709H21.6435V59.0339H25.3109C26.046 59.0339 26.6479 58.9061 27.1167 58.6504C27.5854 58.3947 27.9316 58.0431 28.1554 57.5957C28.3844 57.1483 28.4989 56.6342 28.4989 56.0536C28.4989 55.473 28.3844 54.9616 28.1554 54.5195C27.9316 54.0774 27.5827 53.7338 27.1087 53.4888C26.6399 53.2385 26.0353 53.1133 25.2949 53.1133H22.5783V67H19.614ZM36.8585 50.6364V67H33.9661V50.6364H36.8585ZM43.3644 67.2477C42.5867 67.2477 41.8863 67.1092 41.2631 66.8322C40.6452 66.5499 40.1551 66.1344 39.7929 65.5858C39.436 65.0371 39.2575 64.3606 39.2575 63.5563C39.2575 62.8638 39.3854 62.2912 39.6411 61.8384C39.8968 61.3857 40.2456 61.0234 40.6878 60.7518C41.1299 60.4801 41.6279 60.275 42.1819 60.1365C42.7412 59.9927 43.3192 59.8888 43.9157 59.8249C44.6349 59.7504 45.2181 59.6838 45.6656 59.6252C46.113 59.5613 46.4379 59.4654 46.6404 59.3375C46.8481 59.2044 46.952 58.9993 46.952 58.7223V58.6744C46.952 58.0724 46.7735 57.6064 46.4166 57.2761C46.0597 56.9458 45.5457 56.7807 44.8746 56.7807C44.1661 56.7807 43.6041 56.9352 43.1887 57.2441C42.7785 57.5531 42.5015 57.918 42.3577 58.3388L39.657 57.9553C39.8701 57.2095 40.2217 56.5863 40.7117 56.0856C41.2018 55.5795 41.801 55.2013 42.5095 54.951C43.218 54.6953 44.001 54.5675 44.8586 54.5675C45.4498 54.5675 46.0384 54.6367 46.6244 54.7752C47.2103 54.9137 47.7457 55.1428 48.2304 55.4624C48.7151 55.7766 49.104 56.2054 49.3969 56.7488C49.6952 57.2921 49.8444 57.9712 49.8444 58.7862V67H47.0638V65.3141H46.968C46.7922 65.655 46.5445 65.9746 46.2249 66.2729C45.9106 66.5659 45.5138 66.8029 45.0344 66.984C44.5603 67.1598 44.0036 67.2477 43.3644 67.2477ZM44.1155 65.1223C44.6961 65.1223 45.1995 65.0078 45.6256 64.7788C46.0518 64.5444 46.3794 64.2354 46.6084 63.8519C46.8428 63.4684 46.96 63.0502 46.96 62.5975V61.1513C46.8694 61.2259 46.7149 61.2951 46.4965 61.359C46.2835 61.4229 46.0438 61.4789 45.7774 61.5268C45.5111 61.5748 45.2474 61.6174 44.9864 61.6547C44.7254 61.6919 44.499 61.7239 44.3073 61.7505C43.8758 61.8091 43.4896 61.905 43.1487 62.0382C42.8078 62.1713 42.5388 62.3578 42.3417 62.5975C42.1446 62.8319 42.0461 63.1355 42.0461 63.5083C42.0461 64.041 42.2405 64.4432 42.6294 64.7148C43.0182 64.9865 43.5136 65.1223 44.1155 65.1223ZM58.8811 54.7273V56.9645H51.8259V54.7273H58.8811ZM53.5677 51.7869H56.4601V63.3086C56.4601 63.6974 56.5187 63.9957 56.6359 64.2035C56.7584 64.4059 56.9182 64.5444 57.1153 64.619C57.3124 64.6935 57.5308 64.7308 57.7705 64.7308C57.9516 64.7308 58.1167 64.7175 58.2659 64.6909C58.4204 64.6642 58.5376 64.6403 58.6175 64.619L59.1048 66.8801C58.9504 66.9334 58.7293 66.992 58.4417 67.0559C58.1594 67.1199 57.8131 67.1571 57.403 67.1678C56.6785 67.1891 56.026 67.0799 55.4454 66.8402C54.8648 66.5952 54.404 66.217 54.0631 65.7056C53.7275 65.1942 53.5624 64.555 53.5677 63.788V51.7869ZM67.5164 54.7273V56.9645H60.2614V54.7273H67.5164ZM62.0752 67V53.5687C62.0752 52.7431 62.2456 52.0559 62.5865 51.5073C62.9328 50.9586 63.3962 50.5485 63.9768 50.2768C64.5574 50.0051 65.2019 49.8693 65.9104 49.8693C66.4111 49.8693 66.8559 49.9093 67.2447 49.9892C67.6336 50.0691 67.9212 50.141 68.1076 50.2049L67.5324 52.4421C67.4098 52.4048 67.2554 52.3675 67.0689 52.3303C66.8825 52.2876 66.6748 52.2663 66.4457 52.2663C65.9077 52.2663 65.5269 52.3968 65.3031 52.6578C65.0847 52.9135 64.9755 53.2811 64.9755 53.7605V67H62.0752ZM74.6735 67.2397C73.475 67.2397 72.4363 66.976 71.5574 66.4487C70.6784 65.9213 69.9966 65.1836 69.5119 64.2354C69.0325 63.2873 68.7928 62.1793 68.7928 60.9116C68.7928 59.6438 69.0325 58.5332 69.5119 57.5797C69.9966 56.6262 70.6784 55.8858 71.5574 55.3585C72.4363 54.8311 73.475 54.5675 74.6735 54.5675C75.872 54.5675 76.9107 54.8311 77.7896 55.3585C78.6685 55.8858 79.3477 56.6262 79.8271 57.5797C80.3118 58.5332 80.5542 59.6438 80.5542 60.9116C80.5542 62.1793 80.3118 63.2873 79.8271 64.2354C79.3477 65.1836 78.6685 65.9213 77.7896 66.4487C76.9107 66.976 75.872 67.2397 74.6735 67.2397ZM74.6895 64.9226C75.3393 64.9226 75.8826 64.7441 76.3194 64.3873C76.7562 64.025 77.0811 63.5403 77.2942 62.9331C77.5126 62.3258 77.6218 61.6493 77.6218 60.9036C77.6218 60.1525 77.5126 59.4734 77.2942 58.8661C77.0811 58.2536 76.7562 57.7662 76.3194 57.4039C75.8826 57.0417 75.3393 56.8606 74.6895 56.8606C74.0236 56.8606 73.4696 57.0417 73.0275 57.4039C72.5907 57.7662 72.2631 58.2536 72.0447 58.8661C71.8317 59.4734 71.7251 60.1525 71.7251 60.9036C71.7251 61.6493 71.8317 62.3258 72.0447 62.9331C72.2631 63.5403 72.5907 64.025 73.0275 64.3873C73.4696 64.7441 74.0236 64.9226 74.6895 64.9226ZM83.0091 67V54.7273H85.8136V56.7727H85.9415C86.1652 56.0643 86.5487 55.5183 87.092 55.1348C87.6407 54.7459 88.2666 54.5515 88.9697 54.5515C89.1295 54.5515 89.3079 54.5595 89.505 54.5755C89.7074 54.5861 89.8752 54.6048 90.0084 54.6314V57.2921C89.8859 57.2495 89.6915 57.2122 89.4251 57.1802C89.1641 57.1429 88.9111 57.1243 88.6661 57.1243C88.1387 57.1243 87.6646 57.2388 87.2438 57.4679C86.8283 57.6916 86.5008 58.0032 86.2611 58.4027C86.0214 58.8022 85.9015 59.263 85.9015 59.785V67H83.0091ZM91.93 67V54.7273H94.6946V56.8127H94.8384C95.0941 56.1096 95.5175 55.5609 96.1088 55.1667C96.7001 54.7672 97.4059 54.5675 98.2262 54.5675C99.0571 54.5675 99.7576 54.7699 100.328 55.1747C100.903 55.5742 101.308 56.1202 101.542 56.8127H101.67C101.942 56.1309 102.4 55.5875 103.044 55.1827C103.694 54.7725 104.464 54.5675 105.353 54.5675C106.483 54.5675 107.404 54.9244 108.118 55.6381C108.832 56.3519 109.189 57.3933 109.189 58.7623V67H106.288V59.2097C106.288 58.448 106.086 57.8913 105.681 57.5398C105.276 57.1829 104.781 57.0044 104.195 57.0044C103.497 57.0044 102.951 57.2228 102.557 57.6596C102.168 58.0911 101.974 58.6531 101.974 59.3455V67H99.137V59.0898C99.137 58.456 98.9453 57.9499 98.5617 57.5717C98.1835 57.1935 97.6882 57.0044 97.0756 57.0044C96.6601 57.0044 96.2819 57.111 95.941 57.324C95.6001 57.5318 95.3284 57.8274 95.126 58.2109C94.9236 58.5891 94.8224 59.0312 94.8224 59.5373V67H91.93Z" fill="#091F5B"/>
<path d="M256.688 57.7685C255.243 57.7685 254.012 57.3754 252.996 56.5891C251.98 55.7965 251.203 54.6491 250.666 53.147C250.129 51.6385 249.861 49.8168 249.861 47.6818C249.861 45.5597 250.129 43.7475 250.666 42.2454C251.21 40.7369 251.989 39.5863 253.006 38.7937C254.028 37.9947 255.256 37.5952 256.688 37.5952C258.119 37.5952 259.343 37.9947 260.36 38.7937C261.382 39.5863 262.162 40.7369 262.699 42.2454C263.243 43.7475 263.514 45.5597 263.514 47.6818C263.514 49.8168 263.246 51.6385 262.709 53.147C262.172 54.6491 261.395 55.7965 260.379 56.5891C259.363 57.3754 258.132 57.7685 256.688 57.7685ZM256.688 55.6591C258.119 55.6591 259.232 54.9687 260.024 53.5881C260.817 52.2074 261.213 50.2386 261.213 47.6818C261.213 45.9815 261.031 44.5337 260.667 43.3384C260.309 42.1431 259.791 41.2322 259.113 40.6058C258.442 39.9794 257.634 39.6662 256.688 39.6662C255.268 39.6662 254.159 40.3661 253.36 41.766C252.561 43.1594 252.162 45.1314 252.162 47.6818C252.162 49.3821 252.341 50.8267 252.699 52.0156C253.057 53.2045 253.571 54.109 254.243 54.729C254.92 55.3491 255.735 55.6591 256.688 55.6591ZM267.158 57.5V55.7741L273.639 48.679C274.4 47.848 275.026 47.1257 275.518 46.5121C276.011 45.892 276.375 45.3104 276.612 44.767C276.854 44.2173 276.976 43.642 276.976 43.0412C276.976 42.3509 276.81 41.7532 276.477 41.2482C276.151 40.7433 275.704 40.3533 275.135 40.0785C274.566 39.8036 273.927 39.6662 273.217 39.6662C272.463 39.6662 271.805 39.8228 271.242 40.136C270.686 40.4428 270.255 40.8743 269.948 41.4304C269.647 41.9865 269.497 42.6385 269.497 43.3864H267.234C267.234 42.2358 267.5 41.2259 268.03 40.3565C268.561 39.4872 269.283 38.8097 270.197 38.3239C271.118 37.8381 272.15 37.5952 273.294 37.5952C274.445 37.5952 275.464 37.8381 276.353 38.3239C277.241 38.8097 277.938 39.4648 278.443 40.2894C278.948 41.114 279.2 42.0312 279.2 43.0412C279.2 43.7635 279.069 44.4698 278.807 45.1602C278.551 45.8441 278.104 46.608 277.465 47.4517C276.832 48.2891 275.953 49.3118 274.828 50.5199L270.418 55.2372V55.3906H279.545V57.5H267.158Z" fill="#091F5B"/>
<path d="M19.5852 289V275.909H24.0085C25.0313 275.909 25.8707 276.084 26.527 276.433C27.1832 276.778 27.669 277.254 27.9844 277.859C28.2997 278.464 28.4574 279.152 28.4574 279.923C28.4574 280.695 28.2997 281.379 27.9844 281.975C27.669 282.572 27.1854 283.04 26.5334 283.381C25.8814 283.718 25.0483 283.886 24.0341 283.886H20.4545V282.455H23.983C24.6818 282.455 25.2443 282.352 25.6705 282.148C26.1009 281.943 26.4119 281.653 26.6037 281.278C26.7997 280.899 26.8977 280.447 26.8977 279.923C26.8977 279.399 26.7997 278.941 26.6037 278.549C26.4077 278.157 26.0945 277.854 25.6641 277.641C25.2337 277.424 24.6648 277.315 23.9574 277.315H21.1705V289H19.5852ZM25.7472 283.119L28.9688 289H27.1278L23.9574 283.119H25.7472ZM34.2375 289.205C33.3512 289.205 32.5735 288.994 31.9044 288.572C31.2397 288.15 30.7198 287.56 30.3448 286.801C29.974 286.043 29.7887 285.156 29.7887 284.142C29.7887 283.119 29.974 282.227 30.3448 281.464C30.7198 280.701 31.2397 280.109 31.9044 279.687C32.5735 279.265 33.3512 279.054 34.2375 279.054C35.1239 279.054 35.8995 279.265 36.5642 279.687C37.2333 280.109 37.7531 280.701 38.1239 281.464C38.4989 282.227 38.6864 283.119 38.6864 284.142C38.6864 285.156 38.4989 286.043 38.1239 286.801C37.7531 287.56 37.2333 288.15 36.5642 288.572C35.8995 288.994 35.1239 289.205 34.2375 289.205ZM34.2375 287.849C34.9108 287.849 35.4648 287.677 35.8995 287.332C36.3341 286.987 36.6558 286.533 36.8647 285.97C37.0735 285.408 37.1779 284.798 37.1779 284.142C37.1779 283.486 37.0735 282.874 36.8647 282.308C36.6558 281.741 36.3341 281.283 35.8995 280.933C35.4648 280.584 34.9108 280.409 34.2375 280.409C33.5642 280.409 33.0102 280.584 32.5756 280.933C32.1409 281.283 31.8192 281.741 31.6104 282.308C31.4016 282.874 31.2972 283.486 31.2972 284.142C31.2972 284.798 31.4016 285.408 31.6104 285.97C31.8192 286.533 32.1409 286.987 32.5756 287.332C33.0102 287.677 33.5642 287.849 34.2375 287.849ZM40.6537 289V275.909H42.1622V280.741H42.29C42.4008 280.571 42.5542 280.354 42.7503 280.089C42.9505 279.821 43.2361 279.582 43.6068 279.374C43.9818 279.161 44.4889 279.054 45.1281 279.054C45.9548 279.054 46.6835 279.261 47.3142 279.674C47.9449 280.087 48.437 280.673 48.7907 281.432C49.1444 282.19 49.3213 283.085 49.3213 284.116C49.3213 285.156 49.1444 286.058 48.7907 286.82C48.437 287.579 47.947 288.167 47.3206 288.585C46.6941 288.998 45.9718 289.205 45.1537 289.205C44.523 289.205 44.018 289.1 43.6388 288.891C43.2595 288.678 42.9676 288.437 42.763 288.169C42.5585 287.896 42.4008 287.67 42.29 287.491H42.1111V289H40.6537ZM42.1366 284.091C42.1366 284.832 42.2453 285.487 42.4626 286.053C42.6799 286.616 42.9974 287.057 43.415 287.376C43.8326 287.692 44.344 287.849 44.9491 287.849C45.5798 287.849 46.1061 287.683 46.528 287.351C46.9541 287.014 47.2737 286.562 47.4868 285.996C47.7041 285.425 47.8128 284.79 47.8128 284.091C47.8128 283.401 47.7062 282.778 47.4932 282.224C47.2843 281.666 46.9669 281.225 46.5407 280.901C46.1189 280.573 45.5883 280.409 44.9491 280.409C44.3355 280.409 43.8199 280.565 43.4022 280.876C42.9846 281.183 42.6693 281.613 42.4562 282.167C42.2432 282.717 42.1366 283.358 42.1366 284.091ZM57.2763 284.986V279.182H58.7848V289H57.2763V287.338H57.174C56.9439 287.837 56.586 288.261 56.1002 288.61C55.6144 288.955 55.0007 289.128 54.2593 289.128C53.6456 289.128 53.1002 288.994 52.6229 288.725C52.1456 288.452 51.7706 288.043 51.4979 287.498C51.2252 286.948 51.0888 286.256 51.0888 285.42V279.182H52.5973V285.318C52.5973 286.034 52.7976 286.605 53.1982 287.031C53.603 287.457 54.1186 287.67 54.7451 287.67C55.1201 287.67 55.5014 287.575 55.8892 287.383C56.2813 287.191 56.6094 286.897 56.8736 286.501C57.1421 286.104 57.2763 285.599 57.2763 284.986ZM67.9623 281.381L66.6072 281.764C66.522 281.538 66.3963 281.319 66.2301 281.106C66.0682 280.888 65.8466 280.71 65.5653 280.569C65.2841 280.428 64.924 280.358 64.4851 280.358C63.8842 280.358 63.3835 280.496 62.9829 280.773C62.5866 281.046 62.3885 281.393 62.3885 281.815C62.3885 282.19 62.5248 282.487 62.7976 282.704C63.0703 282.921 63.4964 283.102 64.076 283.247L65.5334 283.605C66.4112 283.818 67.0653 284.144 67.4957 284.583C67.9261 285.018 68.1413 285.578 68.1413 286.264C68.1413 286.827 67.9794 287.33 67.6555 287.773C67.3359 288.216 66.8885 288.565 66.3132 288.821C65.7379 289.077 65.0689 289.205 64.3061 289.205C63.3047 289.205 62.4758 288.987 61.8196 288.553C61.1633 288.118 60.7478 287.483 60.5731 286.648L62.005 286.29C62.1413 286.818 62.3991 287.214 62.7784 287.479C63.1619 287.743 63.6626 287.875 64.2805 287.875C64.9836 287.875 65.5419 287.726 65.9552 287.428C66.3728 287.125 66.5817 286.763 66.5817 286.341C66.5817 286 66.4623 285.714 66.2237 285.484C65.9851 285.25 65.6186 285.075 65.1243 284.96L63.4879 284.577C62.5888 284.364 61.9282 284.033 61.5064 283.586C61.0888 283.134 60.88 282.57 60.88 281.892C60.88 281.338 61.0355 280.848 61.3466 280.422C61.6619 279.996 62.0902 279.661 62.6314 279.418C63.1768 279.175 63.7947 279.054 64.4851 279.054C65.4567 279.054 66.2194 279.267 66.7734 279.693C67.3317 280.119 67.728 280.682 67.9623 281.381ZM74.142 279.182V280.46H69.0539V279.182H74.142ZM70.5369 276.83H72.0454V286.188C72.0454 286.614 72.1072 286.933 72.2308 287.146C72.3586 287.355 72.5205 287.496 72.7165 287.568C72.9168 287.636 73.1278 287.67 73.3494 287.67C73.5156 287.67 73.6519 287.662 73.7585 287.645C73.865 287.624 73.9502 287.607 74.0141 287.594L74.321 288.949C74.2187 288.987 74.0759 289.026 73.8927 289.064C73.7094 289.107 73.4772 289.128 73.196 289.128C72.7698 289.128 72.3522 289.036 71.9431 288.853C71.5383 288.67 71.2016 288.391 70.9332 288.016C70.669 287.641 70.5369 287.168 70.5369 286.597V276.83ZM84.101 289.179C83.2402 289.179 82.4988 289.021 81.8766 288.706C81.2544 288.391 80.775 287.958 80.4384 287.408C80.1017 286.859 79.9334 286.23 79.9334 285.523C79.9334 284.977 80.0485 284.494 80.2786 284.072C80.513 283.646 80.8347 283.251 81.2438 282.889C81.6571 282.523 82.1323 282.156 82.6692 281.79L84.5613 280.384C84.932 280.141 85.2282 279.881 85.4498 279.604C85.6756 279.327 85.7885 278.964 85.7885 278.517C85.7885 278.185 85.6415 277.863 85.3475 277.552C85.0577 277.241 84.6763 277.085 84.2033 277.085C83.8709 277.085 83.5769 277.17 83.3212 277.341C83.0698 277.507 82.8716 277.72 82.7267 277.98C82.5861 278.236 82.5158 278.5 82.5158 278.773C82.5158 279.08 82.5989 279.391 82.7651 279.706C82.9356 280.017 83.1508 280.337 83.4107 280.665C83.6749 280.989 83.9476 281.321 84.2289 281.662L90.2374 289H88.4221L83.4618 283.017C83.0016 282.463 82.584 281.96 82.209 281.509C81.834 281.057 81.5357 280.612 81.3141 280.173C81.0925 279.734 80.9817 279.259 80.9817 278.747C80.9817 278.159 81.1117 277.643 81.3716 277.2C81.6358 276.753 82.0044 276.406 82.4775 276.158C82.9547 275.907 83.513 275.781 84.1522 275.781C84.8084 275.781 85.3731 275.909 85.8461 276.165C86.3191 276.416 86.6834 276.751 86.9391 277.168C87.1948 277.582 87.3226 278.031 87.3226 278.517C87.3226 279.143 87.1671 279.687 86.856 280.147C86.5449 280.607 86.1209 281.036 85.584 281.432L82.976 283.375C82.388 283.81 81.9895 284.232 81.7807 284.641C81.5719 285.05 81.4675 285.344 81.4675 285.523C81.4675 285.932 81.574 286.313 81.7871 286.667C82.0002 287.021 82.3006 287.306 82.6884 287.523C83.0762 287.741 83.53 287.849 84.0499 287.849C84.5442 287.849 85.0258 287.745 85.4945 287.536C85.9633 287.323 86.3873 287.016 86.7665 286.616C87.15 286.215 87.4526 285.734 87.6742 285.171C87.9 284.609 88.013 283.976 88.013 283.273H89.4704C89.4704 284.142 89.3702 284.852 89.1699 285.401C88.9696 285.951 88.7438 286.381 88.4924 286.692C88.241 287.004 88.0385 287.236 87.8851 287.389C87.834 287.453 87.7871 287.517 87.7445 287.581C87.7019 287.645 87.655 287.709 87.6039 287.773C87.182 288.246 86.6493 288.599 86.0059 288.834C85.3624 289.064 84.7275 289.179 84.101 289.179ZM102.844 281.381L101.489 281.764C101.404 281.538 101.278 281.319 101.112 281.106C100.95 280.888 100.729 280.71 100.447 280.569C100.166 280.428 99.806 280.358 99.3671 280.358C98.7662 280.358 98.2655 280.496 97.865 280.773C97.4687 281.046 97.2705 281.393 97.2705 281.815C97.2705 282.19 97.4069 282.487 97.6796 282.704C97.9523 282.921 98.3785 283.102 98.958 283.247L100.415 283.605C101.293 283.818 101.947 284.144 102.378 284.583C102.808 285.018 103.023 285.578 103.023 286.264C103.023 286.827 102.861 287.33 102.538 287.773C102.218 288.216 101.771 288.565 101.195 288.821C100.62 289.077 99.9509 289.205 99.1881 289.205C98.1867 289.205 97.3579 288.987 96.7016 288.553C96.0454 288.118 95.6299 287.483 95.4552 286.648L96.887 286.29C97.0233 286.818 97.2812 287.214 97.6604 287.479C98.0439 287.743 98.5447 287.875 99.1625 287.875C99.8657 287.875 100.424 287.726 100.837 287.428C101.255 287.125 101.464 286.763 101.464 286.341C101.464 286 101.344 285.714 101.106 285.484C100.867 285.25 100.501 285.075 100.006 284.96L98.3699 284.577C97.4708 284.364 96.8103 284.033 96.3884 283.586C95.9708 283.134 95.762 282.57 95.762 281.892C95.762 281.338 95.9175 280.848 96.2286 280.422C96.5439 279.996 96.9722 279.661 97.5134 279.418C98.0589 279.175 98.6768 279.054 99.3671 279.054C100.339 279.054 101.101 279.267 101.655 279.693C102.214 280.119 102.61 280.682 102.844 281.381ZM108.743 289.205C107.822 289.205 107.03 288.987 106.365 288.553C105.7 288.118 105.189 287.519 104.831 286.756C104.473 285.994 104.294 285.122 104.294 284.142C104.294 283.145 104.477 282.265 104.844 281.502C105.214 280.735 105.73 280.136 106.39 279.706C107.055 279.271 107.831 279.054 108.717 279.054C109.408 279.054 110.03 279.182 110.584 279.438C111.138 279.693 111.591 280.051 111.945 280.511C112.299 280.972 112.518 281.509 112.604 282.122H111.095C110.98 281.675 110.724 281.278 110.328 280.933C109.936 280.584 109.408 280.409 108.743 280.409C108.155 280.409 107.639 280.562 107.196 280.869C106.757 281.172 106.414 281.6 106.167 282.154C105.924 282.704 105.802 283.349 105.802 284.091C105.802 284.849 105.922 285.51 106.16 286.072C106.403 286.635 106.744 287.072 107.183 287.383C107.626 287.694 108.146 287.849 108.743 287.849C109.135 287.849 109.491 287.781 109.81 287.645C110.13 287.509 110.4 287.312 110.622 287.057C110.844 286.801 111.001 286.494 111.095 286.136H112.604C112.518 286.716 112.307 287.238 111.971 287.702C111.638 288.163 111.197 288.529 110.648 288.802C110.102 289.07 109.467 289.205 108.743 289.205ZM117.158 289.23C116.536 289.23 115.971 289.113 115.464 288.879C114.957 288.64 114.554 288.297 114.256 287.849C113.958 287.398 113.809 286.852 113.809 286.213C113.809 285.651 113.919 285.195 114.141 284.845C114.363 284.491 114.659 284.214 115.029 284.014C115.4 283.814 115.809 283.665 116.257 283.567C116.708 283.464 117.162 283.384 117.618 283.324C118.215 283.247 118.698 283.19 119.069 283.151C119.444 283.109 119.717 283.038 119.887 282.94C120.062 282.842 120.149 282.672 120.149 282.429V282.378C120.149 281.747 119.977 281.257 119.632 280.908C119.291 280.558 118.773 280.384 118.078 280.384C117.358 280.384 116.794 280.541 116.385 280.857C115.975 281.172 115.688 281.509 115.522 281.866L114.09 281.355C114.346 280.759 114.686 280.294 115.113 279.962C115.543 279.625 116.012 279.391 116.519 279.259C117.03 279.122 117.533 279.054 118.027 279.054C118.343 279.054 118.705 279.092 119.114 279.169C119.527 279.241 119.926 279.393 120.309 279.623C120.697 279.853 121.019 280.2 121.274 280.665C121.53 281.129 121.658 281.751 121.658 282.531V289H120.149V287.67H120.073C119.971 287.884 119.8 288.112 119.561 288.354C119.323 288.597 119.005 288.804 118.609 288.974C118.213 289.145 117.729 289.23 117.158 289.23ZM117.388 287.875C117.985 287.875 118.488 287.758 118.897 287.523C119.31 287.289 119.621 286.987 119.83 286.616C120.043 286.245 120.149 285.855 120.149 285.446V284.065C120.086 284.142 119.945 284.212 119.728 284.276C119.515 284.336 119.267 284.389 118.986 284.436C118.709 284.479 118.439 284.517 118.174 284.551C117.914 284.581 117.703 284.607 117.542 284.628C117.149 284.679 116.783 284.762 116.442 284.877C116.105 284.988 115.833 285.156 115.624 285.382C115.419 285.604 115.317 285.906 115.317 286.29C115.317 286.814 115.511 287.21 115.899 287.479C116.291 287.743 116.787 287.875 117.388 287.875ZM125.38 275.909V289H123.871V275.909H125.38ZM130.492 289.23C129.87 289.23 129.305 289.113 128.798 288.879C128.291 288.64 127.888 288.297 127.59 287.849C127.292 287.398 127.143 286.852 127.143 286.213C127.143 285.651 127.253 285.195 127.475 284.845C127.697 284.491 127.993 284.214 128.364 284.014C128.734 283.814 129.143 283.665 129.591 283.567C130.043 283.464 130.496 283.384 130.952 283.324C131.549 283.247 132.033 283.19 132.403 283.151C132.778 283.109 133.051 283.038 133.221 282.94C133.396 282.842 133.484 282.672 133.484 282.429V282.378C133.484 281.747 133.311 281.257 132.966 280.908C132.625 280.558 132.107 280.384 131.413 280.384C130.692 280.384 130.128 280.541 129.719 280.857C129.31 281.172 129.022 281.509 128.856 281.866L127.424 281.355C127.68 280.759 128.02 280.294 128.447 279.962C128.877 279.625 129.346 279.391 129.853 279.259C130.364 279.122 130.867 279.054 131.361 279.054C131.677 279.054 132.039 279.092 132.448 279.169C132.861 279.241 133.26 279.393 133.643 279.623C134.031 279.853 134.353 280.2 134.609 280.665C134.864 281.129 134.992 281.751 134.992 282.531V289H133.484V287.67H133.407C133.305 287.884 133.134 288.112 132.895 288.354C132.657 288.597 132.339 288.804 131.943 288.974C131.547 289.145 131.063 289.23 130.492 289.23ZM130.722 287.875C131.319 287.875 131.822 287.758 132.231 287.523C132.644 287.289 132.955 286.987 133.164 286.616C133.377 286.245 133.484 285.855 133.484 285.446V284.065C133.42 284.142 133.279 284.212 133.062 284.276C132.849 284.336 132.601 284.389 132.32 284.436C132.043 284.479 131.773 284.517 131.508 284.551C131.248 284.581 131.038 284.607 130.876 284.628C130.484 284.679 130.117 284.762 129.776 284.877C129.44 284.988 129.167 285.156 128.958 285.382C128.753 285.604 128.651 285.906 128.651 286.29C128.651 286.814 128.845 287.21 129.233 287.479C129.625 287.743 130.121 287.875 130.722 287.875ZM137.41 289V275.909H138.919V280.741H139.046C139.157 280.571 139.311 280.354 139.507 280.089C139.707 279.821 139.992 279.582 140.363 279.374C140.738 279.161 141.245 279.054 141.884 279.054C142.711 279.054 143.44 279.261 144.071 279.674C144.701 280.087 145.193 280.673 145.547 281.432C145.901 282.19 146.078 283.085 146.078 284.116C146.078 285.156 145.901 286.058 145.547 286.82C145.193 287.579 144.703 288.167 144.077 288.585C143.45 288.998 142.728 289.205 141.91 289.205C141.279 289.205 140.774 289.1 140.395 288.891C140.016 288.678 139.724 288.437 139.519 288.169C139.315 287.896 139.157 287.67 139.046 287.491H138.867V289H137.41ZM138.893 284.091C138.893 284.832 139.002 285.487 139.219 286.053C139.436 286.616 139.754 287.057 140.171 287.376C140.589 287.692 141.1 287.849 141.705 287.849C142.336 287.849 142.862 287.683 143.284 287.351C143.71 287.014 144.03 286.562 144.243 285.996C144.46 285.425 144.569 284.79 144.569 284.091C144.569 283.401 144.463 282.778 144.249 282.224C144.041 281.666 143.723 281.225 143.297 280.901C142.875 280.573 142.345 280.409 141.705 280.409C141.092 280.409 140.576 280.565 140.159 280.876C139.741 281.183 139.426 281.613 139.213 282.167C138.999 282.717 138.893 283.358 138.893 284.091ZM149.354 275.909V289H147.845V275.909H149.354ZM155.693 289.205C154.747 289.205 153.931 288.996 153.245 288.578C152.563 288.156 152.037 287.568 151.666 286.814C151.3 286.055 151.116 285.173 151.116 284.168C151.116 283.162 151.3 282.276 151.666 281.509C152.037 280.737 152.552 280.136 153.213 279.706C153.878 279.271 154.653 279.054 155.54 279.054C156.051 279.054 156.556 279.139 157.055 279.31C157.553 279.48 158.007 279.757 158.416 280.141C158.825 280.52 159.151 281.023 159.394 281.649C159.637 282.276 159.758 283.047 159.758 283.963V284.602H152.19V283.298H158.224C158.224 282.744 158.114 282.25 157.892 281.815C157.675 281.381 157.364 281.038 156.959 280.786C156.558 280.535 156.085 280.409 155.54 280.409C154.939 280.409 154.419 280.558 153.98 280.857C153.545 281.151 153.211 281.534 152.976 282.007C152.742 282.48 152.625 282.987 152.625 283.528V284.398C152.625 285.139 152.753 285.768 153.008 286.283C153.268 286.795 153.628 287.185 154.089 287.453C154.549 287.717 155.084 287.849 155.693 287.849C156.089 287.849 156.447 287.794 156.767 287.683C157.091 287.568 157.37 287.398 157.604 287.172C157.839 286.942 158.02 286.656 158.148 286.315L159.605 286.724C159.452 287.219 159.194 287.653 158.832 288.028C158.469 288.399 158.022 288.689 157.489 288.898C156.957 289.102 156.358 289.205 155.693 289.205ZM169.743 289.205C168.925 289.205 168.203 288.998 167.576 288.585C166.95 288.167 166.46 287.579 166.106 286.82C165.752 286.058 165.575 285.156 165.575 284.116C165.575 283.085 165.752 282.19 166.106 281.432C166.46 280.673 166.952 280.087 167.583 279.674C168.213 279.261 168.942 279.054 169.769 279.054C170.408 279.054 170.913 279.161 171.284 279.374C171.659 279.582 171.944 279.821 172.14 280.089C172.34 280.354 172.496 280.571 172.607 280.741H172.735V275.909H174.243V289H172.786V287.491H172.607C172.496 287.67 172.338 287.896 172.134 288.169C171.929 288.437 171.637 288.678 171.258 288.891C170.879 289.1 170.374 289.205 169.743 289.205ZM169.948 287.849C170.553 287.849 171.064 287.692 171.482 287.376C171.899 287.057 172.217 286.616 172.434 286.053C172.651 285.487 172.76 284.832 172.76 284.091C172.76 283.358 172.654 282.717 172.441 282.167C172.227 281.613 171.912 281.183 171.494 280.876C171.077 280.565 170.561 280.409 169.948 280.409C169.308 280.409 168.776 280.573 168.35 280.901C167.928 281.225 167.61 281.666 167.397 282.224C167.188 282.778 167.084 283.401 167.084 284.091C167.084 284.79 167.191 285.425 167.404 285.996C167.621 286.562 167.941 287.014 168.362 287.351C168.789 287.683 169.317 287.849 169.948 287.849ZM176.675 289V279.182H178.184V289H176.675ZM177.442 277.545C177.148 277.545 176.895 277.445 176.682 277.245C176.473 277.045 176.369 276.804 176.369 276.523C176.369 276.241 176.473 276.001 176.682 275.8C176.895 275.6 177.148 275.5 177.442 275.5C177.736 275.5 177.988 275.6 178.197 275.8C178.41 276.001 178.516 276.241 178.516 276.523C178.516 276.804 178.41 277.045 178.197 277.245C177.988 277.445 177.736 277.545 177.442 277.545ZM184.37 292.886C183.641 292.886 183.015 292.793 182.491 292.605C181.967 292.422 181.53 292.179 181.18 291.876C180.835 291.578 180.56 291.259 180.356 290.918L181.557 290.074C181.694 290.253 181.866 290.457 182.075 290.688C182.284 290.922 182.569 291.124 182.932 291.295C183.298 291.469 183.778 291.557 184.37 291.557C185.163 291.557 185.817 291.365 186.332 290.982C186.848 290.598 187.106 289.997 187.106 289.179V287.185H186.978C186.867 287.364 186.709 287.585 186.505 287.849C186.305 288.109 186.015 288.342 185.636 288.546C185.261 288.746 184.753 288.847 184.114 288.847C183.322 288.847 182.61 288.659 181.979 288.284C181.353 287.909 180.856 287.364 180.49 286.648C180.128 285.932 179.947 285.062 179.947 284.04C179.947 283.034 180.123 282.158 180.477 281.413C180.831 280.663 181.323 280.083 181.954 279.674C182.584 279.261 183.313 279.054 184.14 279.054C184.779 279.054 185.286 279.161 185.661 279.374C186.04 279.582 186.33 279.821 186.53 280.089C186.735 280.354 186.893 280.571 187.003 280.741H187.157V279.182H188.614V289.281C188.614 290.125 188.422 290.811 188.039 291.339C187.66 291.872 187.148 292.262 186.505 292.509C185.866 292.761 185.154 292.886 184.37 292.886ZM184.319 287.491C184.924 287.491 185.435 287.353 185.853 287.076C186.27 286.799 186.588 286.401 186.805 285.881C187.023 285.361 187.131 284.739 187.131 284.014C187.131 283.307 187.025 282.683 186.812 282.141C186.599 281.6 186.283 281.176 185.866 280.869C185.448 280.562 184.932 280.409 184.319 280.409C183.68 280.409 183.147 280.571 182.721 280.895C182.299 281.219 181.981 281.653 181.768 282.199C181.56 282.744 181.455 283.349 181.455 284.014C181.455 284.696 181.562 285.299 181.775 285.823C181.992 286.343 182.312 286.752 182.734 287.05C183.16 287.344 183.688 287.491 184.319 287.491ZM190.836 289V279.182H192.344V289H190.836ZM191.603 277.545C191.309 277.545 191.055 277.445 190.842 277.245C190.633 277.045 190.529 276.804 190.529 276.523C190.529 276.241 190.633 276.001 190.842 275.8C191.055 275.6 191.309 275.5 191.603 275.5C191.897 275.5 192.148 275.6 192.357 275.8C192.57 276.001 192.677 276.241 192.677 276.523C192.677 276.804 192.57 277.045 192.357 277.245C192.148 277.445 191.897 277.545 191.603 277.545ZM198.837 279.182V280.46H193.749V279.182H198.837ZM195.232 276.83H196.74V286.188C196.74 286.614 196.802 286.933 196.926 287.146C197.054 287.355 197.216 287.496 197.412 287.568C197.612 287.636 197.823 287.67 198.044 287.67C198.211 287.67 198.347 287.662 198.453 287.645C198.56 287.624 198.645 287.607 198.709 287.594L199.016 288.949C198.914 288.987 198.771 289.026 198.588 289.064C198.404 289.107 198.172 289.128 197.891 289.128C197.465 289.128 197.047 289.036 196.638 288.853C196.233 288.67 195.897 288.391 195.628 288.016C195.364 287.641 195.232 287.168 195.232 286.597V276.83ZM203.455 289.23C202.833 289.23 202.269 289.113 201.761 288.879C201.254 288.64 200.852 288.297 200.553 287.849C200.255 287.398 200.106 286.852 200.106 286.213C200.106 285.651 200.217 285.195 200.438 284.845C200.66 284.491 200.956 284.214 201.327 284.014C201.698 283.814 202.107 283.665 202.554 283.567C203.006 283.464 203.46 283.384 203.916 283.324C204.512 283.247 204.996 283.19 205.367 283.151C205.742 283.109 206.014 283.038 206.185 282.94C206.359 282.842 206.447 282.672 206.447 282.429V282.378C206.447 281.747 206.274 281.257 205.929 280.908C205.588 280.558 205.07 280.384 204.376 280.384C203.656 280.384 203.091 280.541 202.682 280.857C202.273 281.172 201.985 281.509 201.819 281.866L200.387 281.355C200.643 280.759 200.984 280.294 201.41 279.962C201.84 279.625 202.309 279.391 202.816 279.259C203.328 279.122 203.83 279.054 204.325 279.054C204.64 279.054 205.002 279.092 205.411 279.169C205.825 279.241 206.223 279.393 206.607 279.623C206.994 279.853 207.316 280.2 207.572 280.665C207.828 281.129 207.955 281.751 207.955 282.531V289H206.447V287.67H206.37C206.268 287.884 206.097 288.112 205.859 288.354C205.62 288.597 205.303 288.804 204.906 288.974C204.51 289.145 204.026 289.23 203.455 289.23ZM203.685 287.875C204.282 287.875 204.785 287.758 205.194 287.523C205.607 287.289 205.918 286.987 206.127 286.616C206.34 286.245 206.447 285.855 206.447 285.446V284.065C206.383 284.142 206.242 284.212 206.025 284.276C205.812 284.336 205.565 284.389 205.283 284.436C205.006 284.479 204.736 284.517 204.472 284.551C204.212 284.581 204.001 284.607 203.839 284.628C203.447 284.679 203.08 284.762 202.739 284.877C202.403 284.988 202.13 285.156 201.921 285.382C201.717 285.604 201.614 285.906 201.614 286.29C201.614 286.814 201.808 287.21 202.196 287.479C202.588 287.743 203.085 287.875 203.685 287.875ZM211.677 275.909V289H210.169V275.909H211.677ZM23.7528 301.182V302.46H18.4602V301.182H23.7528ZM20.0455 311V299.827C20.0455 299.264 20.1776 298.795 20.4418 298.42C20.706 298.045 21.049 297.764 21.4709 297.577C21.8928 297.389 22.3381 297.295 22.8068 297.295C23.1776 297.295 23.4801 297.325 23.7145 297.385C23.9489 297.445 24.1236 297.5 24.2386 297.551L23.804 298.855C23.7273 298.83 23.6207 298.798 23.4844 298.759C23.3523 298.721 23.1776 298.702 22.9602 298.702C22.4616 298.702 22.1016 298.827 21.88 299.079C21.6626 299.33 21.554 299.699 21.554 300.185V311H20.0455ZM28.9113 311.205C28.025 311.205 27.2473 310.994 26.5783 310.572C25.9135 310.15 25.3936 309.56 25.0186 308.801C24.6479 308.043 24.4625 307.156 24.4625 306.142C24.4625 305.119 24.6479 304.227 25.0186 303.464C25.3936 302.701 25.9135 302.109 26.5783 301.687C27.2473 301.265 28.025 301.054 28.9113 301.054C29.7977 301.054 30.5733 301.265 31.2381 301.687C31.9071 302.109 32.427 302.701 32.7977 303.464C33.1727 304.227 33.3602 305.119 33.3602 306.142C33.3602 307.156 33.1727 308.043 32.7977 308.801C32.427 309.56 31.9071 310.15 31.2381 310.572C30.5733 310.994 29.7977 311.205 28.9113 311.205ZM28.9113 309.849C29.5846 309.849 30.1386 309.677 30.5733 309.332C31.0079 308.987 31.3297 308.533 31.5385 307.97C31.7473 307.408 31.8517 306.798 31.8517 306.142C31.8517 305.486 31.7473 304.874 31.5385 304.308C31.3297 303.741 31.0079 303.283 30.5733 302.933C30.1386 302.584 29.5846 302.409 28.9113 302.409C28.2381 302.409 27.6841 302.584 27.2494 302.933C26.8148 303.283 26.493 303.741 26.2842 304.308C26.0754 304.874 25.971 305.486 25.971 306.142C25.971 306.798 26.0754 307.408 26.2842 307.97C26.493 308.533 26.8148 308.987 27.2494 309.332C27.6841 309.677 28.2381 309.849 28.9113 309.849ZM41.3104 306.986V301.182H42.819V311H41.3104V309.338H41.2082C40.9781 309.837 40.6201 310.261 40.1343 310.61C39.6485 310.955 39.0349 311.128 38.2934 311.128C37.6798 311.128 37.1343 310.994 36.657 310.725C36.1798 310.452 35.8048 310.043 35.532 309.498C35.2593 308.948 35.1229 308.256 35.1229 307.42V301.182H36.6315V307.318C36.6315 308.034 36.8318 308.605 37.2323 309.031C37.6372 309.457 38.1528 309.67 38.7792 309.67C39.1542 309.67 39.5356 309.575 39.9234 309.383C40.3154 309.191 40.6435 308.897 40.9077 308.501C41.1762 308.104 41.3104 307.599 41.3104 306.986ZM46.5505 305.094V311H45.0419V301.182H46.4993V302.716H46.6272C46.8573 302.217 47.2067 301.817 47.6755 301.514C48.1442 301.207 48.7493 301.054 49.4908 301.054C50.1556 301.054 50.7372 301.19 51.2358 301.463C51.7344 301.732 52.1222 302.141 52.3992 302.69C52.6762 303.236 52.8147 303.926 52.8147 304.761V311H51.3061V304.864C51.3061 304.092 51.1059 303.491 50.7053 303.061C50.3047 302.626 49.755 302.409 49.0561 302.409C48.5746 302.409 48.1442 302.513 47.7649 302.722C47.3899 302.931 47.0938 303.236 46.8764 303.636C46.6591 304.037 46.5505 304.523 46.5505 305.094ZM58.7386 311.205C57.9204 311.205 57.1981 310.998 56.5717 310.585C55.9453 310.167 55.4552 309.579 55.1015 308.82C54.7478 308.058 54.571 307.156 54.571 306.116C54.571 305.085 54.7478 304.19 55.1015 303.432C55.4552 302.673 55.9474 302.087 56.5781 301.674C57.2088 301.261 57.9375 301.054 58.7642 301.054C59.4034 301.054 59.9084 301.161 60.2791 301.374C60.6541 301.582 60.9396 301.821 61.1356 302.089C61.3359 302.354 61.4915 302.571 61.6023 302.741H61.7301V297.909H63.2386V311H61.7812V309.491H61.6023C61.4915 309.67 61.3338 309.896 61.1292 310.169C60.9247 310.437 60.6328 310.678 60.2535 310.891C59.8743 311.1 59.3693 311.205 58.7386 311.205ZM58.9432 309.849C59.5483 309.849 60.0596 309.692 60.4773 309.376C60.8949 309.057 61.2123 308.616 61.4297 308.053C61.647 307.487 61.7557 306.832 61.7557 306.091C61.7557 305.358 61.6491 304.717 61.4361 304.167C61.223 303.613 60.9076 303.183 60.49 302.876C60.0724 302.565 59.5568 302.409 58.9432 302.409C58.304 302.409 57.7713 302.573 57.3451 302.901C56.9233 303.225 56.6058 303.666 56.3927 304.224C56.1839 304.778 56.0795 305.401 56.0795 306.091C56.0795 306.79 56.1861 307.425 56.3991 307.996C56.6165 308.562 56.9361 309.014 57.3579 309.351C57.7841 309.683 58.3125 309.849 58.9432 309.849ZM68.5601 311.23C67.938 311.23 67.3733 311.113 66.8662 310.879C66.3591 310.64 65.9564 310.297 65.6581 309.849C65.3598 309.398 65.2107 308.852 65.2107 308.213C65.2107 307.651 65.3215 307.195 65.5431 306.845C65.7647 306.491 66.0608 306.214 66.4316 306.014C66.8023 305.814 67.2114 305.665 67.6588 305.567C68.1105 305.464 68.5644 305.384 69.0203 305.324C69.6169 305.247 70.1006 305.19 70.4713 305.151C70.8463 305.109 71.1191 305.038 71.2895 304.94C71.4642 304.842 71.5516 304.672 71.5516 304.429V304.378C71.5516 303.747 71.379 303.257 71.0338 302.908C70.6929 302.558 70.1752 302.384 69.4806 302.384C68.7604 302.384 68.1958 302.541 67.7867 302.857C67.3776 303.172 67.0899 303.509 66.9238 303.866L65.4919 303.355C65.7476 302.759 66.0885 302.294 66.5147 301.962C66.9451 301.625 67.4138 301.391 67.9209 301.259C68.4323 301.122 68.9351 301.054 69.4294 301.054C69.7448 301.054 70.107 301.092 70.5161 301.169C70.9294 301.241 71.3279 301.393 71.7114 301.623C72.0992 301.853 72.4209 302.2 72.6766 302.665C72.9323 303.129 73.0601 303.751 73.0601 304.531V311H71.5516V309.67H71.4749C71.3726 309.884 71.2022 310.112 70.9635 310.354C70.7249 310.597 70.4074 310.804 70.0111 310.974C69.6148 311.145 69.1311 311.23 68.5601 311.23ZM68.7902 309.875C69.3868 309.875 69.8897 309.758 70.2988 309.523C70.7121 309.289 71.0232 308.987 71.232 308.616C71.4451 308.245 71.5516 307.855 71.5516 307.446V306.065C71.4877 306.142 71.3471 306.212 71.1297 306.276C70.9167 306.336 70.6695 306.389 70.3882 306.436C70.1113 306.479 69.8407 306.517 69.5765 306.551C69.3165 306.581 69.1056 306.607 68.9436 306.628C68.5516 306.679 68.1851 306.762 67.8442 306.877C67.5076 306.988 67.2348 307.156 67.026 307.382C66.8215 307.604 66.7192 307.906 66.7192 308.29C66.7192 308.814 66.9131 309.21 67.3009 309.479C67.6929 309.743 68.1894 309.875 68.7902 309.875ZM79.5434 301.182V302.46H74.4553V301.182H79.5434ZM75.9383 298.83H77.4468V308.188C77.4468 308.614 77.5086 308.933 77.6322 309.146C77.76 309.355 77.9219 309.496 78.118 309.568C78.3182 309.636 78.5292 309.67 78.7508 309.67C78.917 309.67 79.0533 309.662 79.1599 309.645C79.2664 309.624 79.3516 309.607 79.4155 309.594L79.7224 310.949C79.6201 310.987 79.4773 311.026 79.2941 311.064C79.1109 311.107 78.8786 311.128 78.5974 311.128C78.1712 311.128 77.7536 311.036 77.3445 310.853C76.9397 310.67 76.603 310.391 76.3346 310.016C76.0704 309.641 75.9383 309.168 75.9383 308.597V298.83ZM81.2726 311V301.182H82.7811V311H81.2726ZM82.0396 299.545C81.7456 299.545 81.492 299.445 81.279 299.245C81.0701 299.045 80.9657 298.804 80.9657 298.523C80.9657 298.241 81.0701 298.001 81.279 297.8C81.492 297.6 81.7456 297.5 82.0396 297.5C82.3336 297.5 82.5851 297.6 82.7939 297.8C83.0069 298.001 83.1135 298.241 83.1135 298.523C83.1135 298.804 83.0069 299.045 82.7939 299.245C82.5851 299.445 82.3336 299.545 82.0396 299.545ZM88.9927 311.205C88.1063 311.205 87.3286 310.994 86.6596 310.572C85.9948 310.15 85.4749 309.56 85.0999 308.801C84.7292 308.043 84.5438 307.156 84.5438 306.142C84.5438 305.119 84.7292 304.227 85.0999 303.464C85.4749 302.701 85.9948 302.109 86.6596 301.687C87.3286 301.265 88.1063 301.054 88.9927 301.054C89.879 301.054 90.6546 301.265 91.3194 301.687C91.9884 302.109 92.5083 302.701 92.879 303.464C93.254 304.227 93.4415 305.119 93.4415 306.142C93.4415 307.156 93.254 308.043 92.879 308.801C92.5083 309.56 91.9884 310.15 91.3194 310.572C90.6546 310.994 89.879 311.205 88.9927 311.205ZM88.9927 309.849C89.666 309.849 90.22 309.677 90.6546 309.332C91.0893 308.987 91.411 308.533 91.6198 307.97C91.8286 307.408 91.933 306.798 91.933 306.142C91.933 305.486 91.8286 304.874 91.6198 304.308C91.411 303.741 91.0893 303.283 90.6546 302.933C90.22 302.584 89.666 302.409 88.9927 302.409C88.3194 302.409 87.7654 302.584 87.3307 302.933C86.8961 303.283 86.5744 303.741 86.3655 304.308C86.1567 304.874 86.0523 305.486 86.0523 306.142C86.0523 306.798 86.1567 307.408 86.3655 307.97C86.5744 308.533 86.8961 308.987 87.3307 309.332C87.7654 309.677 88.3194 309.849 88.9927 309.849ZM96.7128 305.094V311H95.2043V301.182H96.6617V302.716H96.7895C97.0196 302.217 97.369 301.817 97.8378 301.514C98.3065 301.207 98.9117 301.054 99.6531 301.054C100.318 301.054 100.9 301.19 101.398 301.463C101.897 301.732 102.285 302.141 102.562 302.69C102.839 303.236 102.977 303.926 102.977 304.761V311H101.468V304.864C101.468 304.092 101.268 303.491 100.868 303.061C100.467 302.626 99.9173 302.409 99.2185 302.409C98.7369 302.409 98.3065 302.513 97.9273 302.722C97.5523 302.931 97.2561 303.236 97.0388 303.636C96.8215 304.037 96.7128 304.523 96.7128 305.094ZM114.088 301.182V302.46H108.796V301.182H114.088ZM110.381 311V299.827C110.381 299.264 110.513 298.795 110.777 298.42C111.041 298.045 111.384 297.764 111.806 297.577C112.228 297.389 112.673 297.295 113.142 297.295C113.513 297.295 113.816 297.325 114.05 297.385C114.284 297.445 114.459 297.5 114.574 297.551L114.139 298.855C114.063 298.83 113.956 298.798 113.82 298.759C113.688 298.721 113.513 298.702 113.296 298.702C112.797 298.702 112.437 298.827 112.215 299.079C111.998 299.33 111.889 299.699 111.889 300.185V311H110.381ZM119.247 311.205C118.36 311.205 117.583 310.994 116.914 310.572C116.249 310.15 115.729 309.56 115.354 308.801C114.983 308.043 114.798 307.156 114.798 306.142C114.798 305.119 114.983 304.227 115.354 303.464C115.729 302.701 116.249 302.109 116.914 301.687C117.583 301.265 118.36 301.054 119.247 301.054C120.133 301.054 120.909 301.265 121.573 301.687C122.242 302.109 122.762 302.701 123.133 303.464C123.508 304.227 123.696 305.119 123.696 306.142C123.696 307.156 123.508 308.043 123.133 308.801C122.762 309.56 122.242 310.15 121.573 310.572C120.909 310.994 120.133 311.205 119.247 311.205ZM119.247 309.849C119.92 309.849 120.474 309.677 120.909 309.332C121.343 308.987 121.665 308.533 121.874 307.97C122.083 307.408 122.187 306.798 122.187 306.142C122.187 305.486 122.083 304.874 121.874 304.308C121.665 303.741 121.343 303.283 120.909 302.933C120.474 302.584 119.92 302.409 119.247 302.409C118.573 302.409 118.019 302.584 117.585 302.933C117.15 303.283 116.828 303.741 116.62 304.308C116.411 304.874 116.306 305.486 116.306 306.142C116.306 306.798 116.411 307.408 116.62 307.97C116.828 308.533 117.15 308.987 117.585 309.332C118.019 309.677 118.573 309.849 119.247 309.849ZM125.458 311V301.182H126.916V302.665H127.018C127.197 302.179 127.521 301.785 127.99 301.482C128.458 301.18 128.987 301.028 129.575 301.028C129.686 301.028 129.824 301.031 129.99 301.035C130.156 301.039 130.282 301.045 130.367 301.054V302.588C130.316 302.575 130.199 302.556 130.016 302.531C129.837 302.501 129.647 302.486 129.447 302.486C128.97 302.486 128.544 302.586 128.169 302.786C127.798 302.982 127.504 303.255 127.286 303.604C127.073 303.95 126.967 304.344 126.967 304.787V311H125.458ZM139.845 311.205C139.027 311.205 138.305 310.998 137.679 310.585C137.052 310.167 136.562 309.579 136.208 308.82C135.855 308.058 135.678 307.156 135.678 306.116C135.678 305.085 135.855 304.19 136.208 303.432C136.562 302.673 137.054 302.087 137.685 301.674C138.316 301.261 139.044 301.054 139.871 301.054C140.51 301.054 141.015 301.161 141.386 301.374C141.761 301.582 142.046 301.821 142.243 302.089C142.443 302.354 142.598 302.571 142.709 302.741H142.837V297.909H144.345V311H142.888V309.491H142.709C142.598 309.67 142.441 309.896 142.236 310.169C142.032 310.437 141.74 310.678 141.36 310.891C140.981 311.1 140.476 311.205 139.845 311.205ZM140.05 309.849C140.655 309.849 141.167 309.692 141.584 309.376C142.002 309.057 142.319 308.616 142.537 308.053C142.754 307.487 142.863 306.832 142.863 306.091C142.863 305.358 142.756 304.717 142.543 304.167C142.33 303.613 142.015 303.183 141.597 302.876C141.179 302.565 140.664 302.409 140.05 302.409C139.411 302.409 138.878 302.573 138.452 302.901C138.03 303.225 137.713 303.666 137.5 304.224C137.291 304.778 137.186 305.401 137.186 306.091C137.186 306.79 137.293 307.425 137.506 307.996C137.723 308.562 138.043 309.014 138.465 309.351C138.891 309.683 139.419 309.849 140.05 309.849ZM146.778 311V301.182H148.235V302.665H148.337C148.516 302.179 148.84 301.785 149.309 301.482C149.778 301.18 150.306 301.028 150.894 301.028C151.005 301.028 151.144 301.031 151.31 301.035C151.476 301.039 151.602 301.045 151.687 301.054V302.588C151.636 302.575 151.519 302.556 151.335 302.531C151.156 302.501 150.967 302.486 150.766 302.486C150.289 302.486 149.863 302.586 149.488 302.786C149.117 302.982 148.823 303.255 148.606 303.604C148.393 303.95 148.286 304.344 148.286 304.787V311H146.778ZM152.935 311V301.182H154.444V311H152.935ZM153.702 299.545C153.408 299.545 153.155 299.445 152.941 299.245C152.733 299.045 152.628 298.804 152.628 298.523C152.628 298.241 152.733 298.001 152.941 297.8C153.155 297.6 153.408 297.5 153.702 297.5C153.996 297.5 154.248 297.6 154.456 297.8C154.669 298.001 154.776 298.241 154.776 298.523C154.776 298.804 154.669 299.045 154.456 299.245C154.248 299.445 153.996 299.545 153.702 299.545ZM164.695 301.182L161.064 311H159.53L155.899 301.182H157.536L160.246 309.006H160.348L163.059 301.182H164.695ZM166.146 311V301.182H167.655V311H166.146ZM166.913 299.545C166.619 299.545 166.366 299.445 166.152 299.245C165.944 299.045 165.839 298.804 165.839 298.523C165.839 298.241 165.944 298.001 166.152 297.8C166.366 297.6 166.619 297.5 166.913 297.5C167.207 297.5 167.459 297.6 167.667 297.8C167.88 298.001 167.987 298.241 167.987 298.523C167.987 298.804 167.88 299.045 167.667 299.245C167.459 299.445 167.207 299.545 166.913 299.545ZM171.386 305.094V311H169.878V301.182H171.335V302.716H171.463C171.693 302.217 172.042 301.817 172.511 301.514C172.98 301.207 173.585 301.054 174.326 301.054C174.991 301.054 175.573 301.19 176.071 301.463C176.57 301.732 176.958 302.141 177.235 302.69C177.512 303.236 177.65 303.926 177.65 304.761V311H176.142V304.864C176.142 304.092 175.941 303.491 175.541 303.061C175.14 302.626 174.591 302.409 173.892 302.409C173.41 302.409 172.98 302.513 172.601 302.722C172.226 302.931 171.929 303.236 171.712 303.636C171.495 304.037 171.386 304.523 171.386 305.094ZM183.83 314.886C183.101 314.886 182.475 314.793 181.951 314.605C181.427 314.422 180.99 314.179 180.64 313.876C180.295 313.578 180.02 313.259 179.816 312.918L181.017 312.074C181.154 312.253 181.326 312.457 181.535 312.688C181.744 312.922 182.029 313.124 182.392 313.295C182.758 313.469 183.238 313.557 183.83 313.557C184.623 313.557 185.277 313.365 185.792 312.982C186.308 312.598 186.566 311.997 186.566 311.179V309.185H186.438C186.327 309.364 186.169 309.585 185.965 309.849C185.765 310.109 185.475 310.342 185.096 310.546C184.721 310.746 184.213 310.847 183.574 310.847C182.782 310.847 182.07 310.659 181.439 310.284C180.813 309.909 180.316 309.364 179.95 308.648C179.588 307.932 179.407 307.062 179.407 306.04C179.407 305.034 179.583 304.158 179.937 303.413C180.291 302.663 180.783 302.083 181.414 301.674C182.044 301.261 182.773 301.054 183.6 301.054C184.239 301.054 184.746 301.161 185.121 301.374C185.5 301.582 185.79 301.821 185.99 302.089C186.195 302.354 186.353 302.571 186.463 302.741H186.617V301.182H188.074V311.281C188.074 312.125 187.882 312.811 187.499 313.339C187.12 313.872 186.608 314.262 185.965 314.509C185.326 314.761 184.614 314.886 183.83 314.886ZM183.779 309.491C184.384 309.491 184.895 309.353 185.313 309.076C185.73 308.799 186.048 308.401 186.265 307.881C186.483 307.361 186.591 306.739 186.591 306.014C186.591 305.307 186.485 304.683 186.272 304.141C186.059 303.6 185.743 303.176 185.326 302.869C184.908 302.562 184.392 302.409 183.779 302.409C183.14 302.409 182.607 302.571 182.181 302.895C181.759 303.219 181.441 303.653 181.228 304.199C181.02 304.744 180.915 305.349 180.915 306.014C180.915 306.696 181.022 307.299 181.235 307.823C181.452 308.343 181.772 308.752 182.194 309.05C182.62 309.344 183.148 309.491 183.779 309.491ZM23.3438 336.886C22.6151 336.886 21.9886 336.793 21.4645 336.605C20.9403 336.422 20.5036 336.179 20.1541 335.876C19.8089 335.578 19.5341 335.259 19.3295 334.918L20.5312 334.074C20.6676 334.253 20.8402 334.457 21.049 334.688C21.2578 334.922 21.5433 335.124 21.9055 335.295C22.272 335.469 22.7514 335.557 23.3438 335.557C24.1364 335.557 24.7905 335.365 25.3061 334.982C25.8217 334.598 26.0795 333.997 26.0795 333.179V331.185H25.9517C25.8409 331.364 25.6832 331.585 25.4787 331.849C25.2784 332.109 24.9886 332.342 24.6094 332.546C24.2344 332.746 23.7273 332.847 23.0881 332.847C22.2955 332.847 21.5838 332.659 20.9531 332.284C20.3267 331.909 19.8303 331.364 19.4638 330.648C19.1016 329.932 18.9205 329.062 18.9205 328.04C18.9205 327.034 19.0973 326.158 19.451 325.413C19.8047 324.663 20.2969 324.083 20.9276 323.674C21.5582 323.261 22.2869 323.054 23.1136 323.054C23.7528 323.054 24.2599 323.161 24.6349 323.374C25.0142 323.582 25.304 323.821 25.5043 324.089C25.7088 324.354 25.8665 324.571 25.9773 324.741H26.1307V323.182H27.5881V333.281C27.5881 334.125 27.3963 334.811 27.0128 335.339C26.6335 335.872 26.1222 336.262 25.4787 336.509C24.8395 336.761 24.1278 336.886 23.3438 336.886ZM23.2926 331.491C23.8977 331.491 24.4091 331.353 24.8267 331.076C25.2443 330.799 25.5618 330.401 25.7791 329.881C25.9964 329.361 26.1051 328.739 26.1051 328.014C26.1051 327.307 25.9986 326.683 25.7855 326.141C25.5724 325.6 25.2571 325.176 24.8395 324.869C24.4219 324.562 23.9063 324.409 23.2926 324.409C22.6534 324.409 22.1207 324.571 21.6946 324.895C21.2727 325.219 20.9553 325.653 20.7422 326.199C20.5334 326.744 20.429 327.349 20.429 328.014C20.429 328.696 20.5355 329.299 20.7486 329.823C20.9659 330.343 21.2855 330.752 21.7074 331.05C22.1335 331.344 22.6619 331.491 23.2926 331.491ZM29.8094 333V323.182H31.2668V324.665H31.3691C31.5481 324.179 31.8719 323.785 32.3407 323.482C32.8094 323.18 33.3378 323.028 33.9259 323.028C34.0367 323.028 34.1752 323.031 34.3414 323.035C34.5076 323.039 34.6333 323.045 34.7185 323.054V324.588C34.6674 324.575 34.5502 324.556 34.367 324.531C34.188 324.501 33.9984 324.486 33.7981 324.486C33.3208 324.486 32.8947 324.586 32.5197 324.786C32.1489 324.982 31.8549 325.255 31.6376 325.604C31.4245 325.95 31.318 326.344 31.318 326.787V333H29.8094ZM39.6565 333.205C38.7701 333.205 37.9924 332.994 37.3234 332.572C36.6586 332.15 36.1388 331.56 35.7638 330.801C35.393 330.043 35.2076 329.156 35.2076 328.142C35.2076 327.119 35.393 326.227 35.7638 325.464C36.1388 324.701 36.6586 324.109 37.3234 323.687C37.9924 323.265 38.7701 323.054 39.6565 323.054C40.5429 323.054 41.3184 323.265 41.9832 323.687C42.6522 324.109 43.1721 324.701 43.5429 325.464C43.9179 326.227 44.1054 327.119 44.1054 328.142C44.1054 329.156 43.9179 330.043 43.5429 330.801C43.1721 331.56 42.6522 332.15 41.9832 332.572C41.3184 332.994 40.5429 333.205 39.6565 333.205ZM39.6565 331.849C40.3298 331.849 40.8838 331.677 41.3184 331.332C41.7531 330.987 42.0748 330.533 42.2836 329.97C42.4924 329.408 42.5968 328.798 42.5968 328.142C42.5968 327.486 42.4924 326.874 42.2836 326.308C42.0748 325.741 41.7531 325.283 41.3184 324.933C40.8838 324.584 40.3298 324.409 39.6565 324.409C38.9832 324.409 38.4292 324.584 37.9946 324.933C37.5599 325.283 37.2382 325.741 37.0294 326.308C36.8206 326.874 36.7162 327.486 36.7162 328.142C36.7162 328.798 36.8206 329.408 37.0294 329.97C37.2382 330.533 37.5599 330.987 37.9946 331.332C38.4292 331.677 38.9832 331.849 39.6565 331.849ZM47.7586 333L44.7671 323.182H46.3523L48.4745 330.699H48.5767L50.6733 323.182H52.2841L54.3551 330.673H54.4574L56.5796 323.182H58.1648L55.1733 333H53.6904L51.5426 325.457H51.3892L49.2415 333H47.7586ZM63.889 323.182V324.46H58.8009V323.182H63.889ZM60.2839 320.83H61.7924V330.188C61.7924 330.614 61.8542 330.933 61.9778 331.146C62.1056 331.355 62.2676 331.496 62.4636 331.568C62.6639 331.636 62.8748 331.67 63.0964 331.67C63.2626 331.67 63.3989 331.662 63.5055 331.645C63.612 331.624 63.6972 331.607 63.7612 331.594L64.068 332.949C63.9657 332.987 63.823 333.026 63.6397 333.064C63.4565 333.107 63.2242 333.128 62.943 333.128C62.5168 333.128 62.0992 333.036 61.6901 332.853C61.2853 332.67 60.9487 332.391 60.6802 332.016C60.416 331.641 60.2839 331.168 60.2839 330.597V320.83ZM67.3376 327.094V333H65.8291V319.909H67.3376V324.716H67.4655C67.6956 324.209 68.0408 323.806 68.501 323.508C68.9655 323.205 69.5834 323.054 70.3547 323.054C71.0237 323.054 71.6097 323.188 72.1125 323.457C72.6153 323.721 73.0053 324.128 73.2822 324.678C73.5635 325.223 73.7041 325.918 73.7041 326.761V333H72.1956V326.864C72.1956 326.084 71.9932 325.481 71.5884 325.055C71.1878 324.624 70.6317 324.409 69.92 324.409C69.4257 324.409 68.9825 324.513 68.5905 324.722C68.2027 324.931 67.8959 325.236 67.67 325.636C67.4484 326.037 67.3376 326.523 67.3376 327.094ZM83.3356 333.23C82.7134 333.23 82.1488 333.113 81.6417 332.879C81.1346 332.64 80.7319 332.297 80.4336 331.849C80.1353 331.398 79.9862 330.852 79.9862 330.213C79.9862 329.651 80.097 329.195 80.3185 328.845C80.5401 328.491 80.8363 328.214 81.207 328.014C81.5778 327.814 81.9869 327.665 82.4343 327.567C82.886 327.464 83.3399 327.384 83.7958 327.324C84.3924 327.247 84.8761 327.19 85.2468 327.151C85.6218 327.109 85.8945 327.038 86.065 326.94C86.2397 326.842 86.3271 326.672 86.3271 326.429V326.378C86.3271 325.747 86.1545 325.257 85.8093 324.908C85.4684 324.558 84.9506 324.384 84.256 324.384C83.5359 324.384 82.9712 324.541 82.5622 324.857C82.1531 325.172 81.8654 325.509 81.6992 325.866L80.2674 325.355C80.5231 324.759 80.864 324.294 81.2901 323.962C81.7205 323.625 82.1893 323.391 82.6964 323.259C83.2077 323.122 83.7106 323.054 84.2049 323.054C84.5202 323.054 84.8825 323.092 85.2916 323.169C85.7049 323.241 86.1033 323.393 86.4869 323.623C86.8747 323.853 87.1964 324.2 87.4521 324.665C87.7078 325.129 87.8356 325.751 87.8356 326.531V333H86.3271V331.67H86.2504C86.1481 331.884 85.9776 332.112 85.739 332.354C85.5004 332.597 85.1829 332.804 84.7866 332.974C84.3903 333.145 83.9066 333.23 83.3356 333.23ZM83.5657 331.875C84.1623 331.875 84.6651 331.758 85.0742 331.523C85.4876 331.289 85.7987 330.987 86.0075 330.616C86.2205 330.245 86.3271 329.855 86.3271 329.446V328.065C86.2631 328.142 86.1225 328.212 85.9052 328.276C85.6921 328.336 85.445 328.389 85.1637 328.436C84.8867 328.479 84.6161 328.517 84.3519 328.551C84.092 328.581 83.881 328.607 83.7191 328.628C83.3271 328.679 82.9606 328.762 82.6197 328.877C82.283 328.988 82.0103 329.156 81.8015 329.382C81.597 329.604 81.4947 329.906 81.4947 330.29C81.4947 330.814 81.6886 331.21 82.0764 331.479C82.4684 331.743 82.9649 331.875 83.5657 331.875ZM91.5575 327.094V333H90.049V323.182H91.5063V324.716H91.6342C91.8643 324.217 92.2137 323.817 92.6825 323.514C93.1512 323.207 93.7563 323.054 94.4978 323.054C95.1626 323.054 95.7443 323.19 96.2429 323.463C96.7414 323.732 97.1292 324.141 97.4062 324.69C97.6832 325.236 97.8217 325.926 97.8217 326.761V333H96.3132V326.864C96.3132 326.092 96.1129 325.491 95.7123 325.061C95.3117 324.626 94.762 324.409 94.0632 324.409C93.5816 324.409 93.1512 324.513 92.772 324.722C92.397 324.931 92.1008 325.236 91.8835 325.636C91.6662 326.037 91.5575 326.523 91.5575 327.094ZM103.746 333.205C102.927 333.205 102.205 332.998 101.579 332.585C100.952 332.167 100.462 331.579 100.109 330.82C99.7549 330.058 99.578 329.156 99.578 328.116C99.578 327.085 99.7549 326.19 100.109 325.432C100.462 324.673 100.954 324.087 101.585 323.674C102.216 323.261 102.945 323.054 103.771 323.054C104.41 323.054 104.915 323.161 105.286 323.374C105.661 323.582 105.947 323.821 106.143 324.089C106.343 324.354 106.498 324.571 106.609 324.741H106.737V319.909H108.246V333H106.788V331.491H106.609C106.498 331.67 106.341 331.896 106.136 332.169C105.932 332.437 105.64 332.678 105.261 332.891C104.881 333.1 104.376 333.205 103.746 333.205ZM103.95 331.849C104.555 331.849 105.067 331.692 105.484 331.376C105.902 331.057 106.219 330.616 106.437 330.053C106.654 329.487 106.763 328.832 106.763 328.091C106.763 327.358 106.656 326.717 106.443 326.167C106.23 325.613 105.915 325.183 105.497 324.876C105.079 324.565 104.564 324.409 103.95 324.409C103.311 324.409 102.778 324.573 102.352 324.901C101.93 325.225 101.613 325.666 101.4 326.224C101.191 326.778 101.087 327.401 101.087 328.091C101.087 328.79 101.193 329.425 101.406 329.996C101.623 330.562 101.943 331.014 102.365 331.351C102.791 331.683 103.32 331.849 103.95 331.849ZM119.317 333.205C118.371 333.205 117.555 332.996 116.869 332.578C116.187 332.156 115.661 331.568 115.29 330.814C114.923 330.055 114.74 329.173 114.74 328.168C114.74 327.162 114.923 326.276 115.29 325.509C115.661 324.737 116.176 324.136 116.837 323.706C117.502 323.271 118.277 323.054 119.164 323.054C119.675 323.054 120.18 323.139 120.678 323.31C121.177 323.48 121.631 323.757 122.04 324.141C122.449 324.52 122.775 325.023 123.018 325.649C123.261 326.276 123.382 327.047 123.382 327.963V328.602H115.814V327.298H121.848C121.848 326.744 121.737 326.25 121.516 325.815C121.298 325.381 120.987 325.038 120.583 324.786C120.182 324.535 119.709 324.409 119.164 324.409C118.563 324.409 118.043 324.558 117.604 324.857C117.169 325.151 116.835 325.534 116.6 326.007C116.366 326.48 116.249 326.987 116.249 327.528V328.398C116.249 329.139 116.377 329.768 116.632 330.283C116.892 330.795 117.252 331.185 117.713 331.453C118.173 331.717 118.708 331.849 119.317 331.849C119.713 331.849 120.071 331.794 120.391 331.683C120.715 331.568 120.994 331.398 121.228 331.172C121.463 330.942 121.644 330.656 121.771 330.315L123.229 330.724C123.075 331.219 122.818 331.653 122.455 332.028C122.093 332.399 121.646 332.689 121.113 332.898C120.58 333.102 119.982 333.205 119.317 333.205ZM129.509 323.182V324.46H124.217V323.182H129.509ZM125.802 333V321.827C125.802 321.264 125.934 320.795 126.198 320.42C126.462 320.045 126.805 319.764 127.227 319.577C127.649 319.389 128.094 319.295 128.563 319.295C128.934 319.295 129.236 319.325 129.471 319.385C129.705 319.445 129.88 319.5 129.995 319.551L129.56 320.855C129.484 320.83 129.377 320.798 129.241 320.759C129.109 320.721 128.934 320.702 128.717 320.702C128.218 320.702 127.858 320.827 127.636 321.079C127.419 321.33 127.31 321.699 127.31 322.185V333H125.802ZM135.456 323.182V324.46H130.163V323.182H135.456ZM131.748 333V321.827C131.748 321.264 131.88 320.795 132.144 320.42C132.409 320.045 132.752 319.764 133.174 319.577C133.595 319.389 134.041 319.295 134.509 319.295C134.88 319.295 135.183 319.325 135.417 319.385C135.652 319.445 135.826 319.5 135.941 319.551L135.507 320.855C135.43 320.83 135.323 320.798 135.187 320.759C135.055 320.721 134.88 320.702 134.663 320.702C134.164 320.702 133.804 320.827 133.583 321.079C133.365 321.33 133.257 321.699 133.257 322.185V333H131.748ZM137.03 333V323.182H138.538V333H137.03ZM137.797 321.545C137.503 321.545 137.249 321.445 137.036 321.245C136.827 321.045 136.723 320.804 136.723 320.523C136.723 320.241 136.827 320.001 137.036 319.8C137.249 319.6 137.503 319.5 137.797 319.5C138.091 319.5 138.342 319.6 138.551 319.8C138.764 320.001 138.871 320.241 138.871 320.523C138.871 320.804 138.764 321.045 138.551 321.245C138.342 321.445 138.091 321.545 137.797 321.545ZM144.75 333.205C143.829 333.205 143.037 332.987 142.372 332.553C141.707 332.118 141.196 331.519 140.838 330.756C140.48 329.994 140.301 329.122 140.301 328.142C140.301 327.145 140.484 326.265 140.851 325.502C141.221 324.735 141.737 324.136 142.398 323.706C143.062 323.271 143.838 323.054 144.724 323.054C145.415 323.054 146.037 323.182 146.591 323.438C147.145 323.693 147.599 324.051 147.952 324.511C148.306 324.972 148.525 325.509 148.611 326.122H147.102C146.987 325.675 146.731 325.278 146.335 324.933C145.943 324.584 145.415 324.409 144.75 324.409C144.162 324.409 143.646 324.562 143.203 324.869C142.764 325.172 142.421 325.6 142.174 326.154C141.931 326.704 141.809 327.349 141.809 328.091C141.809 328.849 141.929 329.51 142.167 330.072C142.41 330.635 142.751 331.072 143.19 331.383C143.633 331.694 144.153 331.849 144.75 331.849C145.142 331.849 145.498 331.781 145.817 331.645C146.137 331.509 146.407 331.312 146.629 331.057C146.851 330.801 147.008 330.494 147.102 330.136H148.611C148.525 330.716 148.314 331.238 147.978 331.702C147.645 332.163 147.204 332.529 146.655 332.802C146.109 333.07 145.474 333.205 144.75 333.205ZM150.276 333V323.182H151.784V333H150.276ZM151.043 321.545C150.749 321.545 150.495 321.445 150.282 321.245C150.073 321.045 149.969 320.804 149.969 320.523C149.969 320.241 150.073 320.001 150.282 319.8C150.495 319.6 150.749 319.5 151.043 319.5C151.337 319.5 151.588 319.6 151.797 319.8C152.01 320.001 152.117 320.241 152.117 320.523C152.117 320.804 152.01 321.045 151.797 321.245C151.588 321.445 151.337 321.545 151.043 321.545ZM158.124 333.205C157.178 333.205 156.362 332.996 155.676 332.578C154.994 332.156 154.468 331.568 154.097 330.814C153.73 330.055 153.547 329.173 153.547 328.168C153.547 327.162 153.73 326.276 154.097 325.509C154.468 324.737 154.983 324.136 155.644 323.706C156.308 323.271 157.084 323.054 157.97 323.054C158.482 323.054 158.987 323.139 159.485 323.31C159.984 323.48 160.438 323.757 160.847 324.141C161.256 324.52 161.582 325.023 161.825 325.649C162.068 326.276 162.189 327.047 162.189 327.963V328.602H154.621V327.298H160.655C160.655 326.744 160.544 326.25 160.323 325.815C160.105 325.381 159.794 325.038 159.389 324.786C158.989 324.535 158.516 324.409 157.97 324.409C157.37 324.409 156.85 324.558 156.411 324.857C155.976 325.151 155.642 325.534 155.407 326.007C155.173 326.48 155.056 326.987 155.056 327.528V328.398C155.056 329.139 155.183 329.768 155.439 330.283C155.699 330.795 156.059 331.185 156.519 331.453C156.98 331.717 157.514 331.849 158.124 331.849C158.52 331.849 158.878 331.794 159.198 331.683C159.522 331.568 159.801 331.398 160.035 331.172C160.269 330.942 160.45 330.656 160.578 330.315L162.036 330.724C161.882 331.219 161.625 331.653 161.262 332.028C160.9 332.399 160.453 332.689 159.92 332.898C159.387 333.102 158.789 333.205 158.124 333.205ZM165.452 327.094V333H163.944V323.182H165.401V324.716H165.529C165.759 324.217 166.109 323.817 166.577 323.514C167.046 323.207 167.651 323.054 168.393 323.054C169.058 323.054 169.639 323.19 170.138 323.463C170.636 323.732 171.024 324.141 171.301 324.69C171.578 325.236 171.717 325.926 171.717 326.761V333H170.208V326.864C170.208 326.092 170.008 325.491 169.607 325.061C169.207 324.626 168.657 324.409 167.958 324.409C167.477 324.409 167.046 324.513 166.667 324.722C166.292 324.931 165.996 325.236 165.778 325.636C165.561 326.037 165.452 326.523 165.452 327.094ZM177.922 333.205C177.001 333.205 176.209 332.987 175.544 332.553C174.879 332.118 174.368 331.519 174.01 330.756C173.652 329.994 173.473 329.122 173.473 328.142C173.473 327.145 173.656 326.265 174.023 325.502C174.393 324.735 174.909 324.136 175.57 323.706C176.234 323.271 177.01 323.054 177.896 323.054C178.587 323.054 179.209 323.182 179.763 323.438C180.317 323.693 180.771 324.051 181.124 324.511C181.478 324.972 181.697 325.509 181.783 326.122H180.274C180.159 325.675 179.903 325.278 179.507 324.933C179.115 324.584 178.587 324.409 177.922 324.409C177.334 324.409 176.818 324.562 176.375 324.869C175.936 325.172 175.593 325.6 175.346 326.154C175.103 326.704 174.981 327.349 174.981 328.091C174.981 328.849 175.101 329.51 175.339 330.072C175.582 330.635 175.923 331.072 176.362 331.383C176.805 331.694 177.325 331.849 177.922 331.849C178.314 331.849 178.67 331.781 178.989 331.645C179.309 331.509 179.579 331.312 179.801 331.057C180.023 330.801 180.18 330.494 180.274 330.136H181.783C181.697 330.716 181.486 331.238 181.15 331.702C180.817 332.163 180.376 332.529 179.827 332.802C179.281 333.07 178.646 333.205 177.922 333.205ZM184.419 336.682C184.164 336.682 183.936 336.661 183.736 336.618C183.535 336.58 183.397 336.541 183.32 336.503L183.704 335.173C184.07 335.267 184.394 335.301 184.675 335.276C184.956 335.25 185.206 335.124 185.423 334.898C185.645 334.677 185.847 334.317 186.03 333.818L186.312 333.051L182.681 323.182H184.317L187.027 331.006H187.13L189.84 323.182H191.476L187.309 334.432C187.121 334.939 186.889 335.359 186.612 335.691C186.335 336.028 186.013 336.277 185.647 336.439C185.285 336.601 184.875 336.682 184.419 336.682Z" fill="#091F5B"/>
</svg>
