<svg width="300" height="365" viewBox="0 0 300 365" fill="none" xmlns="http://www.w3.org/2000/svg">
<rect width="300" height="364.5" rx="22.5" fill="#DFF5FF"/>
<circle cx="264.375" cy="316.875" r="16.125" fill="#0F33E9"/>
<path d="M269.786 318.651L268.805 318.662L268.805 314.135L261.313 321.627L260.617 320.931L268.114 313.434L263.593 313.427L263.593 312.458L269.786 312.458L269.786 318.651Z" fill="white"/>
<path d="M25.1591 44H19.614V27.6364H25.271C26.8956 27.6364 28.2912 27.964 29.4577 28.6191C30.6296 29.269 31.5298 30.2038 32.1584 31.4237C32.7869 32.6435 33.1012 34.103 33.1012 35.8022C33.1012 37.5067 32.7843 38.9716 32.1504 40.1967C31.5218 41.4219 30.6136 42.362 29.4258 43.0172C28.2433 43.6724 26.821 44 25.1591 44ZM22.5783 41.4352H25.0153C26.1552 41.4352 27.106 41.2275 27.8677 40.812C28.6294 40.3912 29.2021 39.7653 29.5856 38.9343C29.9691 38.098 30.1609 37.054 30.1609 35.8022C30.1609 34.5504 29.9691 33.5117 29.5856 32.6861C29.2021 31.8551 28.6348 31.2346 27.8837 30.8244C27.138 30.4089 26.2111 30.2012 25.1032 30.2012H22.5783V41.4352ZM39.3215 44.2477C38.5438 44.2477 37.8433 44.1092 37.2201 43.8322C36.6022 43.5499 36.1121 43.1344 35.7499 42.5858C35.393 42.0371 35.2146 41.3606 35.2146 40.5563C35.2146 39.8638 35.3424 39.2912 35.5981 38.8384C35.8538 38.3857 36.2027 38.0234 36.6448 37.7518C37.0869 37.4801 37.585 37.275 38.1389 37.1365C38.6982 36.9927 39.2762 36.8888 39.8728 36.8249C40.5919 36.7504 41.1752 36.6838 41.6226 36.6252C42.07 36.5613 42.395 36.4654 42.5974 36.3375C42.8051 36.2044 42.909 35.9993 42.909 35.7223V35.6744C42.909 35.0724 42.7306 34.6064 42.3737 34.2761C42.0168 33.9458 41.5028 33.7807 40.8316 33.7807C40.1231 33.7807 39.5612 33.9352 39.1457 34.2441C38.7355 34.5531 38.4585 34.918 38.3147 35.3388L35.6141 34.9553C35.8271 34.2095 36.1787 33.5863 36.6688 33.0856C37.1588 32.5795 37.7581 32.2013 38.4665 31.951C39.175 31.6953 39.958 31.5675 40.8156 31.5675C41.4069 31.5675 41.9955 31.6367 42.5814 31.7752C43.1673 31.9137 43.7027 32.1428 44.1874 32.4624C44.6721 32.7766 45.061 33.2054 45.354 33.7488C45.6523 34.2921 45.8014 34.9712 45.8014 35.7862V44H43.0209V42.3141H42.925C42.7492 42.655 42.5015 42.9746 42.1819 43.2729C41.8676 43.5659 41.4708 43.8029 40.9914 43.984C40.5173 44.1598 39.9607 44.2477 39.3215 44.2477ZM40.0725 42.1223C40.6531 42.1223 41.1565 42.0078 41.5827 41.7788C42.0088 41.5444 42.3364 41.2354 42.5654 40.8519C42.7998 40.4684 42.917 40.0502 42.917 39.5975V38.1513C42.8264 38.2259 42.672 38.2951 42.4536 38.359C42.2405 38.4229 42.0008 38.4789 41.7345 38.5268C41.4681 38.5748 41.2045 38.6174 40.9434 38.6547C40.6824 38.6919 40.4561 38.7239 40.2643 38.7505C39.8328 38.8091 39.4466 38.905 39.1057 39.0382C38.7648 39.1713 38.4958 39.3578 38.2987 39.5975C38.1017 39.8319 38.0031 40.1355 38.0031 40.5083C38.0031 41.041 38.1975 41.4432 38.5864 41.7148C38.9752 41.9865 39.4706 42.1223 40.0725 42.1223ZM54.8382 31.7273V33.9645H47.7829V31.7273H54.8382ZM49.5248 28.7869H52.4172V40.3086C52.4172 40.6974 52.4758 40.9957 52.593 41.2035C52.7155 41.4059 52.8753 41.5444 53.0724 41.619C53.2694 41.6935 53.4878 41.7308 53.7275 41.7308C53.9086 41.7308 54.0738 41.7175 54.2229 41.6909C54.3774 41.6642 54.4946 41.6403 54.5745 41.619L55.0619 43.8801C54.9074 43.9334 54.6863 43.992 54.3987 44.0559C54.1164 44.1199 53.7702 44.1571 53.36 44.1678C52.6356 44.1891 51.983 44.0799 51.4024 43.8402C50.8218 43.5952 50.3611 43.217 50.0202 42.7056C49.6846 42.1942 49.5194 41.555 49.5248 40.788V28.7869ZM60.7888 44.2477C60.0111 44.2477 59.3106 44.1092 58.6874 43.8322C58.0695 43.5499 57.5794 43.1344 57.2172 42.5858C56.8603 42.0371 56.6819 41.3606 56.6819 40.5563C56.6819 39.8638 56.8097 39.2912 57.0654 38.8384C57.3211 38.3857 57.67 38.0234 58.1121 37.7518C58.5542 37.4801 59.0522 37.275 59.6062 37.1365C60.1655 36.9927 60.7435 36.8888 61.3401 36.8249C62.0592 36.7504 62.6424 36.6838 63.0899 36.6252C63.5373 36.5613 63.8623 36.4654 64.0647 36.3375C64.2724 36.2044 64.3763 35.9993 64.3763 35.7223V35.6744C64.3763 35.0724 64.1978 34.6064 63.841 34.2761C63.4841 33.9458 62.97 33.7807 62.2989 33.7807C61.5904 33.7807 61.0285 33.9352 60.613 34.2441C60.2028 34.5531 59.9258 34.918 59.782 35.3388L57.0814 34.9553C57.2944 34.2095 57.646 33.5863 58.1361 33.0856C58.6261 32.5795 59.2254 32.2013 59.9338 31.951C60.6423 31.6953 61.4253 31.5675 62.2829 31.5675C62.8742 31.5675 63.4628 31.6367 64.0487 31.7752C64.6346 31.9137 65.17 32.1428 65.6547 32.4624C66.1394 32.7766 66.5283 33.2054 66.8212 33.7488C67.1195 34.2921 67.2687 34.9712 67.2687 35.7862V44H64.4881V42.3141H64.3923C64.2165 42.655 63.9688 42.9746 63.6492 43.2729C63.3349 43.5659 62.9381 43.8029 62.4587 43.984C61.9846 44.1598 61.428 44.2477 60.7888 44.2477ZM61.5398 42.1223C62.1204 42.1223 62.6238 42.0078 63.0499 41.7788C63.4761 41.5444 63.8037 41.2354 64.0327 40.8519C64.2671 40.4684 64.3843 40.0502 64.3843 39.5975V38.1513C64.2937 38.2259 64.1392 38.2951 63.9209 38.359C63.7078 38.4229 63.4681 38.4789 63.2017 38.5268C62.9354 38.5748 62.6717 38.6174 62.4107 38.6547C62.1497 38.6919 61.9233 38.7239 61.7316 38.7505C61.3001 38.8091 60.9139 38.905 60.573 39.0382C60.2321 39.1713 59.9631 39.3578 59.766 39.5975C59.5689 39.8319 59.4704 40.1355 59.4704 40.5083C59.4704 41.041 59.6648 41.4432 60.0537 41.7148C60.4425 41.9865 60.9379 42.1223 61.5398 42.1223ZM77.9873 44H74.8233L80.5841 27.6364H84.2436L90.0124 44H86.8483L82.4778 30.9922H82.3499L77.9873 44ZM78.0912 37.584H86.7205V39.965H78.0912V37.584ZM94.9323 36.8089V44H92.0399V31.7273H94.8044V33.8127H94.9482C95.2306 33.1255 95.6807 32.5795 96.2986 32.1747C96.9218 31.7699 97.6915 31.5675 98.6077 31.5675C99.4546 31.5675 100.192 31.7486 100.821 32.1108C101.455 32.473 101.945 32.9977 102.291 33.6848C102.643 34.372 102.816 35.2056 102.81 36.1857V44H99.9181V36.6332C99.9181 35.8129 99.705 35.171 99.2789 34.7076C98.858 34.2441 98.2748 34.0124 97.529 34.0124C97.023 34.0124 96.5729 34.1243 96.1787 34.348C95.7899 34.5664 95.4836 34.8833 95.2599 35.2988C95.0415 35.7143 94.9323 36.2177 94.9323 36.8089ZM109.282 44.2477C108.505 44.2477 107.804 44.1092 107.181 43.8322C106.563 43.5499 106.073 43.1344 105.711 42.5858C105.354 42.0371 105.176 41.3606 105.176 40.5563C105.176 39.8638 105.303 39.2912 105.559 38.8384C105.815 38.3857 106.164 38.0234 106.606 37.7518C107.048 37.4801 107.546 37.275 108.1 37.1365C108.659 36.9927 109.237 36.8888 109.834 36.8249C110.553 36.7504 111.136 36.6838 111.584 36.6252C112.031 36.5613 112.356 36.4654 112.558 36.3375C112.766 36.2044 112.87 35.9993 112.87 35.7223V35.6744C112.87 35.0724 112.691 34.6064 112.335 34.2761C111.978 33.9458 111.464 33.7807 110.793 33.7807C110.084 33.7807 109.522 33.9352 109.107 34.2441C108.696 34.5531 108.419 34.918 108.276 35.3388L105.575 34.9553C105.788 34.2095 106.14 33.5863 106.63 33.0856C107.12 32.5795 107.719 32.2013 108.427 31.951C109.136 31.6953 109.919 31.5675 110.777 31.5675C111.368 31.5675 111.956 31.6367 112.542 31.7752C113.128 31.9137 113.664 32.1428 114.148 32.4624C114.633 32.7766 115.022 33.2054 115.315 33.7488C115.613 34.2921 115.762 34.9712 115.762 35.7862V44H112.982V42.3141H112.886C112.71 42.655 112.462 42.9746 112.143 43.2729C111.829 43.5659 111.432 43.8029 110.952 43.984C110.478 44.1598 109.922 44.2477 109.282 44.2477ZM110.033 42.1223C110.614 42.1223 111.117 42.0078 111.544 41.7788C111.97 41.5444 112.297 41.2354 112.526 40.8519C112.761 40.4684 112.878 40.0502 112.878 39.5975V38.1513C112.787 38.2259 112.633 38.2951 112.415 38.359C112.201 38.4229 111.962 38.4789 111.695 38.5268C111.429 38.5748 111.165 38.6174 110.904 38.6547C110.643 38.6919 110.417 38.7239 110.225 38.7505C109.794 38.8091 109.408 38.905 109.067 39.0382C108.726 39.1713 108.457 39.3578 108.26 39.5975C108.063 39.8319 107.964 40.1355 107.964 40.5083C107.964 41.041 108.158 41.4432 108.547 41.7148C108.936 41.9865 109.432 42.1223 110.033 42.1223ZM121.563 27.6364V44H118.671V27.6364H121.563ZM126.335 48.6023C125.941 48.6023 125.576 48.5703 125.241 48.5064C124.91 48.4478 124.647 48.3786 124.45 48.2987L125.121 46.0455C125.542 46.168 125.917 46.2266 126.247 46.2212C126.578 46.2159 126.868 46.112 127.118 45.9096C127.374 45.7125 127.59 45.3823 127.765 44.9189L128.013 44.2557L123.563 31.7273H126.631L129.459 40.9957H129.587L132.424 31.7273H135.5L130.586 45.4862C130.357 46.136 130.053 46.6926 129.675 47.1561C129.297 47.6248 128.833 47.9817 128.285 48.2267C127.741 48.4771 127.092 48.6023 126.335 48.6023ZM143.63 31.7273V33.9645H136.574V31.7273H143.63ZM138.316 28.7869H141.209V40.3086C141.209 40.6974 141.267 40.9957 141.384 41.2035C141.507 41.4059 141.667 41.5444 141.864 41.619C142.061 41.6935 142.279 41.7308 142.519 41.7308C142.7 41.7308 142.865 41.7175 143.014 41.6909C143.169 41.6642 143.286 41.6403 143.366 41.619L143.853 43.8801C143.699 43.9334 143.478 43.992 143.19 44.0559C142.908 44.1199 142.562 44.1571 142.152 44.1678C141.427 44.1891 140.775 44.0799 140.194 43.8402C139.613 43.5952 139.153 43.217 138.812 42.7056C138.476 42.1942 138.311 41.555 138.316 40.788V28.7869ZM146.049 44V31.7273H148.941V44H146.049ZM147.503 29.9854C147.045 29.9854 146.651 29.8336 146.32 29.53C145.99 29.2211 145.825 28.8509 145.825 28.4194C145.825 27.9826 145.99 27.6124 146.32 27.3088C146.651 26.9998 147.045 26.8453 147.503 26.8453C147.966 26.8453 148.36 26.9998 148.685 27.3088C149.016 27.6124 149.181 27.9826 149.181 28.4194C149.181 28.8509 149.016 29.2211 148.685 29.53C148.36 29.8336 147.966 29.9854 147.503 29.9854ZM157.269 44.2397C156.044 44.2397 154.992 43.9707 154.113 43.4327C153.239 42.8947 152.565 42.1516 152.091 41.2035C151.622 40.25 151.388 39.1527 151.388 37.9116C151.388 36.6651 151.628 35.5652 152.107 34.6117C152.587 33.6529 153.263 32.9071 154.137 32.3745C155.015 31.8365 156.054 31.5675 157.253 31.5675C158.249 31.5675 159.13 31.7512 159.897 32.1188C160.67 32.481 161.285 32.995 161.743 33.6609C162.201 34.3214 162.462 35.0937 162.526 35.978H159.762C159.65 35.3867 159.383 34.894 158.963 34.4998C158.547 34.1003 157.99 33.9006 157.293 33.9006C156.701 33.9006 156.182 34.0604 155.735 34.38C155.287 34.6942 154.938 35.147 154.688 35.7383C154.443 36.3295 154.32 37.038 154.32 37.8636C154.32 38.6999 154.443 39.419 154.688 40.021C154.933 40.6175 155.277 41.0783 155.719 41.4032C156.166 41.7228 156.691 41.8826 157.293 41.8826C157.719 41.8826 158.1 41.8027 158.435 41.6429C158.776 41.4778 159.061 41.2408 159.29 40.9318C159.519 40.6229 159.676 40.2473 159.762 39.8052H162.526C162.457 40.6735 162.201 41.4432 161.759 42.1143C161.317 42.7802 160.715 43.3022 159.953 43.6804C159.192 44.0533 158.297 44.2397 157.269 44.2397ZM174.601 34.9712L171.964 35.2589C171.89 34.9925 171.759 34.7422 171.573 34.5078C171.392 34.2734 171.147 34.0843 170.838 33.9405C170.529 33.7967 170.151 33.7248 169.703 33.7248C169.101 33.7248 168.595 33.8553 168.185 34.1163C167.78 34.3773 167.581 34.7156 167.586 35.131C167.581 35.4879 167.711 35.7782 167.977 36.002C168.249 36.2257 168.696 36.4094 169.32 36.5533L171.413 37.0007C172.574 37.2511 173.437 37.6479 174.002 38.1912C174.572 38.7346 174.859 39.4457 174.865 40.3246C174.859 41.0969 174.633 41.7788 174.186 42.37C173.744 42.956 173.128 43.4141 172.34 43.7443C171.552 44.0746 170.646 44.2397 169.623 44.2397C168.121 44.2397 166.912 43.9254 165.996 43.2969C165.08 42.663 164.534 41.7814 164.358 40.6522L167.178 40.3805C167.306 40.9345 167.578 41.3526 167.993 41.6349C168.409 41.9173 168.949 42.0584 169.615 42.0584C170.302 42.0584 170.854 41.9173 171.269 41.6349C171.69 41.3526 171.9 41.0037 171.9 40.5882C171.9 40.2367 171.765 39.9464 171.493 39.7173C171.227 39.4883 170.811 39.3125 170.247 39.19L168.153 38.7505C166.976 38.5055 166.105 38.0927 165.54 37.5121C164.976 36.9261 164.696 36.1857 164.701 35.2908C164.696 34.5344 164.901 33.8793 165.317 33.3253C165.737 32.766 166.321 32.3345 167.066 32.0309C167.818 31.7219 168.683 31.5675 169.663 31.5675C171.101 31.5675 172.233 31.8738 173.059 32.4863C173.89 33.0989 174.404 33.9272 174.601 34.9712ZM187.721 44.2397C186.602 44.2397 185.641 44.0373 184.836 43.6325C184.032 43.2276 183.411 42.6816 182.975 41.9945C182.543 41.302 182.328 40.5217 182.328 39.6534C182.328 38.9982 182.461 38.4176 182.727 37.9116C182.999 37.4055 183.372 36.9368 183.846 36.5053C184.325 36.0739 184.879 35.6451 185.508 35.2189L188.408 33.2454C188.834 32.9684 189.156 32.6754 189.375 32.3665C189.598 32.0575 189.71 31.6953 189.71 31.2798C189.71 30.9283 189.561 30.5953 189.263 30.2811C188.97 29.9668 188.565 29.8097 188.048 29.8097C187.702 29.8097 187.396 29.8922 187.13 30.0574C186.869 30.2172 186.663 30.4276 186.514 30.6886C186.37 30.9496 186.299 31.2266 186.299 31.5195C186.299 31.8764 186.397 32.2386 186.594 32.6062C186.797 32.9737 187.058 33.3546 187.377 33.7488C187.702 34.1429 188.048 34.5611 188.416 35.0032L196.094 44H192.962L186.586 36.6971C186.112 36.1431 185.654 35.5971 185.212 35.0591C184.775 34.5211 184.416 33.9618 184.133 33.3812C183.856 32.7953 183.718 32.1614 183.718 31.4796C183.718 30.7072 183.896 30.0174 184.253 29.4102C184.61 28.7976 185.108 28.3155 185.747 27.964C186.392 27.6124 187.146 27.4366 188.008 27.4366C188.871 27.4366 189.612 27.6071 190.23 27.948C190.848 28.2889 191.324 28.7417 191.66 29.3063C191.995 29.8709 192.163 30.4862 192.163 31.152C192.163 31.9244 191.972 32.6168 191.588 33.2294C191.204 33.8366 190.672 34.388 189.99 34.8833L186.682 37.3043C186.139 37.6985 185.75 38.098 185.516 38.5028C185.281 38.9023 185.164 39.2433 185.164 39.5256C185.164 39.957 185.273 40.3485 185.492 40.7001C185.71 41.0517 186.016 41.334 186.41 41.5471C186.81 41.7548 187.276 41.8587 187.809 41.8587C188.395 41.8587 188.973 41.7282 189.543 41.4672C190.112 41.2008 190.632 40.8226 191.101 40.3326C191.569 39.8425 191.942 39.2566 192.219 38.5748C192.496 37.8876 192.635 37.1259 192.635 36.2896H195.12C195.12 37.323 195.005 38.2232 194.776 38.9902C194.547 39.752 194.251 40.3965 193.889 40.9238C193.527 41.4458 193.143 41.864 192.739 42.1783C192.611 42.2688 192.488 42.3594 192.371 42.4499C192.254 42.5405 192.131 42.631 192.003 42.7216C191.428 43.2436 190.754 43.6271 189.982 43.8722C189.215 44.1172 188.461 44.2397 187.721 44.2397ZM21.7154 67H18.5513L24.3121 50.6364H27.9716L33.7404 67H30.5763L26.2058 53.9922H26.0779L21.7154 67ZM21.8192 60.584H30.4485V62.965H21.8192V60.584ZM38.86 50.6364V67H35.8957V50.6364H38.86ZM56.544 55.1348C56.4695 54.437 56.1552 53.8936 55.6012 53.5048C55.0526 53.1159 54.3388 52.9215 53.4599 52.9215C52.842 52.9215 52.312 53.0147 51.8699 53.2012C51.4277 53.3876 51.0895 53.6406 50.8551 53.9602C50.6207 54.2798 50.5009 54.6447 50.4956 55.0549C50.4956 55.3958 50.5728 55.6914 50.7273 55.9418C50.8871 56.1921 51.1028 56.4052 51.3745 56.581C51.6461 56.7514 51.9471 56.8952 52.2773 57.0124C52.6076 57.1296 52.9405 57.2282 53.2761 57.3081L54.8102 57.6916C55.4281 57.8354 56.022 58.0298 56.592 58.2749C57.1673 58.5199 57.6813 58.8288 58.1341 59.2017C58.5922 59.5746 58.9544 60.0247 59.2207 60.552C59.487 61.0794 59.6202 61.6973 59.6202 62.4057C59.6202 63.3645 59.3752 64.2088 58.8851 64.9386C58.3951 65.663 57.6866 66.2303 56.7598 66.6404C55.8382 67.0453 54.7223 67.2477 53.4119 67.2477C52.1388 67.2477 51.0336 67.0506 50.0961 66.6564C49.1639 66.2623 48.4341 65.687 47.9068 64.9306C47.3848 64.1742 47.1025 63.2527 47.0598 62.166H49.9762C50.0188 62.736 50.1946 63.21 50.5036 63.5882C50.8125 63.9664 51.2147 64.2488 51.71 64.4352C52.2108 64.6216 52.7701 64.7148 53.388 64.7148C54.0325 64.7148 54.5971 64.619 55.0819 64.4272C55.5719 64.2301 55.9554 63.9585 56.2324 63.6122C56.5094 63.2607 56.6506 62.8505 56.6559 62.3817C56.6506 61.9556 56.5254 61.604 56.2804 61.3271C56.0353 61.0447 55.6918 60.8104 55.2496 60.6239C54.8129 60.4322 54.3015 60.2617 53.7156 60.1126L51.8539 59.6332C50.5062 59.2869 49.4409 58.7623 48.6578 58.0591C47.8801 57.3507 47.4913 56.4105 47.4913 55.2386C47.4913 54.2745 47.7523 53.4302 48.2743 52.7058C48.8017 51.9814 49.5181 51.4194 50.4237 51.0199C51.3292 50.6151 52.3546 50.4126 53.4998 50.4126C54.661 50.4126 55.6784 50.6151 56.552 51.0199C57.4309 51.4194 58.1207 51.976 58.6214 52.6898C59.1222 53.3983 59.3805 54.2132 59.3965 55.1348H56.544ZM67.4884 67.2397C66.2899 67.2397 65.2512 66.976 64.3723 66.4487C63.4934 65.9213 62.8116 65.1836 62.3268 64.2354C61.8474 63.2873 61.6077 62.1793 61.6077 60.9116C61.6077 59.6438 61.8474 58.5332 62.3268 57.5797C62.8116 56.6262 63.4934 55.8858 64.3723 55.3585C65.2512 54.8311 66.2899 54.5675 67.4884 54.5675C68.6869 54.5675 69.7256 54.8311 70.6045 55.3585C71.4834 55.8858 72.1626 56.6262 72.642 57.5797C73.1267 58.5332 73.3691 59.6438 73.3691 60.9116C73.3691 62.1793 73.1267 63.2873 72.642 64.2354C72.1626 65.1836 71.4834 65.9213 70.6045 66.4487C69.7256 66.976 68.6869 67.2397 67.4884 67.2397ZM67.5044 64.9226C68.1543 64.9226 68.6976 64.7441 69.1344 64.3873C69.5712 64.025 69.8961 63.5403 70.1092 62.9331C70.3275 62.3258 70.4367 61.6493 70.4367 60.9036C70.4367 60.1525 70.3275 59.4734 70.1092 58.8661C69.8961 58.2536 69.5712 57.7662 69.1344 57.4039C68.6976 57.0417 68.1543 56.8606 67.5044 56.8606C66.8386 56.8606 66.2846 57.0417 65.8425 57.4039C65.4057 57.7662 65.0781 58.2536 64.8597 58.8661C64.6466 59.4734 64.5401 60.1525 64.5401 60.9036C64.5401 61.6493 64.6466 62.3258 64.8597 62.9331C65.0781 63.5403 65.4057 64.025 65.8425 64.3873C66.2846 64.7441 66.8386 64.9226 67.5044 64.9226ZM78.7164 50.6364V67H75.824V50.6364H78.7164ZM89.513 61.8384V54.7273H92.4054V67H89.6009V64.8187H89.4731C89.1961 65.5059 88.7406 66.0678 88.1068 66.5046C87.4782 66.9414 86.7032 67.1598 85.7816 67.1598C84.9773 67.1598 84.2662 66.9814 83.6483 66.6245C83.0357 66.2623 82.5563 65.7376 82.2101 65.0504C81.8639 64.358 81.6907 63.5217 81.6907 62.5415V54.7273H84.5831V62.0941C84.5831 62.8718 84.7962 63.4897 85.2223 63.9478C85.6485 64.4059 86.2078 64.6349 86.9003 64.6349C87.3264 64.6349 87.7392 64.5311 88.1387 64.3233C88.5382 64.1156 88.8658 63.8066 89.1215 63.3965C89.3825 62.981 89.513 62.4616 89.513 61.8384ZM101.508 54.7273V56.9645H94.4529V54.7273H101.508ZM96.1947 51.7869H99.0871V63.3086C99.0871 63.6974 99.1457 63.9957 99.2629 64.2035C99.3854 64.4059 99.5452 64.5444 99.7423 64.619C99.9394 64.6935 100.158 64.7308 100.397 64.7308C100.579 64.7308 100.744 64.7175 100.893 64.6909C101.047 64.6642 101.165 64.6403 101.244 64.619L101.732 66.8801C101.577 66.9334 101.356 66.992 101.069 67.0559C100.786 67.1199 100.44 67.1571 100.03 67.1678C99.3055 67.1891 98.653 67.0799 98.0724 66.8402C97.4917 66.5952 97.031 66.217 96.6901 65.7056C96.3545 65.1942 96.1894 64.555 96.1947 63.788V51.7869ZM103.927 67V54.7273H106.819V67H103.927ZM105.381 52.9854C104.923 52.9854 104.529 52.8336 104.199 52.53C103.868 52.2211 103.703 51.8509 103.703 51.4194C103.703 50.9826 103.868 50.6124 104.199 50.3088C104.529 49.9998 104.923 49.8453 105.381 49.8453C105.845 49.8453 106.239 49.9998 106.564 50.3088C106.894 50.6124 107.059 50.9826 107.059 51.4194C107.059 51.8509 106.894 52.2211 106.564 52.53C106.239 52.8336 105.845 52.9854 105.381 52.9854ZM115.147 67.2397C113.949 67.2397 112.91 66.976 112.031 66.4487C111.152 65.9213 110.47 65.1836 109.986 64.2354C109.506 63.2873 109.266 62.1793 109.266 60.9116C109.266 59.6438 109.506 58.5332 109.986 57.5797C110.47 56.6262 111.152 55.8858 112.031 55.3585C112.91 54.8311 113.949 54.5675 115.147 54.5675C116.346 54.5675 117.384 54.8311 118.263 55.3585C119.142 55.8858 119.821 56.6262 120.301 57.5797C120.785 58.5332 121.028 59.6438 121.028 60.9116C121.028 62.1793 120.785 63.2873 120.301 64.2354C119.821 65.1836 119.142 65.9213 118.263 66.4487C117.384 66.976 116.346 67.2397 115.147 67.2397ZM115.163 64.9226C115.813 64.9226 116.356 64.7441 116.793 64.3873C117.23 64.025 117.555 63.5403 117.768 62.9331C117.986 62.3258 118.095 61.6493 118.095 60.9036C118.095 60.1525 117.986 59.4734 117.768 58.8661C117.555 58.2536 117.23 57.7662 116.793 57.4039C116.356 57.0417 115.813 56.8606 115.163 56.8606C114.497 56.8606 113.943 57.0417 113.501 57.4039C113.064 57.7662 112.737 58.2536 112.518 58.8661C112.305 59.4734 112.199 60.1525 112.199 60.9036C112.199 61.6493 112.305 62.3258 112.518 62.9331C112.737 63.5403 113.064 64.025 113.501 64.3873C113.943 64.7441 114.497 64.9226 115.163 64.9226ZM126.375 59.8089V67H123.483V54.7273H126.247V56.8127H126.391C126.673 56.1255 127.124 55.5795 127.741 55.1747C128.365 54.7699 129.134 54.5675 130.051 54.5675C130.898 54.5675 131.635 54.7486 132.264 55.1108C132.898 55.473 133.388 55.9977 133.734 56.6848C134.086 57.372 134.259 58.2056 134.253 59.1857V67H131.361V59.6332C131.361 58.8129 131.148 58.171 130.722 57.7076C130.301 57.2441 129.718 57.0124 128.972 57.0124C128.466 57.0124 128.016 57.1243 127.622 57.348C127.233 57.5664 126.926 57.8833 126.703 58.2988C126.484 58.7143 126.375 59.2177 126.375 59.8089ZM146.894 57.9712L144.257 58.2589C144.182 57.9925 144.052 57.7422 143.865 57.5078C143.684 57.2734 143.439 57.0843 143.13 56.9405C142.821 56.7967 142.443 56.7248 141.996 56.7248C141.394 56.7248 140.888 56.8553 140.478 57.1163C140.073 57.3773 139.873 57.7156 139.878 58.131C139.873 58.4879 140.004 58.7782 140.27 59.002C140.542 59.2257 140.989 59.4094 141.612 59.5533L143.706 60.0007C144.867 60.2511 145.73 60.6479 146.294 61.1912C146.864 61.7346 147.152 62.4457 147.157 63.3246C147.152 64.0969 146.926 64.7788 146.478 65.37C146.036 65.956 145.421 66.4141 144.632 66.7443C143.844 67.0746 142.939 67.2397 141.916 67.2397C140.414 67.2397 139.205 66.9254 138.288 66.2969C137.372 65.663 136.826 64.7814 136.65 63.6522L139.471 63.3805C139.599 63.9345 139.87 64.3526 140.286 64.6349C140.701 64.9173 141.242 65.0584 141.908 65.0584C142.595 65.0584 143.146 64.9173 143.562 64.6349C143.983 64.3526 144.193 64.0037 144.193 63.5882C144.193 63.2367 144.057 62.9464 143.785 62.7173C143.519 62.4883 143.104 62.3125 142.539 62.19L140.446 61.7505C139.268 61.5055 138.398 61.0927 137.833 60.5121C137.268 59.9261 136.989 59.1857 136.994 58.2908C136.989 57.5344 137.194 56.8793 137.609 56.3253C138.03 55.766 138.613 55.3345 139.359 55.0309C140.11 54.7219 140.976 54.5675 141.956 54.5675C143.394 54.5675 144.526 54.8738 145.352 55.4863C146.182 56.0989 146.697 56.9272 146.894 57.9712Z" fill="#091F5B"/>
<path d="M255.938 57.7685C254.493 57.7685 253.262 57.3754 252.246 56.5891C251.23 55.7965 250.453 54.6491 249.916 53.147C249.379 51.6385 249.111 49.8168 249.111 47.6818C249.111 45.5597 249.379 43.7475 249.916 42.2454C250.46 40.7369 251.239 39.5863 252.256 38.7937C253.278 37.9947 254.506 37.5952 255.938 37.5952C257.369 37.5952 258.593 37.9947 259.61 38.7937C260.632 39.5863 261.412 40.7369 261.949 42.2454C262.493 43.7475 262.764 45.5597 262.764 47.6818C262.764 49.8168 262.496 51.6385 261.959 53.147C261.422 54.6491 260.645 55.7965 259.629 56.5891C258.613 57.3754 257.382 57.7685 255.938 57.7685ZM255.938 55.6591C257.369 55.6591 258.482 54.9687 259.274 53.5881C260.067 52.2074 260.463 50.2386 260.463 47.6818C260.463 45.9815 260.281 44.5337 259.917 43.3384C259.559 42.1431 259.041 41.2322 258.363 40.6058C257.692 39.9794 256.884 39.6662 255.938 39.6662C254.518 39.6662 253.409 40.3661 252.61 41.766C251.811 43.1594 251.412 45.1314 251.412 47.6818C251.412 49.3821 251.591 50.8267 251.949 52.0156C252.307 53.2045 252.821 54.109 253.493 54.729C254.17 55.3491 254.985 55.6591 255.938 55.6591ZM273.043 57.7685C271.777 57.7685 270.649 57.5511 269.658 57.1165C268.674 56.6818 267.891 56.0778 267.309 55.3043C266.734 54.5245 266.42 53.62 266.369 52.5909H268.786C268.837 53.2237 269.054 53.7702 269.438 54.2305C269.821 54.6843 270.323 55.0359 270.943 55.2852C271.563 55.5344 272.25 55.6591 273.004 55.6591C273.848 55.6591 274.596 55.5121 275.248 55.218C275.9 54.924 276.411 54.5149 276.782 53.9908C277.153 53.4666 277.338 52.8594 277.338 52.169C277.338 51.4467 277.159 50.8107 276.801 50.261C276.443 49.7049 275.919 49.2702 275.229 48.957C274.538 48.6438 273.695 48.4872 272.697 48.4872H271.125V46.3778H272.697C273.477 46.3778 274.161 46.2372 274.749 45.956C275.344 45.6747 275.807 45.2784 276.14 44.767C276.478 44.2557 276.648 43.6548 276.648 42.9645C276.648 42.2997 276.501 41.7212 276.207 41.229C275.913 40.7369 275.497 40.3533 274.96 40.0785C274.43 39.8036 273.803 39.6662 273.081 39.6662C272.403 39.6662 271.764 39.7908 271.163 40.0401C270.569 40.283 270.083 40.6378 269.706 41.1044C269.329 41.5646 269.124 42.1207 269.092 42.7727H266.791C266.83 41.7436 267.14 40.8423 267.721 40.0689C268.303 39.2891 269.064 38.6818 270.003 38.2472C270.949 37.8125 271.988 37.5952 273.119 37.5952C274.334 37.5952 275.376 37.8413 276.245 38.3335C277.114 38.8192 277.782 39.4616 278.249 40.2607C278.716 41.0597 278.949 41.9226 278.949 42.8494C278.949 43.9553 278.658 44.8981 278.076 45.6779C277.501 46.4577 276.718 46.9979 275.727 47.2983V47.4517C276.967 47.6562 277.936 48.1836 278.632 49.0337C279.329 49.8775 279.678 50.9226 279.678 52.169C279.678 53.2365 279.387 54.1953 278.805 55.0455C278.23 55.8892 277.444 56.554 276.446 57.0398C275.449 57.5256 274.315 57.7685 273.043 57.7685Z" fill="#091F5B"/>
<path d="M28.1761 275.909H29.7614V284.577C29.7614 285.472 29.5504 286.271 29.1286 286.974C28.7109 287.673 28.1207 288.224 27.358 288.629C26.5952 289.03 25.7003 289.23 24.6733 289.23C23.6463 289.23 22.7514 289.03 21.9886 288.629C21.2259 288.224 20.6335 287.673 20.2116 286.974C19.794 286.271 19.5852 285.472 19.5852 284.577V275.909H21.1705V284.449C21.1705 285.088 21.3111 285.657 21.5923 286.156C21.8736 286.65 22.2741 287.04 22.794 287.325C23.3182 287.607 23.9446 287.747 24.6733 287.747C25.402 287.747 26.0284 287.607 26.5526 287.325C27.0767 287.04 27.4773 286.65 27.7543 286.156C28.0355 285.657 28.1761 285.088 28.1761 284.449V275.909ZM33.691 283.094V289H32.1825V279.182H33.6399V280.716H33.7677C33.9978 280.217 34.3473 279.817 34.816 279.514C35.2848 279.207 35.8899 279.054 36.6313 279.054C37.2961 279.054 37.8778 279.19 38.3764 279.463C38.875 279.732 39.2627 280.141 39.5397 280.69C39.8167 281.236 39.9552 281.926 39.9552 282.761V289H38.4467V282.864C38.4467 282.092 38.2464 281.491 37.8458 281.061C37.4453 280.626 36.8955 280.409 36.1967 280.409C35.7151 280.409 35.2848 280.513 34.9055 280.722C34.5305 280.931 34.2343 281.236 34.017 281.636C33.7997 282.037 33.691 282.523 33.691 283.094ZM43.6803 275.909V289H42.1718V275.909H43.6803ZM49.8919 289.205C49.0055 289.205 48.2278 288.994 47.5588 288.572C46.894 288.15 46.3741 287.56 45.9991 286.801C45.6284 286.043 45.443 285.156 45.443 284.142C45.443 283.119 45.6284 282.227 45.9991 281.464C46.3741 280.701 46.894 280.109 47.5588 279.687C48.2278 279.265 49.0055 279.054 49.8919 279.054C50.7783 279.054 51.5538 279.265 52.2186 279.687C52.8876 280.109 53.4075 280.701 53.7783 281.464C54.1533 282.227 54.3408 283.119 54.3408 284.142C54.3408 285.156 54.1533 286.043 53.7783 286.801C53.4075 287.56 52.8876 288.15 52.2186 288.572C51.5538 288.994 50.7783 289.205 49.8919 289.205ZM49.8919 287.849C50.5652 287.849 51.1192 287.677 51.5538 287.332C51.9885 286.987 52.3102 286.533 52.519 285.97C52.7278 285.408 52.8322 284.798 52.8322 284.142C52.8322 283.486 52.7278 282.874 52.519 282.308C52.3102 281.741 51.9885 281.283 51.5538 280.933C51.1192 280.584 50.5652 280.409 49.8919 280.409C49.2186 280.409 48.6646 280.584 48.23 280.933C47.7953 281.283 47.4736 281.741 47.2648 282.308C47.056 282.874 46.9516 283.486 46.9516 284.142C46.9516 284.798 47.056 285.408 47.2648 285.97C47.4736 286.533 47.7953 286.987 48.23 287.332C48.6646 287.677 49.2186 287.849 49.8919 287.849ZM60.0921 289.205C59.1717 289.205 58.3791 288.987 57.7143 288.553C57.0495 288.118 56.5382 287.519 56.1802 286.756C55.8222 285.994 55.6433 285.122 55.6433 284.142C55.6433 283.145 55.8265 282.265 56.193 281.502C56.5637 280.735 57.0793 280.136 57.7399 279.706C58.4046 279.271 59.1802 279.054 60.0666 279.054C60.7569 279.054 61.3791 279.182 61.933 279.438C62.487 279.693 62.9409 280.051 63.2945 280.511C63.6482 280.972 63.8677 281.509 63.9529 282.122H62.4444C62.3293 281.675 62.0737 281.278 61.6774 280.933C61.2853 280.584 60.7569 280.409 60.0921 280.409C59.5041 280.409 58.9884 280.562 58.5453 280.869C58.1063 281.172 57.7633 281.6 57.5161 282.154C57.2732 282.704 57.1518 283.349 57.1518 284.091C57.1518 284.849 57.2711 285.51 57.5097 286.072C57.7526 286.635 58.0936 287.072 58.5325 287.383C58.9757 287.694 59.4955 287.849 60.0921 287.849C60.4842 287.849 60.84 287.781 61.1596 287.645C61.4792 287.509 61.7498 287.312 61.9714 287.057C62.193 286.801 62.3507 286.494 62.4444 286.136H63.9529C63.8677 286.716 63.6568 287.238 63.3201 287.702C62.9877 288.163 62.5467 288.529 61.997 288.802C61.4515 289.07 60.8166 289.205 60.0921 289.205ZM67.0244 285.42L66.9989 283.554H67.3057L71.6011 279.182H73.4676L68.8909 283.81H68.7631L67.0244 285.42ZM65.6182 289V275.909H67.1267V289H65.6182ZM71.8568 289L68.0216 284.142L69.0955 283.094L73.7744 289H71.8568ZM82.2809 289.23C81.6587 289.23 81.0941 289.113 80.587 288.879C80.0799 288.64 79.6772 288.297 79.3789 287.849C79.0806 287.398 78.9315 286.852 78.9315 286.213C78.9315 285.651 79.0423 285.195 79.2639 284.845C79.4854 284.491 79.7816 284.214 80.1524 284.014C80.5231 283.814 80.9322 283.665 81.3796 283.567C81.8313 283.464 82.2852 283.384 82.7411 283.324C83.3377 283.247 83.8214 283.19 84.1921 283.151C84.5671 283.109 84.8399 283.038 85.0103 282.94C85.185 282.842 85.2724 282.672 85.2724 282.429V282.378C85.2724 281.747 85.0998 281.257 84.7546 280.908C84.4137 280.558 83.896 280.384 83.2014 280.384C82.4812 280.384 81.9166 280.541 81.5075 280.857C81.0984 281.172 80.8107 281.509 80.6445 281.866L79.2127 281.355C79.4684 280.759 79.8093 280.294 80.2354 279.962C80.6658 279.625 81.1346 279.391 81.6417 279.259C82.1531 279.122 82.6559 279.054 83.1502 279.054C83.4656 279.054 83.8278 279.092 84.2369 279.169C84.6502 279.241 85.0487 279.393 85.4322 279.623C85.82 279.853 86.1417 280.2 86.3974 280.665C86.6531 281.129 86.7809 281.751 86.7809 282.531V289H85.2724V287.67H85.1957C85.0934 287.884 84.9229 288.112 84.6843 288.354C84.4457 288.597 84.1282 288.804 83.7319 288.974C83.3356 289.145 82.8519 289.23 82.2809 289.23ZM82.511 287.875C83.1076 287.875 83.6104 287.758 84.0195 287.523C84.4329 287.289 84.744 286.987 84.9528 286.616C85.1658 286.245 85.2724 285.855 85.2724 285.446V284.065C85.2085 284.142 85.0678 284.212 84.8505 284.276C84.6374 284.336 84.3903 284.389 84.109 284.436C83.832 284.479 83.5614 284.517 83.2972 284.551C83.0373 284.581 82.8264 284.607 82.6644 284.628C82.2724 284.679 81.9059 284.762 81.565 284.877C81.2283 284.988 80.9556 285.156 80.7468 285.382C80.5423 285.604 80.44 285.906 80.44 286.29C80.44 286.814 80.6339 287.21 81.0217 287.479C81.4137 287.743 81.9102 287.875 82.511 287.875ZM92.9829 289.205C92.0625 289.205 91.2698 288.987 90.6051 288.553C89.9403 288.118 89.4289 287.519 89.071 286.756C88.713 285.994 88.534 285.122 88.534 284.142C88.534 283.145 88.7173 282.265 89.0838 281.502C89.4545 280.735 89.9701 280.136 90.6306 279.706C91.2954 279.271 92.071 279.054 92.9573 279.054C93.6477 279.054 94.2698 279.182 94.8238 279.438C95.3778 279.693 95.8316 280.051 96.1853 280.511C96.539 280.972 96.7585 281.509 96.8437 282.122H95.3352C95.2201 281.675 94.9644 281.278 94.5681 280.933C94.1761 280.584 93.6477 280.409 92.9829 280.409C92.3948 280.409 91.8792 280.562 91.436 280.869C90.9971 281.172 90.6541 281.6 90.4069 282.154C90.164 282.704 90.0426 283.349 90.0426 284.091C90.0426 284.849 90.1619 285.51 90.4005 286.072C90.6434 286.635 90.9843 287.072 91.4233 287.383C91.8664 287.694 92.3863 287.849 92.9829 287.849C93.375 287.849 93.7308 287.781 94.0504 287.645C94.37 287.509 94.6406 287.312 94.8622 287.057C95.0838 286.801 95.2414 286.494 95.3352 286.136H96.8437C96.7585 286.716 96.5475 287.238 96.2109 287.702C95.8785 288.163 95.4375 288.529 94.8877 288.802C94.3423 289.07 93.7073 289.205 92.9829 289.205ZM102.779 279.182V280.46H97.6908V279.182H102.779ZM99.1737 276.83H100.682V286.188C100.682 286.614 100.744 286.933 100.868 287.146C100.995 287.355 101.157 287.496 101.353 287.568C101.554 287.636 101.765 287.67 101.986 287.67C102.152 287.67 102.289 287.662 102.395 287.645C102.502 287.624 102.587 287.607 102.651 287.594L102.958 288.949C102.856 288.987 102.713 289.026 102.53 289.064C102.346 289.107 102.114 289.128 101.833 289.128C101.407 289.128 100.989 289.036 100.58 288.853C100.175 288.67 99.8385 288.391 99.57 288.016C99.3058 287.641 99.1737 287.168 99.1737 286.597V276.83ZM104.508 289V279.182H106.017V289H104.508ZM105.275 277.545C104.981 277.545 104.727 277.445 104.514 277.245C104.306 277.045 104.201 276.804 104.201 276.523C104.201 276.241 104.306 276.001 104.514 275.8C104.727 275.6 104.981 275.5 105.275 275.5C105.569 275.5 105.821 275.6 106.029 275.8C106.242 276.001 106.349 276.241 106.349 276.523C106.349 276.804 106.242 277.045 106.029 277.245C105.821 277.445 105.569 277.545 105.275 277.545ZM112.228 289.205C111.342 289.205 110.564 288.994 109.895 288.572C109.23 288.15 108.71 287.56 108.335 286.801C107.965 286.043 107.779 285.156 107.779 284.142C107.779 283.119 107.965 282.227 108.335 281.464C108.71 280.701 109.23 280.109 109.895 279.687C110.564 279.265 111.342 279.054 112.228 279.054C113.115 279.054 113.89 279.265 114.555 279.687C115.224 280.109 115.744 280.701 116.115 281.464C116.49 282.227 116.677 283.119 116.677 284.142C116.677 285.156 116.49 286.043 116.115 286.801C115.744 287.56 115.224 288.15 114.555 288.572C113.89 288.994 113.115 289.205 112.228 289.205ZM112.228 287.849C112.901 287.849 113.455 287.677 113.89 287.332C114.325 286.987 114.646 286.533 114.855 285.97C115.064 285.408 115.168 284.798 115.168 284.142C115.168 283.486 115.064 282.874 114.855 282.308C114.646 281.741 114.325 281.283 113.89 280.933C113.455 280.584 112.901 280.409 112.228 280.409C111.555 280.409 111.001 280.584 110.566 280.933C110.132 281.283 109.81 281.741 109.601 282.308C109.392 282.874 109.288 283.486 109.288 284.142C109.288 284.798 109.392 285.408 109.601 285.97C109.81 286.533 110.132 286.987 110.566 287.332C111.001 287.677 111.555 287.849 112.228 287.849ZM119.948 283.094V289H118.44V279.182H119.897V280.716H120.025C120.255 280.217 120.605 279.817 121.073 279.514C121.542 279.207 122.147 279.054 122.889 279.054C123.553 279.054 124.135 279.19 124.634 279.463C125.132 279.732 125.52 280.141 125.797 280.69C126.074 281.236 126.212 281.926 126.212 282.761V289H124.704V282.864C124.704 282.092 124.504 281.491 124.103 281.061C123.703 280.626 123.153 280.409 122.454 280.409C121.972 280.409 121.542 280.513 121.163 280.722C120.788 280.931 120.492 281.236 120.274 281.636C120.057 282.037 119.948 282.523 119.948 283.094ZM131.318 289.23C130.696 289.23 130.131 289.113 129.624 288.879C129.117 288.64 128.715 288.297 128.416 287.849C128.118 287.398 127.969 286.852 127.969 286.213C127.969 285.651 128.08 285.195 128.301 284.845C128.523 284.491 128.819 284.214 129.19 284.014C129.56 283.814 129.97 283.665 130.417 283.567C130.869 283.464 131.323 283.384 131.778 283.324C132.375 283.247 132.859 283.19 133.229 283.151C133.604 283.109 133.877 283.038 134.048 282.94C134.222 282.842 134.31 282.672 134.31 282.429V282.378C134.31 281.747 134.137 281.257 133.792 280.908C133.451 280.558 132.933 280.384 132.239 280.384C131.519 280.384 130.954 280.541 130.545 280.857C130.136 281.172 129.848 281.509 129.682 281.866L128.25 281.355C128.506 280.759 128.847 280.294 129.273 279.962C129.703 279.625 130.172 279.391 130.679 279.259C131.19 279.122 131.693 279.054 132.188 279.054C132.503 279.054 132.865 279.092 133.274 279.169C133.688 279.241 134.086 279.393 134.47 279.623C134.857 279.853 135.179 280.2 135.435 280.665C135.69 281.129 135.818 281.751 135.818 282.531V289H134.31V287.67H134.233C134.131 287.884 133.96 288.112 133.722 288.354C133.483 288.597 133.166 288.804 132.769 288.974C132.373 289.145 131.889 289.23 131.318 289.23ZM131.548 287.875C132.145 287.875 132.648 287.758 133.057 287.523C133.47 287.289 133.781 286.987 133.99 286.616C134.203 286.245 134.31 285.855 134.31 285.446V284.065C134.246 284.142 134.105 284.212 133.888 284.276C133.675 284.336 133.428 284.389 133.146 284.436C132.869 284.479 132.599 284.517 132.335 284.551C132.075 284.581 131.864 284.607 131.702 284.628C131.31 284.679 130.943 284.762 130.602 284.877C130.266 284.988 129.993 285.156 129.784 285.382C129.58 285.604 129.477 285.906 129.477 286.29C129.477 286.814 129.671 287.21 130.059 287.479C130.451 287.743 130.948 287.875 131.548 287.875ZM138.236 289V275.909H139.745V280.741H139.873C139.983 280.571 140.137 280.354 140.333 280.089C140.533 279.821 140.819 279.582 141.189 279.374C141.564 279.161 142.071 279.054 142.711 279.054C143.537 279.054 144.266 279.261 144.897 279.674C145.527 280.087 146.02 280.673 146.373 281.432C146.727 282.19 146.904 283.085 146.904 284.116C146.904 285.156 146.727 286.058 146.373 286.82C146.02 287.579 145.529 288.167 144.903 288.585C144.277 288.998 143.554 289.205 142.736 289.205C142.105 289.205 141.601 289.1 141.221 288.891C140.842 288.678 140.55 288.437 140.346 288.169C140.141 287.896 139.983 287.67 139.873 287.491H139.694V289H138.236ZM139.719 284.091C139.719 284.832 139.828 285.487 140.045 286.053C140.262 286.616 140.58 287.057 140.998 287.376C141.415 287.692 141.927 287.849 142.532 287.849C143.162 287.849 143.689 287.683 144.11 287.351C144.537 287.014 144.856 286.562 145.069 285.996C145.287 285.425 145.395 284.79 145.395 284.091C145.395 283.401 145.289 282.778 145.076 282.224C144.867 281.666 144.549 281.225 144.123 280.901C143.701 280.573 143.171 280.409 142.532 280.409C141.918 280.409 141.402 280.565 140.985 280.876C140.567 281.183 140.252 281.613 140.039 282.167C139.826 282.717 139.719 283.358 139.719 284.091ZM150.18 275.909V289H148.671V275.909H150.18ZM156.519 289.205C155.573 289.205 154.757 288.996 154.071 288.578C153.389 288.156 152.863 287.568 152.492 286.814C152.126 286.055 151.943 285.173 151.943 284.168C151.943 283.162 152.126 282.276 152.492 281.509C152.863 280.737 153.379 280.136 154.039 279.706C154.704 279.271 155.479 279.054 156.366 279.054C156.877 279.054 157.382 279.139 157.881 279.31C158.379 279.48 158.833 279.757 159.242 280.141C159.651 280.52 159.977 281.023 160.22 281.649C160.463 282.276 160.585 283.047 160.585 283.963V284.602H153.016V283.298H159.051C159.051 282.744 158.94 282.25 158.718 281.815C158.501 281.381 158.19 281.038 157.785 280.786C157.384 280.535 156.911 280.409 156.366 280.409C155.765 280.409 155.245 280.558 154.806 280.857C154.372 281.151 154.037 281.534 153.803 282.007C153.568 282.48 153.451 282.987 153.451 283.528V284.398C153.451 285.139 153.579 285.768 153.835 286.283C154.095 286.795 154.455 287.185 154.915 287.453C155.375 287.717 155.91 287.849 156.519 287.849C156.916 287.849 157.274 287.794 157.593 287.683C157.917 287.568 158.196 287.398 158.43 287.172C158.665 286.942 158.846 286.656 158.974 286.315L160.431 286.724C160.278 287.219 160.02 287.653 159.658 288.028C159.296 288.399 158.848 288.689 158.315 288.898C157.783 289.102 157.184 289.205 156.519 289.205ZM166.862 289V279.182H168.37V289H166.862ZM167.629 277.545C167.335 277.545 167.081 277.445 166.868 277.245C166.659 277.045 166.555 276.804 166.555 276.523C166.555 276.241 166.659 276.001 166.868 275.8C167.081 275.6 167.335 275.5 167.629 275.5C167.923 275.5 168.174 275.6 168.383 275.8C168.596 276.001 168.703 276.241 168.703 276.523C168.703 276.804 168.596 277.045 168.383 277.245C168.174 277.445 167.923 277.545 167.629 277.545ZM172.102 283.094V289H170.593V279.182H172.051V280.716H172.179C172.409 280.217 172.758 279.817 173.227 279.514C173.696 279.207 174.301 279.054 175.042 279.054C175.707 279.054 176.289 279.19 176.787 279.463C177.286 279.732 177.674 280.141 177.951 280.69C178.228 281.236 178.366 281.926 178.366 282.761V289H176.858V282.864C176.858 282.092 176.657 281.491 176.257 281.061C175.856 280.626 175.306 280.409 174.608 280.409C174.126 280.409 173.696 280.513 173.316 280.722C172.941 280.931 172.645 281.236 172.428 281.636C172.211 282.037 172.102 282.523 172.102 283.094ZM187.537 281.381L186.182 281.764C186.097 281.538 185.971 281.319 185.805 281.106C185.643 280.888 185.421 280.71 185.14 280.569C184.859 280.428 184.499 280.358 184.06 280.358C183.459 280.358 182.958 280.496 182.558 280.773C182.161 281.046 181.963 281.393 181.963 281.815C181.963 282.19 182.1 282.487 182.372 282.704C182.645 282.921 183.071 283.102 183.651 283.247L185.108 283.605C185.986 283.818 186.64 284.144 187.071 284.583C187.501 285.018 187.716 285.578 187.716 286.264C187.716 286.827 187.554 287.33 187.23 287.773C186.911 288.216 186.463 288.565 185.888 288.821C185.313 289.077 184.644 289.205 183.881 289.205C182.88 289.205 182.051 288.987 181.394 288.553C180.738 288.118 180.323 287.483 180.148 286.648L181.58 286.29C181.716 286.818 181.974 287.214 182.353 287.479C182.737 287.743 183.237 287.875 183.855 287.875C184.558 287.875 185.117 287.726 185.53 287.428C185.948 287.125 186.156 286.763 186.156 286.341C186.156 286 186.037 285.714 185.799 285.484C185.56 285.25 185.193 285.075 184.699 284.96L183.063 284.577C182.164 284.364 181.503 284.033 181.081 283.586C180.664 283.134 180.455 282.57 180.455 281.892C180.455 281.338 180.61 280.848 180.921 280.422C181.237 279.996 181.665 279.661 182.206 279.418C182.752 279.175 183.37 279.054 184.06 279.054C185.031 279.054 185.794 279.267 186.348 279.693C186.906 280.119 187.303 280.682 187.537 281.381ZM189.447 289V279.182H190.955V289H189.447ZM190.214 277.545C189.92 277.545 189.666 277.445 189.453 277.245C189.245 277.045 189.14 276.804 189.14 276.523C189.14 276.241 189.245 276.001 189.453 275.8C189.666 275.6 189.92 275.5 190.214 275.5C190.508 275.5 190.759 275.6 190.968 275.8C191.181 276.001 191.288 276.241 191.288 276.523C191.288 276.804 191.181 277.045 190.968 277.245C190.759 277.445 190.508 277.545 190.214 277.545ZM197.141 292.886C196.413 292.886 195.786 292.793 195.262 292.605C194.738 292.422 194.301 292.179 193.952 291.876C193.607 291.578 193.332 291.259 193.127 290.918L194.329 290.074C194.465 290.253 194.638 290.457 194.847 290.688C195.056 290.922 195.341 291.124 195.703 291.295C196.07 291.469 196.549 291.557 197.141 291.557C197.934 291.557 198.588 291.365 199.104 290.982C199.619 290.598 199.877 289.997 199.877 289.179V287.185H199.749C199.639 287.364 199.481 287.585 199.276 287.849C199.076 288.109 198.786 288.342 198.407 288.546C198.032 288.746 197.525 288.847 196.886 288.847C196.093 288.847 195.382 288.659 194.751 288.284C194.124 287.909 193.628 287.364 193.262 286.648C192.899 285.932 192.718 285.062 192.718 284.04C192.718 283.034 192.895 282.158 193.249 281.413C193.602 280.663 194.095 280.083 194.725 279.674C195.356 279.261 196.085 279.054 196.911 279.054C197.551 279.054 198.058 279.161 198.433 279.374C198.812 279.582 199.102 279.821 199.302 280.089C199.507 280.354 199.664 280.571 199.775 280.741H199.928V279.182H201.386V289.281C201.386 290.125 201.194 290.811 200.811 291.339C200.431 291.872 199.92 292.262 199.276 292.509C198.637 292.761 197.926 292.886 197.141 292.886ZM197.09 287.491C197.695 287.491 198.207 287.353 198.624 287.076C199.042 286.799 199.36 286.401 199.577 285.881C199.794 285.361 199.903 284.739 199.903 284.014C199.903 283.307 199.796 282.683 199.583 282.141C199.37 281.6 199.055 281.176 198.637 280.869C198.22 280.562 197.704 280.409 197.09 280.409C196.451 280.409 195.918 280.571 195.492 280.895C195.07 281.219 194.753 281.653 194.54 282.199C194.331 282.744 194.227 283.349 194.227 284.014C194.227 284.696 194.333 285.299 194.546 285.823C194.764 286.343 195.083 286.752 195.505 287.05C195.931 287.344 196.46 287.491 197.09 287.491ZM205.116 283.094V289H203.607V275.909H205.116V280.716H205.244C205.474 280.209 205.819 279.806 206.279 279.508C206.744 279.205 207.361 279.054 208.133 279.054C208.802 279.054 209.388 279.188 209.891 279.457C210.393 279.721 210.783 280.128 211.06 280.678C211.342 281.223 211.482 281.918 211.482 282.761V289H209.974V282.864C209.974 282.084 209.771 281.481 209.366 281.055C208.966 280.624 208.41 280.409 207.698 280.409C207.204 280.409 206.761 280.513 206.369 280.722C205.981 280.931 205.674 281.236 205.448 281.636C205.226 282.037 205.116 282.523 205.116 283.094ZM217.972 279.182V280.46H212.884V279.182H217.972ZM214.367 276.83H215.875V286.188C215.875 286.614 215.937 286.933 216.061 287.146C216.188 287.355 216.35 287.496 216.546 287.568C216.747 287.636 216.958 287.67 217.179 287.67C217.345 287.67 217.482 287.662 217.588 287.645C217.695 287.624 217.78 287.607 217.844 287.594L218.151 288.949C218.049 288.987 217.906 289.026 217.723 289.064C217.539 289.107 217.307 289.128 217.026 289.128C216.6 289.128 216.182 289.036 215.773 288.853C215.368 288.67 215.031 288.391 214.763 288.016C214.499 287.641 214.367 287.168 214.367 286.597V276.83ZM226.48 281.381L225.125 281.764C225.039 281.538 224.914 281.319 224.748 281.106C224.586 280.888 224.364 280.71 224.083 280.569C223.801 280.428 223.441 280.358 223.002 280.358C222.402 280.358 221.901 280.496 221.5 280.773C221.104 281.046 220.906 281.393 220.906 281.815C220.906 282.19 221.042 282.487 221.315 282.704C221.588 282.921 222.014 283.102 222.593 283.247L224.051 283.605C224.929 283.818 225.583 284.144 226.013 284.583C226.444 285.018 226.659 285.578 226.659 286.264C226.659 286.827 226.497 287.33 226.173 287.773C225.853 288.216 225.406 288.565 224.831 288.821C224.255 289.077 223.586 289.205 222.824 289.205C221.822 289.205 220.993 288.987 220.337 288.553C219.681 288.118 219.265 287.483 219.091 286.648L220.522 286.29C220.659 286.818 220.917 287.214 221.296 287.479C221.679 287.743 222.18 287.875 222.798 287.875C223.501 287.875 224.059 287.726 224.473 287.428C224.89 287.125 225.099 286.763 225.099 286.341C225.099 286 224.98 285.714 224.741 285.484C224.502 285.25 224.136 285.075 223.642 284.96L222.005 284.577C221.106 284.364 220.446 284.033 220.024 283.586C219.606 283.134 219.397 282.57 219.397 281.892C219.397 281.338 219.553 280.848 219.864 280.422C220.179 279.996 220.608 279.661 221.149 279.418C221.694 279.175 222.312 279.054 223.002 279.054C223.974 279.054 224.737 279.267 225.291 279.693C225.849 280.119 226.245 280.682 226.48 281.381ZM22.2699 311.23C21.6477 311.23 21.0831 311.113 20.576 310.879C20.0689 310.64 19.6662 310.297 19.3679 309.849C19.0696 309.398 18.9205 308.852 18.9205 308.213C18.9205 307.651 19.0313 307.195 19.2528 306.845C19.4744 306.491 19.7706 306.214 20.1413 306.014C20.5121 305.814 20.9212 305.665 21.3686 305.567C21.8203 305.464 22.2741 305.384 22.7301 305.324C23.3267 305.247 23.8104 305.19 24.1811 305.151C24.5561 305.109 24.8288 305.038 24.9993 304.94C25.174 304.842 25.2614 304.672 25.2614 304.429V304.378C25.2614 303.747 25.0888 303.257 24.7436 302.908C24.4027 302.558 23.8849 302.384 23.1903 302.384C22.4702 302.384 21.9055 302.541 21.4964 302.857C21.0874 303.172 20.7997 303.509 20.6335 303.866L19.2017 303.355C19.4574 302.759 19.7983 302.294 20.2244 301.962C20.6548 301.625 21.1236 301.391 21.6307 301.259C22.142 301.122 22.6449 301.054 23.1392 301.054C23.4545 301.054 23.8168 301.092 24.2259 301.169C24.6392 301.241 25.0376 301.393 25.4212 301.623C25.8089 301.853 26.1307 302.2 26.3864 302.665C26.642 303.129 26.7699 303.751 26.7699 304.531V311H25.2614V309.67H25.1847C25.0824 309.884 24.9119 310.112 24.6733 310.354C24.4347 310.597 24.1172 310.804 23.7209 310.974C23.3246 311.145 22.8409 311.23 22.2699 311.23ZM22.5 309.875C23.0966 309.875 23.5994 309.758 24.0085 309.523C24.4219 309.289 24.733 308.987 24.9418 308.616C25.1548 308.245 25.2614 307.855 25.2614 307.446V306.065C25.1974 306.142 25.0568 306.212 24.8395 306.276C24.6264 306.336 24.3793 306.389 24.098 306.436C23.821 306.479 23.5504 306.517 23.2862 306.551C23.0263 306.581 22.8153 306.607 22.6534 306.628C22.2614 306.679 21.8949 306.762 21.554 306.877C21.2173 306.988 20.9446 307.156 20.7358 307.382C20.5313 307.604 20.429 307.906 20.429 308.29C20.429 308.814 20.6229 309.21 21.0107 309.479C21.4027 309.743 21.8991 309.875 22.5 309.875ZM30.4918 305.094V311H28.9833V301.182H30.4406V302.716H30.5685C30.7986 302.217 31.148 301.817 31.6168 301.514C32.0855 301.207 32.6906 301.054 33.4321 301.054C34.0969 301.054 34.6786 301.19 35.1772 301.463C35.6757 301.732 36.0635 302.141 36.3405 302.69C36.6175 303.236 36.756 303.926 36.756 304.761V311H35.2475V304.864C35.2475 304.092 35.0472 303.491 34.6466 303.061C34.246 302.626 33.6963 302.409 32.9975 302.409C32.5159 302.409 32.0855 302.513 31.7063 302.722C31.3313 302.931 31.0351 303.236 30.8178 303.636C30.6004 304.037 30.4918 304.523 30.4918 305.094ZM42.6799 311.205C41.8618 311.205 41.1395 310.998 40.513 310.585C39.8866 310.167 39.3966 309.579 39.0429 308.82C38.6892 308.058 38.5123 307.156 38.5123 306.116C38.5123 305.085 38.6892 304.19 39.0429 303.432C39.3966 302.673 39.8888 302.087 40.5194 301.674C41.1501 301.261 41.8788 301.054 42.7055 301.054C43.3447 301.054 43.8497 301.161 44.2204 301.374C44.5954 301.582 44.8809 301.821 45.077 302.089C45.2772 302.354 45.4328 302.571 45.5436 302.741H45.6714V297.909H47.1799V311H45.7226V309.491H45.5436C45.4328 309.67 45.2751 309.896 45.0706 310.169C44.866 310.437 44.5741 310.678 44.1949 310.891C43.8156 311.1 43.3106 311.205 42.6799 311.205ZM42.8845 309.849C43.4896 309.849 44.001 309.692 44.4186 309.376C44.8362 309.057 45.1537 308.616 45.371 308.053C45.5883 307.487 45.697 306.832 45.697 306.091C45.697 305.358 45.5905 304.717 45.3774 304.167C45.1643 303.613 44.849 303.183 44.4314 302.876C44.0138 302.565 43.4981 302.409 42.8845 302.409C42.2453 302.409 41.7126 302.573 41.2865 302.901C40.8646 303.225 40.5471 303.666 40.3341 304.224C40.1253 304.778 40.0209 305.401 40.0209 306.091C40.0209 306.79 40.1274 307.425 40.3405 307.996C40.5578 308.562 40.8774 309.014 41.2993 309.351C41.7254 309.683 42.2538 309.849 42.8845 309.849ZM57.8421 311.205C57.0239 311.205 56.3016 310.998 55.6752 310.585C55.0488 310.167 54.5588 309.579 54.2051 308.82C53.8514 308.058 53.6745 307.156 53.6745 306.116C53.6745 305.085 53.8514 304.19 54.2051 303.432C54.5588 302.673 55.0509 302.087 55.6816 301.674C56.3123 301.261 57.041 301.054 57.8677 301.054C58.5069 301.054 59.0119 301.161 59.3826 301.374C59.7576 301.582 60.0431 301.821 60.2391 302.089C60.4394 302.354 60.595 302.571 60.7058 302.741H60.8336V297.909H62.3421V311H60.8847V309.491H60.7058C60.595 309.67 60.4373 309.896 60.2328 310.169C60.0282 310.437 59.7363 310.678 59.357 310.891C58.9778 311.1 58.4728 311.205 57.8421 311.205ZM58.0467 309.849C58.6518 309.849 59.1632 309.692 59.5808 309.376C59.9984 309.057 60.3159 308.616 60.5332 308.053C60.7505 307.487 60.8592 306.832 60.8592 306.091C60.8592 305.358 60.7526 304.717 60.5396 304.167C60.3265 303.613 60.0112 303.183 59.5936 302.876C59.1759 302.565 58.6603 302.409 58.0467 302.409C57.4075 302.409 56.8748 302.573 56.4487 302.901C56.0268 303.225 55.7093 303.666 55.4963 304.224C55.2874 304.778 55.183 305.401 55.183 306.091C55.183 306.79 55.2896 307.425 55.5026 307.996C55.72 308.562 56.0396 309.014 56.4614 309.351C56.8876 309.683 57.416 309.849 58.0467 309.849ZM64.7744 311V301.182H66.283V311H64.7744ZM65.5415 299.545C65.2474 299.545 64.9939 299.445 64.7808 299.245C64.572 299.045 64.4676 298.804 64.4676 298.523C64.4676 298.241 64.572 298.001 64.7808 297.8C64.9939 297.6 65.2474 297.5 65.5415 297.5C65.8355 297.5 66.0869 297.6 66.2957 297.8C66.5088 298.001 66.6153 298.241 66.6153 298.523C66.6153 298.804 66.5088 299.045 66.2957 299.245C66.0869 299.445 65.8355 299.545 65.5415 299.545ZM75.4605 303.381L74.1053 303.764C74.0201 303.538 73.8944 303.319 73.7282 303.106C73.5663 302.888 73.3447 302.71 73.0634 302.569C72.7822 302.428 72.4221 302.358 71.9832 302.358C71.3823 302.358 70.8816 302.496 70.4811 302.773C70.0847 303.046 69.8866 303.393 69.8866 303.815C69.8866 304.19 70.023 304.487 70.2957 304.704C70.5684 304.921 70.9946 305.102 71.5741 305.247L73.0315 305.605C73.9093 305.818 74.5634 306.144 74.9938 306.583C75.4242 307.018 75.6394 307.578 75.6394 308.264C75.6394 308.827 75.4775 309.33 75.1536 309.773C74.834 310.216 74.3866 310.565 73.8113 310.821C73.236 311.077 72.567 311.205 71.8042 311.205C70.8028 311.205 69.974 310.987 69.3177 310.553C68.6615 310.118 68.246 309.483 68.0713 308.648L69.5031 308.29C69.6394 308.818 69.8972 309.214 70.2765 309.479C70.66 309.743 71.1607 309.875 71.7786 309.875C72.4818 309.875 73.04 309.726 73.4534 309.428C73.871 309.125 74.0798 308.763 74.0798 308.341C74.0798 308 73.9605 307.714 73.7218 307.484C73.4832 307.25 73.1167 307.075 72.6224 306.96L70.986 306.577C70.0869 306.364 69.4264 306.033 69.0045 305.586C68.5869 305.134 68.3781 304.57 68.3781 303.892C68.3781 303.338 68.5336 302.848 68.8447 302.422C69.16 301.996 69.5883 301.661 70.1295 301.418C70.6749 301.175 71.2928 301.054 71.9832 301.054C72.9548 301.054 73.7176 301.267 74.2715 301.693C74.8298 302.119 75.2261 302.682 75.4605 303.381ZM81.3589 311.205C80.4384 311.205 79.6458 310.987 78.981 310.553C78.3162 310.118 77.8049 309.519 77.4469 308.756C77.089 307.994 76.91 307.122 76.91 306.142C76.91 305.145 77.0932 304.265 77.4597 303.502C77.8304 302.735 78.3461 302.136 79.0066 301.706C79.6714 301.271 80.4469 301.054 81.3333 301.054C82.0236 301.054 82.6458 301.182 83.1998 301.438C83.7537 301.693 84.2076 302.051 84.5613 302.511C84.915 302.972 85.1344 303.509 85.2196 304.122H83.7111C83.5961 303.675 83.3404 303.278 82.9441 302.933C82.552 302.584 82.0236 302.409 81.3589 302.409C80.7708 302.409 80.2552 302.562 79.812 302.869C79.3731 303.172 79.03 303.6 78.7829 304.154C78.54 304.704 78.4185 305.349 78.4185 306.091C78.4185 306.849 78.5378 307.51 78.7765 308.072C79.0194 308.635 79.3603 309.072 79.7992 309.383C80.2424 309.694 80.7623 309.849 81.3589 309.849C81.7509 309.849 82.1067 309.781 82.4263 309.645C82.7459 309.509 83.0165 309.312 83.2381 309.057C83.4597 308.801 83.6174 308.494 83.7111 308.136H85.2196C85.1344 308.716 84.9235 309.238 84.5868 309.702C84.2544 310.163 83.8134 310.529 83.2637 310.802C82.7182 311.07 82.0833 311.205 81.3589 311.205ZM90.8735 311.205C89.9872 311.205 89.2095 310.994 88.5404 310.572C87.8757 310.15 87.3558 309.56 86.9808 308.801C86.61 308.043 86.4247 307.156 86.4247 306.142C86.4247 305.119 86.61 304.227 86.9808 303.464C87.3558 302.701 87.8757 302.109 88.5404 301.687C89.2095 301.265 89.9872 301.054 90.8735 301.054C91.7599 301.054 92.5355 301.265 93.2002 301.687C93.8693 302.109 94.3892 302.701 94.7599 303.464C95.1349 304.227 95.3224 305.119 95.3224 306.142C95.3224 307.156 95.1349 308.043 94.7599 308.801C94.3892 309.56 93.8693 310.15 93.2002 310.572C92.5355 310.994 91.7599 311.205 90.8735 311.205ZM90.8735 309.849C91.5468 309.849 92.1008 309.677 92.5355 309.332C92.9701 308.987 93.2919 308.533 93.5007 307.97C93.7095 307.408 93.8139 306.798 93.8139 306.142C93.8139 305.486 93.7095 304.874 93.5007 304.308C93.2919 303.741 92.9701 303.283 92.5355 302.933C92.1008 302.584 91.5468 302.409 90.8735 302.409C90.2002 302.409 89.6463 302.584 89.2116 302.933C88.7769 303.283 88.4552 303.741 88.2464 304.308C88.0376 304.874 87.9332 305.486 87.9332 306.142C87.9332 306.798 88.0376 307.408 88.2464 307.97C88.4552 308.533 88.7769 308.987 89.2116 309.332C89.6463 309.677 90.2002 309.849 90.8735 309.849ZM104.762 301.182L101.131 311H99.5972L95.9665 301.182H97.6029L100.313 309.006H100.415L103.126 301.182H104.762ZM109.978 311.205C109.032 311.205 108.216 310.996 107.53 310.578C106.848 310.156 106.322 309.568 105.951 308.814C105.585 308.055 105.401 307.173 105.401 306.168C105.401 305.162 105.585 304.276 105.951 303.509C106.322 302.737 106.837 302.136 107.498 301.706C108.163 301.271 108.938 301.054 109.825 301.054C110.336 301.054 110.841 301.139 111.34 301.31C111.838 301.48 112.292 301.757 112.701 302.141C113.11 302.52 113.436 303.023 113.679 303.649C113.922 304.276 114.043 305.047 114.043 305.963V306.602H106.475V305.298H112.509C112.509 304.744 112.398 304.25 112.177 303.815C111.96 303.381 111.648 303.038 111.244 302.786C110.843 302.535 110.37 302.409 109.825 302.409C109.224 302.409 108.704 302.558 108.265 302.857C107.83 303.151 107.496 303.534 107.261 304.007C107.027 304.48 106.91 304.987 106.91 305.528V306.398C106.91 307.139 107.038 307.768 107.293 308.283C107.553 308.795 107.913 309.185 108.374 309.453C108.834 309.717 109.369 309.849 109.978 309.849C110.374 309.849 110.732 309.794 111.052 309.683C111.376 309.568 111.655 309.398 111.889 309.172C112.124 308.942 112.305 308.656 112.433 308.315L113.89 308.724C113.737 309.219 113.479 309.653 113.117 310.028C112.754 310.399 112.307 310.689 111.774 310.898C111.242 311.102 110.643 311.205 109.978 311.205ZM115.798 311V301.182H117.255V302.665H117.358C117.537 302.179 117.861 301.785 118.329 301.482C118.798 301.18 119.327 301.028 119.915 301.028C120.025 301.028 120.164 301.031 120.33 301.035C120.496 301.039 120.622 301.045 120.707 301.054V302.588C120.656 302.575 120.539 302.556 120.356 302.531C120.177 302.501 119.987 302.486 119.787 302.486C119.309 302.486 118.883 302.586 118.508 302.786C118.138 302.982 117.844 303.255 117.626 303.604C117.413 303.95 117.307 304.344 117.307 304.787V311H115.798ZM130.185 311.205C129.367 311.205 128.645 310.998 128.018 310.585C127.392 310.167 126.902 309.579 126.548 308.82C126.194 308.058 126.018 307.156 126.018 306.116C126.018 305.085 126.194 304.19 126.548 303.432C126.902 302.673 127.394 302.087 128.025 301.674C128.655 301.261 129.384 301.054 130.211 301.054C130.85 301.054 131.355 301.161 131.726 301.374C132.101 301.582 132.386 301.821 132.582 302.089C132.783 302.354 132.938 302.571 133.049 302.741H133.177V297.909H134.685V311H133.228V309.491H133.049C132.938 309.67 132.78 309.896 132.576 310.169C132.371 310.437 132.079 310.678 131.7 310.891C131.321 311.1 130.816 311.205 130.185 311.205ZM130.39 309.849C130.995 309.849 131.506 309.692 131.924 309.376C132.342 309.057 132.659 308.616 132.876 308.053C133.094 307.487 133.202 306.832 133.202 306.091C133.202 305.358 133.096 304.717 132.883 304.167C132.67 303.613 132.354 303.183 131.937 302.876C131.519 302.565 131.003 302.409 130.39 302.409C129.751 302.409 129.218 302.573 128.792 302.901C128.37 303.225 128.052 303.666 127.839 304.224C127.631 304.778 127.526 305.401 127.526 306.091C127.526 306.79 127.633 307.425 127.846 307.996C128.063 308.562 128.383 309.014 128.805 309.351C129.231 309.683 129.759 309.849 130.39 309.849ZM140.007 311.23C139.385 311.23 138.82 311.113 138.313 310.879C137.806 310.64 137.403 310.297 137.105 309.849C136.806 309.398 136.657 308.852 136.657 308.213C136.657 307.651 136.768 307.195 136.99 306.845C137.211 306.491 137.507 306.214 137.878 306.014C138.249 305.814 138.658 305.665 139.105 305.567C139.557 305.464 140.011 305.384 140.467 305.324C141.064 305.247 141.547 305.19 141.918 305.151C142.293 305.109 142.566 305.038 142.736 304.94C142.911 304.842 142.998 304.672 142.998 304.429V304.378C142.998 303.747 142.826 303.257 142.48 302.908C142.14 302.558 141.622 302.384 140.927 302.384C140.207 302.384 139.642 302.541 139.233 302.857C138.824 303.172 138.537 303.509 138.37 303.866L136.939 303.355C137.194 302.759 137.535 302.294 137.961 301.962C138.392 301.625 138.86 301.391 139.368 301.259C139.879 301.122 140.382 301.054 140.876 301.054C141.191 301.054 141.554 301.092 141.963 301.169C142.376 301.241 142.775 301.393 143.158 301.623C143.546 301.853 143.868 302.2 144.123 302.665C144.379 303.129 144.507 303.751 144.507 304.531V311H142.998V309.67H142.922C142.819 309.884 142.649 310.112 142.41 310.354C142.172 310.597 141.854 310.804 141.458 310.974C141.061 311.145 140.578 311.23 140.007 311.23ZM140.237 309.875C140.833 309.875 141.336 309.758 141.745 309.523C142.159 309.289 142.47 308.987 142.679 308.616C142.892 308.245 142.998 307.855 142.998 307.446V306.065C142.934 306.142 142.794 306.212 142.576 306.276C142.363 306.336 142.116 306.389 141.835 306.436C141.558 306.479 141.287 306.517 141.023 306.551C140.763 306.581 140.552 306.607 140.39 306.628C139.998 306.679 139.632 306.762 139.291 306.877C138.954 306.988 138.681 307.156 138.473 307.382C138.268 307.604 138.166 307.906 138.166 308.29C138.166 308.814 138.36 309.21 138.748 309.479C139.14 309.743 139.636 309.875 140.237 309.875ZM150.99 301.182V302.46H145.902V301.182H150.99ZM147.385 298.83H148.893V308.188C148.893 308.614 148.955 308.933 149.079 309.146C149.207 309.355 149.369 309.496 149.565 309.568C149.765 309.636 149.976 309.67 150.197 309.67C150.364 309.67 150.5 309.662 150.607 309.645C150.713 309.624 150.798 309.607 150.862 309.594L151.169 310.949C151.067 310.987 150.924 311.026 150.741 311.064C150.557 311.107 150.325 311.128 150.044 311.128C149.618 311.128 149.2 311.036 148.791 310.853C148.386 310.67 148.05 310.391 147.781 310.016C147.517 309.641 147.385 309.168 147.385 308.597V298.83ZM155.608 311.23C154.986 311.23 154.422 311.113 153.915 310.879C153.407 310.64 153.005 310.297 152.706 309.849C152.408 309.398 152.259 308.852 152.259 308.213C152.259 307.651 152.37 307.195 152.591 306.845C152.813 306.491 153.109 306.214 153.48 306.014C153.851 305.814 154.26 305.665 154.707 305.567C155.159 305.464 155.613 305.384 156.069 305.324C156.665 305.247 157.149 305.19 157.52 305.151C157.895 305.109 158.167 305.038 158.338 304.94C158.513 304.842 158.6 304.672 158.6 304.429V304.378C158.6 303.747 158.427 303.257 158.082 302.908C157.741 302.558 157.223 302.384 156.529 302.384C155.809 302.384 155.244 302.541 154.835 302.857C154.426 303.172 154.138 303.509 153.972 303.866L152.54 303.355C152.796 302.759 153.137 302.294 153.563 301.962C153.993 301.625 154.462 301.391 154.969 301.259C155.481 301.122 155.983 301.054 156.478 301.054C156.793 301.054 157.155 301.092 157.564 301.169C157.978 301.241 158.376 301.393 158.76 301.623C159.147 301.853 159.469 302.2 159.725 302.665C159.981 303.129 160.108 303.751 160.108 304.531V311H158.6V309.67H158.523C158.421 309.884 158.25 310.112 158.012 310.354C157.773 310.597 157.456 310.804 157.059 310.974C156.663 311.145 156.179 311.23 155.608 311.23ZM155.839 309.875C156.435 309.875 156.938 309.758 157.347 309.523C157.76 309.289 158.071 308.987 158.28 308.616C158.493 308.245 158.6 307.855 158.6 307.446V306.065C158.536 306.142 158.395 306.212 158.178 306.276C157.965 306.336 157.718 306.389 157.437 306.436C157.16 306.479 156.889 306.517 156.625 306.551C156.365 306.581 156.154 306.607 155.992 306.628C155.6 306.679 155.233 306.762 154.892 306.877C154.556 306.988 154.283 307.156 154.074 307.382C153.87 307.604 153.767 307.906 153.767 308.29C153.767 308.814 153.961 309.21 154.349 309.479C154.741 309.743 155.238 309.875 155.839 309.875ZM19.3807 333V323.182H20.8381V324.716H20.9659C21.1705 324.192 21.5007 323.785 21.9567 323.495C22.4126 323.201 22.9602 323.054 23.5994 323.054C24.2472 323.054 24.7862 323.201 25.2166 323.495C25.6513 323.785 25.9901 324.192 26.233 324.716H26.3352C26.5866 324.209 26.9638 323.806 27.4666 323.508C27.9695 323.205 28.5724 323.054 29.2756 323.054C30.1534 323.054 30.8714 323.329 31.4297 323.879C31.9879 324.424 32.267 325.274 32.267 326.429V333H30.7585V326.429C30.7585 325.705 30.5604 325.187 30.1641 324.876C29.7678 324.565 29.3011 324.409 28.7642 324.409C28.0739 324.409 27.5391 324.618 27.1598 325.036C26.7805 325.449 26.5909 325.973 26.5909 326.608V333H25.0568V326.276C25.0568 325.717 24.8757 325.268 24.5135 324.927C24.1513 324.582 23.6847 324.409 23.1136 324.409C22.7216 324.409 22.3551 324.513 22.0142 324.722C21.6776 324.931 21.4048 325.221 21.196 325.592C20.9915 325.958 20.8892 326.382 20.8892 326.864V333H19.3807ZM38.4738 333.205C37.5875 333.205 36.8098 332.994 36.1408 332.572C35.476 332.15 34.9561 331.56 34.5811 330.801C34.2104 330.043 34.025 329.156 34.025 328.142C34.025 327.119 34.2104 326.227 34.5811 325.464C34.9561 324.701 35.476 324.109 36.1408 323.687C36.8098 323.265 37.5875 323.054 38.4738 323.054C39.3602 323.054 40.1358 323.265 40.8006 323.687C41.4696 324.109 41.9895 324.701 42.3602 325.464C42.7352 326.227 42.9227 327.119 42.9227 328.142C42.9227 329.156 42.7352 330.043 42.3602 330.801C41.9895 331.56 41.4696 332.15 40.8006 332.572C40.1358 332.994 39.3602 333.205 38.4738 333.205ZM38.4738 331.849C39.1471 331.849 39.7011 331.677 40.1358 331.332C40.5704 330.987 40.8922 330.533 41.101 329.97C41.3098 329.408 41.4142 328.798 41.4142 328.142C41.4142 327.486 41.3098 326.874 41.101 326.308C40.8922 325.741 40.5704 325.283 40.1358 324.933C39.7011 324.584 39.1471 324.409 38.4738 324.409C37.8006 324.409 37.2466 324.584 36.8119 324.933C36.3773 325.283 36.0555 325.741 35.8467 326.308C35.6379 326.874 35.5335 327.486 35.5335 328.142C35.5335 328.798 35.6379 329.408 35.8467 329.97C36.0555 330.533 36.3773 330.987 36.8119 331.332C37.2466 331.677 37.8006 331.849 38.4738 331.849ZM46.194 327.094V333H44.6854V323.182H46.1428V324.716H46.2707C46.5008 324.217 46.8502 323.817 47.319 323.514C47.7877 323.207 48.3928 323.054 49.1343 323.054C49.7991 323.054 50.3808 323.19 50.8793 323.463C51.3779 323.732 51.7657 324.141 52.0427 324.69C52.3197 325.236 52.4582 325.926 52.4582 326.761V333H50.9497V326.864C50.9497 326.092 50.7494 325.491 50.3488 325.061C49.9482 324.626 49.3985 324.409 48.6997 324.409C48.2181 324.409 47.7877 324.513 47.4085 324.722C47.0335 324.931 46.7373 325.236 46.52 325.636C46.3026 326.037 46.194 326.523 46.194 327.094ZM58.7912 333.205C57.8452 333.205 57.0291 332.996 56.3431 332.578C55.6613 332.156 55.135 331.568 54.7642 330.814C54.3978 330.055 54.2145 329.173 54.2145 328.168C54.2145 327.162 54.3978 326.276 54.7642 325.509C55.135 324.737 55.6506 324.136 56.3111 323.706C56.9759 323.271 57.7515 323.054 58.6378 323.054C59.1492 323.054 59.6541 323.139 60.1527 323.31C60.6513 323.48 61.1051 323.757 61.5142 324.141C61.9233 324.52 62.2493 325.023 62.4922 325.649C62.7351 326.276 62.8566 327.047 62.8566 327.963V328.602H55.2884V327.298H61.3225C61.3225 326.744 61.2117 326.25 60.9901 325.815C60.7728 325.381 60.4617 325.038 60.0568 324.786C59.6563 324.535 59.1833 324.409 58.6378 324.409C58.037 324.409 57.5171 324.558 57.0782 324.857C56.6435 325.151 56.309 325.534 56.0746 326.007C55.8402 326.48 55.723 326.987 55.723 327.528V328.398C55.723 329.139 55.8509 329.768 56.1066 330.283C56.3665 330.795 56.7266 331.185 57.1868 331.453C57.647 331.717 58.1818 331.849 58.7912 331.849C59.1875 331.849 59.5455 331.794 59.8651 331.683C60.189 331.568 60.4681 331.398 60.7024 331.172C60.9368 330.942 61.1179 330.656 61.2458 330.315L62.7032 330.724C62.5497 331.219 62.2919 331.653 61.9297 332.028C61.5675 332.399 61.1201 332.689 60.5874 332.898C60.0547 333.102 59.456 333.205 58.7912 333.205ZM68.8812 323.182V324.46H63.7931V323.182H68.8812ZM65.2761 320.83H66.7846V330.188C66.7846 330.614 66.8464 330.933 66.97 331.146C67.0978 331.355 67.2597 331.496 67.4558 331.568C67.6561 331.636 67.867 331.67 68.0886 331.67C68.2548 331.67 68.3911 331.662 68.4977 331.645C68.6042 331.624 68.6894 331.607 68.7534 331.594L69.0602 332.949C68.9579 332.987 68.8151 333.026 68.6319 333.064C68.4487 333.107 68.2164 333.128 67.9352 333.128C67.509 333.128 67.0914 333.036 66.6823 332.853C66.2775 332.67 65.9409 332.391 65.6724 332.016C65.4082 331.641 65.2761 331.168 65.2761 330.597V320.83ZM70.6104 333V323.182H72.1189V333H70.6104ZM71.3774 321.545C71.0834 321.545 70.8298 321.445 70.6168 321.245C70.408 321.045 70.3036 320.804 70.3036 320.523C70.3036 320.241 70.408 320.001 70.6168 319.8C70.8298 319.6 71.0834 319.5 71.3774 319.5C71.6714 319.5 71.9229 319.6 72.1317 319.8C72.3447 320.001 72.4513 320.241 72.4513 320.523C72.4513 320.804 72.3447 321.045 72.1317 321.245C71.9229 321.445 71.6714 321.545 71.3774 321.545ZM74.0606 333V331.849L79.6345 324.69V324.588H74.2396V323.182H81.5776V324.384L76.1572 331.491V331.594H81.7566V333H74.0606ZM86.4293 333.23C85.8072 333.23 85.2426 333.113 84.7354 332.879C84.2283 332.64 83.8256 332.297 83.5274 331.849C83.2291 331.398 83.0799 330.852 83.0799 330.213C83.0799 329.651 83.1907 329.195 83.4123 328.845C83.6339 328.491 83.9301 328.214 84.3008 328.014C84.6715 327.814 85.0806 327.665 85.5281 327.567C85.9798 327.464 86.4336 327.384 86.8896 327.324C87.4862 327.247 87.9698 327.19 88.3406 327.151C88.7156 327.109 88.9883 327.038 89.1587 326.94C89.3335 326.842 89.4208 326.672 89.4208 326.429V326.378C89.4208 325.747 89.2482 325.257 88.9031 324.908C88.5622 324.558 88.0444 324.384 87.3498 324.384C86.6296 324.384 86.065 324.541 85.6559 324.857C85.2468 325.172 84.9592 325.509 84.793 325.866L83.3612 325.355C83.6168 324.759 83.9577 324.294 84.3839 323.962C84.8143 323.625 85.283 323.391 85.7901 323.259C86.3015 323.122 86.8043 323.054 87.2987 323.054C87.614 323.054 87.9762 323.092 88.3853 323.169C88.7987 323.241 89.1971 323.393 89.5806 323.623C89.9684 323.853 90.2901 324.2 90.5458 324.665C90.8015 325.129 90.9293 325.751 90.9293 326.531V333H89.4208V331.67H89.3441C89.2418 331.884 89.0714 332.112 88.8328 332.354C88.5941 332.597 88.2766 332.804 87.8803 332.974C87.484 333.145 87.0004 333.23 86.4293 333.23ZM86.6595 331.875C87.256 331.875 87.7589 331.758 88.168 331.523C88.5813 331.289 88.8924 330.987 89.1012 330.616C89.3143 330.245 89.4208 329.855 89.4208 329.446V328.065C89.3569 328.142 89.2163 328.212 88.9989 328.276C88.7859 328.336 88.5387 328.389 88.2575 328.436C87.9805 328.479 87.7099 328.517 87.4457 328.551C87.1857 328.581 86.9748 328.607 86.8129 328.628C86.4208 328.679 86.0543 328.762 85.7134 328.877C85.3768 328.988 85.1041 329.156 84.8952 329.382C84.6907 329.604 84.5884 329.906 84.5884 330.29C84.5884 330.814 84.7823 331.21 85.1701 331.479C85.5622 331.743 86.0586 331.875 86.6595 331.875ZM97.4126 323.182V324.46H92.3245V323.182H97.4126ZM93.8075 320.83H95.316V330.188C95.316 330.614 95.3778 330.933 95.5014 331.146C95.6292 331.355 95.7912 331.496 95.9872 331.568C96.1875 331.636 96.3984 331.67 96.62 331.67C96.7862 331.67 96.9225 331.662 97.0291 331.645C97.1356 331.624 97.2208 331.607 97.2848 331.594L97.5916 332.949C97.4893 332.987 97.3465 333.026 97.1633 333.064C96.9801 333.107 96.7478 333.128 96.4666 333.128C96.0404 333.128 95.6228 333.036 95.2137 332.853C94.8089 332.67 94.4723 332.391 94.2038 332.016C93.9396 331.641 93.8075 331.168 93.8075 330.597V320.83ZM99.1418 333V323.182H100.65V333H99.1418ZM99.9088 321.545C99.6148 321.545 99.3612 321.445 99.1482 321.245C98.9394 321.045 98.835 320.804 98.835 320.523C98.835 320.241 98.9394 320.001 99.1482 319.8C99.3612 319.6 99.6148 319.5 99.9088 319.5C100.203 319.5 100.454 319.6 100.663 319.8C100.876 320.001 100.983 320.241 100.983 320.523C100.983 320.804 100.876 321.045 100.663 321.245C100.454 321.445 100.203 321.545 99.9088 321.545ZM106.862 333.205C105.976 333.205 105.198 332.994 104.529 332.572C103.864 332.15 103.344 331.56 102.969 330.801C102.598 330.043 102.413 329.156 102.413 328.142C102.413 327.119 102.598 326.227 102.969 325.464C103.344 324.701 103.864 324.109 104.529 323.687C105.198 323.265 105.976 323.054 106.862 323.054C107.748 323.054 108.524 323.265 109.189 323.687C109.858 324.109 110.378 324.701 110.748 325.464C111.123 326.227 111.311 327.119 111.311 328.142C111.311 329.156 111.123 330.043 110.748 330.801C110.378 331.56 109.858 332.15 109.189 332.572C108.524 332.994 107.748 333.205 106.862 333.205ZM106.862 331.849C107.535 331.849 108.089 331.677 108.524 331.332C108.958 330.987 109.28 330.533 109.489 329.97C109.698 329.408 109.802 328.798 109.802 328.142C109.802 327.486 109.698 326.874 109.489 326.308C109.28 325.741 108.958 325.283 108.524 324.933C108.089 324.584 107.535 324.409 106.862 324.409C106.189 324.409 105.635 324.584 105.2 324.933C104.765 325.283 104.444 325.741 104.235 326.308C104.026 326.874 103.922 327.486 103.922 328.142C103.922 328.798 104.026 329.408 104.235 329.97C104.444 330.533 104.765 330.987 105.2 331.332C105.635 331.677 106.189 331.849 106.862 331.849ZM114.582 327.094V333H113.073V323.182H114.531V324.716H114.659C114.889 324.217 115.238 323.817 115.707 323.514C116.176 323.207 116.781 323.054 117.522 323.054C118.187 323.054 118.769 323.19 119.267 323.463C119.766 323.732 120.154 324.141 120.431 324.69C120.708 325.236 120.846 325.926 120.846 326.761V333H119.338V326.864C119.338 326.092 119.137 325.491 118.737 325.061C118.336 324.626 117.787 324.409 117.088 324.409C116.606 324.409 116.176 324.513 115.797 324.722C115.422 324.931 115.125 325.236 114.908 325.636C114.691 326.037 114.582 326.523 114.582 327.094Z" fill="#091F5B"/>
</svg>
