<svg width="300" height="365" viewBox="0 0 300 365" fill="none" xmlns="http://www.w3.org/2000/svg">
<rect width="300" height="364.5" rx="22.5" fill="#D0D5DD"/>
<circle cx="264.375" cy="316.875" r="16.125" fill="#0F33E9"/>
<path d="M269.786 318.651L268.805 318.662L268.805 314.135L261.313 321.627L260.617 320.931L268.114 313.434L263.593 313.427L263.593 312.458L269.786 312.458L269.786 318.651Z" fill="white"/>
<path d="M33.6206 33.1575H30.6323C30.5471 32.6674 30.3899 32.2333 30.1609 31.8551C29.9318 31.4716 29.6468 31.1467 29.3059 30.8803C28.965 30.614 28.5762 30.4142 28.1394 30.2811C27.7079 30.1426 27.2418 30.0733 26.7411 30.0733C25.8516 30.0733 25.0632 30.2971 24.3761 30.7445C23.6889 31.1866 23.1509 31.8365 22.7621 32.6941C22.3732 33.5463 22.1788 34.5877 22.1788 35.8182C22.1788 37.07 22.3732 38.1246 22.7621 38.9822C23.1563 39.8345 23.6942 40.479 24.3761 40.9158C25.0632 41.3473 25.8489 41.563 26.7331 41.563C27.2232 41.563 27.6813 41.4991 28.1074 41.3713C28.5389 41.2381 28.9251 41.0437 29.266 40.788C29.6122 40.5323 29.9025 40.218 30.1369 39.8452C30.3766 39.4723 30.5417 39.0462 30.6323 38.5668L33.6206 38.5827C33.5087 39.3604 33.2663 40.0902 32.8935 40.772C32.5259 41.4538 32.0439 42.0558 31.4473 42.5778C30.8507 43.0945 30.1529 43.4993 29.3539 43.7923C28.5549 44.0799 27.668 44.2237 26.6932 44.2237C25.255 44.2237 23.9712 43.8908 22.842 43.225C21.7127 42.5591 20.8232 41.5977 20.1733 40.3406C19.5234 39.0835 19.1985 37.576 19.1985 35.8182C19.1985 34.055 19.5261 32.5476 20.1813 31.2958C20.8365 30.0387 21.7287 29.0772 22.858 28.4114C23.9872 27.7456 25.2656 27.4126 26.6932 27.4126C27.604 27.4126 28.451 27.5405 29.234 27.7962C30.017 28.0518 30.7148 28.4274 31.3274 28.9228C31.94 29.4128 32.4434 30.0147 32.8375 30.7285C33.237 31.437 33.498 32.2466 33.6206 33.1575ZM38.115 48.6023C37.7208 48.6023 37.3559 48.5703 37.0203 48.5064C36.6901 48.4478 36.4264 48.3786 36.2293 48.2987L36.9005 46.0455C37.3213 46.168 37.6968 46.2266 38.0271 46.2212C38.3573 46.2159 38.6476 46.112 38.898 45.9096C39.1537 45.7125 39.3694 45.3823 39.5452 44.9189L39.7929 44.2557L35.3424 31.7273H38.4106L41.2391 40.9957H41.3669L44.2034 31.7273H47.2796L42.3657 45.4862C42.1366 46.136 41.833 46.6926 41.4548 47.1561C41.0766 47.6248 40.6132 47.9817 40.0645 48.2267C39.5212 48.4771 38.8714 48.6023 38.115 48.6023ZM49.4089 44V27.6364H52.3013V33.7567H52.4212C52.5703 33.4585 52.7807 33.1415 53.0524 32.8059C53.324 32.465 53.6916 32.1747 54.155 31.935C54.6184 31.69 55.2097 31.5675 55.9288 31.5675C56.877 31.5675 57.7319 31.8098 58.4936 32.2946C59.2607 32.774 59.8679 33.4851 60.3153 34.4279C60.7681 35.3654 60.9945 36.516 60.9945 37.8796C60.9945 39.2273 60.7734 40.3725 60.3313 41.3153C59.8892 42.2582 59.2873 42.9773 58.5256 43.4727C57.7638 43.968 56.9009 44.2157 55.9368 44.2157C55.2337 44.2157 54.6504 44.0985 54.187 43.8642C53.7235 43.6298 53.3507 43.3475 53.0684 43.0172C52.7914 42.6816 52.5756 42.3647 52.4212 42.0664H52.2534V44H49.4089ZM52.2454 37.8636C52.2454 38.6573 52.3572 39.3525 52.581 39.949C52.81 40.5456 53.1376 41.0117 53.5637 41.3473C53.9952 41.6776 54.5172 41.8427 55.1298 41.8427C55.769 41.8427 56.3043 41.6722 56.7358 41.3313C57.1673 40.9851 57.4922 40.5137 57.7106 39.9171C57.9343 39.3152 58.0462 38.6307 58.0462 37.8636C58.0462 37.1019 57.937 36.4254 57.7186 35.8342C57.5002 35.2429 57.1752 34.7795 56.7438 34.4439C56.3123 34.1083 55.7743 33.9405 55.1298 33.9405C54.5119 33.9405 53.9872 34.103 53.5558 34.4279C53.1243 34.7528 52.7967 35.2083 52.573 35.7942C52.3546 36.3801 52.2454 37.07 52.2454 37.8636ZM68.8867 44.2397C67.6562 44.2397 66.5935 43.984 65.6986 43.4727C64.8091 42.956 64.1246 42.2262 63.6452 41.2834C63.1658 40.3352 62.9261 39.2193 62.9261 37.9355C62.9261 36.6731 63.1658 35.5652 63.6452 34.6117C64.1299 33.6529 64.8064 32.9071 65.6747 32.3745C66.5429 31.8365 67.563 31.5675 68.7349 31.5675C69.4913 31.5675 70.205 31.69 70.8762 31.935C71.5527 32.1747 72.1493 32.5476 72.666 33.0536C73.188 33.5597 73.5981 34.2042 73.8964 34.9872C74.1947 35.7649 74.3439 36.6918 74.3439 37.7678V38.6547H64.2844V36.7051H71.5713C71.566 36.1511 71.4462 35.6584 71.2118 35.2269C70.9774 34.7901 70.6498 34.4466 70.229 34.1962C69.8135 33.9458 69.3288 33.8207 68.7748 33.8207C68.1835 33.8207 67.6642 33.9645 67.2168 34.2521C66.7693 34.5344 66.4204 34.9073 66.1701 35.3707C65.925 35.8288 65.7998 36.3322 65.7945 36.8809V38.5827C65.7945 39.2965 65.925 39.9091 66.186 40.4205C66.447 40.9265 66.8119 41.3153 67.2807 41.587C67.7494 41.8533 68.2981 41.9865 68.9266 41.9865C69.3474 41.9865 69.7283 41.9279 70.0692 41.8107C70.4101 41.6882 70.7057 41.5098 70.9561 41.2754C71.2065 41.041 71.3956 40.7507 71.5234 40.4045L74.224 40.7081C74.0536 41.4219 73.7286 42.0451 73.2492 42.5778C72.7752 43.1051 72.1679 43.5153 71.4275 43.8082C70.6871 44.0959 69.8402 44.2397 68.8867 44.2397ZM76.7908 44V31.7273H79.5953V33.7727H79.7232C79.9469 33.0643 80.3304 32.5183 80.8738 32.1348C81.4224 31.7459 82.0483 31.5515 82.7514 31.5515C82.9112 31.5515 83.0897 31.5595 83.2868 31.5755C83.4892 31.5861 83.657 31.6048 83.7901 31.6314V34.2921C83.6676 34.2495 83.4732 34.2122 83.2069 34.1802C82.9458 34.1429 82.6928 34.1243 82.4478 34.1243C81.9205 34.1243 81.4464 34.2388 81.0256 34.4679C80.6101 34.6916 80.2825 35.0032 80.0428 35.4027C79.8031 35.8022 79.6832 36.263 79.6832 36.785V44H76.7908ZM100.314 32.1348C100.239 31.437 99.9247 30.8936 99.3707 30.5048C98.8221 30.1159 98.1083 29.9215 97.2294 29.9215C96.6115 29.9215 96.0815 30.0147 95.6394 30.2012C95.1973 30.3876 94.859 30.6406 94.6246 30.9602C94.3903 31.2798 94.2704 31.6447 94.2651 32.0549C94.2651 32.3958 94.3423 32.6914 94.4968 32.9418C94.6566 33.1921 94.8723 33.4052 95.144 33.581C95.4157 33.7514 95.7166 33.8952 96.0469 34.0124C96.3771 34.1296 96.7101 34.2282 97.0456 34.3081L98.5797 34.6916C99.1976 34.8354 99.7915 35.0298 100.362 35.2749C100.937 35.5199 101.451 35.8288 101.904 36.2017C102.362 36.5746 102.724 37.0247 102.99 37.552C103.257 38.0794 103.39 38.6973 103.39 39.4057C103.39 40.3645 103.145 41.2088 102.655 41.9386C102.165 42.663 101.456 43.2303 100.529 43.6404C99.6078 44.0453 98.4918 44.2477 97.1815 44.2477C95.9084 44.2477 94.8031 44.0506 93.8656 43.6564C92.9334 43.2623 92.2037 42.687 91.6763 41.9306C91.1543 41.1742 90.872 40.2527 90.8294 39.166H93.7457C93.7884 39.736 93.9641 40.21 94.2731 40.5882C94.582 40.9664 94.9842 41.2488 95.4796 41.4352C95.9803 41.6216 96.5396 41.7148 97.1575 41.7148C97.802 41.7148 98.3667 41.619 98.8514 41.4272C99.3414 41.2301 99.725 40.9585 100.002 40.6122C100.279 40.2607 100.42 39.8505 100.425 39.3817C100.42 38.9556 100.295 38.604 100.05 38.3271C99.8049 38.0447 99.4613 37.8104 99.0192 37.6239C98.5824 37.4322 98.071 37.2617 97.4851 37.1126L95.6234 36.6332C94.2757 36.2869 93.2104 35.7623 92.4274 35.0591C91.6497 34.3507 91.2608 33.4105 91.2608 32.2386C91.2608 31.2745 91.5218 30.4302 92.0439 29.7058C92.5712 28.9814 93.2876 28.4194 94.1932 28.0199C95.0987 27.6151 96.1241 27.4126 97.2694 27.4126C98.4306 27.4126 99.448 27.6151 100.322 28.0199C101.2 28.4194 101.89 28.976 102.391 29.6898C102.892 30.3983 103.15 31.2132 103.166 32.1348H100.314ZM111.338 44.2397C110.107 44.2397 109.045 43.984 108.15 43.4727C107.26 42.956 106.576 42.2262 106.096 41.2834C105.617 40.3352 105.377 39.2193 105.377 37.9355C105.377 36.6731 105.617 35.5652 106.096 34.6117C106.581 33.6529 107.258 32.9071 108.126 32.3745C108.994 31.8365 110.014 31.5675 111.186 31.5675C111.942 31.5675 112.656 31.69 113.327 31.935C114.004 32.1747 114.6 32.5476 115.117 33.0536C115.639 33.5597 116.049 34.2042 116.348 34.9872C116.646 35.7649 116.795 36.6918 116.795 37.7678V38.6547H106.736V36.7051H114.023C114.017 36.1511 113.897 35.6584 113.663 35.2269C113.429 34.7901 113.101 34.4466 112.68 34.1962C112.265 33.9458 111.78 33.8207 111.226 33.8207C110.635 33.8207 110.115 33.9645 109.668 34.2521C109.22 34.5344 108.872 34.9073 108.621 35.3707C108.376 35.8288 108.251 36.3322 108.246 36.8809V38.5827C108.246 39.2965 108.376 39.9091 108.637 40.4205C108.898 40.9265 109.263 41.3153 109.732 41.587C110.201 41.8533 110.749 41.9865 111.378 41.9865C111.799 41.9865 112.179 41.9279 112.52 41.8107C112.861 41.6882 113.157 41.5098 113.407 41.2754C113.658 41.041 113.847 40.7507 113.975 40.4045L116.675 40.7081C116.505 41.4219 116.18 42.0451 115.7 42.5778C115.226 43.1051 114.619 43.5153 113.879 43.8082C113.138 44.0959 112.291 44.2397 111.338 44.2397ZM124.595 44.2397C123.37 44.2397 122.318 43.9707 121.439 43.4327C120.566 42.8947 119.892 42.1516 119.418 41.2035C118.949 40.25 118.715 39.1527 118.715 37.9116C118.715 36.6651 118.954 35.5652 119.434 34.6117C119.913 33.6529 120.59 32.9071 121.463 32.3745C122.342 31.8365 123.381 31.5675 124.579 31.5675C125.575 31.5675 126.457 31.7512 127.224 32.1188C127.996 32.481 128.612 32.995 129.07 33.6609C129.528 34.3214 129.789 35.0937 129.853 35.978H127.088C126.976 35.3867 126.71 34.894 126.289 34.4998C125.874 34.1003 125.317 33.9006 124.619 33.9006C124.028 33.9006 123.509 34.0604 123.061 34.38C122.614 34.6942 122.265 35.147 122.015 35.7383C121.77 36.3295 121.647 37.038 121.647 37.8636C121.647 38.6999 121.77 39.419 122.015 40.021C122.26 40.6175 122.603 41.0783 123.045 41.4032C123.493 41.7228 124.017 41.8826 124.619 41.8826C125.045 41.8826 125.426 41.8027 125.762 41.6429C126.103 41.4778 126.388 41.2408 126.617 40.9318C126.846 40.6229 127.003 40.2473 127.088 39.8052H129.853C129.784 40.6735 129.528 41.4432 129.086 42.1143C128.644 42.7802 128.042 43.3022 127.28 43.6804C126.518 44.0533 125.623 44.2397 124.595 44.2397ZM140.05 38.8384V31.7273H142.943V44H140.138V41.8187H140.01C139.733 42.5059 139.278 43.0678 138.644 43.5046C138.015 43.9414 137.24 44.1598 136.319 44.1598C135.514 44.1598 134.803 43.9814 134.185 43.6245C133.573 43.2623 133.093 42.7376 132.747 42.0504C132.401 41.358 132.228 40.5217 132.228 39.5415V31.7273H135.12V39.0941C135.12 39.8718 135.333 40.4897 135.759 40.9478C136.186 41.4059 136.745 41.6349 137.437 41.6349C137.864 41.6349 138.276 41.5311 138.676 41.3233C139.075 41.1156 139.403 40.8066 139.659 40.3965C139.92 39.981 140.05 39.4616 140.05 38.8384ZM145.917 44V31.7273H148.721V33.7727H148.849C149.073 33.0643 149.456 32.5183 150 32.1348C150.548 31.7459 151.174 31.5515 151.877 31.5515C152.037 31.5515 152.216 31.5595 152.413 31.5755C152.615 31.5861 152.783 31.6048 152.916 31.6314V34.2921C152.794 34.2495 152.599 34.2122 152.333 34.1802C152.072 34.1429 151.819 34.1243 151.574 34.1243C151.046 34.1243 150.572 34.2388 150.152 34.4679C149.736 34.6916 149.408 35.0032 149.169 35.4027C148.929 35.8022 148.809 36.263 148.809 36.785V44H145.917ZM154.838 44V31.7273H157.73V44H154.838ZM156.292 29.9854C155.834 29.9854 155.44 29.8336 155.109 29.53C154.779 29.2211 154.614 28.8509 154.614 28.4194C154.614 27.9826 154.779 27.6124 155.109 27.3088C155.44 26.9998 155.834 26.8453 156.292 26.8453C156.755 26.8453 157.15 26.9998 157.474 27.3088C157.805 27.6124 157.97 27.9826 157.97 28.4194C157.97 28.8509 157.805 29.2211 157.474 29.53C157.15 29.8336 156.755 29.9854 156.292 29.9854ZM166.833 31.7273V33.9645H159.778V31.7273H166.833ZM161.519 28.7869H164.412V40.3086C164.412 40.6974 164.47 40.9957 164.588 41.2035C164.71 41.4059 164.87 41.5444 165.067 41.619C165.264 41.6935 165.482 41.7308 165.722 41.7308C165.903 41.7308 166.068 41.7175 166.218 41.6909C166.372 41.6642 166.489 41.6403 166.569 41.619L167.057 43.8801C166.902 43.9334 166.681 43.992 166.393 44.0559C166.111 44.1199 165.765 44.1571 165.355 44.1678C164.63 44.1891 163.978 44.0799 163.397 43.8402C162.816 43.5952 162.356 43.217 162.015 42.7056C161.679 42.1942 161.514 41.555 161.519 40.788V28.7869ZM171.05 48.6023C170.655 48.6023 170.29 48.5703 169.955 48.5064C169.625 48.4478 169.361 48.3786 169.164 48.2987L169.835 46.0455C170.256 46.168 170.631 46.2266 170.962 46.2212C171.292 46.2159 171.582 46.112 171.833 45.9096C172.088 45.7125 172.304 45.3823 172.48 44.9189L172.727 44.2557L168.277 31.7273H171.345L174.174 40.9957H174.301L177.138 31.7273H180.214L175.3 45.4862C175.071 46.136 174.768 46.6926 174.389 47.1561C174.011 47.6248 173.548 47.9817 172.999 48.2267C172.456 48.4771 171.806 48.6023 171.05 48.6023ZM28.5069 55.1348C28.4324 54.437 28.1181 53.8936 27.5641 53.5048C27.0154 53.1159 26.3017 52.9215 25.4228 52.9215C24.8049 52.9215 24.2749 53.0147 23.8327 53.2012C23.3906 53.3876 23.0524 53.6406 22.818 53.9602C22.5836 54.2798 22.4638 54.6447 22.4585 55.0549C22.4585 55.3958 22.5357 55.6914 22.6902 55.9418C22.85 56.1921 23.0657 56.4052 23.3374 56.581C23.609 56.7514 23.91 56.8952 24.2402 57.0124C24.5705 57.1296 24.9034 57.2282 25.239 57.3081L26.7731 57.6916C27.391 57.8354 27.9849 58.0298 28.5549 58.2749C29.1301 58.5199 29.6442 58.8288 30.0969 59.2017C30.555 59.5746 30.9173 60.0247 31.1836 60.552C31.4499 61.0794 31.5831 61.6973 31.5831 62.4057C31.5831 63.3645 31.3381 64.2088 30.848 64.9386C30.358 65.663 29.6495 66.2303 28.7227 66.6404C27.8011 67.0453 26.6852 67.2477 25.3748 67.2477C24.1017 67.2477 22.9964 67.0506 22.0589 66.6564C21.1268 66.2623 20.397 65.687 19.8697 64.9306C19.3477 64.1742 19.0653 63.2527 19.0227 62.166H21.9391C21.9817 62.736 22.1575 63.21 22.4664 63.5882C22.7754 63.9664 23.1776 64.2488 23.6729 64.4352C24.1737 64.6216 24.733 64.7148 25.3509 64.7148C25.9954 64.7148 26.56 64.619 27.0447 64.4272C27.5348 64.2301 27.9183 63.9585 28.1953 63.6122C28.4723 63.2607 28.6135 62.8505 28.6188 62.3817C28.6135 61.9556 28.4883 61.604 28.2433 61.3271C27.9982 61.0447 27.6547 60.8104 27.2125 60.6239C26.7757 60.4322 26.2644 60.2617 25.6784 60.1126L23.8168 59.6332C22.4691 59.2869 21.4038 58.7623 20.6207 58.0591C19.843 57.3507 19.4542 56.4105 19.4542 55.2386C19.4542 54.2745 19.7152 53.4302 20.2372 52.7058C20.7646 51.9814 21.481 51.4194 22.3865 51.0199C23.2921 50.6151 24.3175 50.4126 25.4627 50.4126C26.6239 50.4126 27.6413 50.6151 28.5149 51.0199C29.3938 51.4194 30.0836 51.976 30.5843 52.6898C31.0851 53.3983 31.3434 54.2132 31.3594 55.1348H28.5069ZM39.4513 67.2397C38.2528 67.2397 37.2141 66.976 36.3352 66.4487C35.4563 65.9213 34.7745 65.1836 34.2897 64.2354C33.8103 63.2873 33.5706 62.1793 33.5706 60.9116C33.5706 59.6438 33.8103 58.5332 34.2897 57.5797C34.7745 56.6262 35.4563 55.8858 36.3352 55.3585C37.2141 54.8311 38.2528 54.5675 39.4513 54.5675C40.6498 54.5675 41.6885 54.8311 42.5674 55.3585C43.4463 55.8858 44.1255 56.6262 44.6049 57.5797C45.0896 58.5332 45.332 59.6438 45.332 60.9116C45.332 62.1793 45.0896 63.2873 44.6049 64.2354C44.1255 65.1836 43.4463 65.9213 42.5674 66.4487C41.6885 66.976 40.6498 67.2397 39.4513 67.2397ZM39.4673 64.9226C40.1171 64.9226 40.6605 64.7441 41.0973 64.3873C41.534 64.025 41.859 63.5403 42.072 62.9331C42.2904 62.3258 42.3996 61.6493 42.3996 60.9036C42.3996 60.1525 42.2904 59.4734 42.072 58.8661C41.859 58.2536 41.534 57.7662 41.0973 57.4039C40.6605 57.0417 40.1171 56.8606 39.4673 56.8606C38.8014 56.8606 38.2475 57.0417 37.8054 57.4039C37.3686 57.7662 37.041 58.2536 36.8226 58.8661C36.6095 59.4734 36.503 60.1525 36.503 60.9036C36.503 61.6493 36.6095 62.3258 36.8226 62.9331C37.041 63.5403 37.3686 64.025 37.8054 64.3873C38.2475 64.7441 38.8014 64.9226 39.4673 64.9226ZM50.6793 50.6364V67H47.7869V50.6364H50.6793ZM61.4759 61.8384V54.7273H64.3683V67H61.5638V64.8187H61.4359C61.159 65.5059 60.7035 66.0678 60.0696 66.5046C59.4411 66.9414 58.6661 67.1598 57.7445 67.1598C56.9402 67.1598 56.2291 66.9814 55.6112 66.6245C54.9986 66.2623 54.5192 65.7376 54.173 65.0504C53.8267 64.358 53.6536 63.5217 53.6536 62.5415V54.7273H56.546V62.0941C56.546 62.8718 56.7591 63.4897 57.1852 63.9478C57.6114 64.4059 58.1707 64.6349 58.8631 64.6349C59.2893 64.6349 59.7021 64.5311 60.1016 64.3233C60.5011 64.1156 60.8287 63.8066 61.0844 63.3965C61.3454 62.981 61.4759 62.4616 61.4759 61.8384ZM73.471 54.7273V56.9645H66.4157V54.7273H73.471ZM68.1576 51.7869H71.05V63.3086C71.05 63.6974 71.1086 63.9957 71.2258 64.2035C71.3483 64.4059 71.5081 64.5444 71.7052 64.619C71.9023 64.6935 72.1207 64.7308 72.3604 64.7308C72.5415 64.7308 72.7066 64.7175 72.8557 64.6909C73.0102 64.6642 73.1274 64.6403 73.2073 64.619L73.6947 66.8801C73.5402 66.9334 73.3192 66.992 73.0315 67.0559C72.7492 67.1199 72.403 67.1571 71.9928 67.1678C71.2684 67.1891 70.6159 67.0799 70.0352 66.8402C69.4546 66.5952 68.9939 66.217 68.653 65.7056C68.3174 65.1942 68.1523 64.555 68.1576 63.788V51.7869ZM75.89 67V54.7273H78.7824V67H75.89ZM77.3441 52.9854C76.8861 52.9854 76.4919 52.8336 76.1616 52.53C75.8314 52.2211 75.6662 51.8509 75.6662 51.4194C75.6662 50.9826 75.8314 50.6124 76.1616 50.3088C76.4919 49.9998 76.8861 49.8453 77.3441 49.8453C77.8076 49.8453 78.2017 49.9998 78.5267 50.3088C78.8569 50.6124 79.0221 50.9826 79.0221 51.4194C79.0221 51.8509 78.8569 52.2211 78.5267 52.53C78.2017 52.8336 77.8076 52.9854 77.3441 52.9854ZM87.11 67.2397C85.9115 67.2397 84.8728 66.976 83.9939 66.4487C83.115 65.9213 82.4331 65.1836 81.9484 64.2354C81.469 63.2873 81.2293 62.1793 81.2293 60.9116C81.2293 59.6438 81.469 58.5332 81.9484 57.5797C82.4331 56.6262 83.115 55.8858 83.9939 55.3585C84.8728 54.8311 85.9115 54.5675 87.11 54.5675C88.3085 54.5675 89.3472 54.8311 90.2261 55.3585C91.105 55.8858 91.7842 56.6262 92.2636 57.5797C92.7483 58.5332 92.9907 59.6438 92.9907 60.9116C92.9907 62.1793 92.7483 63.2873 92.2636 64.2354C91.7842 65.1836 91.105 65.9213 90.2261 66.4487C89.3472 66.976 88.3085 67.2397 87.11 67.2397ZM87.126 64.9226C87.7758 64.9226 88.3192 64.7441 88.7559 64.3873C89.1927 64.025 89.5177 63.5403 89.7307 62.9331C89.9491 62.3258 90.0583 61.6493 90.0583 60.9036C90.0583 60.1525 89.9491 59.4734 89.7307 58.8661C89.5177 58.2536 89.1927 57.7662 88.7559 57.4039C88.3192 57.0417 87.7758 56.8606 87.126 56.8606C86.4601 56.8606 85.9062 57.0417 85.464 57.4039C85.0273 57.7662 84.6997 58.2536 84.4813 58.8661C84.2682 59.4734 84.1617 60.1525 84.1617 60.9036C84.1617 61.6493 84.2682 62.3258 84.4813 62.9331C84.6997 63.5403 85.0273 64.025 85.464 64.3873C85.9062 64.7441 86.4601 64.9226 87.126 64.9226ZM98.338 59.8089V67H95.4456V54.7273H98.2102V56.8127H98.354C98.6363 56.1255 99.0864 55.5795 99.7043 55.1747C100.328 54.7699 101.097 54.5675 102.013 54.5675C102.86 54.5675 103.598 54.7486 104.227 55.1108C104.861 55.473 105.351 55.9977 105.697 56.6848C106.048 57.372 106.222 58.2056 106.216 59.1857V67H103.324V59.6332C103.324 58.8129 103.111 58.171 102.685 57.7076C102.264 57.2441 101.681 57.0124 100.935 57.0124C100.429 57.0124 99.9786 57.1243 99.5845 57.348C99.1956 57.5664 98.8893 57.8833 98.6656 58.2988C98.4472 58.7143 98.338 59.2177 98.338 59.8089ZM118.856 57.9712L116.22 58.2589C116.145 57.9925 116.015 57.7422 115.828 57.5078C115.647 57.2734 115.402 57.0843 115.093 56.9405C114.784 56.7967 114.406 56.7248 113.959 56.7248C113.357 56.7248 112.851 56.8553 112.44 57.1163C112.036 57.3773 111.836 57.7156 111.841 58.131C111.836 58.4879 111.966 58.7782 112.233 59.002C112.504 59.2257 112.952 59.4094 113.575 59.5533L115.668 60.0007C116.83 60.2511 117.693 60.6479 118.257 61.1912C118.827 61.7346 119.115 62.4457 119.12 63.3246C119.115 64.0969 118.888 64.7788 118.441 65.37C117.999 65.956 117.384 66.4141 116.595 66.7443C115.807 67.0746 114.901 67.2397 113.879 67.2397C112.377 67.2397 111.167 66.9254 110.251 66.2969C109.335 65.663 108.789 64.7814 108.613 63.6522L111.434 63.3805C111.562 63.9345 111.833 64.3526 112.249 64.6349C112.664 64.9173 113.205 65.0584 113.871 65.0584C114.558 65.0584 115.109 64.9173 115.525 64.6349C115.945 64.3526 116.156 64.0037 116.156 63.5882C116.156 63.2367 116.02 62.9464 115.748 62.7173C115.482 62.4883 115.067 62.3125 114.502 62.19L112.409 61.7505C111.231 61.5055 110.36 61.0927 109.796 60.5121C109.231 59.9261 108.951 59.1857 108.957 58.2908C108.951 57.5344 109.157 56.8793 109.572 56.3253C109.993 55.766 110.576 55.3345 111.322 55.0309C112.073 54.7219 112.939 54.5675 113.919 54.5675C115.357 54.5675 116.489 54.8738 117.314 55.4863C118.145 56.0989 118.659 56.9272 118.856 57.9712Z" fill="#091F5B"/>
<path d="M255.938 57.7685C254.493 57.7685 253.262 57.3754 252.246 56.5891C251.23 55.7965 250.453 54.6491 249.916 53.147C249.379 51.6385 249.111 49.8168 249.111 47.6818C249.111 45.5597 249.379 43.7475 249.916 42.2454C250.46 40.7369 251.239 39.5863 252.256 38.7937C253.278 37.9947 254.506 37.5952 255.938 37.5952C257.369 37.5952 258.593 37.9947 259.61 38.7937C260.632 39.5863 261.412 40.7369 261.949 42.2454C262.493 43.7475 262.764 45.5597 262.764 47.6818C262.764 49.8168 262.496 51.6385 261.959 53.147C261.422 54.6491 260.645 55.7965 259.629 56.5891C258.613 57.3754 257.382 57.7685 255.938 57.7685ZM255.938 55.6591C257.369 55.6591 258.482 54.9687 259.274 53.5881C260.067 52.2074 260.463 50.2386 260.463 47.6818C260.463 45.9815 260.281 44.5337 259.917 43.3384C259.559 42.1431 259.041 41.2322 258.363 40.6058C257.692 39.9794 256.884 39.6662 255.938 39.6662C254.518 39.6662 253.409 40.3661 252.61 41.766C251.811 43.1594 251.412 45.1314 251.412 47.6818C251.412 49.3821 251.591 50.8267 251.949 52.0156C252.307 53.2045 252.821 54.109 253.493 54.729C254.17 55.3491 254.985 55.6591 255.938 55.6591ZM265.947 53.473V51.517L274.577 37.8636H275.996V40.8935H275.037L268.517 51.2102V51.3636H280.138V53.473H265.947ZM275.19 57.5V52.8786V51.9677V37.8636H277.453V57.5H275.19Z" fill="#091F5B"/>
<path d="M19.5852 289V275.909H27.4858V277.315H21.1705V281.739H27.0767V283.145H21.1705V287.594H27.5881V289H19.5852ZM30.7235 279.182L33.0758 283.196L35.428 279.182H37.1667L33.9962 284.091L37.1667 289H35.428L33.0758 285.19L30.7235 289H28.9849L32.1042 284.091L28.9849 279.182H30.7235ZM38.7792 292.682V279.182H40.2366V280.741H40.4156C40.5264 280.571 40.6798 280.354 40.8758 280.089C41.0761 279.821 41.3616 279.582 41.7323 279.374C42.1073 279.161 42.6144 279.054 43.2536 279.054C44.0803 279.054 44.809 279.261 45.4397 279.674C46.0704 280.087 46.5626 280.673 46.9163 281.432C47.27 282.19 47.4468 283.085 47.4468 284.116C47.4468 285.156 47.27 286.058 46.9163 286.82C46.5626 287.579 46.0725 288.167 45.4461 288.585C44.8197 288.998 44.0974 289.205 43.2792 289.205C42.6485 289.205 42.1435 289.1 41.7643 288.891C41.385 288.678 41.0931 288.437 40.8886 288.169C40.684 287.896 40.5264 287.67 40.4156 287.491H40.2877V292.682H38.7792ZM40.2622 284.091C40.2622 284.832 40.3708 285.487 40.5881 286.053C40.8055 286.616 41.1229 287.057 41.5406 287.376C41.9582 287.692 42.4695 287.849 43.0747 287.849C43.7053 287.849 44.2316 287.683 44.6535 287.351C45.0796 287.014 45.3992 286.562 45.6123 285.996C45.8296 285.425 45.9383 284.79 45.9383 284.091C45.9383 283.401 45.8318 282.778 45.6187 282.224C45.4099 281.666 45.0924 281.225 44.6663 280.901C44.2444 280.573 43.7139 280.409 43.0747 280.409C42.461 280.409 41.9454 280.565 41.5278 280.876C41.1102 281.183 40.7948 281.613 40.5818 282.167C40.3687 282.717 40.2622 283.358 40.2622 284.091ZM53.3244 289.205C52.3784 289.205 51.5624 288.996 50.8763 288.578C50.1945 288.156 49.6682 287.568 49.2974 286.814C48.931 286.055 48.7477 285.173 48.7477 284.168C48.7477 283.162 48.931 282.276 49.2974 281.509C49.6682 280.737 50.1838 280.136 50.8443 279.706C51.5091 279.271 52.2847 279.054 53.171 279.054C53.6824 279.054 54.1874 279.139 54.6859 279.31C55.1845 279.48 55.6383 279.757 56.0474 280.141C56.4565 280.52 56.7825 281.023 57.0254 281.649C57.2683 282.276 57.3898 283.047 57.3898 283.963V284.602H49.8216V283.298H55.8557C55.8557 282.744 55.7449 282.25 55.5233 281.815C55.306 281.381 54.9949 281.038 54.59 280.786C54.1895 280.535 53.7165 280.409 53.171 280.409C52.5702 280.409 52.0503 280.558 51.6114 280.857C51.1767 281.151 50.8422 281.534 50.6078 282.007C50.3734 282.48 50.2562 282.987 50.2562 283.528V284.398C50.2562 285.139 50.3841 285.768 50.6398 286.283C50.8997 286.795 51.2598 287.185 51.72 287.453C52.1802 287.717 52.715 287.849 53.3244 287.849C53.7207 287.849 54.0787 287.794 54.3983 287.683C54.7222 287.568 55.0013 287.398 55.2356 287.172C55.47 286.942 55.6511 286.656 55.779 286.315L57.2364 286.724C57.0829 287.219 56.8251 287.653 56.4629 288.028C56.1007 288.399 55.6533 288.689 55.1206 288.898C54.5879 289.102 53.9892 289.205 53.3244 289.205ZM59.1445 289V279.182H60.6019V280.665H60.7042C60.8831 280.179 61.207 279.785 61.6758 279.482C62.1445 279.18 62.6729 279.028 63.261 279.028C63.3718 279.028 63.5103 279.031 63.6765 279.035C63.8427 279.039 63.9684 279.045 64.0536 279.054V280.588C64.0025 280.575 63.8853 280.556 63.702 280.531C63.5231 280.501 63.3334 280.486 63.1331 280.486C62.6559 280.486 62.2297 280.586 61.8547 280.786C61.484 280.982 61.19 281.255 60.9726 281.604C60.7596 281.95 60.653 282.344 60.653 282.787V289H59.1445ZM70.1869 279.182V280.46H65.0988V279.182H70.1869ZM66.5818 276.83H68.0903V286.188C68.0903 286.614 68.1521 286.933 68.2757 287.146C68.4035 287.355 68.5654 287.496 68.7615 287.568C68.9618 287.636 69.1727 287.67 69.3943 287.67C69.5605 287.67 69.6968 287.662 69.8034 287.645C69.9099 287.624 69.9951 287.607 70.0591 287.594L70.3659 288.949C70.2636 288.987 70.1208 289.026 69.9376 289.064C69.7544 289.107 69.5221 289.128 69.2409 289.128C68.8147 289.128 68.3971 289.036 67.988 288.853C67.5832 288.67 67.2466 288.391 66.9781 288.016C66.7139 287.641 66.5818 287.168 66.5818 286.597V276.83ZM76.4386 289V279.182H77.896V280.665H77.9982C78.1772 280.179 78.5011 279.785 78.9698 279.482C79.4386 279.18 79.967 279.028 80.5551 279.028C80.6658 279.028 80.8043 279.031 80.9705 279.035C81.1367 279.039 81.2624 279.045 81.3477 279.054V280.588C81.2965 280.575 81.1793 280.556 80.9961 280.531C80.8171 280.501 80.6275 280.486 80.4272 280.486C79.9499 280.486 79.5238 280.586 79.1488 280.786C78.7781 280.982 78.484 281.255 78.2667 281.604C78.0536 281.95 77.9471 282.344 77.9471 282.787V289H76.4386ZM82.5958 289V279.182H84.1044V289H82.5958ZM83.3629 277.545C83.0688 277.545 82.8153 277.445 82.6022 277.245C82.3934 277.045 82.289 276.804 82.289 276.523C82.289 276.241 82.3934 276.001 82.6022 275.8C82.8153 275.6 83.0688 275.5 83.3629 275.5C83.6569 275.5 83.9083 275.6 84.1171 275.8C84.3302 276.001 84.4367 276.241 84.4367 276.523C84.4367 276.804 84.3302 277.045 84.1171 277.245C83.9083 277.445 83.6569 277.545 83.3629 277.545ZM93.2819 281.381L91.9268 281.764C91.8415 281.538 91.7158 281.319 91.5496 281.106C91.3877 280.888 91.1661 280.71 90.8849 280.569C90.6036 280.428 90.2435 280.358 89.8046 280.358C89.2037 280.358 88.703 280.496 88.3025 280.773C87.9062 281.046 87.708 281.393 87.708 281.815C87.708 282.19 87.8444 282.487 88.1171 282.704C88.3898 282.921 88.816 283.102 89.3955 283.247L90.8529 283.605C91.7307 283.818 92.3849 284.144 92.8152 284.583C93.2456 285.018 93.4608 285.578 93.4608 286.264C93.4608 286.827 93.2989 287.33 92.975 287.773C92.6554 288.216 92.208 288.565 91.6327 288.821C91.0574 289.077 90.3884 289.205 89.6256 289.205C88.6242 289.205 87.7954 288.987 87.1391 288.553C86.4829 288.118 86.0674 287.483 85.8927 286.648L87.3245 286.29C87.4608 286.818 87.7187 287.214 88.0979 287.479C88.4814 287.743 88.9822 287.875 89.6 287.875C90.3032 287.875 90.8614 287.726 91.2748 287.428C91.6924 287.125 91.9012 286.763 91.9012 286.341C91.9012 286 91.7819 285.714 91.5432 285.484C91.3046 285.25 90.9381 285.075 90.4438 284.96L88.8074 284.577C87.9083 284.364 87.2478 284.033 86.8259 283.586C86.4083 283.134 86.1995 282.57 86.1995 281.892C86.1995 281.338 86.355 280.848 86.6661 280.422C86.9814 279.996 87.4097 279.661 87.9509 279.418C88.4964 279.175 89.1143 279.054 89.8046 279.054C90.7762 279.054 91.539 279.267 92.0929 279.693C92.6512 280.119 93.0475 280.682 93.2819 281.381ZM96.5979 285.42L96.5723 283.554H96.8791L101.175 279.182H103.041L98.4643 283.81H98.3365L96.5979 285.42ZM95.1916 289V275.909H96.7001V289H95.1916ZM101.43 289L97.595 284.142L98.6689 283.094L103.348 289H101.43ZM111.854 289.23C111.232 289.23 110.668 289.113 110.16 288.879C109.653 288.64 109.251 288.297 108.952 287.849C108.654 287.398 108.505 286.852 108.505 286.213C108.505 285.651 108.616 285.195 108.837 284.845C109.059 284.491 109.355 284.214 109.726 284.014C110.097 283.814 110.506 283.665 110.953 283.567C111.405 283.464 111.859 283.384 112.315 283.324C112.911 283.247 113.395 283.19 113.766 283.151C114.141 283.109 114.413 283.038 114.584 282.94C114.758 282.842 114.846 282.672 114.846 282.429V282.378C114.846 281.747 114.673 281.257 114.328 280.908C113.987 280.558 113.469 280.384 112.775 280.384C112.055 280.384 111.49 280.541 111.081 280.857C110.672 281.172 110.384 281.509 110.218 281.866L108.786 281.355C109.042 280.759 109.383 280.294 109.809 279.962C110.239 279.625 110.708 279.391 111.215 279.259C111.726 279.122 112.229 279.054 112.724 279.054C113.039 279.054 113.401 279.092 113.81 279.169C114.224 279.241 114.622 279.393 115.006 279.623C115.393 279.853 115.715 280.2 115.971 280.665C116.226 281.129 116.354 281.751 116.354 282.531V289H114.846V287.67H114.769C114.667 287.884 114.496 288.112 114.258 288.354C114.019 288.597 113.702 288.804 113.305 288.974C112.909 289.145 112.425 289.23 111.854 289.23ZM112.084 287.875C112.681 287.875 113.184 287.758 113.593 287.523C114.006 287.289 114.317 286.987 114.526 286.616C114.739 286.245 114.846 285.855 114.846 285.446V284.065C114.782 284.142 114.641 284.212 114.424 284.276C114.211 284.336 113.964 284.389 113.682 284.436C113.405 284.479 113.135 284.517 112.871 284.551C112.611 284.581 112.4 284.607 112.238 284.628C111.846 284.679 111.479 284.762 111.138 284.877C110.802 284.988 110.529 285.156 110.32 285.382C110.116 285.604 110.013 285.906 110.013 286.29C110.013 286.814 110.207 287.21 110.595 287.479C110.987 287.743 111.484 287.875 112.084 287.875ZM125.522 281.381L124.167 281.764C124.082 281.538 123.956 281.319 123.79 281.106C123.628 280.888 123.406 280.71 123.125 280.569C122.844 280.428 122.484 280.358 122.045 280.358C121.444 280.358 120.943 280.496 120.543 280.773C120.147 281.046 119.948 281.393 119.948 281.815C119.948 282.19 120.085 282.487 120.357 282.704C120.63 282.921 121.056 283.102 121.636 283.247L123.093 283.605C123.971 283.818 124.625 284.144 125.056 284.583C125.486 285.018 125.701 285.578 125.701 286.264C125.701 286.827 125.539 287.33 125.215 287.773C124.896 288.216 124.448 288.565 123.873 288.821C123.298 289.077 122.629 289.205 121.866 289.205C120.865 289.205 120.036 288.987 119.38 288.553C118.723 288.118 118.308 287.483 118.133 286.648L119.565 286.29C119.701 286.818 119.959 287.214 120.338 287.479C120.722 287.743 121.223 287.875 121.84 287.875C122.544 287.875 123.102 287.726 123.515 287.428C123.933 287.125 124.142 286.763 124.142 286.341C124.142 286 124.022 285.714 123.784 285.484C123.545 285.25 123.179 285.075 122.684 284.96L121.048 284.577C120.149 284.364 119.488 284.033 119.066 283.586C118.649 283.134 118.44 282.57 118.44 281.892C118.44 281.338 118.595 280.848 118.906 280.422C119.222 279.996 119.65 279.661 120.191 279.418C120.737 279.175 121.355 279.054 122.045 279.054C123.017 279.054 123.779 279.267 124.333 279.693C124.892 280.119 125.288 280.682 125.522 281.381ZM134.387 281.381L133.031 281.764C132.946 281.538 132.821 281.319 132.654 281.106C132.492 280.888 132.271 280.71 131.99 280.569C131.708 280.428 131.348 280.358 130.909 280.358C130.308 280.358 129.808 280.496 129.407 280.773C129.011 281.046 128.813 281.393 128.813 281.815C128.813 282.19 128.949 282.487 129.222 282.704C129.495 282.921 129.921 283.102 130.5 283.247L131.958 283.605C132.835 283.818 133.49 284.144 133.92 284.583C134.35 285.018 134.566 285.578 134.566 286.264C134.566 286.827 134.404 287.33 134.08 287.773C133.76 288.216 133.313 288.565 132.737 288.821C132.162 289.077 131.493 289.205 130.73 289.205C129.729 289.205 128.9 288.987 128.244 288.553C127.588 288.118 127.172 287.483 126.997 286.648L128.429 286.29C128.566 286.818 128.823 287.214 129.203 287.479C129.586 287.743 130.087 287.875 130.705 287.875C131.408 287.875 131.966 287.726 132.379 287.428C132.797 287.125 133.006 286.763 133.006 286.341C133.006 286 132.887 285.714 132.648 285.484C132.409 285.25 132.043 285.075 131.548 284.96L129.912 284.577C129.013 284.364 128.352 284.033 127.931 283.586C127.513 283.134 127.304 282.57 127.304 281.892C127.304 281.338 127.46 280.848 127.771 280.422C128.086 279.996 128.514 279.661 129.056 279.418C129.601 279.175 130.219 279.054 130.909 279.054C131.881 279.054 132.644 279.267 133.198 279.693C133.756 280.119 134.152 280.682 134.387 281.381ZM140.413 289.205C139.467 289.205 138.651 288.996 137.965 288.578C137.283 288.156 136.757 287.568 136.386 286.814C136.019 286.055 135.836 285.173 135.836 284.168C135.836 283.162 136.019 282.276 136.386 281.509C136.757 280.737 137.272 280.136 137.933 279.706C138.597 279.271 139.373 279.054 140.259 279.054C140.771 279.054 141.276 279.139 141.774 279.31C142.273 279.48 142.727 279.757 143.136 280.141C143.545 280.52 143.871 281.023 144.114 281.649C144.357 282.276 144.478 283.047 144.478 283.963V284.602H136.91V283.298H142.944C142.944 282.744 142.833 282.25 142.612 281.815C142.394 281.381 142.083 281.038 141.678 280.786C141.278 280.535 140.805 280.409 140.259 280.409C139.659 280.409 139.139 280.558 138.7 280.857C138.265 281.151 137.931 281.534 137.696 282.007C137.462 282.48 137.345 282.987 137.345 283.528V284.398C137.345 285.139 137.472 285.768 137.728 286.283C137.988 286.795 138.348 287.185 138.808 287.453C139.269 287.717 139.803 287.849 140.413 287.849C140.809 287.849 141.167 287.794 141.487 287.683C141.811 287.568 142.09 287.398 142.324 287.172C142.558 286.942 142.739 286.656 142.867 286.315L144.325 286.724C144.171 287.219 143.913 287.653 143.551 288.028C143.189 288.399 142.742 288.689 142.209 288.898C141.676 289.102 141.078 289.205 140.413 289.205ZM153.187 281.381L151.832 281.764C151.747 281.538 151.621 281.319 151.455 281.106C151.293 280.888 151.072 280.71 150.79 280.569C150.509 280.428 150.149 280.358 149.71 280.358C149.109 280.358 148.609 280.496 148.208 280.773C147.812 281.046 147.614 281.393 147.614 281.815C147.614 282.19 147.75 282.487 148.023 282.704C148.295 282.921 148.722 283.102 149.301 283.247L150.758 283.605C151.636 283.818 152.29 284.144 152.721 284.583C153.151 285.018 153.366 285.578 153.366 286.264C153.366 286.827 153.204 287.33 152.881 287.773C152.561 288.216 152.114 288.565 151.538 288.821C150.963 289.077 150.294 289.205 149.531 289.205C148.53 289.205 147.701 288.987 147.045 288.553C146.388 288.118 145.973 287.483 145.798 286.648L147.23 286.29C147.366 286.818 147.624 287.214 148.003 287.479C148.387 287.743 148.888 287.875 149.506 287.875C150.209 287.875 150.767 287.726 151.18 287.428C151.598 287.125 151.807 286.763 151.807 286.341C151.807 286 151.687 285.714 151.449 285.484C151.21 285.25 150.844 285.075 150.349 284.96L148.713 284.577C147.814 284.364 147.153 284.033 146.731 283.586C146.314 283.134 146.105 282.57 146.105 281.892C146.105 281.338 146.261 280.848 146.572 280.422C146.887 279.996 147.315 279.661 147.856 279.418C148.402 279.175 149.02 279.054 149.71 279.054C150.682 279.054 151.445 279.267 151.998 279.693C152.557 280.119 152.953 280.682 153.187 281.381ZM162.052 281.381L160.697 281.764C160.611 281.538 160.486 281.319 160.319 281.106C160.158 280.888 159.936 280.71 159.655 280.569C159.373 280.428 159.013 280.358 158.574 280.358C157.974 280.358 157.473 280.496 157.072 280.773C156.676 281.046 156.478 281.393 156.478 281.815C156.478 282.19 156.614 282.487 156.887 282.704C157.16 282.921 157.586 283.102 158.165 283.247L159.623 283.605C160.501 283.818 161.155 284.144 161.585 284.583C162.015 285.018 162.231 285.578 162.231 286.264C162.231 286.827 162.069 287.33 161.745 287.773C161.425 288.216 160.978 288.565 160.403 288.821C159.827 289.077 159.158 289.205 158.395 289.205C157.394 289.205 156.565 288.987 155.909 288.553C155.253 288.118 154.837 287.483 154.662 286.648L156.094 286.29C156.231 286.818 156.488 287.214 156.868 287.479C157.251 287.743 157.752 287.875 158.37 287.875C159.073 287.875 159.631 287.726 160.045 287.428C160.462 287.125 160.671 286.763 160.671 286.341C160.671 286 160.552 285.714 160.313 285.484C160.074 285.25 159.708 285.075 159.214 284.96L157.577 284.577C156.678 284.364 156.018 284.033 155.596 283.586C155.178 283.134 154.969 282.57 154.969 281.892C154.969 281.338 155.125 280.848 155.436 280.422C155.751 279.996 156.18 279.661 156.721 279.418C157.266 279.175 157.884 279.054 158.574 279.054C159.546 279.054 160.309 279.267 160.863 279.693C161.421 280.119 161.817 280.682 162.052 281.381ZM163.961 289V279.182H165.419V280.716H165.547C165.751 280.192 166.081 279.785 166.537 279.495C166.993 279.201 167.541 279.054 168.18 279.054C168.828 279.054 169.367 279.201 169.797 279.495C170.232 279.785 170.571 280.192 170.814 280.716H170.916C171.167 280.209 171.545 279.806 172.047 279.508C172.55 279.205 173.153 279.054 173.856 279.054C174.734 279.054 175.452 279.329 176.01 279.879C176.569 280.424 176.848 281.274 176.848 282.429V289H175.339V282.429C175.339 281.705 175.141 281.187 174.745 280.876C174.349 280.565 173.882 280.409 173.345 280.409C172.655 280.409 172.12 280.618 171.741 281.036C171.361 281.449 171.172 281.973 171.172 282.608V289H169.638V282.276C169.638 281.717 169.456 281.268 169.094 280.927C168.732 280.582 168.265 280.409 167.694 280.409C167.302 280.409 166.936 280.513 166.595 280.722C166.258 280.931 165.986 281.221 165.777 281.592C165.572 281.958 165.47 282.382 165.47 282.864V289H163.961ZM183.182 289.205C182.236 289.205 181.42 288.996 180.734 288.578C180.053 288.156 179.526 287.568 179.155 286.814C178.789 286.055 178.606 285.173 178.606 284.168C178.606 283.162 178.789 282.276 179.155 281.509C179.526 280.737 180.042 280.136 180.702 279.706C181.367 279.271 182.143 279.054 183.029 279.054C183.54 279.054 184.045 279.139 184.544 279.31C185.043 279.48 185.496 279.757 185.905 280.141C186.315 280.52 186.641 281.023 186.883 281.649C187.126 282.276 187.248 283.047 187.248 283.963V284.602H179.68V283.298H185.714C185.714 282.744 185.603 282.25 185.381 281.815C185.164 281.381 184.853 281.038 184.448 280.786C184.048 280.535 183.575 280.409 183.029 280.409C182.428 280.409 181.908 280.558 181.469 280.857C181.035 281.151 180.7 281.534 180.466 282.007C180.231 282.48 180.114 282.987 180.114 283.528V284.398C180.114 285.139 180.242 285.768 180.498 286.283C180.758 286.795 181.118 287.185 181.578 287.453C182.038 287.717 182.573 287.849 183.182 287.849C183.579 287.849 183.937 287.794 184.256 287.683C184.58 287.568 184.859 287.398 185.094 287.172C185.328 286.942 185.509 286.656 185.637 286.315L187.094 286.724C186.941 287.219 186.683 287.653 186.321 288.028C185.959 288.399 185.511 288.689 184.979 288.898C184.446 289.102 183.847 289.205 183.182 289.205ZM190.511 283.094V289H189.003V279.182H190.46V280.716H190.588C190.818 280.217 191.167 279.817 191.636 279.514C192.105 279.207 192.71 279.054 193.451 279.054C194.116 279.054 194.698 279.19 195.196 279.463C195.695 279.732 196.083 280.141 196.36 280.69C196.637 281.236 196.775 281.926 196.775 282.761V289H195.267V282.864C195.267 282.092 195.066 281.491 194.666 281.061C194.265 280.626 193.716 280.409 193.017 280.409C192.535 280.409 192.105 280.513 191.726 280.722C191.351 280.931 191.054 281.236 190.837 281.636C190.62 282.037 190.511 282.523 190.511 283.094ZM203.262 279.182V280.46H198.174V279.182H203.262ZM199.657 276.83H201.165V286.188C201.165 286.614 201.227 286.933 201.351 287.146C201.478 287.355 201.64 287.496 201.836 287.568C202.037 287.636 202.248 287.67 202.469 287.67C202.635 287.67 202.772 287.662 202.878 287.645C202.985 287.624 203.07 287.607 203.134 287.594L203.441 288.949C203.338 288.987 203.196 289.026 203.012 289.064C202.829 289.107 202.597 289.128 202.316 289.128C201.89 289.128 201.472 289.036 201.063 288.853C200.658 288.67 200.321 288.391 200.053 288.016C199.789 287.641 199.657 287.168 199.657 286.597V276.83ZM211.77 281.381L210.415 281.764C210.329 281.538 210.204 281.319 210.037 281.106C209.875 280.888 209.654 280.71 209.373 280.569C209.091 280.428 208.731 280.358 208.292 280.358C207.692 280.358 207.191 280.496 206.79 280.773C206.394 281.046 206.196 281.393 206.196 281.815C206.196 282.19 206.332 282.487 206.605 282.704C206.878 282.921 207.304 283.102 207.883 283.247L209.341 283.605C210.219 283.818 210.873 284.144 211.303 284.583C211.733 285.018 211.949 285.578 211.949 286.264C211.949 286.827 211.787 287.33 211.463 287.773C211.143 288.216 210.696 288.565 210.121 288.821C209.545 289.077 208.876 289.205 208.113 289.205C207.112 289.205 206.283 288.987 205.627 288.553C204.971 288.118 204.555 287.483 204.38 286.648L205.812 286.29C205.949 286.818 206.206 287.214 206.586 287.479C206.969 287.743 207.47 287.875 208.088 287.875C208.791 287.875 209.349 287.726 209.763 287.428C210.18 287.125 210.389 286.763 210.389 286.341C210.389 286 210.27 285.714 210.031 285.484C209.792 285.25 209.426 285.075 208.932 284.96L207.295 284.577C206.396 284.364 205.736 284.033 205.314 283.586C204.896 283.134 204.687 282.57 204.687 281.892C204.687 281.338 204.843 280.848 205.154 280.422C205.469 279.996 205.898 279.661 206.439 279.418C206.984 279.175 207.602 279.054 208.292 279.054C209.264 279.054 210.027 279.267 210.581 279.693C211.139 280.119 211.535 280.682 211.77 281.381ZM215.929 287.21L215.827 287.901C215.755 288.386 215.644 288.906 215.495 289.46C215.35 290.014 215.199 290.536 215.041 291.026C214.883 291.516 214.753 291.906 214.651 292.196H213.5C213.556 291.923 213.628 291.563 213.718 291.116C213.807 290.668 213.897 290.168 213.986 289.614C214.08 289.064 214.157 288.501 214.216 287.926L214.293 287.21H215.929ZM19.3807 311V301.182H20.8381V302.716H20.9659C21.1705 302.192 21.5007 301.785 21.9567 301.495C22.4126 301.201 22.9602 301.054 23.5994 301.054C24.2472 301.054 24.7862 301.201 25.2166 301.495C25.6513 301.785 25.9901 302.192 26.233 302.716H26.3352C26.5866 302.209 26.9638 301.806 27.4666 301.508C27.9695 301.205 28.5724 301.054 29.2756 301.054C30.1534 301.054 30.8714 301.329 31.4297 301.879C31.9879 302.424 32.267 303.274 32.267 304.429V311H30.7585V304.429C30.7585 303.705 30.5604 303.187 30.1641 302.876C29.7678 302.565 29.3011 302.409 28.7642 302.409C28.0739 302.409 27.5391 302.618 27.1598 303.036C26.7805 303.449 26.5909 303.973 26.5909 304.608V311H25.0568V304.276C25.0568 303.717 24.8757 303.268 24.5135 302.927C24.1513 302.582 23.6847 302.409 23.1136 302.409C22.7216 302.409 22.3551 302.513 22.0142 302.722C21.6776 302.931 21.4048 303.221 21.196 303.592C20.9915 303.958 20.8892 304.382 20.8892 304.864V311H19.3807ZM34.4852 311V301.182H35.9937V311H34.4852ZM35.2523 299.545C34.9582 299.545 34.7047 299.445 34.4916 299.245C34.2828 299.045 34.1784 298.804 34.1784 298.523C34.1784 298.241 34.2828 298.001 34.4916 297.8C34.7047 297.6 34.9582 297.5 35.2523 297.5C35.5463 297.5 35.7977 297.6 36.0065 297.8C36.2196 298.001 36.3261 298.241 36.3261 298.523C36.3261 298.804 36.2196 299.045 36.0065 299.245C35.7977 299.445 35.5463 299.545 35.2523 299.545ZM42.4866 301.182V302.46H37.3985V301.182H42.4866ZM38.8815 298.83H40.39V308.188C40.39 308.614 40.4518 308.933 40.5754 309.146C40.7032 309.355 40.8651 309.496 41.0612 309.568C41.2614 309.636 41.4724 309.67 41.694 309.67C41.8602 309.67 41.9965 309.662 42.1031 309.645C42.2096 309.624 42.2948 309.607 42.3587 309.594L42.6656 310.949C42.5633 310.987 42.4205 311.026 42.2373 311.064C42.0541 311.107 41.8218 311.128 41.5406 311.128C41.1144 311.128 40.6968 311.036 40.2877 310.853C39.8829 310.67 39.5462 310.391 39.2778 310.016C39.0136 309.641 38.8815 309.168 38.8815 308.597V298.83ZM44.2158 311V301.182H45.7243V311H44.2158ZM44.9828 299.545C44.6888 299.545 44.4352 299.445 44.2222 299.245C44.0133 299.045 43.9089 298.804 43.9089 298.523C43.9089 298.241 44.0133 298.001 44.2222 297.8C44.4352 297.6 44.6888 297.5 44.9828 297.5C45.2768 297.5 45.5283 297.6 45.7371 297.8C45.9501 298.001 46.0567 298.241 46.0567 298.523C46.0567 298.804 45.9501 299.045 45.7371 299.245C45.5283 299.445 45.2768 299.545 44.9828 299.545ZM51.9103 314.886C51.1816 314.886 50.5552 314.793 50.0311 314.605C49.5069 314.422 49.0701 314.179 48.7207 313.876C48.3755 313.578 48.1007 313.259 47.8961 312.918L49.0978 312.074C49.2342 312.253 49.4068 312.457 49.6156 312.688C49.8244 312.922 50.1099 313.124 50.4721 313.295C50.8386 313.469 51.318 313.557 51.9103 313.557C52.7029 313.557 53.357 313.365 53.8727 312.982C54.3883 312.598 54.6461 311.997 54.6461 311.179V309.185H54.5183C54.4075 309.364 54.2498 309.585 54.0453 309.849C53.845 310.109 53.5552 310.342 53.1759 310.546C52.8009 310.746 52.2938 310.847 51.6546 310.847C50.862 310.847 50.1504 310.659 49.5197 310.284C48.8933 309.909 48.3968 309.364 48.0303 308.648C47.6681 307.932 47.487 307.062 47.487 306.04C47.487 305.034 47.6639 304.158 48.0176 303.413C48.3713 302.663 48.8634 302.083 49.4941 301.674C50.1248 301.261 50.8535 301.054 51.6802 301.054C52.3194 301.054 52.8265 301.161 53.2015 301.374C53.5808 301.582 53.8705 301.821 54.0708 302.089C54.2754 302.354 54.433 302.571 54.5438 302.741H54.6972V301.182H56.1546V311.281C56.1546 312.125 55.9629 312.811 55.5793 313.339C55.2001 313.872 54.6887 314.262 54.0453 314.509C53.4061 314.761 52.6944 314.886 51.9103 314.886ZM51.8592 309.491C52.4643 309.491 52.9757 309.353 53.3933 309.076C53.8109 308.799 54.1284 308.401 54.3457 307.881C54.563 307.361 54.6717 306.739 54.6717 306.014C54.6717 305.307 54.5651 304.683 54.3521 304.141C54.139 303.6 53.8237 303.176 53.4061 302.869C52.9884 302.562 52.4728 302.409 51.8592 302.409C51.22 302.409 50.6873 302.571 50.2612 302.895C49.8393 303.219 49.5218 303.653 49.3088 304.199C49.0999 304.744 48.9955 305.349 48.9955 306.014C48.9955 306.696 49.1021 307.299 49.3151 307.823C49.5325 308.343 49.8521 308.752 50.2739 309.05C50.7001 309.344 51.2285 309.491 51.8592 309.491ZM61.2652 311.23C60.643 311.23 60.0784 311.113 59.5713 310.879C59.0642 310.64 58.6615 310.297 58.3632 309.849C58.0649 309.398 57.9158 308.852 57.9158 308.213C57.9158 307.651 58.0266 307.195 58.2482 306.845C58.4697 306.491 58.7659 306.214 59.1366 306.014C59.5074 305.814 59.9165 305.665 60.3639 305.567C60.8156 305.464 61.2695 305.384 61.7254 305.324C62.322 305.247 62.8057 305.19 63.1764 305.151C63.5514 305.109 63.8241 305.038 63.9946 304.94C64.1693 304.842 64.2567 304.672 64.2567 304.429V304.378C64.2567 303.747 64.0841 303.257 63.7389 302.908C63.398 302.558 62.8803 302.384 62.1857 302.384C61.4655 302.384 60.9009 302.541 60.4918 302.857C60.0827 303.172 59.795 303.509 59.6288 303.866L58.197 303.355C58.4527 302.759 58.7936 302.294 59.2197 301.962C59.6501 301.625 60.1189 301.391 60.626 301.259C61.1374 301.122 61.6402 301.054 62.1345 301.054C62.4499 301.054 62.8121 301.092 63.2212 301.169C63.6345 301.241 64.033 301.393 64.4165 301.623C64.8043 301.853 65.126 302.2 65.3817 302.665C65.6374 303.129 65.7652 303.751 65.7652 304.531V311H64.2567V309.67H64.18C64.0777 309.884 63.9072 310.112 63.6686 310.354C63.43 310.597 63.1125 310.804 62.7162 310.974C62.3199 311.145 61.8362 311.23 61.2652 311.23ZM61.4953 309.875C62.0919 309.875 62.5947 309.758 63.0038 309.523C63.4172 309.289 63.7283 308.987 63.9371 308.616C64.1501 308.245 64.2567 307.855 64.2567 307.446V306.065C64.1928 306.142 64.0521 306.212 63.8348 306.276C63.6217 306.336 63.3746 306.389 63.0933 306.436C62.8163 306.479 62.5457 306.517 62.2815 306.551C62.0216 306.581 61.8107 306.607 61.6487 306.628C61.2567 306.679 60.8902 306.762 60.5493 306.877C60.2126 306.988 59.9399 307.156 59.7311 307.382C59.5266 307.604 59.4243 307.906 59.4243 308.29C59.4243 308.814 59.6182 309.21 60.006 309.479C60.398 309.743 60.8945 309.875 61.4953 309.875ZM72.2485 301.182V302.46H67.1604V301.182H72.2485ZM68.6433 298.83H70.1519V308.188C70.1519 308.614 70.2137 308.933 70.3372 309.146C70.4651 309.355 70.627 309.496 70.823 309.568C71.0233 309.636 71.2343 309.67 71.4558 309.67C71.622 309.67 71.7584 309.662 71.8649 309.645C71.9715 309.624 72.0567 309.607 72.1206 309.594L72.4274 310.949C72.3252 310.987 72.1824 311.026 71.9992 311.064C71.8159 311.107 71.5837 311.128 71.3024 311.128C70.8763 311.128 70.4587 311.036 70.0496 310.853C69.6448 310.67 69.3081 310.391 69.0397 310.016C68.7754 309.641 68.6433 309.168 68.6433 308.597V298.83ZM73.9776 311V301.182H75.4862V311H73.9776ZM74.7447 299.545C74.4506 299.545 74.1971 299.445 73.984 299.245C73.7752 299.045 73.6708 298.804 73.6708 298.523C73.6708 298.241 73.7752 298.001 73.984 297.8C74.1971 297.6 74.4506 297.5 74.7447 297.5C75.0387 297.5 75.2901 297.6 75.4989 297.8C75.712 298.001 75.8185 298.241 75.8185 298.523C75.8185 298.804 75.712 299.045 75.4989 299.245C75.2901 299.445 75.0387 299.545 74.7447 299.545ZM81.6978 311.205C80.8114 311.205 80.0337 310.994 79.3647 310.572C78.6999 310.15 78.18 309.56 77.805 308.801C77.4343 308.043 77.2489 307.156 77.2489 306.142C77.2489 305.119 77.4343 304.227 77.805 303.464C78.18 302.701 78.6999 302.109 79.3647 301.687C80.0337 301.265 80.8114 301.054 81.6978 301.054C82.5841 301.054 83.3597 301.265 84.0245 301.687C84.6935 302.109 85.2134 302.701 85.5841 303.464C85.9591 304.227 86.1466 305.119 86.1466 306.142C86.1466 307.156 85.9591 308.043 85.5841 308.801C85.2134 309.56 84.6935 310.15 84.0245 310.572C83.3597 310.994 82.5841 311.205 81.6978 311.205ZM81.6978 309.849C82.3711 309.849 82.925 309.677 83.3597 309.332C83.7943 308.987 84.1161 308.533 84.3249 307.97C84.5337 307.408 84.6381 306.798 84.6381 306.142C84.6381 305.486 84.5337 304.874 84.3249 304.308C84.1161 303.741 83.7943 303.283 83.3597 302.933C82.925 302.584 82.3711 302.409 81.6978 302.409C81.0245 302.409 80.4705 302.584 80.0358 302.933C79.6012 303.283 79.2794 303.741 79.0706 304.308C78.8618 304.874 78.7574 305.486 78.7574 306.142C78.7574 306.798 78.8618 307.408 79.0706 307.97C79.2794 308.533 79.6012 308.987 80.0358 309.332C80.4705 309.677 81.0245 309.849 81.6978 309.849ZM89.4179 305.094V311H87.9094V301.182H89.3667V302.716H89.4946C89.7247 302.217 90.0741 301.817 90.5429 301.514C91.0116 301.207 91.6167 301.054 92.3582 301.054C93.023 301.054 93.6047 301.19 94.1032 301.463C94.6018 301.732 94.9896 302.141 95.2666 302.69C95.5436 303.236 95.6821 303.926 95.6821 304.761V311H94.1736V304.864C94.1736 304.092 93.9733 303.491 93.5727 303.061C93.1721 302.626 92.6224 302.409 91.9236 302.409C91.442 302.409 91.0116 302.513 90.6324 302.722C90.2574 302.931 89.9612 303.236 89.7439 303.636C89.5265 304.037 89.4179 304.523 89.4179 305.094ZM102.421 314.682V301.182H103.879V302.741H104.058C104.168 302.571 104.322 302.354 104.518 302.089C104.718 301.821 105.004 301.582 105.374 301.374C105.749 301.161 106.256 301.054 106.896 301.054C107.722 301.054 108.451 301.261 109.082 301.674C109.712 302.087 110.205 302.673 110.558 303.432C110.912 304.19 111.089 305.085 111.089 306.116C111.089 307.156 110.912 308.058 110.558 308.82C110.205 309.579 109.714 310.167 109.088 310.585C108.462 310.998 107.739 311.205 106.921 311.205C106.29 311.205 105.785 311.1 105.406 310.891C105.027 310.678 104.735 310.437 104.531 310.169C104.326 309.896 104.168 309.67 104.058 309.491H103.93V314.682H102.421ZM103.904 306.091C103.904 306.832 104.013 307.487 104.23 308.053C104.447 308.616 104.765 309.057 105.183 309.376C105.6 309.692 106.111 309.849 106.717 309.849C107.347 309.849 107.874 309.683 108.295 309.351C108.722 309.014 109.041 308.562 109.254 307.996C109.472 307.425 109.58 306.79 109.58 306.091C109.58 305.401 109.474 304.778 109.261 304.224C109.052 303.666 108.734 303.225 108.308 302.901C107.886 302.573 107.356 302.409 106.717 302.409C106.103 302.409 105.587 302.565 105.17 302.876C104.752 303.183 104.437 303.613 104.224 304.167C104.011 304.717 103.904 305.358 103.904 306.091ZM114.358 297.909V311H112.85V297.909H114.358ZM119.471 311.23C118.848 311.23 118.284 311.113 117.777 310.879C117.27 310.64 116.867 310.297 116.569 309.849C116.27 309.398 116.121 308.852 116.121 308.213C116.121 307.651 116.232 307.195 116.454 306.845C116.675 306.491 116.971 306.214 117.342 306.014C117.713 305.814 118.122 305.665 118.569 305.567C119.021 305.464 119.475 305.384 119.931 305.324C120.527 305.247 121.011 305.19 121.382 305.151C121.757 305.109 122.03 305.038 122.2 304.94C122.375 304.842 122.462 304.672 122.462 304.429V304.378C122.462 303.747 122.289 303.257 121.944 302.908C121.603 302.558 121.086 302.384 120.391 302.384C119.671 302.384 119.106 302.541 118.697 302.857C118.288 303.172 118 303.509 117.834 303.866L116.402 303.355C116.658 302.759 116.999 302.294 117.425 301.962C117.856 301.625 118.324 301.391 118.831 301.259C119.343 301.122 119.846 301.054 120.34 301.054C120.655 301.054 121.017 301.092 121.427 301.169C121.84 301.241 122.238 301.393 122.622 301.623C123.01 301.853 123.331 302.2 123.587 302.665C123.843 303.129 123.971 303.751 123.971 304.531V311H122.462V309.67H122.385C122.283 309.884 122.113 310.112 121.874 310.354C121.635 310.597 121.318 310.804 120.922 310.974C120.525 311.145 120.042 311.23 119.471 311.23ZM119.701 309.875C120.297 309.875 120.8 309.758 121.209 309.523C121.623 309.289 121.934 308.987 122.142 308.616C122.356 308.245 122.462 307.855 122.462 307.446V306.065C122.398 306.142 122.258 306.212 122.04 306.276C121.827 306.336 121.58 306.389 121.299 306.436C121.022 306.479 120.751 306.517 120.487 306.551C120.227 306.581 120.016 306.607 119.854 306.628C119.462 306.679 119.096 306.762 118.755 306.877C118.418 306.988 118.145 307.156 117.937 307.382C117.732 307.604 117.63 307.906 117.63 308.29C117.63 308.814 117.824 309.21 118.211 309.479C118.603 309.743 119.1 309.875 119.701 309.875ZM127.692 305.094V311H126.184V301.182H127.641V302.716H127.769C127.999 302.217 128.349 301.817 128.817 301.514C129.286 301.207 129.891 301.054 130.633 301.054C131.298 301.054 131.879 301.19 132.378 301.463C132.876 301.732 133.264 302.141 133.541 302.69C133.818 303.236 133.957 303.926 133.957 304.761V311H132.448V304.864C132.448 304.092 132.248 303.491 131.847 303.061C131.447 302.626 130.897 302.409 130.198 302.409C129.717 302.409 129.286 302.513 128.907 302.722C128.532 302.931 128.236 303.236 128.018 303.636C127.801 304.037 127.692 304.523 127.692 305.094ZM143.128 303.381L141.773 303.764C141.687 303.538 141.562 303.319 141.396 303.106C141.234 302.888 141.012 302.71 140.731 302.569C140.45 302.428 140.089 302.358 139.651 302.358C139.05 302.358 138.549 302.496 138.148 302.773C137.752 303.046 137.554 303.393 137.554 303.815C137.554 304.19 137.69 304.487 137.963 304.704C138.236 304.921 138.662 305.102 139.241 305.247L140.699 305.605C141.577 305.818 142.231 306.144 142.661 306.583C143.092 307.018 143.307 307.578 143.307 308.264C143.307 308.827 143.145 309.33 142.821 309.773C142.501 310.216 142.054 310.565 141.479 310.821C140.903 311.077 140.234 311.205 139.472 311.205C138.47 311.205 137.641 310.987 136.985 310.553C136.329 310.118 135.913 309.483 135.739 308.648L137.17 308.29C137.307 308.818 137.565 309.214 137.944 309.479C138.327 309.743 138.828 309.875 139.446 309.875C140.149 309.875 140.707 309.726 141.121 309.428C141.538 309.125 141.747 308.763 141.747 308.341C141.747 308 141.628 307.714 141.389 307.484C141.151 307.25 140.784 307.075 140.29 306.96L138.653 306.577C137.754 306.364 137.094 306.033 136.672 305.586C136.254 305.134 136.045 304.57 136.045 303.892C136.045 303.338 136.201 302.848 136.512 302.422C136.827 301.996 137.256 301.661 137.797 301.418C138.342 301.175 138.96 301.054 139.651 301.054C140.622 301.054 141.385 301.267 141.939 301.693C142.497 302.119 142.893 302.682 143.128 303.381ZM153.267 311.179C152.407 311.179 151.665 311.021 151.043 310.706C150.421 310.391 149.941 309.958 149.605 309.408C149.268 308.859 149.1 308.23 149.1 307.523C149.1 306.977 149.215 306.494 149.445 306.072C149.679 305.646 150.001 305.251 150.41 304.889C150.824 304.523 151.299 304.156 151.836 303.79L153.728 302.384C154.098 302.141 154.395 301.881 154.616 301.604C154.842 301.327 154.955 300.964 154.955 300.517C154.955 300.185 154.808 299.863 154.514 299.552C154.224 299.241 153.843 299.085 153.37 299.085C153.037 299.085 152.743 299.17 152.488 299.341C152.236 299.507 152.038 299.72 151.893 299.98C151.753 300.236 151.682 300.5 151.682 300.773C151.682 301.08 151.765 301.391 151.931 301.706C152.102 302.017 152.317 302.337 152.577 302.665C152.841 302.989 153.114 303.321 153.395 303.662L159.404 311H157.588L152.628 305.017C152.168 304.463 151.75 303.96 151.375 303.509C151 303.057 150.702 302.612 150.481 302.173C150.259 301.734 150.148 301.259 150.148 300.747C150.148 300.159 150.278 299.643 150.538 299.2C150.802 298.753 151.171 298.406 151.644 298.158C152.121 297.907 152.679 297.781 153.319 297.781C153.975 297.781 154.539 297.909 155.012 298.165C155.485 298.416 155.85 298.751 156.106 299.168C156.361 299.582 156.489 300.031 156.489 300.517C156.489 301.143 156.333 301.687 156.022 302.147C155.711 302.607 155.287 303.036 154.75 303.432L152.142 305.375C151.554 305.81 151.156 306.232 150.947 306.641C150.738 307.05 150.634 307.344 150.634 307.523C150.634 307.932 150.74 308.313 150.954 308.667C151.167 309.021 151.467 309.306 151.855 309.523C152.243 309.741 152.696 309.849 153.216 309.849C153.711 309.849 154.192 309.745 154.661 309.536C155.13 309.323 155.554 309.016 155.933 308.616C156.316 308.215 156.619 307.734 156.841 307.171C157.066 306.609 157.179 305.976 157.179 305.273H158.637C158.637 306.142 158.537 306.852 158.336 307.401C158.136 307.951 157.91 308.381 157.659 308.692C157.407 309.004 157.205 309.236 157.052 309.389C157 309.453 156.954 309.517 156.911 309.581C156.868 309.645 156.821 309.709 156.77 309.773C156.348 310.246 155.816 310.599 155.172 310.834C154.529 311.064 153.894 311.179 153.267 311.179ZM169.326 301.182V302.46H164.238V301.182H169.326ZM165.721 298.83H167.23V308.188C167.23 308.614 167.291 308.933 167.415 309.146C167.543 309.355 167.705 309.496 167.901 309.568C168.101 309.636 168.312 309.67 168.534 309.67C168.7 309.67 168.836 309.662 168.943 309.645C169.049 309.624 169.134 309.607 169.198 309.594L169.505 310.949C169.403 310.987 169.26 311.026 169.077 311.064C168.894 311.107 168.661 311.128 168.38 311.128C167.954 311.128 167.536 311.036 167.127 310.853C166.722 310.67 166.386 310.391 166.117 310.016C165.853 309.641 165.721 309.168 165.721 308.597V298.83ZM173.944 311.23C173.322 311.23 172.758 311.113 172.251 310.879C171.743 310.64 171.341 310.297 171.043 309.849C170.744 309.398 170.595 308.852 170.595 308.213C170.595 307.651 170.706 307.195 170.927 306.845C171.149 306.491 171.445 306.214 171.816 306.014C172.187 305.814 172.596 305.665 173.043 305.567C173.495 305.464 173.949 305.384 174.405 305.324C175.001 305.247 175.485 305.19 175.856 305.151C176.231 305.109 176.503 305.038 176.674 304.94C176.849 304.842 176.936 304.672 176.936 304.429V304.378C176.936 303.747 176.763 303.257 176.418 302.908C176.077 302.558 175.56 302.384 174.865 302.384C174.145 302.384 173.58 302.541 173.171 302.857C172.762 303.172 172.474 303.509 172.308 303.866L170.876 303.355C171.132 302.759 171.473 302.294 171.899 301.962C172.329 301.625 172.798 301.391 173.305 301.259C173.817 301.122 174.319 301.054 174.814 301.054C175.129 301.054 175.491 301.092 175.9 301.169C176.314 301.241 176.712 301.393 177.096 301.623C177.484 301.853 177.805 302.2 178.061 302.665C178.317 303.129 178.444 303.751 178.444 304.531V311H176.936V309.67H176.859C176.757 309.884 176.587 310.112 176.348 310.354C176.109 310.597 175.792 310.804 175.395 310.974C174.999 311.145 174.516 311.23 173.944 311.23ZM174.175 309.875C174.771 309.875 175.274 309.758 175.683 309.523C176.096 309.289 176.408 308.987 176.616 308.616C176.829 308.245 176.936 307.855 176.936 307.446V306.065C176.872 306.142 176.731 306.212 176.514 306.276C176.301 306.336 176.054 306.389 175.773 306.436C175.496 306.479 175.225 306.517 174.961 306.551C174.701 306.581 174.49 306.607 174.328 306.628C173.936 306.679 173.569 306.762 173.229 306.877C172.892 306.988 172.619 307.156 172.41 307.382C172.206 307.604 172.104 307.906 172.104 308.29C172.104 308.814 172.297 309.21 172.685 309.479C173.077 309.743 173.574 309.875 174.175 309.875ZM180.658 311V301.182H182.166V311H180.658ZM181.425 299.545C181.131 299.545 180.877 299.445 180.664 299.245C180.455 299.045 180.351 298.804 180.351 298.523C180.351 298.241 180.455 298.001 180.664 297.8C180.877 297.6 181.131 297.5 181.425 297.5C181.719 297.5 181.97 297.6 182.179 297.8C182.392 298.001 182.499 298.241 182.499 298.523C182.499 298.804 182.392 299.045 182.179 299.245C181.97 299.445 181.719 299.545 181.425 299.545ZM185.898 297.909V311H184.389V297.909H185.898ZM192.109 311.205C191.223 311.205 190.445 310.994 189.776 310.572C189.112 310.15 188.592 309.56 188.217 308.801C187.846 308.043 187.661 307.156 187.661 306.142C187.661 305.119 187.846 304.227 188.217 303.464C188.592 302.701 189.112 302.109 189.776 301.687C190.445 301.265 191.223 301.054 192.109 301.054C192.996 301.054 193.771 301.265 194.436 301.687C195.105 302.109 195.625 302.701 195.996 303.464C196.371 304.227 196.558 305.119 196.558 306.142C196.558 307.156 196.371 308.043 195.996 308.801C195.625 309.56 195.105 310.15 194.436 310.572C193.771 310.994 192.996 311.205 192.109 311.205ZM192.109 309.849C192.783 309.849 193.337 309.677 193.771 309.332C194.206 308.987 194.528 308.533 194.737 307.97C194.945 307.408 195.05 306.798 195.05 306.142C195.05 305.486 194.945 304.874 194.737 304.308C194.528 303.741 194.206 303.283 193.771 302.933C193.337 302.584 192.783 302.409 192.109 302.409C191.436 302.409 190.882 302.584 190.448 302.933C190.013 303.283 189.691 303.741 189.482 304.308C189.274 304.874 189.169 305.486 189.169 306.142C189.169 306.798 189.274 307.408 189.482 307.97C189.691 308.533 190.013 308.987 190.448 309.332C190.882 309.677 191.436 309.849 192.109 309.849ZM198.321 311V301.182H199.778V302.665H199.881C200.06 302.179 200.384 301.785 200.852 301.482C201.321 301.18 201.849 301.028 202.438 301.028C202.548 301.028 202.687 301.031 202.853 301.035C203.019 301.039 203.145 301.045 203.23 301.054V302.588C203.179 302.575 203.062 302.556 202.879 302.531C202.7 302.501 202.51 302.486 202.31 302.486C201.832 302.486 201.406 302.586 201.031 302.786C200.661 302.982 200.367 303.255 200.149 303.604C199.936 303.95 199.83 304.344 199.83 304.787V311H198.321ZM208.296 311.205C207.35 311.205 206.534 310.996 205.848 310.578C205.166 310.156 204.64 309.568 204.269 308.814C203.903 308.055 203.719 307.173 203.719 306.168C203.719 305.162 203.903 304.276 204.269 303.509C204.64 302.737 205.155 302.136 205.816 301.706C206.481 301.271 207.256 301.054 208.143 301.054C208.654 301.054 209.159 301.139 209.657 301.31C210.156 301.48 210.61 301.757 211.019 302.141C211.428 302.52 211.754 303.023 211.997 303.649C212.24 304.276 212.361 305.047 212.361 305.963V306.602H204.793V305.298H210.827C210.827 304.744 210.716 304.25 210.495 303.815C210.278 303.381 209.966 303.038 209.562 302.786C209.161 302.535 208.688 302.409 208.143 302.409C207.542 302.409 207.022 302.558 206.583 302.857C206.148 303.151 205.814 303.534 205.579 304.007C205.345 304.48 205.228 304.987 205.228 305.528V306.398C205.228 307.139 205.356 307.768 205.611 308.283C205.871 308.795 206.231 309.185 206.692 309.453C207.152 309.717 207.687 309.849 208.296 309.849C208.692 309.849 209.05 309.794 209.37 309.683C209.694 309.568 209.973 309.398 210.207 309.172C210.442 308.942 210.623 308.656 210.751 308.315L212.208 308.724C212.055 309.219 211.797 309.653 211.434 310.028C211.072 310.399 210.625 310.689 210.092 310.898C209.559 311.102 208.961 311.205 208.296 311.205ZM217.823 311.205C217.005 311.205 216.283 310.998 215.657 310.585C215.03 310.167 214.54 309.579 214.186 308.82C213.833 308.058 213.656 307.156 213.656 306.116C213.656 305.085 213.833 304.19 214.186 303.432C214.54 302.673 215.032 302.087 215.663 301.674C216.294 301.261 217.022 301.054 217.849 301.054C218.488 301.054 218.993 301.161 219.364 301.374C219.739 301.582 220.024 301.821 220.22 302.089C220.421 302.354 220.576 302.571 220.687 302.741H220.815V297.909H222.323V311H220.866V309.491H220.687C220.576 309.67 220.419 309.896 220.214 310.169C220.01 310.437 219.718 310.678 219.338 310.891C218.959 311.1 218.454 311.205 217.823 311.205ZM218.028 309.849C218.633 309.849 219.144 309.692 219.562 309.376C219.98 309.057 220.297 308.616 220.515 308.053C220.732 307.487 220.841 306.832 220.841 306.091C220.841 305.358 220.734 304.717 220.521 304.167C220.308 303.613 219.992 303.183 219.575 302.876C219.157 302.565 218.642 302.409 218.028 302.409C217.389 302.409 216.856 302.573 216.43 302.901C216.008 303.225 215.691 303.666 215.478 304.224C215.269 304.778 215.164 305.401 215.164 306.091C215.164 306.79 215.271 307.425 215.484 307.996C215.701 308.562 216.021 309.014 216.443 309.351C216.869 309.683 217.397 309.849 218.028 309.849ZM26.3352 325.381L24.9801 325.764C24.8949 325.538 24.7692 325.319 24.603 325.106C24.4411 324.888 24.2195 324.71 23.9382 324.569C23.657 324.428 23.2969 324.358 22.858 324.358C22.2571 324.358 21.7564 324.496 21.3558 324.773C20.9595 325.046 20.7614 325.393 20.7614 325.815C20.7614 326.19 20.8977 326.487 21.1705 326.704C21.4432 326.921 21.8693 327.102 22.4489 327.247L23.9062 327.605C24.7841 327.818 25.4382 328.144 25.8686 328.583C26.299 329.018 26.5142 329.578 26.5142 330.264C26.5142 330.827 26.3523 331.33 26.0284 331.773C25.7088 332.216 25.2614 332.565 24.6861 332.821C24.1108 333.077 23.4418 333.205 22.679 333.205C21.6776 333.205 20.8487 332.987 20.1925 332.553C19.5362 332.118 19.1207 331.483 18.946 330.648L20.3778 330.29C20.5142 330.818 20.772 331.214 21.1513 331.479C21.5348 331.743 22.0355 331.875 22.6534 331.875C23.3565 331.875 23.9148 331.726 24.3281 331.428C24.7457 331.125 24.9545 330.763 24.9545 330.341C24.9545 330 24.8352 329.714 24.5966 329.484C24.358 329.25 23.9915 329.075 23.4972 328.96L21.8608 328.577C20.9616 328.364 20.3011 328.033 19.8793 327.586C19.4616 327.134 19.2528 326.57 19.2528 325.892C19.2528 325.338 19.4084 324.848 19.7195 324.422C20.0348 323.996 20.4631 323.661 21.0043 323.418C21.5497 323.175 22.1676 323.054 22.858 323.054C23.8295 323.054 24.5923 323.267 25.1463 323.693C25.7045 324.119 26.1009 324.682 26.3352 325.381ZM32.3615 333.205C31.4154 333.205 30.5994 332.996 29.9133 332.578C29.2315 332.156 28.7052 331.568 28.3345 330.814C27.968 330.055 27.7848 329.173 27.7848 328.168C27.7848 327.162 27.968 326.276 28.3345 325.509C28.7052 324.737 29.2208 324.136 29.8813 323.706C30.5461 323.271 31.3217 323.054 32.208 323.054C32.7194 323.054 33.2244 323.139 33.723 323.31C34.2215 323.48 34.6754 323.757 35.0845 324.141C35.4936 324.52 35.8196 325.023 36.0625 325.649C36.3053 326.276 36.4268 327.047 36.4268 327.963V328.602H28.8586V327.298H34.8927C34.8927 326.744 34.7819 326.25 34.5603 325.815C34.343 325.381 34.0319 325.038 33.6271 324.786C33.2265 324.535 32.7535 324.409 32.208 324.409C31.6072 324.409 31.0873 324.558 30.6484 324.857C30.2137 325.151 29.8792 325.534 29.6448 326.007C29.4105 326.48 29.2933 326.987 29.2933 327.528V328.398C29.2933 329.139 29.4211 329.768 29.6768 330.283C29.9367 330.795 30.2968 331.185 30.7571 331.453C31.2173 331.717 31.7521 331.849 32.3615 331.849C32.7578 331.849 33.1157 331.794 33.4353 331.683C33.7592 331.568 34.0383 331.398 34.2727 331.172C34.5071 330.942 34.6882 330.656 34.816 330.315L36.2734 330.724C36.12 331.219 35.8622 331.653 35.5 332.028C35.1377 332.399 34.6903 332.689 34.1576 332.898C33.625 333.102 33.0262 333.205 32.3615 333.205ZM42.1702 333.205C41.2497 333.205 40.4571 332.987 39.7923 332.553C39.1276 332.118 38.6162 331.519 38.2582 330.756C37.9003 329.994 37.7213 329.122 37.7213 328.142C37.7213 327.145 37.9046 326.265 38.271 325.502C38.6418 324.735 39.1574 324.136 39.8179 323.706C40.4827 323.271 41.2582 323.054 42.1446 323.054C42.835 323.054 43.4571 323.182 44.0111 323.438C44.5651 323.693 45.0189 324.051 45.3726 324.511C45.7263 324.972 45.9457 325.509 46.031 326.122H44.5225C44.4074 325.675 44.1517 325.278 43.7554 324.933C43.3634 324.584 42.835 324.409 42.1702 324.409C41.5821 324.409 41.0665 324.562 40.6233 324.869C40.1844 325.172 39.8413 325.6 39.5942 326.154C39.3513 326.704 39.2298 327.349 39.2298 328.091C39.2298 328.849 39.3492 329.51 39.5878 330.072C39.8307 330.635 40.1716 331.072 40.6105 331.383C41.0537 331.694 41.5736 331.849 42.1702 331.849C42.5622 331.849 42.918 331.781 43.2376 331.645C43.5573 331.509 43.8278 331.312 44.0494 331.057C44.271 330.801 44.4287 330.494 44.5225 330.136H46.031C45.9457 330.716 45.7348 331.238 45.3982 331.702C45.0658 332.163 44.6247 332.529 44.075 332.802C43.5296 333.07 42.8946 333.205 42.1702 333.205ZM53.8837 328.986V323.182H55.3923V333H53.8837V331.338H53.7815C53.5513 331.837 53.1934 332.261 52.7076 332.61C52.2218 332.955 51.6082 333.128 50.8667 333.128C50.253 333.128 49.7076 332.994 49.2303 332.725C48.753 332.452 48.378 332.043 48.1053 331.498C47.8326 330.948 47.6962 330.256 47.6962 329.42V323.182H49.2048V329.318C49.2048 330.034 49.405 330.605 49.8056 331.031C50.2104 331.457 50.7261 331.67 51.3525 331.67C51.7275 331.67 52.1089 331.575 52.4967 331.383C52.8887 331.191 53.2168 330.897 53.481 330.501C53.7495 330.104 53.8837 329.599 53.8837 328.986ZM57.6152 333V323.182H59.0726V324.665H59.1749C59.3538 324.179 59.6777 323.785 60.1465 323.482C60.6152 323.18 61.1436 323.028 61.7317 323.028C61.8425 323.028 61.981 323.031 62.1472 323.035C62.3134 323.039 62.4391 323.045 62.5243 323.054V324.588C62.4732 324.575 62.356 324.556 62.1727 324.531C61.9938 324.501 61.8041 324.486 61.6038 324.486C61.1266 324.486 60.7004 324.586 60.3254 324.786C59.9547 324.982 59.6607 325.255 59.4433 325.604C59.2303 325.95 59.1237 326.344 59.1237 326.787V333H57.6152ZM63.7725 333V323.182H65.281V333H63.7725ZM64.5395 321.545C64.2455 321.545 63.9919 321.445 63.7789 321.245C63.5701 321.045 63.4657 320.804 63.4657 320.523C63.4657 320.241 63.5701 320.001 63.7789 319.8C63.9919 319.6 64.2455 319.5 64.5395 319.5C64.8336 319.5 65.085 319.6 65.2938 319.8C65.5069 320.001 65.6134 320.241 65.6134 320.523C65.6134 320.804 65.5069 321.045 65.2938 321.245C65.085 321.445 64.8336 321.545 64.5395 321.545ZM71.7738 323.182V324.46H66.6858V323.182H71.7738ZM68.1687 320.83H69.6773V330.188C69.6773 330.614 69.739 330.933 69.8626 331.146C69.9905 331.355 70.1524 331.496 70.3484 331.568C70.5487 331.636 70.7596 331.67 70.9812 331.67C71.1474 331.67 71.2838 331.662 71.3903 331.645C71.4969 331.624 71.5821 331.607 71.646 331.594L71.9528 332.949C71.8506 332.987 71.7078 333.026 71.5246 333.064C71.3413 333.107 71.1091 333.128 70.8278 333.128C70.4017 333.128 69.9841 333.036 69.575 332.853C69.1702 332.67 68.8335 332.391 68.565 332.016C68.3008 331.641 68.1687 331.168 68.1687 330.597V320.83ZM74.4746 336.682C74.2189 336.682 73.991 336.661 73.7907 336.618C73.5904 336.58 73.4519 336.541 73.3752 336.503L73.7587 335.173C74.1252 335.267 74.449 335.301 74.7303 335.276C75.0115 335.25 75.2608 335.124 75.4782 334.898C75.6998 334.677 75.9022 334.317 76.0854 333.818L76.3667 333.051L72.736 323.182H74.3723L77.0826 331.006H77.1848L79.8951 323.182H81.5314L77.3638 334.432C77.1763 334.939 76.9441 335.359 76.6671 335.691C76.3901 336.028 76.0684 336.277 75.7019 336.439C75.3397 336.601 74.9306 336.682 74.4746 336.682ZM94.4596 325.381L93.1045 325.764C93.0193 325.538 92.8936 325.319 92.7274 325.106C92.5654 324.888 92.3438 324.71 92.0626 324.569C91.7813 324.428 91.4212 324.358 90.9823 324.358C90.3815 324.358 89.8808 324.496 89.4802 324.773C89.0839 325.046 88.8857 325.393 88.8857 325.815C88.8857 326.19 89.0221 326.487 89.2948 326.704C89.5676 326.921 89.9937 327.102 90.5732 327.247L92.0306 327.605C92.9085 327.818 93.5626 328.144 93.993 328.583C94.4234 329.018 94.6386 329.578 94.6386 330.264C94.6386 330.827 94.4766 331.33 94.1528 331.773C93.8332 332.216 93.3857 332.565 92.8105 332.821C92.2352 333.077 91.5661 333.205 90.8034 333.205C89.8019 333.205 88.9731 332.987 88.3168 332.553C87.6606 332.118 87.2451 331.483 87.0704 330.648L88.5022 330.29C88.6386 330.818 88.8964 331.214 89.2757 331.479C89.6592 331.743 90.1599 331.875 90.7778 331.875C91.4809 331.875 92.0391 331.726 92.4525 331.428C92.8701 331.125 93.0789 330.763 93.0789 330.341C93.0789 330 92.9596 329.714 92.721 329.484C92.4823 329.25 92.1159 329.075 91.6215 328.96L89.9852 328.577C89.086 328.364 88.4255 328.033 88.0036 327.586C87.586 327.134 87.3772 326.57 87.3772 325.892C87.3772 325.338 87.5328 324.848 87.8438 324.422C88.1592 323.996 88.5874 323.661 89.1286 323.418C89.6741 323.175 90.292 323.054 90.9823 323.054C91.9539 323.054 92.7167 323.267 93.2707 323.693C93.8289 324.119 94.2252 324.682 94.4596 325.381ZM100.639 323.182V324.46H95.5512V323.182H100.639ZM97.0341 320.83H98.5426V330.188C98.5426 330.614 98.6044 330.933 98.728 331.146C98.8559 331.355 99.0178 331.496 99.2138 331.568C99.4141 331.636 99.625 331.67 99.8466 331.67C100.013 331.67 100.149 331.662 100.256 331.645C100.362 331.624 100.447 331.607 100.511 331.594L100.818 332.949C100.716 332.987 100.573 333.026 100.39 333.064C100.207 333.107 99.9745 333.128 99.6932 333.128C99.2671 333.128 98.8495 333.036 98.4404 332.853C98.0355 332.67 97.6989 332.391 97.4304 332.016C97.1662 331.641 97.0341 331.168 97.0341 330.597V320.83ZM102.368 333V323.182H103.826V324.665H103.928C104.107 324.179 104.431 323.785 104.9 323.482C105.368 323.18 105.897 323.028 106.485 323.028C106.596 323.028 106.734 323.031 106.9 323.035C107.067 323.039 107.192 323.045 107.278 323.054V324.588C107.226 324.575 107.109 324.556 106.926 324.531C106.747 324.501 106.557 324.486 106.357 324.486C105.88 324.486 105.454 324.586 105.079 324.786C104.708 324.982 104.414 325.255 104.197 325.604C103.983 325.95 103.877 326.344 103.877 326.787V333H102.368ZM111.415 333.23C110.793 333.23 110.228 333.113 109.721 332.879C109.214 332.64 108.811 332.297 108.513 331.849C108.215 331.398 108.065 330.852 108.065 330.213C108.065 329.651 108.176 329.195 108.398 328.845C108.619 328.491 108.916 328.214 109.286 328.014C109.657 327.814 110.066 327.665 110.514 327.567C110.965 327.464 111.419 327.384 111.875 327.324C112.472 327.247 112.955 327.19 113.326 327.151C113.701 327.109 113.974 327.038 114.144 326.94C114.319 326.842 114.406 326.672 114.406 326.429V326.378C114.406 325.747 114.234 325.257 113.889 324.908C113.548 324.558 113.03 324.384 112.335 324.384C111.615 324.384 111.051 324.541 110.641 324.857C110.232 325.172 109.945 325.509 109.779 325.866L108.347 325.355C108.602 324.759 108.943 324.294 109.369 323.962C109.8 323.625 110.269 323.391 110.776 323.259C111.287 323.122 111.79 323.054 112.284 323.054C112.6 323.054 112.962 323.092 113.371 323.169C113.784 323.241 114.183 323.393 114.566 323.623C114.954 323.853 115.276 324.2 115.531 324.665C115.787 325.129 115.915 325.751 115.915 326.531V333H114.406V331.67H114.33C114.227 331.884 114.057 332.112 113.818 332.354C113.58 332.597 113.262 332.804 112.866 332.974C112.47 333.145 111.986 333.23 111.415 333.23ZM111.645 331.875C112.242 331.875 112.744 331.758 113.154 331.523C113.567 331.289 113.878 330.987 114.087 330.616C114.3 330.245 114.406 329.855 114.406 329.446V328.065C114.342 328.142 114.202 328.212 113.984 328.276C113.771 328.336 113.524 328.389 113.243 328.436C112.966 328.479 112.695 328.517 112.431 328.551C112.171 328.581 111.96 328.607 111.798 328.628C111.406 328.679 111.04 328.762 110.699 328.877C110.362 328.988 110.09 329.156 109.881 329.382C109.676 329.604 109.574 329.906 109.574 330.29C109.574 330.814 109.768 331.21 110.156 331.479C110.548 331.743 111.044 331.875 111.645 331.875ZM122.398 323.182V324.46H117.31V323.182H122.398ZM118.793 320.83H120.302V330.188C120.302 330.614 120.363 330.933 120.487 331.146C120.615 331.355 120.777 331.496 120.973 331.568C121.173 331.636 121.384 331.67 121.606 331.67C121.772 331.67 121.908 331.662 122.015 331.645C122.121 331.624 122.206 331.607 122.27 331.594L122.577 332.949C122.475 332.987 122.332 333.026 122.149 333.064C121.966 333.107 121.733 333.128 121.452 333.128C121.026 333.128 120.608 333.036 120.199 332.853C119.794 332.67 119.458 332.391 119.189 332.016C118.925 331.641 118.793 331.168 118.793 330.597V320.83ZM128.138 333.205C127.192 333.205 126.376 332.996 125.69 332.578C125.008 332.156 124.482 331.568 124.111 330.814C123.745 330.055 123.562 329.173 123.562 328.168C123.562 327.162 123.745 326.276 124.111 325.509C124.482 324.737 124.998 324.136 125.658 323.706C126.323 323.271 127.099 323.054 127.985 323.054C128.496 323.054 129.001 323.139 129.5 323.31C129.998 323.48 130.452 323.757 130.861 324.141C131.27 324.52 131.596 325.023 131.839 325.649C132.082 326.276 132.204 327.047 132.204 327.963V328.602H124.635V327.298H130.67C130.67 326.744 130.559 326.25 130.337 325.815C130.12 325.381 129.809 325.038 129.404 324.786C129.003 324.535 128.53 324.409 127.985 324.409C127.384 324.409 126.864 324.558 126.425 324.857C125.991 325.151 125.656 325.534 125.422 326.007C125.187 326.48 125.07 326.987 125.07 327.528V328.398C125.07 329.139 125.198 329.768 125.454 330.283C125.714 330.795 126.074 331.185 126.534 331.453C126.994 331.717 127.529 331.849 128.138 331.849C128.535 331.849 128.893 331.794 129.212 331.683C129.536 331.568 129.815 331.398 130.05 331.172C130.284 330.942 130.465 330.656 130.593 330.315L132.05 330.724C131.897 331.219 131.639 331.653 131.277 332.028C130.915 332.399 130.467 332.689 129.934 332.898C129.402 333.102 128.803 333.205 128.138 333.205ZM137.921 336.886C137.193 336.886 136.566 336.793 136.042 336.605C135.518 336.422 135.081 336.179 134.732 335.876C134.387 335.578 134.112 335.259 133.907 334.918L135.109 334.074C135.245 334.253 135.418 334.457 135.627 334.688C135.836 334.922 136.121 335.124 136.483 335.295C136.85 335.469 137.329 335.557 137.921 335.557C138.714 335.557 139.368 335.365 139.884 334.982C140.399 334.598 140.657 333.997 140.657 333.179V331.185H140.529C140.419 331.364 140.261 331.585 140.056 331.849C139.856 332.109 139.566 332.342 139.187 332.546C138.812 332.746 138.305 332.847 137.666 332.847C136.873 332.847 136.162 332.659 135.531 332.284C134.904 331.909 134.408 331.364 134.042 330.648C133.679 329.932 133.498 329.062 133.498 328.04C133.498 327.034 133.675 326.158 134.029 325.413C134.382 324.663 134.875 324.083 135.505 323.674C136.136 323.261 136.865 323.054 137.691 323.054C138.331 323.054 138.838 323.161 139.213 323.374C139.592 323.582 139.882 323.821 140.082 324.089C140.287 324.354 140.444 324.571 140.555 324.741H140.708V323.182H142.166V333.281C142.166 334.125 141.974 334.811 141.591 335.339C141.211 335.872 140.7 336.262 140.056 336.509C139.417 336.761 138.706 336.886 137.921 336.886ZM137.87 331.491C138.475 331.491 138.987 331.353 139.404 331.076C139.822 330.799 140.14 330.401 140.357 329.881C140.574 329.361 140.683 328.739 140.683 328.014C140.683 327.307 140.576 326.683 140.363 326.141C140.15 325.6 139.835 325.176 139.417 324.869C139 324.562 138.484 324.409 137.87 324.409C137.231 324.409 136.698 324.571 136.272 324.895C135.85 325.219 135.533 325.653 135.32 326.199C135.111 326.744 135.007 327.349 135.007 328.014C135.007 328.696 135.113 329.299 135.326 329.823C135.544 330.343 135.863 330.752 136.285 331.05C136.711 331.344 137.24 331.491 137.87 331.491ZM144.387 333V323.182H145.896V333H144.387ZM145.154 321.545C144.86 321.545 144.607 321.445 144.394 321.245C144.185 321.045 144.08 320.804 144.08 320.523C144.08 320.241 144.185 320.001 144.394 319.8C144.607 319.6 144.86 319.5 145.154 319.5C145.448 319.5 145.7 319.6 145.908 319.8C146.122 320.001 146.228 320.241 146.228 320.523C146.228 320.804 146.122 321.045 145.908 321.245C145.7 321.445 145.448 321.545 145.154 321.545ZM152.235 333.205C151.289 333.205 150.473 332.996 149.787 332.578C149.105 332.156 148.579 331.568 148.208 330.814C147.842 330.055 147.658 329.173 147.658 328.168C147.658 327.162 147.842 326.276 148.208 325.509C148.579 324.737 149.094 324.136 149.755 323.706C150.42 323.271 151.195 323.054 152.082 323.054C152.593 323.054 153.098 323.139 153.597 323.31C154.095 323.48 154.549 323.757 154.958 324.141C155.367 324.52 155.693 325.023 155.936 325.649C156.179 326.276 156.3 327.047 156.3 327.963V328.602H148.732V327.298H154.766C154.766 326.744 154.656 326.25 154.434 325.815C154.217 325.381 153.906 325.038 153.501 324.786C153.1 324.535 152.627 324.409 152.082 324.409C151.481 324.409 150.961 324.558 150.522 324.857C150.087 325.151 149.753 325.534 149.519 326.007C149.284 326.48 149.167 326.987 149.167 327.528V328.398C149.167 329.139 149.295 329.768 149.55 330.283C149.81 330.795 150.17 331.185 150.631 331.453C151.091 331.717 151.626 331.849 152.235 331.849C152.631 331.849 152.989 331.794 153.309 331.683C153.633 331.568 153.912 331.398 154.146 331.172C154.381 330.942 154.562 330.656 154.69 330.315L156.147 330.724C155.994 331.219 155.736 331.653 155.374 332.028C155.011 332.399 154.564 332.689 154.031 332.898C153.499 333.102 152.9 333.205 152.235 333.205ZM165.01 325.381L163.655 325.764C163.569 325.538 163.444 325.319 163.278 325.106C163.116 324.888 162.894 324.71 162.613 324.569C162.331 324.428 161.971 324.358 161.532 324.358C160.932 324.358 160.431 324.496 160.03 324.773C159.634 325.046 159.436 325.393 159.436 325.815C159.436 326.19 159.572 326.487 159.845 326.704C160.118 326.921 160.544 327.102 161.123 327.247L162.581 327.605C163.459 327.818 164.113 328.144 164.543 328.583C164.974 329.018 165.189 329.578 165.189 330.264C165.189 330.827 165.027 331.33 164.703 331.773C164.383 332.216 163.936 332.565 163.361 332.821C162.785 333.077 162.116 333.205 161.354 333.205C160.352 333.205 159.523 332.987 158.867 332.553C158.211 332.118 157.795 331.483 157.621 330.648L159.052 330.29C159.189 330.818 159.447 331.214 159.826 331.479C160.209 331.743 160.71 331.875 161.328 331.875C162.031 331.875 162.589 331.726 163.003 331.428C163.42 331.125 163.629 330.763 163.629 330.341C163.629 330 163.51 329.714 163.271 329.484C163.032 329.25 162.666 329.075 162.172 328.96L160.535 328.577C159.636 328.364 158.976 328.033 158.554 327.586C158.136 327.134 157.927 326.57 157.927 325.892C157.927 325.338 158.083 324.848 158.394 324.422C158.709 323.996 159.138 323.661 159.679 323.418C160.224 323.175 160.842 323.054 161.532 323.054C162.504 323.054 163.267 323.267 163.821 323.693C164.379 324.119 164.775 324.682 165.01 325.381Z" fill="#091F5B"/>
</svg>
