<svg width="40" height="40" viewBox="0 0 40 40" fill="none" xmlns="http://www.w3.org/2000/svg">
<path d="M20.0001 31.2449C20.0001 32.8661 21.328 34.2108 22.9146 33.8776C24.1089 33.6268 25.2699 33.222 26.3677 32.6704C28.3435 31.6775 30.0598 30.2364 31.3794 28.4621C32.699 26.6878 33.5855 24.6295 33.968 22.4516C34.3505 20.2737 34.2184 18.0366 33.5823 15.9188C32.9461 13.8011 31.8236 11.8614 30.3043 10.2547C28.785 8.64807 26.9111 7.41895 24.8322 6.66551C22.7533 5.91208 20.527 5.65522 18.3311 5.91544C17.1111 6.06002 15.9192 6.36201 14.7843 6.81084C13.2768 7.40707 12.9096 9.26094 13.8029 10.6138C14.6963 11.9666 16.5238 12.2776 18.1021 11.9073C18.4047 11.8364 18.7118 11.7822 19.022 11.7455C20.3089 11.593 21.6135 11.7435 22.8318 12.185C24.0501 12.6266 25.1483 13.3469 26.0386 14.2884C26.929 15.23 27.5868 16.3667 27.9596 17.6077C28.3324 18.8488 28.4098 20.1598 28.1856 21.4361C27.9615 22.7125 27.442 23.9187 26.6687 24.9584C25.8953 25.9982 24.8895 26.8428 23.7317 27.4246C23.4526 27.5649 23.1665 27.6889 22.8748 27.7964C21.3537 28.3572 20.0001 29.6237 20.0001 31.2449Z" fill="url(#paint0_linear_1_1061)"/>
<path d="M27.0342 28.7749C28.0482 30.0399 27.8531 31.9196 26.4068 32.652C25.2831 33.221 24.0847 33.6398 22.8422 33.894C20.6369 34.3451 18.3558 34.2648 16.1877 33.6597C14.0196 33.0546 12.0266 31.942 10.3736 30.4141C8.72062 28.8861 7.4551 26.9866 6.68169 24.8726C5.90827 22.7587 5.64918 20.491 5.92584 18.257C6.20249 16.0231 7.00695 13.8871 8.27268 12.0257C9.53842 10.1642 11.2291 8.63082 13.2049 7.55225C14.318 6.94457 15.5037 6.49111 16.7293 6.20062C18.3068 5.82672 19.6689 7.13679 19.7106 8.75744C19.7523 10.3781 18.4317 11.679 16.9255 12.2787C16.6155 12.4022 16.3123 12.5445 16.0179 12.7053C14.86 13.3374 13.8692 14.236 13.1275 15.3268C12.3857 16.4177 11.9143 17.6694 11.7522 18.9786C11.59 20.2877 11.7419 21.6167 12.1951 22.8555C12.6484 24.0943 13.39 25.2075 14.3587 26.1029C15.3274 26.9984 16.4953 27.6503 17.7659 28.0049C19.0365 28.3596 20.3732 28.4066 21.6656 28.1422C21.9943 28.075 22.3177 27.9881 22.6342 27.8823C24.1718 27.3685 26.0202 27.51 27.0342 28.7749Z" fill="url(#paint1_linear_1_1061)"/>
<defs>
<linearGradient id="paint0_linear_1_1061" x1="20.0001" y1="5.81689" x2="21.3082" y2="31.8542" gradientUnits="userSpaceOnUse">
<stop stop-color="white"/>
<stop offset="1" stop-color="white" stop-opacity="0"/>
</linearGradient>
<linearGradient id="paint1_linear_1_1061" x1="13.8967" y1="27.0806" x2="22.0921" y2="13.7541" gradientUnits="userSpaceOnUse">
<stop stop-color="white"/>
<stop offset="1" stop-color="white" stop-opacity="0"/>
</linearGradient>
</defs>
</svg>
